<svg xmlns="http://www.w3.org/2000/svg" xmlns:xlink="http://www.w3.org/1999/xlink" width="150" zoomAndPan="magnify" viewBox="0 0 112.5 112.499997" height="150" preserveAspectRatio="xMidYMid meet" version="1.0"><defs><g/><clipPath id="9084c3d5d3"><path d="M 0 0 L 112.003906 0 L 112.003906 112.003906 L 0 112.003906 Z M 0 0 " clip-rule="nonzero"/></clipPath><clipPath id="c8d344c584"><path d="M 53 13 L 65.476562 13 L 65.476562 25.8125 L 53 25.8125 Z M 53 13 " clip-rule="nonzero"/></clipPath><clipPath id="7c10ba6e9e"><path d="M 46.726562 12 L 50 12 L 50 14 L 46.726562 14 Z M 46.726562 12 " clip-rule="nonzero"/></clipPath><clipPath id="d237387db8"><path d="M 52 7.0625 L 54 7.0625 L 54 11 L 52 11 Z M 52 7.0625 " clip-rule="nonzero"/></clipPath></defs><g clip-path="url(#9084c3d5d3)"><path fill="#ffffff" d="M -0.121094 0 L 112.621094 0 L 112.621094 112.640625 L -0.121094 112.640625 Z M -0.121094 0 " fill-opacity="1" fill-rule="nonzero"/></g><g fill="#000000" fill-opacity="1"><g transform="translate(40.076155, 42.128518)"><g><path d="M 3.34375 0.109375 C 2.820312 0.109375 2.359375 0.046875 1.953125 -0.078125 C 1.546875 -0.210938 1.203125 -0.382812 0.921875 -0.59375 C 0.648438 -0.800781 0.445312 -1.03125 0.3125 -1.28125 L 1.125 -2.28125 L 1.25 -2.28125 C 1.476562 -1.945312 1.765625 -1.679688 2.109375 -1.484375 C 2.460938 -1.285156 2.875 -1.1875 3.34375 -1.1875 C 3.75 -1.1875 4.050781 -1.269531 4.25 -1.4375 C 4.457031 -1.601562 4.5625 -1.835938 4.5625 -2.140625 C 4.5625 -2.316406 4.523438 -2.460938 4.453125 -2.578125 C 4.390625 -2.703125 4.28125 -2.804688 4.125 -2.890625 C 3.976562 -2.972656 3.773438 -3.046875 3.515625 -3.109375 L 2.546875 -3.34375 C 1.867188 -3.488281 1.363281 -3.742188 1.03125 -4.109375 C 0.695312 -4.472656 0.53125 -4.941406 0.53125 -5.515625 C 0.53125 -5.941406 0.632812 -6.316406 0.84375 -6.640625 C 1.0625 -6.960938 1.375 -7.210938 1.78125 -7.390625 C 2.1875 -7.566406 2.675781 -7.65625 3.25 -7.65625 C 3.832031 -7.65625 4.328125 -7.578125 4.734375 -7.421875 C 5.148438 -7.273438 5.503906 -7.039062 5.796875 -6.71875 L 5.0625 -5.71875 L 4.921875 -5.71875 C 4.710938 -5.9375 4.46875 -6.101562 4.1875 -6.21875 C 3.914062 -6.332031 3.601562 -6.390625 3.25 -6.390625 C 2.84375 -6.390625 2.53125 -6.316406 2.3125 -6.171875 C 2.101562 -6.023438 2 -5.820312 2 -5.5625 C 2 -5.332031 2.070312 -5.144531 2.21875 -5 C 2.363281 -4.851562 2.625 -4.742188 3 -4.671875 L 3.984375 -4.46875 C 4.722656 -4.3125 5.253906 -4.046875 5.578125 -3.671875 C 5.910156 -3.304688 6.078125 -2.820312 6.078125 -2.21875 C 6.078125 -1.75 5.972656 -1.335938 5.765625 -0.984375 C 5.566406 -0.640625 5.257812 -0.367188 4.84375 -0.171875 C 4.4375 0.015625 3.9375 0.109375 3.34375 0.109375 Z M 3.34375 0.109375 "/></g></g></g><g fill="#000000" fill-opacity="1"><g transform="translate(46.565916, 42.128518)"><g><path d="M 3.9375 -1.359375 L 4.296875 -0.296875 C 4.140625 -0.171875 3.945312 -0.0703125 3.71875 0 C 3.488281 0.0703125 3.222656 0.109375 2.921875 0.109375 C 2.304688 0.109375 1.835938 -0.0546875 1.515625 -0.390625 C 1.191406 -0.734375 1.03125 -1.222656 1.03125 -1.859375 L 1.03125 -4.5625 L 0.171875 -4.5625 L 0.171875 -5.703125 L 1.03125 -5.703125 L 1.03125 -6.8125 L 2.46875 -7.046875 L 2.46875 -5.703125 L 4.078125 -5.703125 L 4.078125 -4.5625 L 2.46875 -4.5625 L 2.46875 -1.96875 C 2.46875 -1.6875 2.523438 -1.476562 2.640625 -1.34375 C 2.753906 -1.21875 2.925781 -1.15625 3.15625 -1.15625 C 3.40625 -1.15625 3.628906 -1.222656 3.828125 -1.359375 Z M 3.9375 -1.359375 "/></g></g></g><g fill="#000000" fill-opacity="1"><g transform="translate(50.994047, 42.128518)"><g><path d="M 5.625 -2.53125 L 1.96875 -2.53125 C 2.007812 -2.03125 2.148438 -1.664062 2.390625 -1.4375 C 2.628906 -1.21875 2.957031 -1.109375 3.375 -1.109375 C 3.707031 -1.109375 3.972656 -1.164062 4.171875 -1.28125 C 4.378906 -1.40625 4.546875 -1.59375 4.671875 -1.84375 L 4.765625 -1.84375 L 5.71875 -1.234375 C 5.53125 -0.835938 5.25 -0.515625 4.875 -0.265625 C 4.5 -0.015625 4 0.109375 3.375 0.109375 C 2.789062 0.109375 2.28125 0 1.84375 -0.21875 C 1.414062 -0.445312 1.085938 -0.78125 0.859375 -1.21875 C 0.628906 -1.664062 0.515625 -2.207031 0.515625 -2.84375 C 0.515625 -3.488281 0.632812 -4.035156 0.875 -4.484375 C 1.125 -4.929688 1.457031 -5.265625 1.875 -5.484375 C 2.289062 -5.703125 2.757812 -5.8125 3.28125 -5.8125 C 4.082031 -5.8125 4.695312 -5.597656 5.125 -5.171875 C 5.550781 -4.742188 5.765625 -4.113281 5.765625 -3.28125 C 5.765625 -2.976562 5.753906 -2.75 5.734375 -2.59375 Z M 4.40625 -3.453125 C 4.382812 -3.878906 4.28125 -4.191406 4.09375 -4.390625 C 3.90625 -4.585938 3.632812 -4.6875 3.28125 -4.6875 C 2.550781 -4.6875 2.125 -4.273438 2 -3.453125 Z M 4.40625 -3.453125 "/></g></g></g><g fill="#000000" fill-opacity="1"><g transform="translate(57.189294, 42.128518)"><g><path d="M 0.828125 2.3125 L 0.828125 -5.703125 L 2.25 -5.703125 L 2.25 -4.953125 L 2.359375 -4.9375 C 2.523438 -5.21875 2.75 -5.429688 3.03125 -5.578125 C 3.3125 -5.734375 3.644531 -5.8125 4.03125 -5.8125 C 4.488281 -5.8125 4.890625 -5.703125 5.234375 -5.484375 C 5.578125 -5.265625 5.84375 -4.929688 6.03125 -4.484375 C 6.21875 -4.046875 6.3125 -3.5 6.3125 -2.84375 C 6.3125 -2.195312 6.210938 -1.648438 6.015625 -1.203125 C 5.816406 -0.765625 5.535156 -0.4375 5.171875 -0.21875 C 4.816406 0 4.40625 0.109375 3.9375 0.109375 C 3.582031 0.109375 3.273438 0.0507812 3.015625 -0.0625 C 2.753906 -0.1875 2.535156 -0.375 2.359375 -0.625 L 2.25 -0.609375 L 2.25 2.3125 Z M 3.53125 -1.109375 C 3.957031 -1.109375 4.28125 -1.242188 4.5 -1.515625 C 4.726562 -1.796875 4.84375 -2.238281 4.84375 -2.84375 C 4.84375 -3.445312 4.726562 -3.890625 4.5 -4.171875 C 4.28125 -4.453125 3.957031 -4.59375 3.53125 -4.59375 C 3.132812 -4.59375 2.816406 -4.445312 2.578125 -4.15625 C 2.347656 -3.863281 2.234375 -3.425781 2.234375 -2.84375 C 2.234375 -2.257812 2.347656 -1.820312 2.578125 -1.53125 C 2.816406 -1.25 3.132812 -1.109375 3.53125 -1.109375 Z M 3.53125 -1.109375 "/></g></g></g><g fill="#000000" fill-opacity="1"><g transform="translate(64.014916, 42.128518)"><g/></g></g><g fill="#000000" fill-opacity="1"><g transform="translate(66.510586, 42.128518)"><g><path d="M 0.359375 -0.59375 C 0.359375 -1.007812 0.40625 -1.359375 0.5 -1.640625 C 0.59375 -1.929688 0.742188 -2.195312 0.953125 -2.4375 C 1.160156 -2.675781 1.453125 -2.929688 1.828125 -3.203125 L 2.828125 -3.921875 C 3.109375 -4.117188 3.320312 -4.289062 3.46875 -4.4375 C 3.625 -4.582031 3.738281 -4.734375 3.8125 -4.890625 C 3.894531 -5.046875 3.9375 -5.226562 3.9375 -5.4375 C 3.9375 -5.738281 3.84375 -5.972656 3.65625 -6.140625 C 3.476562 -6.304688 3.203125 -6.390625 2.828125 -6.390625 C 2.460938 -6.390625 2.140625 -6.304688 1.859375 -6.140625 C 1.585938 -5.972656 1.359375 -5.738281 1.171875 -5.4375 L 1.078125 -5.40625 L 0.265625 -6.328125 C 0.523438 -6.734375 0.867188 -7.054688 1.296875 -7.296875 C 1.734375 -7.535156 2.257812 -7.65625 2.875 -7.65625 C 3.445312 -7.65625 3.921875 -7.5625 4.296875 -7.375 C 4.679688 -7.195312 4.960938 -6.945312 5.140625 -6.625 C 5.328125 -6.300781 5.421875 -5.929688 5.421875 -5.515625 C 5.421875 -5.148438 5.34375 -4.816406 5.1875 -4.515625 C 5.039062 -4.222656 4.832031 -3.953125 4.5625 -3.703125 C 4.300781 -3.453125 3.96875 -3.179688 3.5625 -2.890625 L 2.671875 -2.265625 C 2.398438 -2.078125 2.207031 -1.90625 2.09375 -1.75 C 1.988281 -1.601562 1.9375 -1.4375 1.9375 -1.25 L 5.34375 -1.25 L 5.34375 0 L 0.359375 0 Z M 0.359375 -0.59375 "/></g></g></g><g fill="#000000" fill-opacity="1"><g transform="translate(8.195832, 64.008762)"><g><path d="M 3.3125 0.09375 C 2.789062 0.09375 2.328125 -0.0195312 1.921875 -0.25 C 1.515625 -0.476562 1.191406 -0.820312 0.953125 -1.28125 C 0.722656 -1.75 0.609375 -2.328125 0.609375 -3.015625 C 0.609375 -3.710938 0.722656 -4.289062 0.953125 -4.75 C 1.191406 -5.21875 1.515625 -5.5625 1.921875 -5.78125 C 2.328125 -6.007812 2.789062 -6.125 3.3125 -6.125 C 3.84375 -6.125 4.3125 -6.007812 4.71875 -5.78125 C 5.125 -5.5625 5.441406 -5.21875 5.671875 -4.75 C 5.910156 -4.289062 6.03125 -3.710938 6.03125 -3.015625 C 6.03125 -2.328125 5.910156 -1.75 5.671875 -1.28125 C 5.441406 -0.820312 5.125 -0.476562 4.71875 -0.25 C 4.3125 -0.0195312 3.84375 0.09375 3.3125 0.09375 Z M 3.3125 -0.578125 C 3.945312 -0.578125 4.429688 -0.769531 4.765625 -1.15625 C 5.097656 -1.550781 5.265625 -2.171875 5.265625 -3.015625 C 5.265625 -3.867188 5.097656 -4.488281 4.765625 -4.875 C 4.429688 -5.269531 3.945312 -5.46875 3.3125 -5.46875 C 2.007812 -5.46875 1.359375 -4.648438 1.359375 -3.015625 C 1.359375 -1.390625 2.007812 -0.578125 3.3125 -0.578125 Z M 3.3125 -0.578125 "/></g></g><g transform="translate(14.827193, 64.008762)"><g><path d="M 0.796875 1.84375 L 0.796875 -4.5625 L 1.46875 -4.5625 L 1.46875 -3.875 L 1.5625 -3.859375 C 1.894531 -4.378906 2.390625 -4.640625 3.046875 -4.640625 C 3.429688 -4.640625 3.765625 -4.550781 4.046875 -4.375 C 4.328125 -4.207031 4.546875 -3.945312 4.703125 -3.59375 C 4.859375 -3.238281 4.9375 -2.800781 4.9375 -2.28125 C 4.9375 -1.757812 4.851562 -1.320312 4.6875 -0.96875 C 4.519531 -0.613281 4.289062 -0.347656 4 -0.171875 C 3.707031 0.00390625 3.375 0.09375 3 0.09375 C 2.6875 0.09375 2.410156 0.0390625 2.171875 -0.0625 C 1.929688 -0.175781 1.726562 -0.359375 1.5625 -0.609375 L 1.46875 -0.59375 L 1.46875 1.84375 Z M 2.84375 -0.515625 C 3.769531 -0.515625 4.234375 -1.101562 4.234375 -2.28125 C 4.234375 -3.457031 3.769531 -4.046875 2.84375 -4.046875 C 2.570312 -4.046875 2.332031 -3.984375 2.125 -3.859375 C 1.925781 -3.734375 1.765625 -3.535156 1.640625 -3.265625 C 1.523438 -3.003906 1.46875 -2.675781 1.46875 -2.28125 C 1.46875 -1.875 1.523438 -1.539062 1.640625 -1.28125 C 1.765625 -1.019531 1.925781 -0.828125 2.125 -0.703125 C 2.332031 -0.578125 2.570312 -0.515625 2.84375 -0.515625 Z M 2.84375 -0.515625 "/></g></g><g transform="translate(20.267885, 64.008762)"><g><path d="M 4.34375 -2.125 L 1.21875 -2.125 C 1.226562 -1.570312 1.359375 -1.164062 1.609375 -0.90625 C 1.859375 -0.644531 2.195312 -0.515625 2.625 -0.515625 C 2.945312 -0.515625 3.207031 -0.570312 3.40625 -0.6875 C 3.601562 -0.800781 3.757812 -0.984375 3.875 -1.234375 L 3.96875 -1.234375 L 4.40625 -0.96875 C 4.269531 -0.644531 4.054688 -0.382812 3.765625 -0.1875 C 3.472656 0 3.09375 0.09375 2.625 0.09375 C 2.1875 0.09375 1.804688 0.00390625 1.484375 -0.171875 C 1.171875 -0.347656 0.925781 -0.613281 0.75 -0.96875 C 0.582031 -1.320312 0.5 -1.757812 0.5 -2.28125 C 0.5 -2.800781 0.585938 -3.238281 0.765625 -3.59375 C 0.953125 -3.945312 1.203125 -4.207031 1.515625 -4.375 C 1.828125 -4.550781 2.179688 -4.640625 2.578125 -4.640625 C 3.171875 -4.640625 3.628906 -4.472656 3.953125 -4.140625 C 4.273438 -3.816406 4.441406 -3.332031 4.453125 -2.6875 C 4.453125 -2.4375 4.445312 -2.265625 4.4375 -2.171875 Z M 3.78125 -2.6875 C 3.769531 -3.175781 3.660156 -3.53125 3.453125 -3.75 C 3.253906 -3.96875 2.960938 -4.078125 2.578125 -4.078125 C 2.179688 -4.078125 1.867188 -3.960938 1.640625 -3.734375 C 1.410156 -3.515625 1.273438 -3.164062 1.234375 -2.6875 Z M 3.78125 -2.6875 "/></g></g><g transform="translate(25.12978, 64.008762)"><g><path d="M 0.796875 0 L 0.796875 -4.5625 L 1.4375 -4.5625 L 1.4375 -3.84375 L 1.515625 -3.828125 C 1.671875 -4.085938 1.863281 -4.285156 2.09375 -4.421875 C 2.332031 -4.566406 2.625 -4.640625 2.96875 -4.640625 C 3.507812 -4.640625 3.90625 -4.5 4.15625 -4.21875 C 4.40625 -3.945312 4.53125 -3.519531 4.53125 -2.9375 L 4.53125 0 L 3.859375 0 L 3.859375 -2.921875 C 3.859375 -3.191406 3.820312 -3.410156 3.75 -3.578125 C 3.675781 -3.742188 3.566406 -3.863281 3.421875 -3.9375 C 3.273438 -4.019531 3.082031 -4.0625 2.84375 -4.0625 C 2.425781 -4.0625 2.09375 -3.925781 1.84375 -3.65625 C 1.59375 -3.382812 1.46875 -2.945312 1.46875 -2.34375 L 1.46875 0 Z M 0.796875 0 "/></g></g><g transform="translate(30.380296, 64.008762)"><g/></g><g transform="translate(32.455697, 64.008762)"><g><path d="M 1.875 0.09375 C 1.425781 0.09375 1.078125 -0.0195312 0.828125 -0.25 C 0.578125 -0.488281 0.453125 -0.828125 0.453125 -1.265625 C 0.453125 -1.535156 0.503906 -1.765625 0.609375 -1.953125 C 0.722656 -2.140625 0.894531 -2.289062 1.125 -2.40625 C 1.363281 -2.519531 1.675781 -2.609375 2.0625 -2.671875 C 2.382812 -2.734375 2.628906 -2.796875 2.796875 -2.859375 C 2.972656 -2.929688 3.09375 -3.007812 3.15625 -3.09375 C 3.21875 -3.175781 3.25 -3.285156 3.25 -3.421875 C 3.25 -3.628906 3.175781 -3.785156 3.03125 -3.890625 C 2.882812 -4.003906 2.65625 -4.0625 2.34375 -4.0625 C 2.050781 -4.0625 1.800781 -4.003906 1.59375 -3.890625 C 1.382812 -3.773438 1.191406 -3.601562 1.015625 -3.375 L 0.921875 -3.375 L 0.59375 -3.84375 C 0.789062 -4.09375 1.035156 -4.285156 1.328125 -4.421875 C 1.628906 -4.566406 1.96875 -4.640625 2.34375 -4.640625 C 2.882812 -4.640625 3.28125 -4.519531 3.53125 -4.28125 C 3.789062 -4.050781 3.921875 -3.726562 3.921875 -3.3125 L 3.921875 -0.890625 C 3.921875 -0.640625 4.03125 -0.515625 4.25 -0.515625 C 4.3125 -0.515625 4.378906 -0.523438 4.453125 -0.546875 L 4.5 -0.53125 L 4.578125 -0.0625 C 4.535156 -0.03125 4.472656 -0.0078125 4.390625 0 C 4.304688 0.0195312 4.222656 0.03125 4.140625 0.03125 C 3.890625 0.03125 3.695312 -0.0195312 3.5625 -0.125 C 3.4375 -0.238281 3.359375 -0.40625 3.328125 -0.625 L 3.234375 -0.625 C 3.109375 -0.382812 2.929688 -0.203125 2.703125 -0.078125 C 2.484375 0.0351562 2.207031 0.09375 1.875 0.09375 Z M 2.03125 -0.453125 C 2.28125 -0.453125 2.5 -0.507812 2.6875 -0.625 C 2.875 -0.738281 3.015625 -0.898438 3.109375 -1.109375 C 3.210938 -1.328125 3.265625 -1.578125 3.265625 -1.859375 L 3.265625 -2.4375 L 3.1875 -2.453125 C 3.082031 -2.378906 2.957031 -2.316406 2.8125 -2.265625 C 2.664062 -2.222656 2.460938 -2.179688 2.203125 -2.140625 C 1.941406 -2.109375 1.734375 -2.050781 1.578125 -1.96875 C 1.421875 -1.894531 1.304688 -1.800781 1.234375 -1.6875 C 1.171875 -1.570312 1.140625 -1.429688 1.140625 -1.265625 C 1.140625 -1.003906 1.21875 -0.800781 1.375 -0.65625 C 1.53125 -0.519531 1.75 -0.453125 2.03125 -0.453125 Z M 2.03125 -0.453125 "/></g></g><g transform="translate(37.172893, 64.008762)"><g/></g><g transform="translate(39.248294, 64.008762)"><g><path d="M 2.265625 0 L 1.40625 0 L 0.296875 -4.5625 L 0.953125 -4.5625 L 1.828125 -0.78125 L 1.90625 -0.78125 L 2.96875 -4.5625 L 3.6875 -4.5625 L 4.78125 -0.78125 L 4.859375 -0.78125 L 5.703125 -4.5625 L 6.359375 -4.5625 L 5.25 0 L 4.390625 0 L 3.359375 -3.546875 L 3.265625 -3.546875 Z M 2.265625 0 "/></g></g><g transform="translate(45.896192, 64.008762)"><g><path d="M 4.34375 -2.125 L 1.21875 -2.125 C 1.226562 -1.570312 1.359375 -1.164062 1.609375 -0.90625 C 1.859375 -0.644531 2.195312 -0.515625 2.625 -0.515625 C 2.945312 -0.515625 3.207031 -0.570312 3.40625 -0.6875 C 3.601562 -0.800781 3.757812 -0.984375 3.875 -1.234375 L 3.96875 -1.234375 L 4.40625 -0.96875 C 4.269531 -0.644531 4.054688 -0.382812 3.765625 -0.1875 C 3.472656 0 3.09375 0.09375 2.625 0.09375 C 2.1875 0.09375 1.804688 0.00390625 1.484375 -0.171875 C 1.171875 -0.347656 0.925781 -0.613281 0.75 -0.96875 C 0.582031 -1.320312 0.5 -1.757812 0.5 -2.28125 C 0.5 -2.800781 0.585938 -3.238281 0.765625 -3.59375 C 0.953125 -3.945312 1.203125 -4.207031 1.515625 -4.375 C 1.828125 -4.550781 2.179688 -4.640625 2.578125 -4.640625 C 3.171875 -4.640625 3.628906 -4.472656 3.953125 -4.140625 C 4.273438 -3.816406 4.441406 -3.332031 4.453125 -2.6875 C 4.453125 -2.4375 4.445312 -2.265625 4.4375 -2.171875 Z M 3.78125 -2.6875 C 3.769531 -3.175781 3.660156 -3.53125 3.453125 -3.75 C 3.253906 -3.96875 2.960938 -4.078125 2.578125 -4.078125 C 2.179688 -4.078125 1.867188 -3.960938 1.640625 -3.734375 C 1.410156 -3.515625 1.273438 -3.164062 1.234375 -2.6875 Z M 3.78125 -2.6875 "/></g></g><g transform="translate(50.758087, 64.008762)"><g><path d="M 3.03125 0.09375 C 2.6875 0.09375 2.390625 0.0234375 2.140625 -0.109375 C 1.898438 -0.242188 1.707031 -0.414062 1.5625 -0.625 L 1.46875 -0.609375 L 1.46875 0 L 0.796875 0 L 0.796875 -6.390625 L 1.46875 -6.390625 L 1.46875 -3.875 L 1.5625 -3.859375 C 1.90625 -4.378906 2.40625 -4.640625 3.0625 -4.640625 C 3.4375 -4.640625 3.765625 -4.550781 4.046875 -4.375 C 4.328125 -4.207031 4.546875 -3.945312 4.703125 -3.59375 C 4.859375 -3.238281 4.9375 -2.800781 4.9375 -2.28125 C 4.9375 -1.757812 4.851562 -1.320312 4.6875 -0.96875 C 4.53125 -0.613281 4.304688 -0.347656 4.015625 -0.171875 C 3.734375 0.00390625 3.40625 0.09375 3.03125 0.09375 Z M 2.875 -0.515625 C 3.78125 -0.515625 4.234375 -1.101562 4.234375 -2.28125 C 4.234375 -2.882812 4.113281 -3.328125 3.875 -3.609375 C 3.632812 -3.898438 3.300781 -4.046875 2.875 -4.046875 C 2.445312 -4.046875 2.101562 -3.898438 1.84375 -3.609375 C 1.59375 -3.316406 1.46875 -2.875 1.46875 -2.28125 C 1.46875 -1.6875 1.59375 -1.242188 1.84375 -0.953125 C 2.101562 -0.660156 2.445312 -0.515625 2.875 -0.515625 Z M 2.875 -0.515625 "/></g></g><g transform="translate(56.19878, 64.008762)"><g/></g><g transform="translate(58.274181, 64.008762)"><g><path d="M 3.03125 0.09375 C 2.6875 0.09375 2.390625 0.0234375 2.140625 -0.109375 C 1.898438 -0.242188 1.707031 -0.414062 1.5625 -0.625 L 1.46875 -0.609375 L 1.46875 0 L 0.796875 0 L 0.796875 -6.390625 L 1.46875 -6.390625 L 1.46875 -3.875 L 1.5625 -3.859375 C 1.90625 -4.378906 2.40625 -4.640625 3.0625 -4.640625 C 3.4375 -4.640625 3.765625 -4.550781 4.046875 -4.375 C 4.328125 -4.207031 4.546875 -3.945312 4.703125 -3.59375 C 4.859375 -3.238281 4.9375 -2.800781 4.9375 -2.28125 C 4.9375 -1.757812 4.851562 -1.320312 4.6875 -0.96875 C 4.53125 -0.613281 4.304688 -0.347656 4.015625 -0.171875 C 3.734375 0.00390625 3.40625 0.09375 3.03125 0.09375 Z M 2.875 -0.515625 C 3.78125 -0.515625 4.234375 -1.101562 4.234375 -2.28125 C 4.234375 -2.882812 4.113281 -3.328125 3.875 -3.609375 C 3.632812 -3.898438 3.300781 -4.046875 2.875 -4.046875 C 2.445312 -4.046875 2.101562 -3.898438 1.84375 -3.609375 C 1.59375 -3.316406 1.46875 -2.875 1.46875 -2.28125 C 1.46875 -1.6875 1.59375 -1.242188 1.84375 -0.953125 C 2.101562 -0.660156 2.445312 -0.515625 2.875 -0.515625 Z M 2.875 -0.515625 "/></g></g><g transform="translate(63.714873, 64.008762)"><g><path d="M 0.796875 0 L 0.796875 -4.5625 L 1.4375 -4.5625 L 1.4375 -3.84375 L 1.515625 -3.828125 C 1.734375 -4.347656 2.132812 -4.609375 2.71875 -4.609375 C 3.03125 -4.609375 3.265625 -4.550781 3.421875 -4.4375 L 3.25 -3.859375 L 3.15625 -3.84375 C 2.988281 -3.925781 2.800781 -3.96875 2.59375 -3.96875 C 2.238281 -3.96875 1.960938 -3.832031 1.765625 -3.5625 C 1.566406 -3.289062 1.46875 -2.847656 1.46875 -2.234375 L 1.46875 0 Z M 0.796875 0 "/></g></g><g transform="translate(67.237267, 64.008762)"><g><path d="M 2.625 0.09375 C 2.1875 0.09375 1.804688 0.00390625 1.484375 -0.171875 C 1.171875 -0.359375 0.925781 -0.628906 0.75 -0.984375 C 0.582031 -1.335938 0.5 -1.769531 0.5 -2.28125 C 0.5 -2.78125 0.582031 -3.207031 0.75 -3.5625 C 0.925781 -3.925781 1.171875 -4.195312 1.484375 -4.375 C 1.804688 -4.550781 2.1875 -4.640625 2.625 -4.640625 C 3.050781 -4.640625 3.421875 -4.550781 3.734375 -4.375 C 4.054688 -4.195312 4.300781 -3.925781 4.46875 -3.5625 C 4.644531 -3.207031 4.734375 -2.78125 4.734375 -2.28125 C 4.734375 -1.769531 4.644531 -1.335938 4.46875 -0.984375 C 4.300781 -0.628906 4.054688 -0.359375 3.734375 -0.171875 C 3.421875 0.00390625 3.050781 0.09375 2.625 0.09375 Z M 2.625 -0.515625 C 3.070312 -0.515625 3.414062 -0.65625 3.65625 -0.9375 C 3.90625 -1.226562 4.03125 -1.675781 4.03125 -2.28125 C 4.03125 -2.882812 3.90625 -3.328125 3.65625 -3.609375 C 3.414062 -3.898438 3.070312 -4.046875 2.625 -4.046875 C 2.164062 -4.046875 1.8125 -3.898438 1.5625 -3.609375 C 1.320312 -3.328125 1.203125 -2.882812 1.203125 -2.28125 C 1.203125 -1.675781 1.320312 -1.226562 1.5625 -0.9375 C 1.8125 -0.65625 2.164062 -0.515625 2.625 -0.515625 Z M 2.625 -0.515625 "/></g></g><g transform="translate(72.471246, 64.008762)"><g><path d="M 2.265625 0 L 1.40625 0 L 0.296875 -4.5625 L 0.953125 -4.5625 L 1.828125 -0.78125 L 1.90625 -0.78125 L 2.96875 -4.5625 L 3.6875 -4.5625 L 4.78125 -0.78125 L 4.859375 -0.78125 L 5.703125 -4.5625 L 6.359375 -4.5625 L 5.25 0 L 4.390625 0 L 3.359375 -3.546875 L 3.265625 -3.546875 Z M 2.265625 0 "/></g></g><g transform="translate(79.119143, 64.008762)"><g><path d="M 2.078125 0.09375 C 1.796875 0.09375 1.53125 0.0546875 1.28125 -0.015625 C 1.039062 -0.0976562 0.832031 -0.203125 0.65625 -0.328125 C 0.488281 -0.460938 0.375 -0.613281 0.3125 -0.78125 L 0.703125 -1.203125 L 0.796875 -1.203125 C 0.941406 -0.972656 1.117188 -0.800781 1.328125 -0.6875 C 1.535156 -0.570312 1.785156 -0.515625 2.078125 -0.515625 C 2.410156 -0.515625 2.664062 -0.578125 2.84375 -0.703125 C 3.019531 -0.835938 3.109375 -1.023438 3.109375 -1.265625 C 3.109375 -1.441406 3.054688 -1.585938 2.953125 -1.703125 C 2.847656 -1.816406 2.675781 -1.90625 2.4375 -1.96875 L 1.671875 -2.15625 C 1.253906 -2.257812 0.953125 -2.414062 0.765625 -2.625 C 0.578125 -2.84375 0.484375 -3.109375 0.484375 -3.421875 C 0.484375 -3.671875 0.546875 -3.882812 0.671875 -4.0625 C 0.796875 -4.25 0.976562 -4.390625 1.21875 -4.484375 C 1.457031 -4.585938 1.742188 -4.640625 2.078125 -4.640625 C 2.492188 -4.640625 2.820312 -4.582031 3.0625 -4.46875 C 3.300781 -4.351562 3.488281 -4.191406 3.625 -3.984375 L 3.25 -3.609375 L 3.15625 -3.609375 C 3.007812 -3.773438 2.847656 -3.894531 2.671875 -3.96875 C 2.503906 -4.039062 2.304688 -4.078125 2.078125 -4.078125 C 1.773438 -4.078125 1.539062 -4.023438 1.375 -3.921875 C 1.21875 -3.816406 1.140625 -3.660156 1.140625 -3.453125 C 1.140625 -3.273438 1.195312 -3.128906 1.3125 -3.015625 C 1.425781 -2.898438 1.625 -2.804688 1.90625 -2.734375 L 2.65625 -2.5625 C 3.050781 -2.46875 3.335938 -2.3125 3.515625 -2.09375 C 3.691406 -1.875 3.78125 -1.597656 3.78125 -1.265625 C 3.78125 -1.003906 3.71875 -0.769531 3.59375 -0.5625 C 3.46875 -0.351562 3.273438 -0.191406 3.015625 -0.078125 C 2.765625 0.0351562 2.453125 0.09375 2.078125 0.09375 Z M 2.078125 0.09375 "/></g></g><g transform="translate(83.336094, 64.008762)"><g><path d="M 4.34375 -2.125 L 1.21875 -2.125 C 1.226562 -1.570312 1.359375 -1.164062 1.609375 -0.90625 C 1.859375 -0.644531 2.195312 -0.515625 2.625 -0.515625 C 2.945312 -0.515625 3.207031 -0.570312 3.40625 -0.6875 C 3.601562 -0.800781 3.757812 -0.984375 3.875 -1.234375 L 3.96875 -1.234375 L 4.40625 -0.96875 C 4.269531 -0.644531 4.054688 -0.382812 3.765625 -0.1875 C 3.472656 0 3.09375 0.09375 2.625 0.09375 C 2.1875 0.09375 1.804688 0.00390625 1.484375 -0.171875 C 1.171875 -0.347656 0.925781 -0.613281 0.75 -0.96875 C 0.582031 -1.320312 0.5 -1.757812 0.5 -2.28125 C 0.5 -2.800781 0.585938 -3.238281 0.765625 -3.59375 C 0.953125 -3.945312 1.203125 -4.207031 1.515625 -4.375 C 1.828125 -4.550781 2.179688 -4.640625 2.578125 -4.640625 C 3.171875 -4.640625 3.628906 -4.472656 3.953125 -4.140625 C 4.273438 -3.816406 4.441406 -3.332031 4.453125 -2.6875 C 4.453125 -2.4375 4.445312 -2.265625 4.4375 -2.171875 Z M 3.78125 -2.6875 C 3.769531 -3.175781 3.660156 -3.53125 3.453125 -3.75 C 3.253906 -3.96875 2.960938 -4.078125 2.578125 -4.078125 C 2.179688 -4.078125 1.867188 -3.960938 1.640625 -3.734375 C 1.410156 -3.515625 1.273438 -3.164062 1.234375 -2.6875 Z M 3.78125 -2.6875 "/></g></g><g transform="translate(88.197989, 64.008762)"><g><path d="M 0.796875 0 L 0.796875 -4.5625 L 1.4375 -4.5625 L 1.4375 -3.84375 L 1.515625 -3.828125 C 1.734375 -4.347656 2.132812 -4.609375 2.71875 -4.609375 C 3.03125 -4.609375 3.265625 -4.550781 3.421875 -4.4375 L 3.25 -3.859375 L 3.15625 -3.84375 C 2.988281 -3.925781 2.800781 -3.96875 2.59375 -3.96875 C 2.238281 -3.96875 1.960938 -3.832031 1.765625 -3.5625 C 1.566406 -3.289062 1.46875 -2.847656 1.46875 -2.234375 L 1.46875 0 Z M 0.796875 0 "/></g></g><g transform="translate(91.720382, 64.008762)"><g/></g><g transform="translate(93.795783, 64.008762)"><g><path d="M 2.625 0.09375 C 2.1875 0.09375 1.804688 0.00390625 1.484375 -0.171875 C 1.171875 -0.359375 0.925781 -0.628906 0.75 -0.984375 C 0.582031 -1.335938 0.5 -1.769531 0.5 -2.28125 C 0.5 -2.78125 0.582031 -3.207031 0.75 -3.5625 C 0.925781 -3.925781 1.171875 -4.195312 1.484375 -4.375 C 1.804688 -4.550781 2.1875 -4.640625 2.625 -4.640625 C 3.050781 -4.640625 3.421875 -4.550781 3.734375 -4.375 C 4.054688 -4.195312 4.300781 -3.925781 4.46875 -3.5625 C 4.644531 -3.207031 4.734375 -2.78125 4.734375 -2.28125 C 4.734375 -1.769531 4.644531 -1.335938 4.46875 -0.984375 C 4.300781 -0.628906 4.054688 -0.359375 3.734375 -0.171875 C 3.421875 0.00390625 3.050781 0.09375 2.625 0.09375 Z M 2.625 -0.515625 C 3.070312 -0.515625 3.414062 -0.65625 3.65625 -0.9375 C 3.90625 -1.226562 4.03125 -1.675781 4.03125 -2.28125 C 4.03125 -2.882812 3.90625 -3.328125 3.65625 -3.609375 C 3.414062 -3.898438 3.070312 -4.046875 2.625 -4.046875 C 2.164062 -4.046875 1.8125 -3.898438 1.5625 -3.609375 C 1.320312 -3.328125 1.203125 -2.882812 1.203125 -2.28125 C 1.203125 -1.675781 1.320312 -1.226562 1.5625 -0.9375 C 1.8125 -0.65625 2.164062 -0.515625 2.625 -0.515625 Z M 2.625 -0.515625 "/></g></g><g transform="translate(99.029762, 64.008762)"><g><path d="M 0.796875 0 L 0.796875 -4.5625 L 1.4375 -4.5625 L 1.4375 -3.84375 L 1.515625 -3.828125 C 1.671875 -4.085938 1.863281 -4.285156 2.09375 -4.421875 C 2.332031 -4.566406 2.625 -4.640625 2.96875 -4.640625 C 3.507812 -4.640625 3.90625 -4.5 4.15625 -4.21875 C 4.40625 -3.945312 4.53125 -3.519531 4.53125 -2.9375 L 4.53125 0 L 3.859375 0 L 3.859375 -2.921875 C 3.859375 -3.191406 3.820312 -3.410156 3.75 -3.578125 C 3.675781 -3.742188 3.566406 -3.863281 3.421875 -3.9375 C 3.273438 -4.019531 3.082031 -4.0625 2.84375 -4.0625 C 2.425781 -4.0625 2.09375 -3.925781 1.84375 -3.65625 C 1.59375 -3.382812 1.46875 -2.945312 1.46875 -2.34375 L 1.46875 0 Z M 0.796875 0 "/></g></g></g><g fill="#000000" fill-opacity="1"><g transform="translate(12.59469, 75.298061)"><g><path d="M 1.578125 0 L 0.90625 0 L 0.90625 -6.046875 L 1.96875 -6.046875 L 3.796875 -0.921875 L 3.890625 -0.921875 L 5.71875 -6.046875 L 6.734375 -6.046875 L 6.734375 0 L 6.0625 0 L 6.0625 -4.9375 L 5.953125 -4.953125 L 4.171875 0 L 3.46875 0 L 1.671875 -4.953125 L 1.578125 -4.9375 Z M 1.578125 0 "/></g></g><g transform="translate(20.247213, 75.298061)"><g><path d="M 1.140625 -5.4375 C 0.992188 -5.4375 0.875 -5.476562 0.78125 -5.5625 C 0.695312 -5.65625 0.65625 -5.773438 0.65625 -5.921875 C 0.65625 -6.054688 0.695312 -6.164062 0.78125 -6.25 C 0.875 -6.34375 0.992188 -6.390625 1.140625 -6.390625 C 1.273438 -6.390625 1.382812 -6.34375 1.46875 -6.25 C 1.5625 -6.164062 1.609375 -6.054688 1.609375 -5.921875 C 1.609375 -5.773438 1.5625 -5.65625 1.46875 -5.5625 C 1.382812 -5.476562 1.273438 -5.4375 1.140625 -5.4375 Z M 0.796875 0 L 0.796875 -4.5625 L 1.46875 -4.5625 L 1.46875 0 Z M 0.796875 0 "/></g></g><g transform="translate(22.508656, 75.298061)"><g><path d="M 0.796875 0 L 0.796875 -4.5625 L 1.4375 -4.5625 L 1.4375 -3.84375 L 1.515625 -3.828125 C 1.671875 -4.085938 1.863281 -4.285156 2.09375 -4.421875 C 2.332031 -4.566406 2.625 -4.640625 2.96875 -4.640625 C 3.507812 -4.640625 3.90625 -4.5 4.15625 -4.21875 C 4.40625 -3.945312 4.53125 -3.519531 4.53125 -2.9375 L 4.53125 0 L 3.859375 0 L 3.859375 -2.921875 C 3.859375 -3.191406 3.820312 -3.410156 3.75 -3.578125 C 3.675781 -3.742188 3.566406 -3.863281 3.421875 -3.9375 C 3.273438 -4.019531 3.082031 -4.0625 2.84375 -4.0625 C 2.425781 -4.0625 2.09375 -3.925781 1.84375 -3.65625 C 1.59375 -3.382812 1.46875 -2.945312 1.46875 -2.34375 L 1.46875 0 Z M 0.796875 0 "/></g></g><g transform="translate(27.759172, 75.298061)"><g><path d="M 4.34375 -2.125 L 1.21875 -2.125 C 1.226562 -1.570312 1.359375 -1.164062 1.609375 -0.90625 C 1.859375 -0.644531 2.195312 -0.515625 2.625 -0.515625 C 2.945312 -0.515625 3.207031 -0.570312 3.40625 -0.6875 C 3.601562 -0.800781 3.757812 -0.984375 3.875 -1.234375 L 3.96875 -1.234375 L 4.40625 -0.96875 C 4.269531 -0.644531 4.054688 -0.382812 3.765625 -0.1875 C 3.472656 0 3.09375 0.09375 2.625 0.09375 C 2.1875 0.09375 1.804688 0.00390625 1.484375 -0.171875 C 1.171875 -0.347656 0.925781 -0.613281 0.75 -0.96875 C 0.582031 -1.320312 0.5 -1.757812 0.5 -2.28125 C 0.5 -2.800781 0.585938 -3.238281 0.765625 -3.59375 C 0.953125 -3.945312 1.203125 -4.207031 1.515625 -4.375 C 1.828125 -4.550781 2.179688 -4.640625 2.578125 -4.640625 C 3.171875 -4.640625 3.628906 -4.472656 3.953125 -4.140625 C 4.273438 -3.816406 4.441406 -3.332031 4.453125 -2.6875 C 4.453125 -2.4375 4.445312 -2.265625 4.4375 -2.171875 Z M 3.78125 -2.6875 C 3.769531 -3.175781 3.660156 -3.53125 3.453125 -3.75 C 3.253906 -3.96875 2.960938 -4.078125 2.578125 -4.078125 C 2.179688 -4.078125 1.867188 -3.960938 1.640625 -3.734375 C 1.410156 -3.515625 1.273438 -3.164062 1.234375 -2.6875 Z M 3.78125 -2.6875 "/></g></g><g transform="translate(32.621068, 75.298061)"><g><path d="M 0.796875 0 L 0.796875 -4.5625 L 1.4375 -4.5625 L 1.4375 -3.84375 L 1.515625 -3.828125 C 1.734375 -4.347656 2.132812 -4.609375 2.71875 -4.609375 C 3.03125 -4.609375 3.265625 -4.550781 3.421875 -4.4375 L 3.25 -3.859375 L 3.15625 -3.84375 C 2.988281 -3.925781 2.800781 -3.96875 2.59375 -3.96875 C 2.238281 -3.96875 1.960938 -3.832031 1.765625 -3.5625 C 1.566406 -3.289062 1.46875 -2.847656 1.46875 -2.234375 L 1.46875 0 Z M 0.796875 0 "/></g></g><g transform="translate(36.143461, 75.298061)"><g><path d="M 2.890625 0 L 1.953125 0 L 0.21875 -4.5625 L 0.953125 -4.5625 L 2.390625 -0.765625 L 2.484375 -0.765625 L 3.90625 -4.5625 L 4.609375 -4.5625 Z M 2.890625 0 "/></g></g><g transform="translate(40.976417, 75.298061)"><g><path d="M 1.875 0.09375 C 1.425781 0.09375 1.078125 -0.0195312 0.828125 -0.25 C 0.578125 -0.488281 0.453125 -0.828125 0.453125 -1.265625 C 0.453125 -1.535156 0.503906 -1.765625 0.609375 -1.953125 C 0.722656 -2.140625 0.894531 -2.289062 1.125 -2.40625 C 1.363281 -2.519531 1.675781 -2.609375 2.0625 -2.671875 C 2.382812 -2.734375 2.628906 -2.796875 2.796875 -2.859375 C 2.972656 -2.929688 3.09375 -3.007812 3.15625 -3.09375 C 3.21875 -3.175781 3.25 -3.285156 3.25 -3.421875 C 3.25 -3.628906 3.175781 -3.785156 3.03125 -3.890625 C 2.882812 -4.003906 2.65625 -4.0625 2.34375 -4.0625 C 2.050781 -4.0625 1.800781 -4.003906 1.59375 -3.890625 C 1.382812 -3.773438 1.191406 -3.601562 1.015625 -3.375 L 0.921875 -3.375 L 0.59375 -3.84375 C 0.789062 -4.09375 1.035156 -4.285156 1.328125 -4.421875 C 1.628906 -4.566406 1.96875 -4.640625 2.34375 -4.640625 C 2.882812 -4.640625 3.28125 -4.519531 3.53125 -4.28125 C 3.789062 -4.050781 3.921875 -3.726562 3.921875 -3.3125 L 3.921875 -0.890625 C 3.921875 -0.640625 4.03125 -0.515625 4.25 -0.515625 C 4.3125 -0.515625 4.378906 -0.523438 4.453125 -0.546875 L 4.5 -0.53125 L 4.578125 -0.0625 C 4.535156 -0.03125 4.472656 -0.0078125 4.390625 0 C 4.304688 0.0195312 4.222656 0.03125 4.140625 0.03125 C 3.890625 0.03125 3.695312 -0.0195312 3.5625 -0.125 C 3.4375 -0.238281 3.359375 -0.40625 3.328125 -0.625 L 3.234375 -0.625 C 3.109375 -0.382812 2.929688 -0.203125 2.703125 -0.078125 C 2.484375 0.0351562 2.207031 0.09375 1.875 0.09375 Z M 2.03125 -0.453125 C 2.28125 -0.453125 2.5 -0.507812 2.6875 -0.625 C 2.875 -0.738281 3.015625 -0.898438 3.109375 -1.109375 C 3.210938 -1.328125 3.265625 -1.578125 3.265625 -1.859375 L 3.265625 -2.4375 L 3.1875 -2.453125 C 3.082031 -2.378906 2.957031 -2.316406 2.8125 -2.265625 C 2.664062 -2.222656 2.460938 -2.179688 2.203125 -2.140625 C 1.941406 -2.109375 1.734375 -2.050781 1.578125 -1.96875 C 1.421875 -1.894531 1.304688 -1.800781 1.234375 -1.6875 C 1.171875 -1.570312 1.140625 -1.429688 1.140625 -1.265625 C 1.140625 -1.003906 1.21875 -0.800781 1.375 -0.65625 C 1.53125 -0.519531 1.75 -0.453125 2.03125 -0.453125 Z M 2.03125 -0.453125 "/></g></g><g transform="translate(45.693613, 75.298061)"><g/></g><g transform="translate(47.769014, 75.298061)"><g><path d="M 3.078125 -0.71875 L 3.296875 -0.234375 C 3.191406 -0.128906 3.050781 -0.0507812 2.875 0 C 2.695312 0.0625 2.507812 0.09375 2.3125 0.09375 C 1.4375 0.09375 1 -0.347656 1 -1.234375 L 1 -4.015625 L 0.203125 -4.015625 L 0.203125 -4.5625 L 1 -4.5625 L 1 -5.53125 L 1.671875 -5.640625 L 1.671875 -4.5625 L 3.140625 -4.5625 L 3.140625 -4.015625 L 1.671875 -4.015625 L 1.671875 -1.296875 C 1.671875 -0.773438 1.898438 -0.515625 2.359375 -0.515625 C 2.609375 -0.515625 2.820312 -0.582031 3 -0.71875 Z M 3.078125 -0.71875 "/></g></g><g transform="translate(51.241796, 75.298061)"><g><path d="M 1.875 0.09375 C 1.425781 0.09375 1.078125 -0.0195312 0.828125 -0.25 C 0.578125 -0.488281 0.453125 -0.828125 0.453125 -1.265625 C 0.453125 -1.535156 0.503906 -1.765625 0.609375 -1.953125 C 0.722656 -2.140625 0.894531 -2.289062 1.125 -2.40625 C 1.363281 -2.519531 1.675781 -2.609375 2.0625 -2.671875 C 2.382812 -2.734375 2.628906 -2.796875 2.796875 -2.859375 C 2.972656 -2.929688 3.09375 -3.007812 3.15625 -3.09375 C 3.21875 -3.175781 3.25 -3.285156 3.25 -3.421875 C 3.25 -3.628906 3.175781 -3.785156 3.03125 -3.890625 C 2.882812 -4.003906 2.65625 -4.0625 2.34375 -4.0625 C 2.050781 -4.0625 1.800781 -4.003906 1.59375 -3.890625 C 1.382812 -3.773438 1.191406 -3.601562 1.015625 -3.375 L 0.921875 -3.375 L 0.59375 -3.84375 C 0.789062 -4.09375 1.035156 -4.285156 1.328125 -4.421875 C 1.628906 -4.566406 1.96875 -4.640625 2.34375 -4.640625 C 2.882812 -4.640625 3.28125 -4.519531 3.53125 -4.28125 C 3.789062 -4.050781 3.921875 -3.726562 3.921875 -3.3125 L 3.921875 -0.890625 C 3.921875 -0.640625 4.03125 -0.515625 4.25 -0.515625 C 4.3125 -0.515625 4.378906 -0.523438 4.453125 -0.546875 L 4.5 -0.53125 L 4.578125 -0.0625 C 4.535156 -0.03125 4.472656 -0.0078125 4.390625 0 C 4.304688 0.0195312 4.222656 0.03125 4.140625 0.03125 C 3.890625 0.03125 3.695312 -0.0195312 3.5625 -0.125 C 3.4375 -0.238281 3.359375 -0.40625 3.328125 -0.625 L 3.234375 -0.625 C 3.109375 -0.382812 2.929688 -0.203125 2.703125 -0.078125 C 2.484375 0.0351562 2.207031 0.09375 1.875 0.09375 Z M 2.03125 -0.453125 C 2.28125 -0.453125 2.5 -0.507812 2.6875 -0.625 C 2.875 -0.738281 3.015625 -0.898438 3.109375 -1.109375 C 3.210938 -1.328125 3.265625 -1.578125 3.265625 -1.859375 L 3.265625 -2.4375 L 3.1875 -2.453125 C 3.082031 -2.378906 2.957031 -2.316406 2.8125 -2.265625 C 2.664062 -2.222656 2.460938 -2.179688 2.203125 -2.140625 C 1.941406 -2.109375 1.734375 -2.050781 1.578125 -1.96875 C 1.421875 -1.894531 1.304688 -1.800781 1.234375 -1.6875 C 1.171875 -1.570312 1.140625 -1.429688 1.140625 -1.265625 C 1.140625 -1.003906 1.21875 -0.800781 1.375 -0.65625 C 1.53125 -0.519531 1.75 -0.453125 2.03125 -0.453125 Z M 2.03125 -0.453125 "/></g></g><g transform="translate(55.958992, 75.298061)"><g><path d="M 3.03125 0.09375 C 2.6875 0.09375 2.390625 0.0234375 2.140625 -0.109375 C 1.898438 -0.242188 1.707031 -0.414062 1.5625 -0.625 L 1.46875 -0.609375 L 1.46875 0 L 0.796875 0 L 0.796875 -6.390625 L 1.46875 -6.390625 L 1.46875 -3.875 L 1.5625 -3.859375 C 1.90625 -4.378906 2.40625 -4.640625 3.0625 -4.640625 C 3.4375 -4.640625 3.765625 -4.550781 4.046875 -4.375 C 4.328125 -4.207031 4.546875 -3.945312 4.703125 -3.59375 C 4.859375 -3.238281 4.9375 -2.800781 4.9375 -2.28125 C 4.9375 -1.757812 4.851562 -1.320312 4.6875 -0.96875 C 4.53125 -0.613281 4.304688 -0.347656 4.015625 -0.171875 C 3.734375 0.00390625 3.40625 0.09375 3.03125 0.09375 Z M 2.875 -0.515625 C 3.78125 -0.515625 4.234375 -1.101562 4.234375 -2.28125 C 4.234375 -2.882812 4.113281 -3.328125 3.875 -3.609375 C 3.632812 -3.898438 3.300781 -4.046875 2.875 -4.046875 C 2.445312 -4.046875 2.101562 -3.898438 1.84375 -3.609375 C 1.59375 -3.316406 1.46875 -2.875 1.46875 -2.28125 C 1.46875 -1.6875 1.59375 -1.242188 1.84375 -0.953125 C 2.101562 -0.660156 2.445312 -0.515625 2.875 -0.515625 Z M 2.875 -0.515625 "/></g></g><g transform="translate(61.399685, 75.298061)"><g><path d="M 1.8125 0.09375 C 1.488281 0.09375 1.234375 0 1.046875 -0.1875 C 0.867188 -0.375 0.78125 -0.648438 0.78125 -1.015625 L 0.78125 -6.390625 L 1.453125 -6.390625 L 1.453125 -1.046875 C 1.453125 -0.859375 1.488281 -0.722656 1.5625 -0.640625 C 1.632812 -0.554688 1.75 -0.515625 1.90625 -0.515625 C 2 -0.515625 2.09375 -0.53125 2.1875 -0.5625 L 2.25 -0.546875 L 2.328125 -0.015625 C 2.273438 0.015625 2.203125 0.0390625 2.109375 0.0625 C 2.015625 0.0820312 1.914062 0.09375 1.8125 0.09375 Z M 1.8125 0.09375 "/></g></g><g transform="translate(63.880244, 75.298061)"><g><path d="M 4.34375 -2.125 L 1.21875 -2.125 C 1.226562 -1.570312 1.359375 -1.164062 1.609375 -0.90625 C 1.859375 -0.644531 2.195312 -0.515625 2.625 -0.515625 C 2.945312 -0.515625 3.207031 -0.570312 3.40625 -0.6875 C 3.601562 -0.800781 3.757812 -0.984375 3.875 -1.234375 L 3.96875 -1.234375 L 4.40625 -0.96875 C 4.269531 -0.644531 4.054688 -0.382812 3.765625 -0.1875 C 3.472656 0 3.09375 0.09375 2.625 0.09375 C 2.1875 0.09375 1.804688 0.00390625 1.484375 -0.171875 C 1.171875 -0.347656 0.925781 -0.613281 0.75 -0.96875 C 0.582031 -1.320312 0.5 -1.757812 0.5 -2.28125 C 0.5 -2.800781 0.585938 -3.238281 0.765625 -3.59375 C 0.953125 -3.945312 1.203125 -4.207031 1.515625 -4.375 C 1.828125 -4.550781 2.179688 -4.640625 2.578125 -4.640625 C 3.171875 -4.640625 3.628906 -4.472656 3.953125 -4.140625 C 4.273438 -3.816406 4.441406 -3.332031 4.453125 -2.6875 C 4.453125 -2.4375 4.445312 -2.265625 4.4375 -2.171875 Z M 3.78125 -2.6875 C 3.769531 -3.175781 3.660156 -3.53125 3.453125 -3.75 C 3.253906 -3.96875 2.960938 -4.078125 2.578125 -4.078125 C 2.179688 -4.078125 1.867188 -3.960938 1.640625 -3.734375 C 1.410156 -3.515625 1.273438 -3.164062 1.234375 -2.6875 Z M 3.78125 -2.6875 "/></g></g><g transform="translate(68.742139, 75.298061)"><g><path d="M 3.078125 -0.71875 L 3.296875 -0.234375 C 3.191406 -0.128906 3.050781 -0.0507812 2.875 0 C 2.695312 0.0625 2.507812 0.09375 2.3125 0.09375 C 1.4375 0.09375 1 -0.347656 1 -1.234375 L 1 -4.015625 L 0.203125 -4.015625 L 0.203125 -4.5625 L 1 -4.5625 L 1 -5.53125 L 1.671875 -5.640625 L 1.671875 -4.5625 L 3.140625 -4.5625 L 3.140625 -4.015625 L 1.671875 -4.015625 L 1.671875 -1.296875 C 1.671875 -0.773438 1.898438 -0.515625 2.359375 -0.515625 C 2.609375 -0.515625 2.820312 -0.582031 3 -0.71875 Z M 3.078125 -0.71875 "/></g></g><g transform="translate(72.214921, 75.298061)"><g/></g><g transform="translate(74.290322, 75.298061)"><g><path d="M 2.625 0.09375 C 2.1875 0.09375 1.804688 0.00390625 1.484375 -0.171875 C 1.171875 -0.359375 0.925781 -0.628906 0.75 -0.984375 C 0.582031 -1.335938 0.5 -1.769531 0.5 -2.28125 C 0.5 -2.78125 0.582031 -3.207031 0.75 -3.5625 C 0.925781 -3.925781 1.171875 -4.195312 1.484375 -4.375 C 1.804688 -4.550781 2.1875 -4.640625 2.625 -4.640625 C 3.050781 -4.640625 3.421875 -4.550781 3.734375 -4.375 C 4.054688 -4.195312 4.300781 -3.925781 4.46875 -3.5625 C 4.644531 -3.207031 4.734375 -2.78125 4.734375 -2.28125 C 4.734375 -1.769531 4.644531 -1.335938 4.46875 -0.984375 C 4.300781 -0.628906 4.054688 -0.359375 3.734375 -0.171875 C 3.421875 0.00390625 3.050781 0.09375 2.625 0.09375 Z M 2.625 -0.515625 C 3.070312 -0.515625 3.414062 -0.65625 3.65625 -0.9375 C 3.90625 -1.226562 4.03125 -1.675781 4.03125 -2.28125 C 4.03125 -2.882812 3.90625 -3.328125 3.65625 -3.609375 C 3.414062 -3.898438 3.070312 -4.046875 2.625 -4.046875 C 2.164062 -4.046875 1.8125 -3.898438 1.5625 -3.609375 C 1.320312 -3.328125 1.203125 -2.882812 1.203125 -2.28125 C 1.203125 -1.675781 1.320312 -1.226562 1.5625 -0.9375 C 1.8125 -0.65625 2.164062 -0.515625 2.625 -0.515625 Z M 2.625 -0.515625 "/></g></g><g transform="translate(79.524301, 75.298061)"><g><path d="M 0.796875 0 L 0.796875 -4.5625 L 1.4375 -4.5625 L 1.4375 -3.84375 L 1.515625 -3.828125 C 1.734375 -4.347656 2.132812 -4.609375 2.71875 -4.609375 C 3.03125 -4.609375 3.265625 -4.550781 3.421875 -4.4375 L 3.25 -3.859375 L 3.15625 -3.84375 C 2.988281 -3.925781 2.800781 -3.96875 2.59375 -3.96875 C 2.238281 -3.96875 1.960938 -3.832031 1.765625 -3.5625 C 1.566406 -3.289062 1.46875 -2.847656 1.46875 -2.234375 L 1.46875 0 Z M 0.796875 0 "/></g></g><g transform="translate(83.046695, 75.298061)"><g/></g><g transform="translate(85.122096, 75.298061)"><g><path d="M 1.875 0.09375 C 1.425781 0.09375 1.078125 -0.0195312 0.828125 -0.25 C 0.578125 -0.488281 0.453125 -0.828125 0.453125 -1.265625 C 0.453125 -1.535156 0.503906 -1.765625 0.609375 -1.953125 C 0.722656 -2.140625 0.894531 -2.289062 1.125 -2.40625 C 1.363281 -2.519531 1.675781 -2.609375 2.0625 -2.671875 C 2.382812 -2.734375 2.628906 -2.796875 2.796875 -2.859375 C 2.972656 -2.929688 3.09375 -3.007812 3.15625 -3.09375 C 3.21875 -3.175781 3.25 -3.285156 3.25 -3.421875 C 3.25 -3.628906 3.175781 -3.785156 3.03125 -3.890625 C 2.882812 -4.003906 2.65625 -4.0625 2.34375 -4.0625 C 2.050781 -4.0625 1.800781 -4.003906 1.59375 -3.890625 C 1.382812 -3.773438 1.191406 -3.601562 1.015625 -3.375 L 0.921875 -3.375 L 0.59375 -3.84375 C 0.789062 -4.09375 1.035156 -4.285156 1.328125 -4.421875 C 1.628906 -4.566406 1.96875 -4.640625 2.34375 -4.640625 C 2.882812 -4.640625 3.28125 -4.519531 3.53125 -4.28125 C 3.789062 -4.050781 3.921875 -3.726562 3.921875 -3.3125 L 3.921875 -0.890625 C 3.921875 -0.640625 4.03125 -0.515625 4.25 -0.515625 C 4.3125 -0.515625 4.378906 -0.523438 4.453125 -0.546875 L 4.5 -0.53125 L 4.578125 -0.0625 C 4.535156 -0.03125 4.472656 -0.0078125 4.390625 0 C 4.304688 0.0195312 4.222656 0.03125 4.140625 0.03125 C 3.890625 0.03125 3.695312 -0.0195312 3.5625 -0.125 C 3.4375 -0.238281 3.359375 -0.40625 3.328125 -0.625 L 3.234375 -0.625 C 3.109375 -0.382812 2.929688 -0.203125 2.703125 -0.078125 C 2.484375 0.0351562 2.207031 0.09375 1.875 0.09375 Z M 2.03125 -0.453125 C 2.28125 -0.453125 2.5 -0.507812 2.6875 -0.625 C 2.875 -0.738281 3.015625 -0.898438 3.109375 -1.109375 C 3.210938 -1.328125 3.265625 -1.578125 3.265625 -1.859375 L 3.265625 -2.4375 L 3.1875 -2.453125 C 3.082031 -2.378906 2.957031 -2.316406 2.8125 -2.265625 C 2.664062 -2.222656 2.460938 -2.179688 2.203125 -2.140625 C 1.941406 -2.109375 1.734375 -2.050781 1.578125 -1.96875 C 1.421875 -1.894531 1.304688 -1.800781 1.234375 -1.6875 C 1.171875 -1.570312 1.140625 -1.429688 1.140625 -1.265625 C 1.140625 -1.003906 1.21875 -0.800781 1.375 -0.65625 C 1.53125 -0.519531 1.75 -0.453125 2.03125 -0.453125 Z M 2.03125 -0.453125 "/></g></g><g transform="translate(89.839292, 75.298061)"><g><path d="M 0.796875 0 L 0.796875 -4.5625 L 1.4375 -4.5625 L 1.4375 -3.84375 L 1.515625 -3.828125 C 1.671875 -4.085938 1.863281 -4.285156 2.09375 -4.421875 C 2.332031 -4.566406 2.625 -4.640625 2.96875 -4.640625 C 3.507812 -4.640625 3.90625 -4.5 4.15625 -4.21875 C 4.40625 -3.945312 4.53125 -3.519531 4.53125 -2.9375 L 4.53125 0 L 3.859375 0 L 3.859375 -2.921875 C 3.859375 -3.191406 3.820312 -3.410156 3.75 -3.578125 C 3.675781 -3.742188 3.566406 -3.863281 3.421875 -3.9375 C 3.273438 -4.019531 3.082031 -4.0625 2.84375 -4.0625 C 2.425781 -4.0625 2.09375 -3.925781 1.84375 -3.65625 C 1.59375 -3.382812 1.46875 -2.945312 1.46875 -2.34375 L 1.46875 0 Z M 0.796875 0 "/></g></g><g transform="translate(95.089808, 75.298061)"><g><path d="M 0.90625 1.9375 C 0.757812 1.9375 0.617188 1.921875 0.484375 1.890625 C 0.347656 1.867188 0.234375 1.832031 0.140625 1.78125 L 0.265625 1.25 L 0.328125 1.234375 C 0.398438 1.265625 0.484375 1.289062 0.578125 1.3125 C 0.679688 1.332031 0.785156 1.34375 0.890625 1.34375 C 1.078125 1.34375 1.226562 1.316406 1.34375 1.265625 C 1.46875 1.222656 1.570312 1.144531 1.65625 1.03125 C 1.75 0.914062 1.832031 0.753906 1.90625 0.546875 L 2.0625 0.109375 L 0.234375 -4.5625 L 0.953125 -4.5625 L 2.390625 -0.84375 L 2.46875 -0.84375 L 3.859375 -4.5625 L 4.546875 -4.5625 L 2.515625 0.71875 C 2.398438 1.007812 2.269531 1.242188 2.125 1.421875 C 1.976562 1.597656 1.804688 1.726562 1.609375 1.8125 C 1.421875 1.894531 1.1875 1.9375 0.90625 1.9375 Z M 0.90625 1.9375 "/></g></g></g><g fill="#000000" fill-opacity="1"><g transform="translate(42.758285, 86.58736)"><g><path d="M 2.359375 0.09375 C 1.992188 0.09375 1.671875 0.00390625 1.390625 -0.171875 C 1.109375 -0.347656 0.890625 -0.613281 0.734375 -0.96875 C 0.578125 -1.320312 0.5 -1.757812 0.5 -2.28125 C 0.5 -2.800781 0.582031 -3.238281 0.75 -3.59375 C 0.914062 -3.945312 1.144531 -4.207031 1.4375 -4.375 C 1.726562 -4.550781 2.0625 -4.640625 2.4375 -4.640625 C 2.75 -4.640625 3.023438 -4.582031 3.265625 -4.46875 C 3.503906 -4.351562 3.710938 -4.164062 3.890625 -3.90625 L 3.96875 -3.921875 L 3.96875 -6.390625 L 4.640625 -6.390625 L 4.640625 0 L 3.96875 0 L 3.96875 -0.671875 L 3.890625 -0.6875 C 3.734375 -0.457031 3.53125 -0.269531 3.28125 -0.125 C 3.03125 0.0195312 2.722656 0.09375 2.359375 0.09375 Z M 2.578125 -0.515625 C 3.003906 -0.515625 3.34375 -0.660156 3.59375 -0.953125 C 3.84375 -1.242188 3.96875 -1.6875 3.96875 -2.28125 C 3.96875 -2.875 3.84375 -3.316406 3.59375 -3.609375 C 3.34375 -3.898438 3.003906 -4.046875 2.578125 -4.046875 C 2.140625 -4.046875 1.800781 -3.898438 1.5625 -3.609375 C 1.320312 -3.328125 1.203125 -2.882812 1.203125 -2.28125 C 1.203125 -1.101562 1.660156 -0.515625 2.578125 -0.515625 Z M 2.578125 -0.515625 "/></g></g><g transform="translate(48.203112, 86.58736)"><g><path d="M 4.34375 -2.125 L 1.21875 -2.125 C 1.226562 -1.570312 1.359375 -1.164062 1.609375 -0.90625 C 1.859375 -0.644531 2.195312 -0.515625 2.625 -0.515625 C 2.945312 -0.515625 3.207031 -0.570312 3.40625 -0.6875 C 3.601562 -0.800781 3.757812 -0.984375 3.875 -1.234375 L 3.96875 -1.234375 L 4.40625 -0.96875 C 4.269531 -0.644531 4.054688 -0.382812 3.765625 -0.1875 C 3.472656 0 3.09375 0.09375 2.625 0.09375 C 2.1875 0.09375 1.804688 0.00390625 1.484375 -0.171875 C 1.171875 -0.347656 0.925781 -0.613281 0.75 -0.96875 C 0.582031 -1.320312 0.5 -1.757812 0.5 -2.28125 C 0.5 -2.800781 0.585938 -3.238281 0.765625 -3.59375 C 0.953125 -3.945312 1.203125 -4.207031 1.515625 -4.375 C 1.828125 -4.550781 2.179688 -4.640625 2.578125 -4.640625 C 3.171875 -4.640625 3.628906 -4.472656 3.953125 -4.140625 C 4.273438 -3.816406 4.441406 -3.332031 4.453125 -2.6875 C 4.453125 -2.4375 4.445312 -2.265625 4.4375 -2.171875 Z M 3.78125 -2.6875 C 3.769531 -3.175781 3.660156 -3.53125 3.453125 -3.75 C 3.253906 -3.96875 2.960938 -4.078125 2.578125 -4.078125 C 2.179688 -4.078125 1.867188 -3.960938 1.640625 -3.734375 C 1.410156 -3.515625 1.273438 -3.164062 1.234375 -2.6875 Z M 3.78125 -2.6875 "/></g></g><g transform="translate(53.065007, 86.58736)"><g><path d="M 2.890625 0 L 1.953125 0 L 0.21875 -4.5625 L 0.953125 -4.5625 L 2.390625 -0.765625 L 2.484375 -0.765625 L 3.90625 -4.5625 L 4.609375 -4.5625 Z M 2.890625 0 "/></g></g><g transform="translate(57.897962, 86.58736)"><g><path d="M 1.140625 -5.4375 C 0.992188 -5.4375 0.875 -5.476562 0.78125 -5.5625 C 0.695312 -5.65625 0.65625 -5.773438 0.65625 -5.921875 C 0.65625 -6.054688 0.695312 -6.164062 0.78125 -6.25 C 0.875 -6.34375 0.992188 -6.390625 1.140625 -6.390625 C 1.273438 -6.390625 1.382812 -6.34375 1.46875 -6.25 C 1.5625 -6.164062 1.609375 -6.054688 1.609375 -5.921875 C 1.609375 -5.773438 1.5625 -5.65625 1.46875 -5.5625 C 1.382812 -5.476562 1.273438 -5.4375 1.140625 -5.4375 Z M 0.796875 0 L 0.796875 -4.5625 L 1.46875 -4.5625 L 1.46875 0 Z M 0.796875 0 "/></g></g><g transform="translate(60.159405, 86.58736)"><g><path d="M 2.625 0.09375 C 2.21875 0.09375 1.851562 0 1.53125 -0.1875 C 1.207031 -0.375 0.953125 -0.644531 0.765625 -1 C 0.585938 -1.351562 0.5 -1.78125 0.5 -2.28125 C 0.5 -2.78125 0.585938 -3.207031 0.765625 -3.5625 C 0.953125 -3.914062 1.207031 -4.179688 1.53125 -4.359375 C 1.851562 -4.546875 2.21875 -4.640625 2.625 -4.640625 C 3.101562 -4.640625 3.484375 -4.550781 3.765625 -4.375 C 4.054688 -4.195312 4.265625 -3.953125 4.390625 -3.640625 L 3.921875 -3.3125 L 3.84375 -3.3125 C 3.71875 -3.5625 3.554688 -3.742188 3.359375 -3.859375 C 3.171875 -3.984375 2.925781 -4.046875 2.625 -4.046875 C 2.34375 -4.046875 2.09375 -3.976562 1.875 -3.84375 C 1.664062 -3.707031 1.5 -3.507812 1.375 -3.25 C 1.257812 -2.988281 1.203125 -2.664062 1.203125 -2.28125 C 1.203125 -1.894531 1.257812 -1.570312 1.375 -1.3125 C 1.5 -1.050781 1.664062 -0.851562 1.875 -0.71875 C 2.09375 -0.582031 2.34375 -0.515625 2.625 -0.515625 C 2.9375 -0.515625 3.195312 -0.585938 3.40625 -0.734375 C 3.613281 -0.878906 3.773438 -1.101562 3.890625 -1.40625 L 3.984375 -1.40625 L 4.421875 -1.15625 C 4.304688 -0.769531 4.09375 -0.460938 3.78125 -0.234375 C 3.476562 -0.015625 3.09375 0.09375 2.625 0.09375 Z M 2.625 0.09375 "/></g></g><g transform="translate(64.860064, 86.58736)"><g><path d="M 4.34375 -2.125 L 1.21875 -2.125 C 1.226562 -1.570312 1.359375 -1.164062 1.609375 -0.90625 C 1.859375 -0.644531 2.195312 -0.515625 2.625 -0.515625 C 2.945312 -0.515625 3.207031 -0.570312 3.40625 -0.6875 C 3.601562 -0.800781 3.757812 -0.984375 3.875 -1.234375 L 3.96875 -1.234375 L 4.40625 -0.96875 C 4.269531 -0.644531 4.054688 -0.382812 3.765625 -0.1875 C 3.472656 0 3.09375 0.09375 2.625 0.09375 C 2.1875 0.09375 1.804688 0.00390625 1.484375 -0.171875 C 1.171875 -0.347656 0.925781 -0.613281 0.75 -0.96875 C 0.582031 -1.320312 0.5 -1.757812 0.5 -2.28125 C 0.5 -2.800781 0.585938 -3.238281 0.765625 -3.59375 C 0.953125 -3.945312 1.203125 -4.207031 1.515625 -4.375 C 1.828125 -4.550781 2.179688 -4.640625 2.578125 -4.640625 C 3.171875 -4.640625 3.628906 -4.472656 3.953125 -4.140625 C 4.273438 -3.816406 4.441406 -3.332031 4.453125 -2.6875 C 4.453125 -2.4375 4.445312 -2.265625 4.4375 -2.171875 Z M 3.78125 -2.6875 C 3.769531 -3.175781 3.660156 -3.53125 3.453125 -3.75 C 3.253906 -3.96875 2.960938 -4.078125 2.578125 -4.078125 C 2.179688 -4.078125 1.867188 -3.960938 1.640625 -3.734375 C 1.410156 -3.515625 1.273438 -3.164062 1.234375 -2.6875 Z M 3.78125 -2.6875 "/></g></g></g><g clip-path="url(#c8d344c584)"><path fill="#000000" d="M 61.835938 20.414062 C 61.730469 20.308594 61.679688 20.164062 61.691406 20.015625 C 61.707031 19.863281 61.789062 19.734375 61.910156 19.648438 L 65.460938 17.292969 L 53.3125 13.648438 L 56.960938 25.800781 L 59.3125 22.246094 C 59.394531 22.121094 59.53125 22.042969 59.679688 22.027344 C 59.824219 22.011719 59.972656 22.066406 60.078125 22.171875 L 63.109375 25.199219 C 63.300781 25.394531 63.617188 25.394531 63.8125 25.199219 L 64.863281 24.144531 C 64.957031 24.050781 65.011719 23.929688 65.011719 23.796875 C 65.011719 23.664062 64.957031 23.539062 64.863281 23.445312 Z M 61.835938 20.414062 " fill-opacity="1" fill-rule="nonzero"/></g><path fill="#000000" d="M 49.234375 8.867188 C 49.039062 8.675781 48.722656 8.675781 48.53125 8.867188 C 48.335938 9.0625 48.335938 9.378906 48.53125 9.570312 L 49.9375 10.976562 C 50.03125 11.074219 50.160156 11.125 50.285156 11.125 C 50.414062 11.125 50.539062 11.074219 50.636719 10.976562 C 50.832031 10.78125 50.832031 10.46875 50.636719 10.273438 Z M 49.234375 8.867188 " fill-opacity="1" fill-rule="nonzero"/><path fill="#000000" d="M 55.554688 11.121094 C 55.683594 11.121094 55.808594 11.070312 55.90625 10.972656 L 57.3125 9.570312 C 57.503906 9.375 57.503906 9.058594 57.3125 8.867188 C 57.117188 8.671875 56.804688 8.671875 56.609375 8.867188 L 55.203125 10.269531 C 55.011719 10.464844 55.011719 10.78125 55.203125 10.972656 C 55.304688 11.074219 55.429688 11.121094 55.554688 11.121094 Z M 55.554688 11.121094 " fill-opacity="1" fill-rule="nonzero"/><path fill="#000000" d="M 49.9375 15.542969 L 48.53125 16.945312 C 48.335938 17.140625 48.335938 17.457031 48.53125 17.648438 C 48.628906 17.746094 48.753906 17.796875 48.878906 17.796875 C 49.007812 17.796875 49.132812 17.746094 49.230469 17.648438 L 50.636719 16.242188 C 50.832031 16.050781 50.832031 15.734375 50.636719 15.542969 C 50.445312 15.347656 50.128906 15.347656 49.9375 15.542969 Z M 49.9375 15.542969 " fill-opacity="1" fill-rule="nonzero"/><g clip-path="url(#7c10ba6e9e)"><path fill="#000000" d="M 49.691406 13.257812 C 49.691406 12.984375 49.46875 12.761719 49.195312 12.761719 L 47.210938 12.761719 C 46.9375 12.761719 46.710938 12.984375 46.710938 13.257812 C 46.710938 13.53125 46.9375 13.753906 47.210938 13.753906 L 49.195312 13.753906 C 49.472656 13.753906 49.691406 13.53125 49.691406 13.257812 Z M 49.691406 13.257812 " fill-opacity="1" fill-rule="nonzero"/></g><g clip-path="url(#d237387db8)"><path fill="#000000" d="M 53.417969 7.546875 C 53.417969 7.273438 53.195312 7.050781 52.921875 7.050781 C 52.648438 7.050781 52.425781 7.273438 52.425781 7.546875 L 52.425781 9.535156 C 52.425781 9.808594 52.648438 10.03125 52.921875 10.03125 C 53.195312 10.03125 53.417969 9.808594 53.417969 9.535156 Z M 53.417969 7.546875 " fill-opacity="1" fill-rule="nonzero"/></g></svg>