<svg xmlns="http://www.w3.org/2000/svg" xmlns:xlink="http://www.w3.org/1999/xlink" width="150" zoomAndPan="magnify" viewBox="0 0 112.5 112.499997" height="150" preserveAspectRatio="xMidYMid meet" version="1.0"><defs><g/><clipPath id="07643b8e46"><path d="M 0 0 L 112.003906 0 L 112.003906 112.003906 L 0 112.003906 Z M 0 0 " clip-rule="nonzero"/></clipPath><clipPath id="33f5fb01cc"><path d="M 35.023438 8.25 L 77.773438 8.25 L 77.773438 14.25 L 35.023438 14.25 Z M 35.023438 8.25 " clip-rule="nonzero"/></clipPath></defs><g clip-path="url(#07643b8e46)"><path fill="#ffffff" d="M -0.121094 0 L 112.621094 0 L 112.621094 112.640625 L -0.121094 112.640625 Z M -0.121094 0 " fill-opacity="1" fill-rule="nonzero"/></g><g fill="#000000" fill-opacity="1"><g transform="translate(39.900374, 42.128518)"><g><path d="M 3.34375 0.109375 C 2.820312 0.109375 2.359375 0.046875 1.953125 -0.078125 C 1.546875 -0.210938 1.203125 -0.382812 0.921875 -0.59375 C 0.648438 -0.800781 0.445312 -1.03125 0.3125 -1.28125 L 1.125 -2.28125 L 1.25 -2.28125 C 1.476562 -1.945312 1.765625 -1.679688 2.109375 -1.484375 C 2.460938 -1.285156 2.875 -1.1875 3.34375 -1.1875 C 3.75 -1.1875 4.050781 -1.269531 4.25 -1.4375 C 4.457031 -1.601562 4.5625 -1.835938 4.5625 -2.140625 C 4.5625 -2.316406 4.523438 -2.460938 4.453125 -2.578125 C 4.390625 -2.703125 4.28125 -2.804688 4.125 -2.890625 C 3.976562 -2.972656 3.773438 -3.046875 3.515625 -3.109375 L 2.546875 -3.34375 C 1.867188 -3.488281 1.363281 -3.742188 1.03125 -4.109375 C 0.695312 -4.472656 0.53125 -4.941406 0.53125 -5.515625 C 0.53125 -5.941406 0.632812 -6.316406 0.84375 -6.640625 C 1.0625 -6.960938 1.375 -7.210938 1.78125 -7.390625 C 2.1875 -7.566406 2.675781 -7.65625 3.25 -7.65625 C 3.832031 -7.65625 4.328125 -7.578125 4.734375 -7.421875 C 5.148438 -7.273438 5.503906 -7.039062 5.796875 -6.71875 L 5.0625 -5.71875 L 4.921875 -5.71875 C 4.710938 -5.9375 4.46875 -6.101562 4.1875 -6.21875 C 3.914062 -6.332031 3.601562 -6.390625 3.25 -6.390625 C 2.84375 -6.390625 2.53125 -6.316406 2.3125 -6.171875 C 2.101562 -6.023438 2 -5.820312 2 -5.5625 C 2 -5.332031 2.070312 -5.144531 2.21875 -5 C 2.363281 -4.851562 2.625 -4.742188 3 -4.671875 L 3.984375 -4.46875 C 4.722656 -4.3125 5.253906 -4.046875 5.578125 -3.671875 C 5.910156 -3.304688 6.078125 -2.820312 6.078125 -2.21875 C 6.078125 -1.75 5.972656 -1.335938 5.765625 -0.984375 C 5.566406 -0.640625 5.257812 -0.367188 4.84375 -0.171875 C 4.4375 0.015625 3.9375 0.109375 3.34375 0.109375 Z M 3.34375 0.109375 "/></g></g></g><g fill="#000000" fill-opacity="1"><g transform="translate(46.390135, 42.128518)"><g><path d="M 3.9375 -1.359375 L 4.296875 -0.296875 C 4.140625 -0.171875 3.945312 -0.0703125 3.71875 0 C 3.488281 0.0703125 3.222656 0.109375 2.921875 0.109375 C 2.304688 0.109375 1.835938 -0.0546875 1.515625 -0.390625 C 1.191406 -0.734375 1.03125 -1.222656 1.03125 -1.859375 L 1.03125 -4.5625 L 0.171875 -4.5625 L 0.171875 -5.703125 L 1.03125 -5.703125 L 1.03125 -6.8125 L 2.46875 -7.046875 L 2.46875 -5.703125 L 4.078125 -5.703125 L 4.078125 -4.5625 L 2.46875 -4.5625 L 2.46875 -1.96875 C 2.46875 -1.6875 2.523438 -1.476562 2.640625 -1.34375 C 2.753906 -1.21875 2.925781 -1.15625 3.15625 -1.15625 C 3.40625 -1.15625 3.628906 -1.222656 3.828125 -1.359375 Z M 3.9375 -1.359375 "/></g></g></g><g fill="#000000" fill-opacity="1"><g transform="translate(50.818265, 42.128518)"><g><path d="M 5.625 -2.53125 L 1.96875 -2.53125 C 2.007812 -2.03125 2.148438 -1.664062 2.390625 -1.4375 C 2.628906 -1.21875 2.957031 -1.109375 3.375 -1.109375 C 3.707031 -1.109375 3.972656 -1.164062 4.171875 -1.28125 C 4.378906 -1.40625 4.546875 -1.59375 4.671875 -1.84375 L 4.765625 -1.84375 L 5.71875 -1.234375 C 5.53125 -0.835938 5.25 -0.515625 4.875 -0.265625 C 4.5 -0.015625 4 0.109375 3.375 0.109375 C 2.789062 0.109375 2.28125 0 1.84375 -0.21875 C 1.414062 -0.445312 1.085938 -0.78125 0.859375 -1.21875 C 0.628906 -1.664062 0.515625 -2.207031 0.515625 -2.84375 C 0.515625 -3.488281 0.632812 -4.035156 0.875 -4.484375 C 1.125 -4.929688 1.457031 -5.265625 1.875 -5.484375 C 2.289062 -5.703125 2.757812 -5.8125 3.28125 -5.8125 C 4.082031 -5.8125 4.695312 -5.597656 5.125 -5.171875 C 5.550781 -4.742188 5.765625 -4.113281 5.765625 -3.28125 C 5.765625 -2.976562 5.753906 -2.75 5.734375 -2.59375 Z M 4.40625 -3.453125 C 4.382812 -3.878906 4.28125 -4.191406 4.09375 -4.390625 C 3.90625 -4.585938 3.632812 -4.6875 3.28125 -4.6875 C 2.550781 -4.6875 2.125 -4.273438 2 -3.453125 Z M 4.40625 -3.453125 "/></g></g></g><g fill="#000000" fill-opacity="1"><g transform="translate(57.013512, 42.128518)"><g><path d="M 0.828125 2.3125 L 0.828125 -5.703125 L 2.25 -5.703125 L 2.25 -4.953125 L 2.359375 -4.9375 C 2.523438 -5.21875 2.75 -5.429688 3.03125 -5.578125 C 3.3125 -5.734375 3.644531 -5.8125 4.03125 -5.8125 C 4.488281 -5.8125 4.890625 -5.703125 5.234375 -5.484375 C 5.578125 -5.265625 5.84375 -4.929688 6.03125 -4.484375 C 6.21875 -4.046875 6.3125 -3.5 6.3125 -2.84375 C 6.3125 -2.195312 6.210938 -1.648438 6.015625 -1.203125 C 5.816406 -0.765625 5.535156 -0.4375 5.171875 -0.21875 C 4.816406 0 4.40625 0.109375 3.9375 0.109375 C 3.582031 0.109375 3.273438 0.0507812 3.015625 -0.0625 C 2.753906 -0.1875 2.535156 -0.375 2.359375 -0.625 L 2.25 -0.609375 L 2.25 2.3125 Z M 3.53125 -1.109375 C 3.957031 -1.109375 4.28125 -1.242188 4.5 -1.515625 C 4.726562 -1.796875 4.84375 -2.238281 4.84375 -2.84375 C 4.84375 -3.445312 4.726562 -3.890625 4.5 -4.171875 C 4.28125 -4.453125 3.957031 -4.59375 3.53125 -4.59375 C 3.132812 -4.59375 2.816406 -4.445312 2.578125 -4.15625 C 2.347656 -3.863281 2.234375 -3.425781 2.234375 -2.84375 C 2.234375 -2.257812 2.347656 -1.820312 2.578125 -1.53125 C 2.816406 -1.25 3.132812 -1.109375 3.53125 -1.109375 Z M 3.53125 -1.109375 "/></g></g></g><g fill="#000000" fill-opacity="1"><g transform="translate(63.839134, 42.128518)"><g/></g></g><g fill="#000000" fill-opacity="1"><g transform="translate(66.334804, 42.128518)"><g><path d="M 3.078125 0.109375 C 2.265625 0.109375 1.617188 -0.0625 1.140625 -0.40625 C 0.671875 -0.75 0.375 -1.234375 0.25 -1.859375 L 1.375 -2.390625 L 1.5 -2.359375 C 1.625 -1.941406 1.800781 -1.640625 2.03125 -1.453125 C 2.269531 -1.265625 2.601562 -1.171875 3.03125 -1.171875 C 3.4375 -1.171875 3.742188 -1.265625 3.953125 -1.453125 C 4.171875 -1.640625 4.28125 -1.914062 4.28125 -2.28125 C 4.28125 -2.632812 4.171875 -2.90625 3.953125 -3.09375 C 3.742188 -3.28125 3.4375 -3.375 3.03125 -3.375 L 1.890625 -3.375 L 1.890625 -4.546875 L 2.875 -4.546875 C 3.21875 -4.546875 3.488281 -4.628906 3.6875 -4.796875 C 3.882812 -4.960938 3.984375 -5.203125 3.984375 -5.515625 C 3.984375 -5.828125 3.890625 -6.0625 3.703125 -6.21875 C 3.515625 -6.375 3.253906 -6.453125 2.921875 -6.453125 C 2.585938 -6.453125 2.289062 -6.367188 2.03125 -6.203125 C 1.769531 -6.046875 1.5625 -5.835938 1.40625 -5.578125 L 1.28125 -5.546875 L 0.5 -6.46875 C 0.769531 -6.820312 1.113281 -7.109375 1.53125 -7.328125 C 1.945312 -7.546875 2.441406 -7.65625 3.015625 -7.65625 C 3.804688 -7.65625 4.410156 -7.488281 4.828125 -7.15625 C 5.242188 -6.832031 5.453125 -6.367188 5.453125 -5.765625 C 5.453125 -5.410156 5.363281 -5.101562 5.1875 -4.84375 C 5.019531 -4.582031 4.78125 -4.359375 4.46875 -4.171875 L 4.46875 -4.0625 C 5.34375 -3.757812 5.78125 -3.140625 5.78125 -2.203125 C 5.78125 -1.742188 5.675781 -1.335938 5.46875 -0.984375 C 5.269531 -0.640625 4.96875 -0.367188 4.5625 -0.171875 C 4.164062 0.015625 3.671875 0.109375 3.078125 0.109375 Z M 3.078125 0.109375 "/></g></g></g><g fill="#000000" fill-opacity="1"><g transform="translate(10.566144, 64.008762)"><g><path d="M 1.609375 0 L 0.90625 0 L 0.90625 -6.046875 L 1.78125 -6.046875 L 4.734375 -1.421875 L 4.84375 -1.4375 L 4.84375 -6.046875 L 5.53125 -6.046875 L 5.53125 0 L 4.78125 0 L 1.71875 -4.9375 L 1.609375 -4.921875 Z M 1.609375 0 "/></g></g><g transform="translate(17.011462, 64.008762)"><g><path d="M 1.875 0.09375 C 1.425781 0.09375 1.078125 -0.0195312 0.828125 -0.25 C 0.578125 -0.488281 0.453125 -0.828125 0.453125 -1.265625 C 0.453125 -1.535156 0.503906 -1.765625 0.609375 -1.953125 C 0.722656 -2.140625 0.894531 -2.289062 1.125 -2.40625 C 1.363281 -2.519531 1.675781 -2.609375 2.0625 -2.671875 C 2.382812 -2.734375 2.628906 -2.796875 2.796875 -2.859375 C 2.972656 -2.929688 3.09375 -3.007812 3.15625 -3.09375 C 3.21875 -3.175781 3.25 -3.285156 3.25 -3.421875 C 3.25 -3.628906 3.175781 -3.785156 3.03125 -3.890625 C 2.882812 -4.003906 2.65625 -4.0625 2.34375 -4.0625 C 2.050781 -4.0625 1.800781 -4.003906 1.59375 -3.890625 C 1.382812 -3.773438 1.191406 -3.601562 1.015625 -3.375 L 0.921875 -3.375 L 0.59375 -3.84375 C 0.789062 -4.09375 1.035156 -4.285156 1.328125 -4.421875 C 1.628906 -4.566406 1.96875 -4.640625 2.34375 -4.640625 C 2.882812 -4.640625 3.28125 -4.519531 3.53125 -4.28125 C 3.789062 -4.050781 3.921875 -3.726562 3.921875 -3.3125 L 3.921875 -0.890625 C 3.921875 -0.640625 4.03125 -0.515625 4.25 -0.515625 C 4.3125 -0.515625 4.378906 -0.523438 4.453125 -0.546875 L 4.5 -0.53125 L 4.578125 -0.0625 C 4.535156 -0.03125 4.472656 -0.0078125 4.390625 0 C 4.304688 0.0195312 4.222656 0.03125 4.140625 0.03125 C 3.890625 0.03125 3.695312 -0.0195312 3.5625 -0.125 C 3.4375 -0.238281 3.359375 -0.40625 3.328125 -0.625 L 3.234375 -0.625 C 3.109375 -0.382812 2.929688 -0.203125 2.703125 -0.078125 C 2.484375 0.0351562 2.207031 0.09375 1.875 0.09375 Z M 2.03125 -0.453125 C 2.28125 -0.453125 2.5 -0.507812 2.6875 -0.625 C 2.875 -0.738281 3.015625 -0.898438 3.109375 -1.109375 C 3.210938 -1.328125 3.265625 -1.578125 3.265625 -1.859375 L 3.265625 -2.4375 L 3.1875 -2.453125 C 3.082031 -2.378906 2.957031 -2.316406 2.8125 -2.265625 C 2.664062 -2.222656 2.460938 -2.179688 2.203125 -2.140625 C 1.941406 -2.109375 1.734375 -2.050781 1.578125 -1.96875 C 1.421875 -1.894531 1.304688 -1.800781 1.234375 -1.6875 C 1.171875 -1.570312 1.140625 -1.429688 1.140625 -1.265625 C 1.140625 -1.003906 1.21875 -0.800781 1.375 -0.65625 C 1.53125 -0.519531 1.75 -0.453125 2.03125 -0.453125 Z M 2.03125 -0.453125 "/></g></g><g transform="translate(21.728658, 64.008762)"><g><path d="M 2.890625 0 L 1.953125 0 L 0.21875 -4.5625 L 0.953125 -4.5625 L 2.390625 -0.765625 L 2.484375 -0.765625 L 3.90625 -4.5625 L 4.609375 -4.5625 Z M 2.890625 0 "/></g></g><g transform="translate(26.561614, 64.008762)"><g><path d="M 1.140625 -5.4375 C 0.992188 -5.4375 0.875 -5.476562 0.78125 -5.5625 C 0.695312 -5.65625 0.65625 -5.773438 0.65625 -5.921875 C 0.65625 -6.054688 0.695312 -6.164062 0.78125 -6.25 C 0.875 -6.34375 0.992188 -6.390625 1.140625 -6.390625 C 1.273438 -6.390625 1.382812 -6.34375 1.46875 -6.25 C 1.5625 -6.164062 1.609375 -6.054688 1.609375 -5.921875 C 1.609375 -5.773438 1.5625 -5.65625 1.46875 -5.5625 C 1.382812 -5.476562 1.273438 -5.4375 1.140625 -5.4375 Z M 0.796875 0 L 0.796875 -4.5625 L 1.46875 -4.5625 L 1.46875 0 Z M 0.796875 0 "/></g></g><g transform="translate(28.823057, 64.008762)"><g><path d="M 2.34375 1.9375 C 1.625 1.9375 1.097656 1.816406 0.765625 1.578125 C 0.441406 1.335938 0.28125 1.019531 0.28125 0.625 C 0.28125 0.363281 0.351562 0.15625 0.5 0 C 0.65625 -0.144531 0.882812 -0.25 1.1875 -0.3125 L 1.1875 -0.40625 C 1.039062 -0.488281 0.929688 -0.582031 0.859375 -0.6875 C 0.796875 -0.789062 0.765625 -0.921875 0.765625 -1.078125 C 0.765625 -1.242188 0.816406 -1.382812 0.921875 -1.5 C 1.035156 -1.613281 1.203125 -1.695312 1.421875 -1.75 L 1.421875 -1.84375 C 0.929688 -2.101562 0.6875 -2.53125 0.6875 -3.125 C 0.6875 -3.414062 0.753906 -3.675781 0.890625 -3.90625 C 1.023438 -4.144531 1.21875 -4.328125 1.46875 -4.453125 C 1.71875 -4.578125 2.007812 -4.640625 2.34375 -4.640625 C 2.726562 -4.640625 3.046875 -4.554688 3.296875 -4.390625 C 3.390625 -4.503906 3.460938 -4.617188 3.515625 -4.734375 C 3.566406 -4.859375 3.597656 -5 3.609375 -5.15625 L 3.703125 -5.203125 L 4.25 -5.078125 C 4.21875 -4.847656 4.144531 -4.648438 4.03125 -4.484375 C 3.925781 -4.328125 3.769531 -4.195312 3.5625 -4.09375 L 3.5625 -4 C 3.707031 -3.882812 3.816406 -3.75 3.890625 -3.59375 C 3.960938 -3.4375 4 -3.257812 4 -3.0625 C 4 -2.769531 3.925781 -2.507812 3.78125 -2.28125 C 3.644531 -2.050781 3.453125 -1.867188 3.203125 -1.734375 C 2.953125 -1.609375 2.664062 -1.546875 2.34375 -1.546875 C 2.300781 -1.546875 2.234375 -1.550781 2.140625 -1.5625 C 2.023438 -1.5625 1.941406 -1.5625 1.890625 -1.5625 C 1.742188 -1.5625 1.628906 -1.523438 1.546875 -1.453125 C 1.460938 -1.378906 1.421875 -1.285156 1.421875 -1.171875 C 1.421875 -1.023438 1.46875 -0.914062 1.5625 -0.84375 C 1.65625 -0.78125 1.804688 -0.742188 2.015625 -0.734375 L 3.09375 -0.703125 C 3.5625 -0.679688 3.90625 -0.570312 4.125 -0.375 C 4.351562 -0.175781 4.46875 0.101562 4.46875 0.46875 C 4.46875 0.75 4.394531 1 4.25 1.21875 C 4.101562 1.4375 3.867188 1.609375 3.546875 1.734375 C 3.234375 1.867188 2.832031 1.9375 2.34375 1.9375 Z M 2.34375 -2.125 C 2.664062 -2.125 2.914062 -2.207031 3.09375 -2.375 C 3.269531 -2.539062 3.359375 -2.773438 3.359375 -3.078125 C 3.359375 -3.398438 3.269531 -3.644531 3.09375 -3.8125 C 2.914062 -3.976562 2.664062 -4.0625 2.34375 -4.0625 C 2.019531 -4.0625 1.769531 -3.976562 1.59375 -3.8125 C 1.425781 -3.644531 1.34375 -3.398438 1.34375 -3.078125 C 1.34375 -2.773438 1.425781 -2.539062 1.59375 -2.375 C 1.769531 -2.207031 2.019531 -2.125 2.34375 -2.125 Z M 2.34375 1.359375 C 2.6875 1.359375 2.960938 1.320312 3.171875 1.25 C 3.390625 1.175781 3.546875 1.078125 3.640625 0.953125 C 3.734375 0.828125 3.78125 0.6875 3.78125 0.53125 C 3.78125 0.394531 3.753906 0.285156 3.703125 0.203125 C 3.648438 0.128906 3.566406 0.0703125 3.453125 0.03125 C 3.335938 -0.0078125 3.179688 -0.0351562 2.984375 -0.046875 L 1.96875 -0.109375 L 1.828125 -0.109375 C 1.253906 -0.0976562 0.96875 0.125 0.96875 0.5625 C 0.96875 1.09375 1.425781 1.359375 2.34375 1.359375 Z M 2.34375 1.359375 "/></g></g><g transform="translate(33.494776, 64.008762)"><g><path d="M 1.875 0.09375 C 1.425781 0.09375 1.078125 -0.0195312 0.828125 -0.25 C 0.578125 -0.488281 0.453125 -0.828125 0.453125 -1.265625 C 0.453125 -1.535156 0.503906 -1.765625 0.609375 -1.953125 C 0.722656 -2.140625 0.894531 -2.289062 1.125 -2.40625 C 1.363281 -2.519531 1.675781 -2.609375 2.0625 -2.671875 C 2.382812 -2.734375 2.628906 -2.796875 2.796875 -2.859375 C 2.972656 -2.929688 3.09375 -3.007812 3.15625 -3.09375 C 3.21875 -3.175781 3.25 -3.285156 3.25 -3.421875 C 3.25 -3.628906 3.175781 -3.785156 3.03125 -3.890625 C 2.882812 -4.003906 2.65625 -4.0625 2.34375 -4.0625 C 2.050781 -4.0625 1.800781 -4.003906 1.59375 -3.890625 C 1.382812 -3.773438 1.191406 -3.601562 1.015625 -3.375 L 0.921875 -3.375 L 0.59375 -3.84375 C 0.789062 -4.09375 1.035156 -4.285156 1.328125 -4.421875 C 1.628906 -4.566406 1.96875 -4.640625 2.34375 -4.640625 C 2.882812 -4.640625 3.28125 -4.519531 3.53125 -4.28125 C 3.789062 -4.050781 3.921875 -3.726562 3.921875 -3.3125 L 3.921875 -0.890625 C 3.921875 -0.640625 4.03125 -0.515625 4.25 -0.515625 C 4.3125 -0.515625 4.378906 -0.523438 4.453125 -0.546875 L 4.5 -0.53125 L 4.578125 -0.0625 C 4.535156 -0.03125 4.472656 -0.0078125 4.390625 0 C 4.304688 0.0195312 4.222656 0.03125 4.140625 0.03125 C 3.890625 0.03125 3.695312 -0.0195312 3.5625 -0.125 C 3.4375 -0.238281 3.359375 -0.40625 3.328125 -0.625 L 3.234375 -0.625 C 3.109375 -0.382812 2.929688 -0.203125 2.703125 -0.078125 C 2.484375 0.0351562 2.207031 0.09375 1.875 0.09375 Z M 2.03125 -0.453125 C 2.28125 -0.453125 2.5 -0.507812 2.6875 -0.625 C 2.875 -0.738281 3.015625 -0.898438 3.109375 -1.109375 C 3.210938 -1.328125 3.265625 -1.578125 3.265625 -1.859375 L 3.265625 -2.4375 L 3.1875 -2.453125 C 3.082031 -2.378906 2.957031 -2.316406 2.8125 -2.265625 C 2.664062 -2.222656 2.460938 -2.179688 2.203125 -2.140625 C 1.941406 -2.109375 1.734375 -2.050781 1.578125 -1.96875 C 1.421875 -1.894531 1.304688 -1.800781 1.234375 -1.6875 C 1.171875 -1.570312 1.140625 -1.429688 1.140625 -1.265625 C 1.140625 -1.003906 1.21875 -0.800781 1.375 -0.65625 C 1.53125 -0.519531 1.75 -0.453125 2.03125 -0.453125 Z M 2.03125 -0.453125 "/></g></g><g transform="translate(38.211972, 64.008762)"><g><path d="M 3.078125 -0.71875 L 3.296875 -0.234375 C 3.191406 -0.128906 3.050781 -0.0507812 2.875 0 C 2.695312 0.0625 2.507812 0.09375 2.3125 0.09375 C 1.4375 0.09375 1 -0.347656 1 -1.234375 L 1 -4.015625 L 0.203125 -4.015625 L 0.203125 -4.5625 L 1 -4.5625 L 1 -5.53125 L 1.671875 -5.640625 L 1.671875 -4.5625 L 3.140625 -4.5625 L 3.140625 -4.015625 L 1.671875 -4.015625 L 1.671875 -1.296875 C 1.671875 -0.773438 1.898438 -0.515625 2.359375 -0.515625 C 2.609375 -0.515625 2.820312 -0.582031 3 -0.71875 Z M 3.078125 -0.71875 "/></g></g><g transform="translate(41.684754, 64.008762)"><g><path d="M 4.34375 -2.125 L 1.21875 -2.125 C 1.226562 -1.570312 1.359375 -1.164062 1.609375 -0.90625 C 1.859375 -0.644531 2.195312 -0.515625 2.625 -0.515625 C 2.945312 -0.515625 3.207031 -0.570312 3.40625 -0.6875 C 3.601562 -0.800781 3.757812 -0.984375 3.875 -1.234375 L 3.96875 -1.234375 L 4.40625 -0.96875 C 4.269531 -0.644531 4.054688 -0.382812 3.765625 -0.1875 C 3.472656 0 3.09375 0.09375 2.625 0.09375 C 2.1875 0.09375 1.804688 0.00390625 1.484375 -0.171875 C 1.171875 -0.347656 0.925781 -0.613281 0.75 -0.96875 C 0.582031 -1.320312 0.5 -1.757812 0.5 -2.28125 C 0.5 -2.800781 0.585938 -3.238281 0.765625 -3.59375 C 0.953125 -3.945312 1.203125 -4.207031 1.515625 -4.375 C 1.828125 -4.550781 2.179688 -4.640625 2.578125 -4.640625 C 3.171875 -4.640625 3.628906 -4.472656 3.953125 -4.140625 C 4.273438 -3.816406 4.441406 -3.332031 4.453125 -2.6875 C 4.453125 -2.4375 4.445312 -2.265625 4.4375 -2.171875 Z M 3.78125 -2.6875 C 3.769531 -3.175781 3.660156 -3.53125 3.453125 -3.75 C 3.253906 -3.96875 2.960938 -4.078125 2.578125 -4.078125 C 2.179688 -4.078125 1.867188 -3.960938 1.640625 -3.734375 C 1.410156 -3.515625 1.273438 -3.164062 1.234375 -2.6875 Z M 3.78125 -2.6875 "/></g></g><g transform="translate(46.54665, 64.008762)"><g/></g><g transform="translate(48.62205, 64.008762)"><g><path d="M 3.078125 -0.71875 L 3.296875 -0.234375 C 3.191406 -0.128906 3.050781 -0.0507812 2.875 0 C 2.695312 0.0625 2.507812 0.09375 2.3125 0.09375 C 1.4375 0.09375 1 -0.347656 1 -1.234375 L 1 -4.015625 L 0.203125 -4.015625 L 0.203125 -4.5625 L 1 -4.5625 L 1 -5.53125 L 1.671875 -5.640625 L 1.671875 -4.5625 L 3.140625 -4.5625 L 3.140625 -4.015625 L 1.671875 -4.015625 L 1.671875 -1.296875 C 1.671875 -0.773438 1.898438 -0.515625 2.359375 -0.515625 C 2.609375 -0.515625 2.820312 -0.582031 3 -0.71875 Z M 3.078125 -0.71875 "/></g></g><g transform="translate(52.094833, 64.008762)"><g><path d="M 2.625 0.09375 C 2.1875 0.09375 1.804688 0.00390625 1.484375 -0.171875 C 1.171875 -0.359375 0.925781 -0.628906 0.75 -0.984375 C 0.582031 -1.335938 0.5 -1.769531 0.5 -2.28125 C 0.5 -2.78125 0.582031 -3.207031 0.75 -3.5625 C 0.925781 -3.925781 1.171875 -4.195312 1.484375 -4.375 C 1.804688 -4.550781 2.1875 -4.640625 2.625 -4.640625 C 3.050781 -4.640625 3.421875 -4.550781 3.734375 -4.375 C 4.054688 -4.195312 4.300781 -3.925781 4.46875 -3.5625 C 4.644531 -3.207031 4.734375 -2.78125 4.734375 -2.28125 C 4.734375 -1.769531 4.644531 -1.335938 4.46875 -0.984375 C 4.300781 -0.628906 4.054688 -0.359375 3.734375 -0.171875 C 3.421875 0.00390625 3.050781 0.09375 2.625 0.09375 Z M 2.625 -0.515625 C 3.070312 -0.515625 3.414062 -0.65625 3.65625 -0.9375 C 3.90625 -1.226562 4.03125 -1.675781 4.03125 -2.28125 C 4.03125 -2.882812 3.90625 -3.328125 3.65625 -3.609375 C 3.414062 -3.898438 3.070312 -4.046875 2.625 -4.046875 C 2.164062 -4.046875 1.8125 -3.898438 1.5625 -3.609375 C 1.320312 -3.328125 1.203125 -2.882812 1.203125 -2.28125 C 1.203125 -1.675781 1.320312 -1.226562 1.5625 -0.9375 C 1.8125 -0.65625 2.164062 -0.515625 2.625 -0.515625 Z M 2.625 -0.515625 "/></g></g><g transform="translate(57.328812, 64.008762)"><g/></g><g transform="translate(59.404213, 64.008762)"><g><path d="M 0.796875 0 L 0.796875 -4.5625 L 1.4375 -4.5625 L 1.4375 -3.890625 L 1.515625 -3.875 C 1.671875 -4.125 1.859375 -4.3125 2.078125 -4.4375 C 2.296875 -4.570312 2.5625 -4.640625 2.875 -4.640625 C 3.226562 -4.640625 3.5 -4.570312 3.6875 -4.4375 C 3.882812 -4.3125 4.035156 -4.097656 4.140625 -3.796875 L 4.21875 -3.796875 C 4.382812 -4.078125 4.582031 -4.285156 4.8125 -4.421875 C 5.039062 -4.566406 5.320312 -4.640625 5.65625 -4.640625 C 6.125 -4.640625 6.472656 -4.515625 6.703125 -4.265625 C 6.929688 -4.015625 7.046875 -3.628906 7.046875 -3.109375 L 7.046875 0 L 6.375 0 L 6.375 -3.09375 C 6.375 -3.425781 6.300781 -3.671875 6.15625 -3.828125 C 6.019531 -3.984375 5.800781 -4.0625 5.5 -4.0625 C 5.132812 -4.0625 4.835938 -3.925781 4.609375 -3.65625 C 4.378906 -3.394531 4.265625 -2.960938 4.265625 -2.359375 L 4.265625 0 L 3.578125 0 L 3.578125 -3.09375 C 3.578125 -3.425781 3.507812 -3.671875 3.375 -3.828125 C 3.238281 -3.984375 3.015625 -4.0625 2.703125 -4.0625 C 2.335938 -4.0625 2.039062 -3.929688 1.8125 -3.671875 C 1.582031 -3.421875 1.46875 -3.003906 1.46875 -2.421875 L 1.46875 0 Z M 0.796875 0 "/></g></g><g transform="translate(67.17663, 64.008762)"><g><path d="M 1.140625 -5.4375 C 0.992188 -5.4375 0.875 -5.476562 0.78125 -5.5625 C 0.695312 -5.65625 0.65625 -5.773438 0.65625 -5.921875 C 0.65625 -6.054688 0.695312 -6.164062 0.78125 -6.25 C 0.875 -6.34375 0.992188 -6.390625 1.140625 -6.390625 C 1.273438 -6.390625 1.382812 -6.34375 1.46875 -6.25 C 1.5625 -6.164062 1.609375 -6.054688 1.609375 -5.921875 C 1.609375 -5.773438 1.5625 -5.65625 1.46875 -5.5625 C 1.382812 -5.476562 1.273438 -5.4375 1.140625 -5.4375 Z M 0.796875 0 L 0.796875 -4.5625 L 1.46875 -4.5625 L 1.46875 0 Z M 0.796875 0 "/></g></g><g transform="translate(69.438073, 64.008762)"><g><path d="M 1.8125 0.09375 C 1.488281 0.09375 1.234375 0 1.046875 -0.1875 C 0.867188 -0.375 0.78125 -0.648438 0.78125 -1.015625 L 0.78125 -6.390625 L 1.453125 -6.390625 L 1.453125 -1.046875 C 1.453125 -0.859375 1.488281 -0.722656 1.5625 -0.640625 C 1.632812 -0.554688 1.75 -0.515625 1.90625 -0.515625 C 2 -0.515625 2.09375 -0.53125 2.1875 -0.5625 L 2.25 -0.546875 L 2.328125 -0.015625 C 2.273438 0.015625 2.203125 0.0390625 2.109375 0.0625 C 2.015625 0.0820312 1.914062 0.09375 1.8125 0.09375 Z M 1.8125 0.09375 "/></g></g><g transform="translate(71.918632, 64.008762)"><g><path d="M 1.8125 0.09375 C 1.488281 0.09375 1.234375 0 1.046875 -0.1875 C 0.867188 -0.375 0.78125 -0.648438 0.78125 -1.015625 L 0.78125 -6.390625 L 1.453125 -6.390625 L 1.453125 -1.046875 C 1.453125 -0.859375 1.488281 -0.722656 1.5625 -0.640625 C 1.632812 -0.554688 1.75 -0.515625 1.90625 -0.515625 C 2 -0.515625 2.09375 -0.53125 2.1875 -0.5625 L 2.25 -0.546875 L 2.328125 -0.015625 C 2.273438 0.015625 2.203125 0.0390625 2.109375 0.0625 C 2.015625 0.0820312 1.914062 0.09375 1.8125 0.09375 Z M 1.8125 0.09375 "/></g></g><g transform="translate(74.399191, 64.008762)"><g><path d="M 1.140625 -5.4375 C 0.992188 -5.4375 0.875 -5.476562 0.78125 -5.5625 C 0.695312 -5.65625 0.65625 -5.773438 0.65625 -5.921875 C 0.65625 -6.054688 0.695312 -6.164062 0.78125 -6.25 C 0.875 -6.34375 0.992188 -6.390625 1.140625 -6.390625 C 1.273438 -6.390625 1.382812 -6.34375 1.46875 -6.25 C 1.5625 -6.164062 1.609375 -6.054688 1.609375 -5.921875 C 1.609375 -5.773438 1.5625 -5.65625 1.46875 -5.5625 C 1.382812 -5.476562 1.273438 -5.4375 1.140625 -5.4375 Z M 0.796875 0 L 0.796875 -4.5625 L 1.46875 -4.5625 L 1.46875 0 Z M 0.796875 0 "/></g></g><g transform="translate(76.660634, 64.008762)"><g><path d="M 2.625 0.09375 C 2.1875 0.09375 1.804688 0.00390625 1.484375 -0.171875 C 1.171875 -0.359375 0.925781 -0.628906 0.75 -0.984375 C 0.582031 -1.335938 0.5 -1.769531 0.5 -2.28125 C 0.5 -2.78125 0.582031 -3.207031 0.75 -3.5625 C 0.925781 -3.925781 1.171875 -4.195312 1.484375 -4.375 C 1.804688 -4.550781 2.1875 -4.640625 2.625 -4.640625 C 3.050781 -4.640625 3.421875 -4.550781 3.734375 -4.375 C 4.054688 -4.195312 4.300781 -3.925781 4.46875 -3.5625 C 4.644531 -3.207031 4.734375 -2.78125 4.734375 -2.28125 C 4.734375 -1.769531 4.644531 -1.335938 4.46875 -0.984375 C 4.300781 -0.628906 4.054688 -0.359375 3.734375 -0.171875 C 3.421875 0.00390625 3.050781 0.09375 2.625 0.09375 Z M 2.625 -0.515625 C 3.070312 -0.515625 3.414062 -0.65625 3.65625 -0.9375 C 3.90625 -1.226562 4.03125 -1.675781 4.03125 -2.28125 C 4.03125 -2.882812 3.90625 -3.328125 3.65625 -3.609375 C 3.414062 -3.898438 3.070312 -4.046875 2.625 -4.046875 C 2.164062 -4.046875 1.8125 -3.898438 1.5625 -3.609375 C 1.320312 -3.328125 1.203125 -2.882812 1.203125 -2.28125 C 1.203125 -1.675781 1.320312 -1.226562 1.5625 -0.9375 C 1.8125 -0.65625 2.164062 -0.515625 2.625 -0.515625 Z M 2.625 -0.515625 "/></g></g><g transform="translate(81.894613, 64.008762)"><g><path d="M 0.796875 0 L 0.796875 -4.5625 L 1.4375 -4.5625 L 1.4375 -3.84375 L 1.515625 -3.828125 C 1.671875 -4.085938 1.863281 -4.285156 2.09375 -4.421875 C 2.332031 -4.566406 2.625 -4.640625 2.96875 -4.640625 C 3.507812 -4.640625 3.90625 -4.5 4.15625 -4.21875 C 4.40625 -3.945312 4.53125 -3.519531 4.53125 -2.9375 L 4.53125 0 L 3.859375 0 L 3.859375 -2.921875 C 3.859375 -3.191406 3.820312 -3.410156 3.75 -3.578125 C 3.675781 -3.742188 3.566406 -3.863281 3.421875 -3.9375 C 3.273438 -4.019531 3.082031 -4.0625 2.84375 -4.0625 C 2.425781 -4.0625 2.09375 -3.925781 1.84375 -3.65625 C 1.59375 -3.382812 1.46875 -2.945312 1.46875 -2.34375 L 1.46875 0 Z M 0.796875 0 "/></g></g><g transform="translate(87.145129, 64.008762)"><g><path d="M 2.078125 0.09375 C 1.796875 0.09375 1.53125 0.0546875 1.28125 -0.015625 C 1.039062 -0.0976562 0.832031 -0.203125 0.65625 -0.328125 C 0.488281 -0.460938 0.375 -0.613281 0.3125 -0.78125 L 0.703125 -1.203125 L 0.796875 -1.203125 C 0.941406 -0.972656 1.117188 -0.800781 1.328125 -0.6875 C 1.535156 -0.570312 1.785156 -0.515625 2.078125 -0.515625 C 2.410156 -0.515625 2.664062 -0.578125 2.84375 -0.703125 C 3.019531 -0.835938 3.109375 -1.023438 3.109375 -1.265625 C 3.109375 -1.441406 3.054688 -1.585938 2.953125 -1.703125 C 2.847656 -1.816406 2.675781 -1.90625 2.4375 -1.96875 L 1.671875 -2.15625 C 1.253906 -2.257812 0.953125 -2.414062 0.765625 -2.625 C 0.578125 -2.84375 0.484375 -3.109375 0.484375 -3.421875 C 0.484375 -3.671875 0.546875 -3.882812 0.671875 -4.0625 C 0.796875 -4.25 0.976562 -4.390625 1.21875 -4.484375 C 1.457031 -4.585938 1.742188 -4.640625 2.078125 -4.640625 C 2.492188 -4.640625 2.820312 -4.582031 3.0625 -4.46875 C 3.300781 -4.351562 3.488281 -4.191406 3.625 -3.984375 L 3.25 -3.609375 L 3.15625 -3.609375 C 3.007812 -3.773438 2.847656 -3.894531 2.671875 -3.96875 C 2.503906 -4.039062 2.304688 -4.078125 2.078125 -4.078125 C 1.773438 -4.078125 1.539062 -4.023438 1.375 -3.921875 C 1.21875 -3.816406 1.140625 -3.660156 1.140625 -3.453125 C 1.140625 -3.273438 1.195312 -3.128906 1.3125 -3.015625 C 1.425781 -2.898438 1.625 -2.804688 1.90625 -2.734375 L 2.65625 -2.5625 C 3.050781 -2.46875 3.335938 -2.3125 3.515625 -2.09375 C 3.691406 -1.875 3.78125 -1.597656 3.78125 -1.265625 C 3.78125 -1.003906 3.71875 -0.769531 3.59375 -0.5625 C 3.46875 -0.351562 3.273438 -0.191406 3.015625 -0.078125 C 2.765625 0.0351562 2.453125 0.09375 2.078125 0.09375 Z M 2.078125 0.09375 "/></g></g><g transform="translate(91.362079, 64.008762)"><g/></g><g transform="translate(93.43748, 64.008762)"><g><path d="M 2.625 0.09375 C 2.1875 0.09375 1.804688 0.00390625 1.484375 -0.171875 C 1.171875 -0.359375 0.925781 -0.628906 0.75 -0.984375 C 0.582031 -1.335938 0.5 -1.769531 0.5 -2.28125 C 0.5 -2.78125 0.582031 -3.207031 0.75 -3.5625 C 0.925781 -3.925781 1.171875 -4.195312 1.484375 -4.375 C 1.804688 -4.550781 2.1875 -4.640625 2.625 -4.640625 C 3.050781 -4.640625 3.421875 -4.550781 3.734375 -4.375 C 4.054688 -4.195312 4.300781 -3.925781 4.46875 -3.5625 C 4.644531 -3.207031 4.734375 -2.78125 4.734375 -2.28125 C 4.734375 -1.769531 4.644531 -1.335938 4.46875 -0.984375 C 4.300781 -0.628906 4.054688 -0.359375 3.734375 -0.171875 C 3.421875 0.00390625 3.050781 0.09375 2.625 0.09375 Z M 2.625 -0.515625 C 3.070312 -0.515625 3.414062 -0.65625 3.65625 -0.9375 C 3.90625 -1.226562 4.03125 -1.675781 4.03125 -2.28125 C 4.03125 -2.882812 3.90625 -3.328125 3.65625 -3.609375 C 3.414062 -3.898438 3.070312 -4.046875 2.625 -4.046875 C 2.164062 -4.046875 1.8125 -3.898438 1.5625 -3.609375 C 1.320312 -3.328125 1.203125 -2.882812 1.203125 -2.28125 C 1.203125 -1.675781 1.320312 -1.226562 1.5625 -0.9375 C 1.8125 -0.65625 2.164062 -0.515625 2.625 -0.515625 Z M 2.625 -0.515625 "/></g></g><g transform="translate(98.671459, 64.008762)"><g><path d="M 1.015625 0 L 1.015625 -4.015625 L 0.21875 -4.015625 L 0.21875 -4.5625 L 1.015625 -4.5625 C 0.960938 -4.757812 0.9375 -4.945312 0.9375 -5.125 C 0.9375 -5.425781 1 -5.675781 1.125 -5.875 C 1.25 -6.082031 1.421875 -6.234375 1.640625 -6.328125 C 1.867188 -6.429688 2.128906 -6.484375 2.421875 -6.484375 C 2.878906 -6.484375 3.226562 -6.382812 3.46875 -6.1875 L 3.21875 -5.703125 L 3.125 -5.6875 C 2.945312 -5.832031 2.710938 -5.90625 2.421875 -5.90625 C 2.160156 -5.90625 1.957031 -5.835938 1.8125 -5.703125 C 1.675781 -5.566406 1.609375 -5.367188 1.609375 -5.109375 C 1.609375 -4.953125 1.632812 -4.769531 1.6875 -4.5625 L 3.140625 -4.5625 L 3.140625 -4.015625 L 1.6875 -4.015625 L 1.6875 0 Z M 1.015625 0 "/></g></g></g><g fill="#000000" fill-opacity="1"><g transform="translate(16.376164, 75.298061)"><g><path d="M 2.265625 0 L 1.40625 0 L 0.296875 -4.5625 L 0.953125 -4.5625 L 1.828125 -0.78125 L 1.90625 -0.78125 L 2.96875 -4.5625 L 3.6875 -4.5625 L 4.78125 -0.78125 L 4.859375 -0.78125 L 5.703125 -4.5625 L 6.359375 -4.5625 L 5.25 0 L 4.390625 0 L 3.359375 -3.546875 L 3.265625 -3.546875 Z M 2.265625 0 "/></g></g><g transform="translate(23.024061, 75.298061)"><g><path d="M 4.34375 -2.125 L 1.21875 -2.125 C 1.226562 -1.570312 1.359375 -1.164062 1.609375 -0.90625 C 1.859375 -0.644531 2.195312 -0.515625 2.625 -0.515625 C 2.945312 -0.515625 3.207031 -0.570312 3.40625 -0.6875 C 3.601562 -0.800781 3.757812 -0.984375 3.875 -1.234375 L 3.96875 -1.234375 L 4.40625 -0.96875 C 4.269531 -0.644531 4.054688 -0.382812 3.765625 -0.1875 C 3.472656 0 3.09375 0.09375 2.625 0.09375 C 2.1875 0.09375 1.804688 0.00390625 1.484375 -0.171875 C 1.171875 -0.347656 0.925781 -0.613281 0.75 -0.96875 C 0.582031 -1.320312 0.5 -1.757812 0.5 -2.28125 C 0.5 -2.800781 0.585938 -3.238281 0.765625 -3.59375 C 0.953125 -3.945312 1.203125 -4.207031 1.515625 -4.375 C 1.828125 -4.550781 2.179688 -4.640625 2.578125 -4.640625 C 3.171875 -4.640625 3.628906 -4.472656 3.953125 -4.140625 C 4.273438 -3.816406 4.441406 -3.332031 4.453125 -2.6875 C 4.453125 -2.4375 4.445312 -2.265625 4.4375 -2.171875 Z M 3.78125 -2.6875 C 3.769531 -3.175781 3.660156 -3.53125 3.453125 -3.75 C 3.253906 -3.96875 2.960938 -4.078125 2.578125 -4.078125 C 2.179688 -4.078125 1.867188 -3.960938 1.640625 -3.734375 C 1.410156 -3.515625 1.273438 -3.164062 1.234375 -2.6875 Z M 3.78125 -2.6875 "/></g></g><g transform="translate(27.885957, 75.298061)"><g><path d="M 3.03125 0.09375 C 2.6875 0.09375 2.390625 0.0234375 2.140625 -0.109375 C 1.898438 -0.242188 1.707031 -0.414062 1.5625 -0.625 L 1.46875 -0.609375 L 1.46875 0 L 0.796875 0 L 0.796875 -6.390625 L 1.46875 -6.390625 L 1.46875 -3.875 L 1.5625 -3.859375 C 1.90625 -4.378906 2.40625 -4.640625 3.0625 -4.640625 C 3.4375 -4.640625 3.765625 -4.550781 4.046875 -4.375 C 4.328125 -4.207031 4.546875 -3.945312 4.703125 -3.59375 C 4.859375 -3.238281 4.9375 -2.800781 4.9375 -2.28125 C 4.9375 -1.757812 4.851562 -1.320312 4.6875 -0.96875 C 4.53125 -0.613281 4.304688 -0.347656 4.015625 -0.171875 C 3.734375 0.00390625 3.40625 0.09375 3.03125 0.09375 Z M 2.875 -0.515625 C 3.78125 -0.515625 4.234375 -1.101562 4.234375 -2.28125 C 4.234375 -2.882812 4.113281 -3.328125 3.875 -3.609375 C 3.632812 -3.898438 3.300781 -4.046875 2.875 -4.046875 C 2.445312 -4.046875 2.101562 -3.898438 1.84375 -3.609375 C 1.59375 -3.316406 1.46875 -2.875 1.46875 -2.28125 C 1.46875 -1.6875 1.59375 -1.242188 1.84375 -0.953125 C 2.101562 -0.660156 2.445312 -0.515625 2.875 -0.515625 Z M 2.875 -0.515625 "/></g></g><g transform="translate(33.326649, 75.298061)"><g><path d="M 0.796875 1.84375 L 0.796875 -4.5625 L 1.46875 -4.5625 L 1.46875 -3.875 L 1.5625 -3.859375 C 1.894531 -4.378906 2.390625 -4.640625 3.046875 -4.640625 C 3.429688 -4.640625 3.765625 -4.550781 4.046875 -4.375 C 4.328125 -4.207031 4.546875 -3.945312 4.703125 -3.59375 C 4.859375 -3.238281 4.9375 -2.800781 4.9375 -2.28125 C 4.9375 -1.757812 4.851562 -1.320312 4.6875 -0.96875 C 4.519531 -0.613281 4.289062 -0.347656 4 -0.171875 C 3.707031 0.00390625 3.375 0.09375 3 0.09375 C 2.6875 0.09375 2.410156 0.0390625 2.171875 -0.0625 C 1.929688 -0.175781 1.726562 -0.359375 1.5625 -0.609375 L 1.46875 -0.59375 L 1.46875 1.84375 Z M 2.84375 -0.515625 C 3.769531 -0.515625 4.234375 -1.101562 4.234375 -2.28125 C 4.234375 -3.457031 3.769531 -4.046875 2.84375 -4.046875 C 2.570312 -4.046875 2.332031 -3.984375 2.125 -3.859375 C 1.925781 -3.734375 1.765625 -3.535156 1.640625 -3.265625 C 1.523438 -3.003906 1.46875 -2.675781 1.46875 -2.28125 C 1.46875 -1.875 1.523438 -1.539062 1.640625 -1.28125 C 1.765625 -1.019531 1.925781 -0.828125 2.125 -0.703125 C 2.332031 -0.578125 2.570312 -0.515625 2.84375 -0.515625 Z M 2.84375 -0.515625 "/></g></g><g transform="translate(38.767341, 75.298061)"><g><path d="M 1.875 0.09375 C 1.425781 0.09375 1.078125 -0.0195312 0.828125 -0.25 C 0.578125 -0.488281 0.453125 -0.828125 0.453125 -1.265625 C 0.453125 -1.535156 0.503906 -1.765625 0.609375 -1.953125 C 0.722656 -2.140625 0.894531 -2.289062 1.125 -2.40625 C 1.363281 -2.519531 1.675781 -2.609375 2.0625 -2.671875 C 2.382812 -2.734375 2.628906 -2.796875 2.796875 -2.859375 C 2.972656 -2.929688 3.09375 -3.007812 3.15625 -3.09375 C 3.21875 -3.175781 3.25 -3.285156 3.25 -3.421875 C 3.25 -3.628906 3.175781 -3.785156 3.03125 -3.890625 C 2.882812 -4.003906 2.65625 -4.0625 2.34375 -4.0625 C 2.050781 -4.0625 1.800781 -4.003906 1.59375 -3.890625 C 1.382812 -3.773438 1.191406 -3.601562 1.015625 -3.375 L 0.921875 -3.375 L 0.59375 -3.84375 C 0.789062 -4.09375 1.035156 -4.285156 1.328125 -4.421875 C 1.628906 -4.566406 1.96875 -4.640625 2.34375 -4.640625 C 2.882812 -4.640625 3.28125 -4.519531 3.53125 -4.28125 C 3.789062 -4.050781 3.921875 -3.726562 3.921875 -3.3125 L 3.921875 -0.890625 C 3.921875 -0.640625 4.03125 -0.515625 4.25 -0.515625 C 4.3125 -0.515625 4.378906 -0.523438 4.453125 -0.546875 L 4.5 -0.53125 L 4.578125 -0.0625 C 4.535156 -0.03125 4.472656 -0.0078125 4.390625 0 C 4.304688 0.0195312 4.222656 0.03125 4.140625 0.03125 C 3.890625 0.03125 3.695312 -0.0195312 3.5625 -0.125 C 3.4375 -0.238281 3.359375 -0.40625 3.328125 -0.625 L 3.234375 -0.625 C 3.109375 -0.382812 2.929688 -0.203125 2.703125 -0.078125 C 2.484375 0.0351562 2.207031 0.09375 1.875 0.09375 Z M 2.03125 -0.453125 C 2.28125 -0.453125 2.5 -0.507812 2.6875 -0.625 C 2.875 -0.738281 3.015625 -0.898438 3.109375 -1.109375 C 3.210938 -1.328125 3.265625 -1.578125 3.265625 -1.859375 L 3.265625 -2.4375 L 3.1875 -2.453125 C 3.082031 -2.378906 2.957031 -2.316406 2.8125 -2.265625 C 2.664062 -2.222656 2.460938 -2.179688 2.203125 -2.140625 C 1.941406 -2.109375 1.734375 -2.050781 1.578125 -1.96875 C 1.421875 -1.894531 1.304688 -1.800781 1.234375 -1.6875 C 1.171875 -1.570312 1.140625 -1.429688 1.140625 -1.265625 C 1.140625 -1.003906 1.21875 -0.800781 1.375 -0.65625 C 1.53125 -0.519531 1.75 -0.453125 2.03125 -0.453125 Z M 2.03125 -0.453125 "/></g></g><g transform="translate(43.484538, 75.298061)"><g><path d="M 2.34375 1.9375 C 1.625 1.9375 1.097656 1.816406 0.765625 1.578125 C 0.441406 1.335938 0.28125 1.019531 0.28125 0.625 C 0.28125 0.363281 0.351562 0.15625 0.5 0 C 0.65625 -0.144531 0.882812 -0.25 1.1875 -0.3125 L 1.1875 -0.40625 C 1.039062 -0.488281 0.929688 -0.582031 0.859375 -0.6875 C 0.796875 -0.789062 0.765625 -0.921875 0.765625 -1.078125 C 0.765625 -1.242188 0.816406 -1.382812 0.921875 -1.5 C 1.035156 -1.613281 1.203125 -1.695312 1.421875 -1.75 L 1.421875 -1.84375 C 0.929688 -2.101562 0.6875 -2.53125 0.6875 -3.125 C 0.6875 -3.414062 0.753906 -3.675781 0.890625 -3.90625 C 1.023438 -4.144531 1.21875 -4.328125 1.46875 -4.453125 C 1.71875 -4.578125 2.007812 -4.640625 2.34375 -4.640625 C 2.726562 -4.640625 3.046875 -4.554688 3.296875 -4.390625 C 3.390625 -4.503906 3.460938 -4.617188 3.515625 -4.734375 C 3.566406 -4.859375 3.597656 -5 3.609375 -5.15625 L 3.703125 -5.203125 L 4.25 -5.078125 C 4.21875 -4.847656 4.144531 -4.648438 4.03125 -4.484375 C 3.925781 -4.328125 3.769531 -4.195312 3.5625 -4.09375 L 3.5625 -4 C 3.707031 -3.882812 3.816406 -3.75 3.890625 -3.59375 C 3.960938 -3.4375 4 -3.257812 4 -3.0625 C 4 -2.769531 3.925781 -2.507812 3.78125 -2.28125 C 3.644531 -2.050781 3.453125 -1.867188 3.203125 -1.734375 C 2.953125 -1.609375 2.664062 -1.546875 2.34375 -1.546875 C 2.300781 -1.546875 2.234375 -1.550781 2.140625 -1.5625 C 2.023438 -1.5625 1.941406 -1.5625 1.890625 -1.5625 C 1.742188 -1.5625 1.628906 -1.523438 1.546875 -1.453125 C 1.460938 -1.378906 1.421875 -1.285156 1.421875 -1.171875 C 1.421875 -1.023438 1.46875 -0.914062 1.5625 -0.84375 C 1.65625 -0.78125 1.804688 -0.742188 2.015625 -0.734375 L 3.09375 -0.703125 C 3.5625 -0.679688 3.90625 -0.570312 4.125 -0.375 C 4.351562 -0.175781 4.46875 0.101562 4.46875 0.46875 C 4.46875 0.75 4.394531 1 4.25 1.21875 C 4.101562 1.4375 3.867188 1.609375 3.546875 1.734375 C 3.234375 1.867188 2.832031 1.9375 2.34375 1.9375 Z M 2.34375 -2.125 C 2.664062 -2.125 2.914062 -2.207031 3.09375 -2.375 C 3.269531 -2.539062 3.359375 -2.773438 3.359375 -3.078125 C 3.359375 -3.398438 3.269531 -3.644531 3.09375 -3.8125 C 2.914062 -3.976562 2.664062 -4.0625 2.34375 -4.0625 C 2.019531 -4.0625 1.769531 -3.976562 1.59375 -3.8125 C 1.425781 -3.644531 1.34375 -3.398438 1.34375 -3.078125 C 1.34375 -2.773438 1.425781 -2.539062 1.59375 -2.375 C 1.769531 -2.207031 2.019531 -2.125 2.34375 -2.125 Z M 2.34375 1.359375 C 2.6875 1.359375 2.960938 1.320312 3.171875 1.25 C 3.390625 1.175781 3.546875 1.078125 3.640625 0.953125 C 3.734375 0.828125 3.78125 0.6875 3.78125 0.53125 C 3.78125 0.394531 3.753906 0.285156 3.703125 0.203125 C 3.648438 0.128906 3.566406 0.0703125 3.453125 0.03125 C 3.335938 -0.0078125 3.179688 -0.0351562 2.984375 -0.046875 L 1.96875 -0.109375 L 1.828125 -0.109375 C 1.253906 -0.0976562 0.96875 0.125 0.96875 0.5625 C 0.96875 1.09375 1.425781 1.359375 2.34375 1.359375 Z M 2.34375 1.359375 "/></g></g><g transform="translate(48.156257, 75.298061)"><g><path d="M 4.34375 -2.125 L 1.21875 -2.125 C 1.226562 -1.570312 1.359375 -1.164062 1.609375 -0.90625 C 1.859375 -0.644531 2.195312 -0.515625 2.625 -0.515625 C 2.945312 -0.515625 3.207031 -0.570312 3.40625 -0.6875 C 3.601562 -0.800781 3.757812 -0.984375 3.875 -1.234375 L 3.96875 -1.234375 L 4.40625 -0.96875 C 4.269531 -0.644531 4.054688 -0.382812 3.765625 -0.1875 C 3.472656 0 3.09375 0.09375 2.625 0.09375 C 2.1875 0.09375 1.804688 0.00390625 1.484375 -0.171875 C 1.171875 -0.347656 0.925781 -0.613281 0.75 -0.96875 C 0.582031 -1.320312 0.5 -1.757812 0.5 -2.28125 C 0.5 -2.800781 0.585938 -3.238281 0.765625 -3.59375 C 0.953125 -3.945312 1.203125 -4.207031 1.515625 -4.375 C 1.828125 -4.550781 2.179688 -4.640625 2.578125 -4.640625 C 3.171875 -4.640625 3.628906 -4.472656 3.953125 -4.140625 C 4.273438 -3.816406 4.441406 -3.332031 4.453125 -2.6875 C 4.453125 -2.4375 4.445312 -2.265625 4.4375 -2.171875 Z M 3.78125 -2.6875 C 3.769531 -3.175781 3.660156 -3.53125 3.453125 -3.75 C 3.253906 -3.96875 2.960938 -4.078125 2.578125 -4.078125 C 2.179688 -4.078125 1.867188 -3.960938 1.640625 -3.734375 C 1.410156 -3.515625 1.273438 -3.164062 1.234375 -2.6875 Z M 3.78125 -2.6875 "/></g></g><g transform="translate(53.018152, 75.298061)"><g><path d="M 2.078125 0.09375 C 1.796875 0.09375 1.53125 0.0546875 1.28125 -0.015625 C 1.039062 -0.0976562 0.832031 -0.203125 0.65625 -0.328125 C 0.488281 -0.460938 0.375 -0.613281 0.3125 -0.78125 L 0.703125 -1.203125 L 0.796875 -1.203125 C 0.941406 -0.972656 1.117188 -0.800781 1.328125 -0.6875 C 1.535156 -0.570312 1.785156 -0.515625 2.078125 -0.515625 C 2.410156 -0.515625 2.664062 -0.578125 2.84375 -0.703125 C 3.019531 -0.835938 3.109375 -1.023438 3.109375 -1.265625 C 3.109375 -1.441406 3.054688 -1.585938 2.953125 -1.703125 C 2.847656 -1.816406 2.675781 -1.90625 2.4375 -1.96875 L 1.671875 -2.15625 C 1.253906 -2.257812 0.953125 -2.414062 0.765625 -2.625 C 0.578125 -2.84375 0.484375 -3.109375 0.484375 -3.421875 C 0.484375 -3.671875 0.546875 -3.882812 0.671875 -4.0625 C 0.796875 -4.25 0.976562 -4.390625 1.21875 -4.484375 C 1.457031 -4.585938 1.742188 -4.640625 2.078125 -4.640625 C 2.492188 -4.640625 2.820312 -4.582031 3.0625 -4.46875 C 3.300781 -4.351562 3.488281 -4.191406 3.625 -3.984375 L 3.25 -3.609375 L 3.15625 -3.609375 C 3.007812 -3.773438 2.847656 -3.894531 2.671875 -3.96875 C 2.503906 -4.039062 2.304688 -4.078125 2.078125 -4.078125 C 1.773438 -4.078125 1.539062 -4.023438 1.375 -3.921875 C 1.21875 -3.816406 1.140625 -3.660156 1.140625 -3.453125 C 1.140625 -3.273438 1.195312 -3.128906 1.3125 -3.015625 C 1.425781 -2.898438 1.625 -2.804688 1.90625 -2.734375 L 2.65625 -2.5625 C 3.050781 -2.46875 3.335938 -2.3125 3.515625 -2.09375 C 3.691406 -1.875 3.78125 -1.597656 3.78125 -1.265625 C 3.78125 -1.003906 3.71875 -0.769531 3.59375 -0.5625 C 3.46875 -0.351562 3.273438 -0.191406 3.015625 -0.078125 C 2.765625 0.0351562 2.453125 0.09375 2.078125 0.09375 Z M 2.078125 0.09375 "/></g></g><g transform="translate(57.235102, 75.298061)"><g/></g><g transform="translate(59.310503, 75.298061)"><g><path d="M 2.78125 -2.640625 L 0.4375 -2.640625 L 0.4375 -3.234375 L 2.78125 -3.234375 Z M 2.78125 -2.640625 "/></g></g><g transform="translate(62.518692, 75.298061)"><g/></g><g transform="translate(64.594093, 75.298061)"><g><path d="M 4.34375 -2.125 L 1.21875 -2.125 C 1.226562 -1.570312 1.359375 -1.164062 1.609375 -0.90625 C 1.859375 -0.644531 2.195312 -0.515625 2.625 -0.515625 C 2.945312 -0.515625 3.207031 -0.570312 3.40625 -0.6875 C 3.601562 -0.800781 3.757812 -0.984375 3.875 -1.234375 L 3.96875 -1.234375 L 4.40625 -0.96875 C 4.269531 -0.644531 4.054688 -0.382812 3.765625 -0.1875 C 3.472656 0 3.09375 0.09375 2.625 0.09375 C 2.1875 0.09375 1.804688 0.00390625 1.484375 -0.171875 C 1.171875 -0.347656 0.925781 -0.613281 0.75 -0.96875 C 0.582031 -1.320312 0.5 -1.757812 0.5 -2.28125 C 0.5 -2.800781 0.585938 -3.238281 0.765625 -3.59375 C 0.953125 -3.945312 1.203125 -4.207031 1.515625 -4.375 C 1.828125 -4.550781 2.179688 -4.640625 2.578125 -4.640625 C 3.171875 -4.640625 3.628906 -4.472656 3.953125 -4.140625 C 4.273438 -3.816406 4.441406 -3.332031 4.453125 -2.6875 C 4.453125 -2.4375 4.445312 -2.265625 4.4375 -2.171875 Z M 3.78125 -2.6875 C 3.769531 -3.175781 3.660156 -3.53125 3.453125 -3.75 C 3.253906 -3.96875 2.960938 -4.078125 2.578125 -4.078125 C 2.179688 -4.078125 1.867188 -3.960938 1.640625 -3.734375 C 1.410156 -3.515625 1.273438 -3.164062 1.234375 -2.6875 Z M 3.78125 -2.6875 "/></g></g><g transform="translate(69.455989, 75.298061)"><g><path d="M 0.796875 0 L 0.796875 -4.5625 L 1.4375 -4.5625 L 1.4375 -3.84375 L 1.515625 -3.828125 C 1.671875 -4.085938 1.863281 -4.285156 2.09375 -4.421875 C 2.332031 -4.566406 2.625 -4.640625 2.96875 -4.640625 C 3.507812 -4.640625 3.90625 -4.5 4.15625 -4.21875 C 4.40625 -3.945312 4.53125 -3.519531 4.53125 -2.9375 L 4.53125 0 L 3.859375 0 L 3.859375 -2.921875 C 3.859375 -3.191406 3.820312 -3.410156 3.75 -3.578125 C 3.675781 -3.742188 3.566406 -3.863281 3.421875 -3.9375 C 3.273438 -4.019531 3.082031 -4.0625 2.84375 -4.0625 C 2.425781 -4.0625 2.09375 -3.925781 1.84375 -3.65625 C 1.59375 -3.382812 1.46875 -2.945312 1.46875 -2.34375 L 1.46875 0 Z M 0.796875 0 "/></g></g><g transform="translate(74.706505, 75.298061)"><g><path d="M 3.078125 -0.71875 L 3.296875 -0.234375 C 3.191406 -0.128906 3.050781 -0.0507812 2.875 0 C 2.695312 0.0625 2.507812 0.09375 2.3125 0.09375 C 1.4375 0.09375 1 -0.347656 1 -1.234375 L 1 -4.015625 L 0.203125 -4.015625 L 0.203125 -4.5625 L 1 -4.5625 L 1 -5.53125 L 1.671875 -5.640625 L 1.671875 -4.5625 L 3.140625 -4.5625 L 3.140625 -4.015625 L 1.671875 -4.015625 L 1.671875 -1.296875 C 1.671875 -0.773438 1.898438 -0.515625 2.359375 -0.515625 C 2.609375 -0.515625 2.820312 -0.582031 3 -0.71875 Z M 3.078125 -0.71875 "/></g></g><g transform="translate(78.179287, 75.298061)"><g><path d="M 1.140625 -5.4375 C 0.992188 -5.4375 0.875 -5.476562 0.78125 -5.5625 C 0.695312 -5.65625 0.65625 -5.773438 0.65625 -5.921875 C 0.65625 -6.054688 0.695312 -6.164062 0.78125 -6.25 C 0.875 -6.34375 0.992188 -6.390625 1.140625 -6.390625 C 1.273438 -6.390625 1.382812 -6.34375 1.46875 -6.25 C 1.5625 -6.164062 1.609375 -6.054688 1.609375 -5.921875 C 1.609375 -5.773438 1.5625 -5.65625 1.46875 -5.5625 C 1.382812 -5.476562 1.273438 -5.4375 1.140625 -5.4375 Z M 0.796875 0 L 0.796875 -4.5625 L 1.46875 -4.5625 L 1.46875 0 Z M 0.796875 0 "/></g></g><g transform="translate(80.44073, 75.298061)"><g><path d="M 0.796875 0 L 0.796875 -4.5625 L 1.4375 -4.5625 L 1.4375 -3.84375 L 1.515625 -3.828125 C 1.734375 -4.347656 2.132812 -4.609375 2.71875 -4.609375 C 3.03125 -4.609375 3.265625 -4.550781 3.421875 -4.4375 L 3.25 -3.859375 L 3.15625 -3.84375 C 2.988281 -3.925781 2.800781 -3.96875 2.59375 -3.96875 C 2.238281 -3.96875 1.960938 -3.832031 1.765625 -3.5625 C 1.566406 -3.289062 1.46875 -2.847656 1.46875 -2.234375 L 1.46875 0 Z M 0.796875 0 "/></g></g><g transform="translate(83.963124, 75.298061)"><g><path d="M 4.34375 -2.125 L 1.21875 -2.125 C 1.226562 -1.570312 1.359375 -1.164062 1.609375 -0.90625 C 1.859375 -0.644531 2.195312 -0.515625 2.625 -0.515625 C 2.945312 -0.515625 3.207031 -0.570312 3.40625 -0.6875 C 3.601562 -0.800781 3.757812 -0.984375 3.875 -1.234375 L 3.96875 -1.234375 L 4.40625 -0.96875 C 4.269531 -0.644531 4.054688 -0.382812 3.765625 -0.1875 C 3.472656 0 3.09375 0.09375 2.625 0.09375 C 2.1875 0.09375 1.804688 0.00390625 1.484375 -0.171875 C 1.171875 -0.347656 0.925781 -0.613281 0.75 -0.96875 C 0.582031 -1.320312 0.5 -1.757812 0.5 -2.28125 C 0.5 -2.800781 0.585938 -3.238281 0.765625 -3.59375 C 0.953125 -3.945312 1.203125 -4.207031 1.515625 -4.375 C 1.828125 -4.550781 2.179688 -4.640625 2.578125 -4.640625 C 3.171875 -4.640625 3.628906 -4.472656 3.953125 -4.140625 C 4.273438 -3.816406 4.441406 -3.332031 4.453125 -2.6875 C 4.453125 -2.4375 4.445312 -2.265625 4.4375 -2.171875 Z M 3.78125 -2.6875 C 3.769531 -3.175781 3.660156 -3.53125 3.453125 -3.75 C 3.253906 -3.96875 2.960938 -4.078125 2.578125 -4.078125 C 2.179688 -4.078125 1.867188 -3.960938 1.640625 -3.734375 C 1.410156 -3.515625 1.273438 -3.164062 1.234375 -2.6875 Z M 3.78125 -2.6875 "/></g></g><g transform="translate(88.825019, 75.298061)"><g><path d="M 1.8125 0.09375 C 1.488281 0.09375 1.234375 0 1.046875 -0.1875 C 0.867188 -0.375 0.78125 -0.648438 0.78125 -1.015625 L 0.78125 -6.390625 L 1.453125 -6.390625 L 1.453125 -1.046875 C 1.453125 -0.859375 1.488281 -0.722656 1.5625 -0.640625 C 1.632812 -0.554688 1.75 -0.515625 1.90625 -0.515625 C 2 -0.515625 2.09375 -0.53125 2.1875 -0.5625 L 2.25 -0.546875 L 2.328125 -0.015625 C 2.273438 0.015625 2.203125 0.0390625 2.109375 0.0625 C 2.015625 0.0820312 1.914062 0.09375 1.8125 0.09375 Z M 1.8125 0.09375 "/></g></g><g transform="translate(91.305578, 75.298061)"><g><path d="M 0.90625 1.9375 C 0.757812 1.9375 0.617188 1.921875 0.484375 1.890625 C 0.347656 1.867188 0.234375 1.832031 0.140625 1.78125 L 0.265625 1.25 L 0.328125 1.234375 C 0.398438 1.265625 0.484375 1.289062 0.578125 1.3125 C 0.679688 1.332031 0.785156 1.34375 0.890625 1.34375 C 1.078125 1.34375 1.226562 1.316406 1.34375 1.265625 C 1.46875 1.222656 1.570312 1.144531 1.65625 1.03125 C 1.75 0.914062 1.832031 0.753906 1.90625 0.546875 L 2.0625 0.109375 L 0.234375 -4.5625 L 0.953125 -4.5625 L 2.390625 -0.84375 L 2.46875 -0.84375 L 3.859375 -4.5625 L 4.546875 -4.5625 L 2.515625 0.71875 C 2.398438 1.007812 2.269531 1.242188 2.125 1.421875 C 1.976562 1.597656 1.804688 1.726562 1.609375 1.8125 C 1.421875 1.894531 1.1875 1.9375 0.90625 1.9375 Z M 0.90625 1.9375 "/></g></g></g><g fill="#000000" fill-opacity="1"><g transform="translate(42.945705, 86.58736)"><g><path d="M 2.625 0.09375 C 2.1875 0.09375 1.804688 0.00390625 1.484375 -0.171875 C 1.171875 -0.359375 0.925781 -0.628906 0.75 -0.984375 C 0.582031 -1.335938 0.5 -1.769531 0.5 -2.28125 C 0.5 -2.78125 0.582031 -3.207031 0.75 -3.5625 C 0.925781 -3.925781 1.171875 -4.195312 1.484375 -4.375 C 1.804688 -4.550781 2.1875 -4.640625 2.625 -4.640625 C 3.050781 -4.640625 3.421875 -4.550781 3.734375 -4.375 C 4.054688 -4.195312 4.300781 -3.925781 4.46875 -3.5625 C 4.644531 -3.207031 4.734375 -2.78125 4.734375 -2.28125 C 4.734375 -1.769531 4.644531 -1.335938 4.46875 -0.984375 C 4.300781 -0.628906 4.054688 -0.359375 3.734375 -0.171875 C 3.421875 0.00390625 3.050781 0.09375 2.625 0.09375 Z M 2.625 -0.515625 C 3.070312 -0.515625 3.414062 -0.65625 3.65625 -0.9375 C 3.90625 -1.226562 4.03125 -1.675781 4.03125 -2.28125 C 4.03125 -2.882812 3.90625 -3.328125 3.65625 -3.609375 C 3.414062 -3.898438 3.070312 -4.046875 2.625 -4.046875 C 2.164062 -4.046875 1.8125 -3.898438 1.5625 -3.609375 C 1.320312 -3.328125 1.203125 -2.882812 1.203125 -2.28125 C 1.203125 -1.675781 1.320312 -1.226562 1.5625 -0.9375 C 1.8125 -0.65625 2.164062 -0.515625 2.625 -0.515625 Z M 2.625 -0.515625 "/></g></g><g transform="translate(48.179684, 86.58736)"><g><path d="M 1.015625 0 L 1.015625 -4.015625 L 0.21875 -4.015625 L 0.21875 -4.5625 L 1.015625 -4.5625 C 0.960938 -4.757812 0.9375 -4.945312 0.9375 -5.125 C 0.9375 -5.425781 1 -5.675781 1.125 -5.875 C 1.25 -6.082031 1.421875 -6.234375 1.640625 -6.328125 C 1.867188 -6.429688 2.128906 -6.484375 2.421875 -6.484375 C 2.878906 -6.484375 3.226562 -6.382812 3.46875 -6.1875 L 3.21875 -5.703125 L 3.125 -5.6875 C 2.945312 -5.832031 2.710938 -5.90625 2.421875 -5.90625 C 2.160156 -5.90625 1.957031 -5.835938 1.8125 -5.703125 C 1.675781 -5.566406 1.609375 -5.367188 1.609375 -5.109375 C 1.609375 -4.953125 1.632812 -4.769531 1.6875 -4.5625 L 3.140625 -4.5625 L 3.140625 -4.015625 L 1.6875 -4.015625 L 1.6875 0 Z M 1.015625 0 "/></g></g><g transform="translate(51.429216, 86.58736)"><g><path d="M 1.015625 0 L 1.015625 -4.015625 L 0.21875 -4.015625 L 0.21875 -4.5625 L 1.015625 -4.5625 C 0.960938 -4.757812 0.9375 -4.945312 0.9375 -5.125 C 0.9375 -5.425781 1 -5.675781 1.125 -5.875 C 1.25 -6.082031 1.421875 -6.234375 1.640625 -6.328125 C 1.867188 -6.429688 2.128906 -6.484375 2.421875 -6.484375 C 2.878906 -6.484375 3.226562 -6.382812 3.46875 -6.1875 L 3.21875 -5.703125 L 3.125 -5.6875 C 2.945312 -5.832031 2.710938 -5.90625 2.421875 -5.90625 C 2.160156 -5.90625 1.957031 -5.835938 1.8125 -5.703125 C 1.675781 -5.566406 1.609375 -5.367188 1.609375 -5.109375 C 1.609375 -4.953125 1.632812 -4.769531 1.6875 -4.5625 L 3.140625 -4.5625 L 3.140625 -4.015625 L 1.6875 -4.015625 L 1.6875 0 Z M 1.015625 0 "/></g></g><g transform="translate(54.678748, 86.58736)"><g><path d="M 1.8125 0.09375 C 1.488281 0.09375 1.234375 0 1.046875 -0.1875 C 0.867188 -0.375 0.78125 -0.648438 0.78125 -1.015625 L 0.78125 -6.390625 L 1.453125 -6.390625 L 1.453125 -1.046875 C 1.453125 -0.859375 1.488281 -0.722656 1.5625 -0.640625 C 1.632812 -0.554688 1.75 -0.515625 1.90625 -0.515625 C 2 -0.515625 2.09375 -0.53125 2.1875 -0.5625 L 2.25 -0.546875 L 2.328125 -0.015625 C 2.273438 0.015625 2.203125 0.0390625 2.109375 0.0625 C 2.015625 0.0820312 1.914062 0.09375 1.8125 0.09375 Z M 1.8125 0.09375 "/></g></g><g transform="translate(57.159307, 86.58736)"><g><path d="M 1.140625 -5.4375 C 0.992188 -5.4375 0.875 -5.476562 0.78125 -5.5625 C 0.695312 -5.65625 0.65625 -5.773438 0.65625 -5.921875 C 0.65625 -6.054688 0.695312 -6.164062 0.78125 -6.25 C 0.875 -6.34375 0.992188 -6.390625 1.140625 -6.390625 C 1.273438 -6.390625 1.382812 -6.34375 1.46875 -6.25 C 1.5625 -6.164062 1.609375 -6.054688 1.609375 -5.921875 C 1.609375 -5.773438 1.5625 -5.65625 1.46875 -5.5625 C 1.382812 -5.476562 1.273438 -5.4375 1.140625 -5.4375 Z M 0.796875 0 L 0.796875 -4.5625 L 1.46875 -4.5625 L 1.46875 0 Z M 0.796875 0 "/></g></g><g transform="translate(59.42075, 86.58736)"><g><path d="M 0.796875 0 L 0.796875 -4.5625 L 1.4375 -4.5625 L 1.4375 -3.84375 L 1.515625 -3.828125 C 1.671875 -4.085938 1.863281 -4.285156 2.09375 -4.421875 C 2.332031 -4.566406 2.625 -4.640625 2.96875 -4.640625 C 3.507812 -4.640625 3.90625 -4.5 4.15625 -4.21875 C 4.40625 -3.945312 4.53125 -3.519531 4.53125 -2.9375 L 4.53125 0 L 3.859375 0 L 3.859375 -2.921875 C 3.859375 -3.191406 3.820312 -3.410156 3.75 -3.578125 C 3.675781 -3.742188 3.566406 -3.863281 3.421875 -3.9375 C 3.273438 -4.019531 3.082031 -4.0625 2.84375 -4.0625 C 2.425781 -4.0625 2.09375 -3.925781 1.84375 -3.65625 C 1.59375 -3.382812 1.46875 -2.945312 1.46875 -2.34375 L 1.46875 0 Z M 0.796875 0 "/></g></g><g transform="translate(64.671266, 86.58736)"><g><path d="M 4.34375 -2.125 L 1.21875 -2.125 C 1.226562 -1.570312 1.359375 -1.164062 1.609375 -0.90625 C 1.859375 -0.644531 2.195312 -0.515625 2.625 -0.515625 C 2.945312 -0.515625 3.207031 -0.570312 3.40625 -0.6875 C 3.601562 -0.800781 3.757812 -0.984375 3.875 -1.234375 L 3.96875 -1.234375 L 4.40625 -0.96875 C 4.269531 -0.644531 4.054688 -0.382812 3.765625 -0.1875 C 3.472656 0 3.09375 0.09375 2.625 0.09375 C 2.1875 0.09375 1.804688 0.00390625 1.484375 -0.171875 C 1.171875 -0.347656 0.925781 -0.613281 0.75 -0.96875 C 0.582031 -1.320312 0.5 -1.757812 0.5 -2.28125 C 0.5 -2.800781 0.585938 -3.238281 0.765625 -3.59375 C 0.953125 -3.945312 1.203125 -4.207031 1.515625 -4.375 C 1.828125 -4.550781 2.179688 -4.640625 2.578125 -4.640625 C 3.171875 -4.640625 3.628906 -4.472656 3.953125 -4.140625 C 4.273438 -3.816406 4.441406 -3.332031 4.453125 -2.6875 C 4.453125 -2.4375 4.445312 -2.265625 4.4375 -2.171875 Z M 3.78125 -2.6875 C 3.769531 -3.175781 3.660156 -3.53125 3.453125 -3.75 C 3.253906 -3.96875 2.960938 -4.078125 2.578125 -4.078125 C 2.179688 -4.078125 1.867188 -3.960938 1.640625 -3.734375 C 1.410156 -3.515625 1.273438 -3.164062 1.234375 -2.6875 Z M 3.78125 -2.6875 "/></g></g></g><g clip-path="url(#33f5fb01cc)"><path fill="#000000" d="M 37.375 8.25 C 36.09375 8.25 35.0625 9.28125 35.0625 10.550781 L 35.0625 11.953125 C 35.0625 13.222656 36.09375 14.253906 37.375 14.253906 L 75.421875 14.253906 C 76.699219 14.253906 77.734375 13.222656 77.734375 11.953125 L 77.734375 10.550781 C 77.734375 9.28125 76.699219 8.25 75.421875 8.25 Z M 37.375 8.558594 L 75.421875 8.558594 C 76.535156 8.558594 77.425781 9.445312 77.425781 10.550781 L 77.425781 11.953125 C 77.425781 13.058594 76.535156 13.945312 75.421875 13.945312 L 37.375 13.945312 C 36.261719 13.945312 35.367188 13.058594 35.367188 11.953125 L 35.367188 10.550781 C 35.367188 9.445312 36.261719 8.558594 37.375 8.558594 Z M 38.03125 9.757812 C 37.75 9.753906 37.46875 9.859375 37.253906 10.070312 C 36.828125 10.496094 36.835938 11.1875 37.261719 11.613281 C 37.671875 12.019531 38.320312 12.042969 38.75 11.679688 L 39.046875 11.976562 C 38.988281 12.09375 39.023438 12.25 39.128906 12.351562 L 39.65625 12.878906 C 39.785156 13.003906 39.988281 13.03125 40.109375 12.910156 C 40.230469 12.789062 40.203125 12.585938 40.078125 12.457031 L 39.550781 11.933594 C 39.445312 11.832031 39.289062 11.792969 39.171875 11.851562 L 38.875 11.554688 C 39.238281 11.128906 39.214844 10.484375 38.804688 10.078125 C 38.59375 9.867188 38.3125 9.757812 38.03125 9.757812 Z M 38.03125 10.097656 C 38.222656 10.097656 38.414062 10.171875 38.5625 10.320312 C 38.859375 10.617188 38.863281 11.085938 38.570312 11.378906 C 38.277344 11.667969 37.804688 11.667969 37.507812 11.371094 C 37.210938 11.078125 37.207031 10.605469 37.5 10.3125 C 37.644531 10.167969 37.839844 10.097656 38.03125 10.097656 Z M 38.03125 10.097656 " fill-opacity="1" fill-rule="nonzero"/></g></svg>