<svg xmlns="http://www.w3.org/2000/svg" xmlns:xlink="http://www.w3.org/1999/xlink" width="150" zoomAndPan="magnify" viewBox="0 0 112.5 112.499997" height="150" preserveAspectRatio="xMidYMid meet" version="1.0"><defs><g/><clipPath id="f5ae97bba1"><path d="M 0 0 L 112.003906 0 L 112.003906 112.003906 L 0 112.003906 Z M 0 0 " clip-rule="nonzero"/></clipPath><clipPath id="9ca30e95a3"><path d="M 44.183594 8 L 68.183594 8 L 68.183594 14 L 44.183594 14 Z M 44.183594 8 " clip-rule="nonzero"/></clipPath><clipPath id="01d19a7358"><path d="M 53 23 L 59 23 L 59 24.972656 L 53 24.972656 Z M 53 23 " clip-rule="nonzero"/></clipPath><clipPath id="d0b5a5aa8e"><path d="M 53 23 L 59 23 L 59 24.972656 L 53 24.972656 Z M 53 23 " clip-rule="nonzero"/></clipPath></defs><g clip-path="url(#f5ae97bba1)"><path fill="#ffffff" d="M -0.121094 0 L 112.621094 0 L 112.621094 112.5 L -0.121094 112.5 Z M -0.121094 0 " fill-opacity="1" fill-rule="nonzero"/></g><path fill="#000000" d="M 64.300781 17.75 C 64.199219 17.75 64.109375 17.71875 64.03125 17.648438 C 63.492188 17.171875 62.917969 16.75 62.308594 16.375 C 61.695312 16.003906 61.054688 15.691406 60.386719 15.4375 C 59.71875 15.183594 59.03125 14.992188 58.332031 14.859375 C 57.628906 14.730469 56.917969 14.667969 56.207031 14.667969 C 55.492188 14.667969 54.785156 14.730469 54.082031 14.859375 C 53.378906 14.992188 52.695312 15.183594 52.023438 15.4375 C 51.355469 15.691406 50.71875 16.003906 50.105469 16.375 C 49.492188 16.75 48.917969 17.171875 48.382812 17.648438 C 48.296875 17.726562 48.199219 17.757812 48.085938 17.753906 C 47.976562 17.746094 47.882812 17.699219 47.808594 17.613281 C 47.730469 17.53125 47.699219 17.429688 47.703125 17.316406 C 47.710938 17.203125 47.757812 17.109375 47.839844 17.035156 C 48.414062 16.523438 49.027344 16.070312 49.683594 15.675781 C 50.335938 15.277344 51.019531 14.941406 51.734375 14.671875 C 52.445312 14.398438 53.179688 14.191406 53.929688 14.054688 C 54.679688 13.917969 55.4375 13.847656 56.199219 13.847656 C 56.960938 13.847656 57.71875 13.917969 58.46875 14.054688 C 59.21875 14.191406 59.949219 14.398438 60.664062 14.671875 C 61.378906 14.941406 62.0625 15.277344 62.714844 15.675781 C 63.371094 16.070312 63.984375 16.523438 64.558594 17.035156 C 64.699219 17.160156 64.738281 17.3125 64.667969 17.488281 C 64.601562 17.667969 64.476562 17.753906 64.285156 17.753906 Z M 64.300781 17.75 " fill-opacity="1" fill-rule="nonzero"/><g clip-path="url(#9ca30e95a3)"><path fill="#000000" d="M 67.765625 13.734375 C 67.664062 13.734375 67.570312 13.699219 67.496094 13.632812 C 66.722656 12.945312 65.890625 12.332031 65.007812 11.796875 C 64.125 11.261719 63.203125 10.808594 62.238281 10.441406 C 61.273438 10.074219 60.285156 9.796875 59.269531 9.609375 C 58.257812 9.421875 57.234375 9.332031 56.207031 9.332031 C 55.175781 9.332031 54.152344 9.425781 53.140625 9.609375 C 52.125 9.796875 51.136719 10.074219 50.175781 10.441406 C 49.210938 10.808594 48.285156 11.261719 47.402344 11.796875 C 46.519531 12.335938 45.691406 12.945312 44.917969 13.632812 C 44.832031 13.710938 44.734375 13.742188 44.621094 13.738281 C 44.507812 13.730469 44.414062 13.683594 44.339844 13.597656 C 44.265625 13.511719 44.234375 13.414062 44.238281 13.300781 C 44.246094 13.1875 44.292969 13.089844 44.375 13.015625 C 45.1875 12.296875 46.054688 11.652344 46.980469 11.09375 C 47.90625 10.53125 48.871094 10.058594 49.882812 9.671875 C 50.890625 9.285156 51.929688 8.996094 52.988281 8.800781 C 54.050781 8.605469 55.121094 8.507812 56.199219 8.507812 C 57.28125 8.507812 58.351562 8.605469 59.410156 8.800781 C 60.472656 8.996094 61.507812 9.285156 62.519531 9.671875 C 63.527344 10.058594 64.496094 10.53125 65.421875 11.09375 C 66.347656 11.652344 67.214844 12.296875 68.023438 13.015625 C 68.164062 13.140625 68.199219 13.292969 68.132812 13.46875 C 68.066406 13.644531 67.941406 13.734375 67.753906 13.734375 Z M 67.765625 13.734375 " fill-opacity="1" fill-rule="nonzero"/></g><path fill="#000000" d="M 51.355469 21.496094 C 51.230469 21.5 51.128906 21.453125 51.050781 21.359375 C 50.976562 21.273438 50.941406 21.171875 50.949219 21.058594 C 50.957031 20.945312 51.003906 20.851562 51.085938 20.777344 C 51.4375 20.464844 51.8125 20.1875 52.214844 19.945312 C 52.613281 19.703125 53.035156 19.496094 53.472656 19.328125 C 53.910156 19.164062 54.355469 19.035156 54.816406 18.953125 C 55.277344 18.867188 55.738281 18.824219 56.207031 18.824219 C 56.675781 18.824219 57.136719 18.867188 57.597656 18.953125 C 58.058594 19.035156 58.507812 19.164062 58.941406 19.328125 C 59.378906 19.496094 59.800781 19.703125 60.199219 19.945312 C 60.601562 20.1875 60.976562 20.464844 61.328125 20.777344 C 61.410156 20.855469 61.457031 20.949219 61.464844 21.0625 C 61.46875 21.175781 61.4375 21.273438 61.363281 21.359375 C 61.289062 21.445312 61.195312 21.492188 61.082031 21.5 C 60.96875 21.503906 60.871094 21.472656 60.785156 21.394531 C 60.472656 21.117188 60.136719 20.867188 59.777344 20.648438 C 59.417969 20.429688 59.042969 20.246094 58.652344 20.097656 C 58.257812 19.949219 57.855469 19.835938 57.445312 19.757812 C 57.03125 19.683594 56.617188 19.644531 56.199219 19.644531 C 55.78125 19.644531 55.363281 19.683594 54.953125 19.757812 C 54.542969 19.835938 54.140625 19.949219 53.746094 20.097656 C 53.355469 20.246094 52.980469 20.429688 52.621094 20.648438 C 52.261719 20.867188 51.925781 21.117188 51.609375 21.394531 C 51.539062 21.460938 51.453125 21.496094 51.355469 21.496094 Z M 51.355469 21.496094 " fill-opacity="1" fill-rule="nonzero"/><path fill="#000000" d="M 64.296875 17.75 C 64.195312 17.753906 64.105469 17.71875 64.027344 17.648438 C 63.492188 17.171875 62.917969 16.746094 62.304688 16.375 C 61.691406 16.003906 61.050781 15.691406 60.382812 15.4375 C 59.714844 15.179688 59.03125 14.988281 58.328125 14.859375 C 57.625 14.730469 56.917969 14.664062 56.203125 14.664062 C 55.488281 14.664062 54.78125 14.730469 54.078125 14.859375 C 53.375 14.988281 52.691406 15.179688 52.023438 15.4375 C 51.355469 15.691406 50.714844 16.003906 50.101562 16.375 C 49.488281 16.746094 48.914062 17.171875 48.378906 17.648438 C 48.292969 17.726562 48.195312 17.757812 48.082031 17.753906 C 47.972656 17.746094 47.878906 17.699219 47.804688 17.613281 C 47.730469 17.527344 47.695312 17.429688 47.703125 17.316406 C 47.707031 17.203125 47.753906 17.105469 47.839844 17.03125 C 48.410156 16.523438 49.023438 16.070312 49.679688 15.671875 C 50.332031 15.273438 51.015625 14.941406 51.730469 14.667969 C 52.445312 14.394531 53.175781 14.191406 53.925781 14.050781 C 54.675781 13.914062 55.433594 13.84375 56.195312 13.84375 C 56.960938 13.84375 57.714844 13.914062 58.464844 14.050781 C 59.214844 14.191406 59.949219 14.394531 60.664062 14.667969 C 61.375 14.941406 62.058594 15.273438 62.714844 15.671875 C 63.367188 16.070312 63.980469 16.523438 64.554688 17.03125 C 64.640625 17.105469 64.683594 17.199219 64.691406 17.3125 C 64.699219 17.425781 64.667969 17.527344 64.59375 17.609375 C 64.515625 17.703125 64.417969 17.75 64.296875 17.75 Z M 64.296875 17.75 " fill-opacity="1" fill-rule="nonzero"/><g clip-path="url(#01d19a7358)"><path fill="#000000" d="M 58.144531 24.878906 C 58.039062 24.878906 57.949219 24.84375 57.875 24.777344 C 57.398438 24.351562 56.839844 24.136719 56.207031 24.132812 C 55.566406 24.132812 55.011719 24.347656 54.535156 24.78125 C 54.449219 24.855469 54.351562 24.890625 54.238281 24.882812 C 54.125 24.875 54.03125 24.828125 53.957031 24.742188 C 53.882812 24.65625 53.851562 24.558594 53.855469 24.441406 C 53.863281 24.328125 53.910156 24.234375 53.996094 24.160156 C 54.296875 23.886719 54.640625 23.675781 55.019531 23.527344 C 55.398438 23.382812 55.792969 23.308594 56.199219 23.308594 C 56.605469 23.308594 56.996094 23.382812 57.375 23.527344 C 57.753906 23.675781 58.097656 23.886719 58.402344 24.160156 C 58.542969 24.285156 58.578125 24.433594 58.511719 24.613281 C 58.445312 24.792969 58.320312 24.878906 58.128906 24.878906 Z M 58.144531 24.878906 " fill-opacity="1" fill-rule="nonzero"/></g><path fill="#000000" d="M 61.0625 21.5 C 60.960938 21.5 60.871094 21.464844 60.792969 21.398438 C 60.476562 21.121094 60.140625 20.871094 59.78125 20.652344 C 59.421875 20.433594 59.046875 20.25 58.65625 20.101562 C 58.265625 19.953125 57.863281 19.839844 57.453125 19.761719 C 57.039062 19.6875 56.625 19.648438 56.207031 19.648438 C 55.789062 19.648438 55.371094 19.6875 54.960938 19.761719 C 54.546875 19.839844 54.148438 19.953125 53.753906 20.101562 C 53.363281 20.25 52.988281 20.433594 52.628906 20.652344 C 52.269531 20.871094 51.933594 21.121094 51.621094 21.398438 C 51.535156 21.472656 51.4375 21.507812 51.324219 21.503906 C 51.214844 21.496094 51.121094 21.449219 51.042969 21.363281 C 50.96875 21.28125 50.9375 21.179688 50.941406 21.066406 C 50.949219 20.953125 50.996094 20.859375 51.078125 20.785156 C 51.429688 20.472656 51.804688 20.195312 52.207031 19.949219 C 52.609375 19.707031 53.027344 19.503906 53.464844 19.335938 C 53.902344 19.167969 54.351562 19.042969 54.808594 18.957031 C 55.269531 18.875 55.734375 18.832031 56.199219 18.832031 C 56.667969 18.832031 57.132812 18.875 57.589844 18.957031 C 58.050781 19.042969 58.5 19.167969 58.9375 19.335938 C 59.375 19.503906 59.792969 19.707031 60.195312 19.949219 C 60.59375 20.195312 60.972656 20.472656 61.320312 20.785156 C 61.464844 20.910156 61.5 21.058594 61.433594 21.238281 C 61.367188 21.417969 61.238281 21.503906 61.050781 21.503906 Z M 61.0625 21.5 " fill-opacity="1" fill-rule="nonzero"/><g clip-path="url(#d0b5a5aa8e)"><path fill="#000000" d="M 54.273438 24.878906 C 54.085938 24.882812 53.957031 24.792969 53.890625 24.617188 C 53.824219 24.4375 53.863281 24.285156 54.003906 24.160156 C 54.304688 23.886719 54.648438 23.675781 55.027344 23.53125 C 55.40625 23.382812 55.800781 23.308594 56.207031 23.308594 C 56.613281 23.308594 57.003906 23.382812 57.382812 23.53125 C 57.765625 23.675781 58.105469 23.886719 58.410156 24.160156 C 58.492188 24.238281 58.539062 24.332031 58.542969 24.445312 C 58.550781 24.558594 58.515625 24.65625 58.441406 24.742188 C 58.367188 24.828125 58.273438 24.875 58.164062 24.878906 C 58.050781 24.886719 57.953125 24.851562 57.867188 24.777344 C 57.640625 24.566406 57.378906 24.410156 57.09375 24.296875 C 56.804688 24.183594 56.507812 24.128906 56.199219 24.128906 C 55.890625 24.128906 55.59375 24.183594 55.304688 24.296875 C 55.019531 24.410156 54.757812 24.566406 54.53125 24.777344 C 54.457031 24.84375 54.371094 24.878906 54.273438 24.878906 Z M 54.273438 24.878906 " fill-opacity="1" fill-rule="nonzero"/></g><g fill="#000000" fill-opacity="1"><g transform="translate(40.227324, 42.212153)"><g><path d="M 3.34375 0.109375 C 2.820312 0.109375 2.359375 0.046875 1.953125 -0.078125 C 1.546875 -0.210938 1.203125 -0.382812 0.921875 -0.59375 C 0.648438 -0.800781 0.445312 -1.03125 0.3125 -1.28125 L 1.125 -2.28125 L 1.25 -2.28125 C 1.476562 -1.945312 1.765625 -1.679688 2.109375 -1.484375 C 2.460938 -1.285156 2.875 -1.1875 3.34375 -1.1875 C 3.75 -1.1875 4.050781 -1.269531 4.25 -1.4375 C 4.457031 -1.601562 4.5625 -1.835938 4.5625 -2.140625 C 4.5625 -2.316406 4.523438 -2.460938 4.453125 -2.578125 C 4.390625 -2.703125 4.28125 -2.804688 4.125 -2.890625 C 3.976562 -2.972656 3.773438 -3.046875 3.515625 -3.109375 L 2.546875 -3.34375 C 1.867188 -3.488281 1.363281 -3.742188 1.03125 -4.109375 C 0.695312 -4.472656 0.53125 -4.941406 0.53125 -5.515625 C 0.53125 -5.941406 0.632812 -6.316406 0.84375 -6.640625 C 1.0625 -6.960938 1.375 -7.210938 1.78125 -7.390625 C 2.1875 -7.566406 2.675781 -7.65625 3.25 -7.65625 C 3.832031 -7.65625 4.328125 -7.578125 4.734375 -7.421875 C 5.148438 -7.273438 5.503906 -7.039062 5.796875 -6.71875 L 5.0625 -5.71875 L 4.921875 -5.71875 C 4.710938 -5.9375 4.46875 -6.101562 4.1875 -6.21875 C 3.914062 -6.332031 3.601562 -6.390625 3.25 -6.390625 C 2.84375 -6.390625 2.53125 -6.316406 2.3125 -6.171875 C 2.101562 -6.023438 2 -5.820312 2 -5.5625 C 2 -5.332031 2.070312 -5.144531 2.21875 -5 C 2.363281 -4.851562 2.625 -4.742188 3 -4.671875 L 3.984375 -4.46875 C 4.722656 -4.3125 5.253906 -4.046875 5.578125 -3.671875 C 5.910156 -3.304688 6.078125 -2.820312 6.078125 -2.21875 C 6.078125 -1.75 5.972656 -1.335938 5.765625 -0.984375 C 5.566406 -0.640625 5.257812 -0.367188 4.84375 -0.171875 C 4.4375 0.015625 3.9375 0.109375 3.34375 0.109375 Z M 3.34375 0.109375 "/></g></g><g transform="translate(46.718067, 42.212153)"><g><path d="M 3.9375 -1.359375 L 4.296875 -0.296875 C 4.140625 -0.171875 3.945312 -0.0703125 3.71875 0 C 3.488281 0.0703125 3.222656 0.109375 2.921875 0.109375 C 2.304688 0.109375 1.835938 -0.0546875 1.515625 -0.390625 C 1.191406 -0.734375 1.03125 -1.222656 1.03125 -1.859375 L 1.03125 -4.5625 L 0.171875 -4.5625 L 0.171875 -5.703125 L 1.03125 -5.703125 L 1.03125 -6.8125 L 2.46875 -7.046875 L 2.46875 -5.703125 L 4.078125 -5.703125 L 4.078125 -4.5625 L 2.46875 -4.5625 L 2.46875 -1.96875 C 2.46875 -1.6875 2.523438 -1.476562 2.640625 -1.34375 C 2.753906 -1.21875 2.925781 -1.15625 3.15625 -1.15625 C 3.40625 -1.15625 3.628906 -1.222656 3.828125 -1.359375 Z M 3.9375 -1.359375 "/></g></g><g transform="translate(51.146863, 42.212153)"><g><path d="M 5.625 -2.53125 L 1.96875 -2.53125 C 2.007812 -2.03125 2.148438 -1.664062 2.390625 -1.4375 C 2.628906 -1.21875 2.957031 -1.109375 3.375 -1.109375 C 3.707031 -1.109375 3.972656 -1.164062 4.171875 -1.28125 C 4.378906 -1.40625 4.546875 -1.59375 4.671875 -1.84375 L 4.765625 -1.84375 L 5.71875 -1.234375 C 5.53125 -0.835938 5.25 -0.515625 4.875 -0.265625 C 4.5 -0.015625 4 0.109375 3.375 0.109375 C 2.789062 0.109375 2.28125 0 1.84375 -0.21875 C 1.414062 -0.445312 1.085938 -0.78125 0.859375 -1.21875 C 0.628906 -1.664062 0.515625 -2.207031 0.515625 -2.84375 C 0.515625 -3.488281 0.632812 -4.035156 0.875 -4.484375 C 1.125 -4.929688 1.457031 -5.265625 1.875 -5.484375 C 2.289062 -5.703125 2.757812 -5.8125 3.28125 -5.8125 C 4.082031 -5.8125 4.695312 -5.597656 5.125 -5.171875 C 5.550781 -4.742188 5.765625 -4.113281 5.765625 -3.28125 C 5.765625 -2.976562 5.753906 -2.75 5.734375 -2.59375 Z M 4.40625 -3.453125 C 4.382812 -3.878906 4.28125 -4.191406 4.09375 -4.390625 C 3.90625 -4.585938 3.632812 -4.6875 3.28125 -4.6875 C 2.550781 -4.6875 2.125 -4.273438 2 -3.453125 Z M 4.40625 -3.453125 "/></g></g><g transform="translate(57.343043, 42.212153)"><g><path d="M 0.828125 2.3125 L 0.828125 -5.703125 L 2.25 -5.703125 L 2.25 -4.953125 L 2.359375 -4.9375 C 2.523438 -5.21875 2.75 -5.429688 3.03125 -5.578125 C 3.3125 -5.734375 3.644531 -5.8125 4.03125 -5.8125 C 4.488281 -5.8125 4.890625 -5.703125 5.234375 -5.484375 C 5.578125 -5.265625 5.84375 -4.929688 6.03125 -4.484375 C 6.21875 -4.046875 6.3125 -3.5 6.3125 -2.84375 C 6.3125 -2.195312 6.210938 -1.648438 6.015625 -1.203125 C 5.816406 -0.765625 5.535156 -0.4375 5.171875 -0.21875 C 4.816406 0 4.40625 0.109375 3.9375 0.109375 C 3.582031 0.109375 3.273438 0.0507812 3.015625 -0.0625 C 2.753906 -0.1875 2.535156 -0.375 2.359375 -0.625 L 2.25 -0.609375 L 2.25 2.3125 Z M 3.53125 -1.109375 C 3.957031 -1.109375 4.28125 -1.242188 4.5 -1.515625 C 4.726562 -1.796875 4.84375 -2.238281 4.84375 -2.84375 C 4.84375 -3.445312 4.726562 -3.890625 4.5 -4.171875 C 4.28125 -4.453125 3.957031 -4.59375 3.53125 -4.59375 C 3.132812 -4.59375 2.816406 -4.445312 2.578125 -4.15625 C 2.347656 -3.863281 2.234375 -3.425781 2.234375 -2.84375 C 2.234375 -2.257812 2.347656 -1.820312 2.578125 -1.53125 C 2.816406 -1.25 3.132812 -1.109375 3.53125 -1.109375 Z M 3.53125 -1.109375 "/></g></g><g transform="translate(64.169693, 42.212153)"><g/></g><g transform="translate(66.665736, 42.212153)"><g><path d="M 0.390625 0 L 0.390625 -1.234375 L 2.21875 -1.234375 L 2.21875 -5.9375 L 2.109375 -5.96875 C 1.847656 -5.84375 1.59375 -5.742188 1.34375 -5.671875 C 1.09375 -5.597656 0.804688 -5.539062 0.484375 -5.5 L 0.484375 -6.78125 C 1.316406 -6.957031 1.992188 -7.210938 2.515625 -7.546875 L 3.703125 -7.546875 L 3.703125 -1.234375 L 5.328125 -1.234375 L 5.328125 0 Z M 0.390625 0 "/></g></g></g><g fill="#000000" fill-opacity="1"><g transform="translate(7.049261, 63.870226)"><g><path d="M 3.34375 0.09375 C 2.8125 0.09375 2.335938 -0.0234375 1.921875 -0.265625 C 1.515625 -0.515625 1.191406 -0.875 0.953125 -1.34375 C 0.722656 -1.8125 0.609375 -2.367188 0.609375 -3.015625 C 0.609375 -3.671875 0.722656 -4.234375 0.953125 -4.703125 C 1.191406 -5.171875 1.515625 -5.523438 1.921875 -5.765625 C 2.335938 -6.003906 2.8125 -6.125 3.34375 -6.125 C 3.90625 -6.125 4.375 -6.015625 4.75 -5.796875 C 5.125 -5.585938 5.394531 -5.269531 5.5625 -4.84375 L 5.109375 -4.546875 L 5 -4.546875 C 4.832031 -4.890625 4.617188 -5.132812 4.359375 -5.28125 C 4.097656 -5.425781 3.757812 -5.5 3.34375 -5.5 C 2.957031 -5.5 2.617188 -5.410156 2.328125 -5.234375 C 2.035156 -5.066406 1.800781 -4.800781 1.625 -4.4375 C 1.445312 -4.070312 1.359375 -3.597656 1.359375 -3.015625 C 1.359375 -2.441406 1.445312 -1.972656 1.625 -1.609375 C 1.800781 -1.242188 2.035156 -0.972656 2.328125 -0.796875 C 2.617188 -0.628906 2.957031 -0.546875 3.34375 -0.546875 C 3.78125 -0.546875 4.132812 -0.644531 4.40625 -0.84375 C 4.6875 -1.039062 4.894531 -1.363281 5.03125 -1.8125 L 5.140625 -1.8125 L 5.609375 -1.578125 C 5.472656 -1.035156 5.207031 -0.617188 4.8125 -0.328125 C 4.425781 -0.046875 3.9375 0.09375 3.34375 0.09375 Z M 3.34375 0.09375 "/></g></g><g transform="translate(12.977759, 63.870226)"><g><path d="M 2.625 0.09375 C 2.1875 0.09375 1.804688 0.00390625 1.484375 -0.171875 C 1.171875 -0.359375 0.925781 -0.628906 0.75 -0.984375 C 0.582031 -1.335938 0.5 -1.769531 0.5 -2.28125 C 0.5 -2.78125 0.582031 -3.207031 0.75 -3.5625 C 0.925781 -3.925781 1.171875 -4.195312 1.484375 -4.375 C 1.804688 -4.550781 2.1875 -4.640625 2.625 -4.640625 C 3.050781 -4.640625 3.421875 -4.550781 3.734375 -4.375 C 4.054688 -4.195312 4.300781 -3.925781 4.46875 -3.5625 C 4.644531 -3.207031 4.734375 -2.78125 4.734375 -2.28125 C 4.734375 -1.769531 4.644531 -1.335938 4.46875 -0.984375 C 4.300781 -0.628906 4.054688 -0.359375 3.734375 -0.171875 C 3.421875 0.00390625 3.050781 0.09375 2.625 0.09375 Z M 2.625 -0.515625 C 3.070312 -0.515625 3.414062 -0.65625 3.65625 -0.9375 C 3.90625 -1.226562 4.03125 -1.675781 4.03125 -2.28125 C 4.03125 -2.882812 3.90625 -3.328125 3.65625 -3.609375 C 3.414062 -3.898438 3.070312 -4.046875 2.625 -4.046875 C 2.164062 -4.046875 1.8125 -3.898438 1.5625 -3.609375 C 1.320312 -3.328125 1.203125 -2.882812 1.203125 -2.28125 C 1.203125 -1.675781 1.320312 -1.226562 1.5625 -0.9375 C 1.8125 -0.65625 2.164062 -0.515625 2.625 -0.515625 Z M 2.625 -0.515625 "/></g></g><g transform="translate(18.211704, 63.870226)"><g><path d="M 0.796875 0 L 0.796875 -4.5625 L 1.4375 -4.5625 L 1.4375 -3.84375 L 1.515625 -3.828125 C 1.671875 -4.085938 1.863281 -4.285156 2.09375 -4.421875 C 2.332031 -4.566406 2.625 -4.640625 2.96875 -4.640625 C 3.507812 -4.640625 3.90625 -4.5 4.15625 -4.21875 C 4.40625 -3.945312 4.53125 -3.519531 4.53125 -2.9375 L 4.53125 0 L 3.859375 0 L 3.859375 -2.921875 C 3.859375 -3.191406 3.820312 -3.410156 3.75 -3.578125 C 3.675781 -3.742188 3.566406 -3.863281 3.421875 -3.9375 C 3.273438 -4.019531 3.082031 -4.0625 2.84375 -4.0625 C 2.425781 -4.0625 2.09375 -3.925781 1.84375 -3.65625 C 1.59375 -3.382812 1.46875 -2.945312 1.46875 -2.34375 L 1.46875 0 Z M 0.796875 0 "/></g></g><g transform="translate(23.462187, 63.870226)"><g><path d="M 0.796875 0 L 0.796875 -4.5625 L 1.4375 -4.5625 L 1.4375 -3.84375 L 1.515625 -3.828125 C 1.671875 -4.085938 1.863281 -4.285156 2.09375 -4.421875 C 2.332031 -4.566406 2.625 -4.640625 2.96875 -4.640625 C 3.507812 -4.640625 3.90625 -4.5 4.15625 -4.21875 C 4.40625 -3.945312 4.53125 -3.519531 4.53125 -2.9375 L 4.53125 0 L 3.859375 0 L 3.859375 -2.921875 C 3.859375 -3.191406 3.820312 -3.410156 3.75 -3.578125 C 3.675781 -3.742188 3.566406 -3.863281 3.421875 -3.9375 C 3.273438 -4.019531 3.082031 -4.0625 2.84375 -4.0625 C 2.425781 -4.0625 2.09375 -3.925781 1.84375 -3.65625 C 1.59375 -3.382812 1.46875 -2.945312 1.46875 -2.34375 L 1.46875 0 Z M 0.796875 0 "/></g></g><g transform="translate(28.712669, 63.870226)"><g><path d="M 4.34375 -2.125 L 1.21875 -2.125 C 1.226562 -1.570312 1.359375 -1.164062 1.609375 -0.90625 C 1.859375 -0.644531 2.195312 -0.515625 2.625 -0.515625 C 2.945312 -0.515625 3.207031 -0.570312 3.40625 -0.6875 C 3.601562 -0.800781 3.757812 -0.984375 3.875 -1.234375 L 3.96875 -1.234375 L 4.40625 -0.96875 C 4.269531 -0.644531 4.054688 -0.382812 3.765625 -0.1875 C 3.472656 0 3.09375 0.09375 2.625 0.09375 C 2.1875 0.09375 1.804688 0.00390625 1.484375 -0.171875 C 1.171875 -0.347656 0.925781 -0.613281 0.75 -0.96875 C 0.582031 -1.320312 0.5 -1.757812 0.5 -2.28125 C 0.5 -2.800781 0.585938 -3.238281 0.765625 -3.59375 C 0.953125 -3.945312 1.203125 -4.207031 1.515625 -4.375 C 1.828125 -4.550781 2.179688 -4.640625 2.578125 -4.640625 C 3.171875 -4.640625 3.628906 -4.472656 3.953125 -4.140625 C 4.273438 -3.816406 4.441406 -3.332031 4.453125 -2.6875 C 4.453125 -2.4375 4.445312 -2.265625 4.4375 -2.171875 Z M 3.78125 -2.6875 C 3.769531 -3.175781 3.660156 -3.53125 3.453125 -3.75 C 3.253906 -3.96875 2.960938 -4.078125 2.578125 -4.078125 C 2.179688 -4.078125 1.867188 -3.960938 1.640625 -3.734375 C 1.410156 -3.515625 1.273438 -3.164062 1.234375 -2.6875 Z M 3.78125 -2.6875 "/></g></g><g transform="translate(33.574533, 63.870226)"><g><path d="M 2.625 0.09375 C 2.21875 0.09375 1.851562 0 1.53125 -0.1875 C 1.207031 -0.375 0.953125 -0.644531 0.765625 -1 C 0.585938 -1.351562 0.5 -1.78125 0.5 -2.28125 C 0.5 -2.78125 0.585938 -3.207031 0.765625 -3.5625 C 0.953125 -3.914062 1.207031 -4.179688 1.53125 -4.359375 C 1.851562 -4.546875 2.21875 -4.640625 2.625 -4.640625 C 3.101562 -4.640625 3.484375 -4.550781 3.765625 -4.375 C 4.054688 -4.195312 4.265625 -3.953125 4.390625 -3.640625 L 3.921875 -3.3125 L 3.84375 -3.3125 C 3.71875 -3.5625 3.554688 -3.742188 3.359375 -3.859375 C 3.171875 -3.984375 2.925781 -4.046875 2.625 -4.046875 C 2.34375 -4.046875 2.09375 -3.976562 1.875 -3.84375 C 1.664062 -3.707031 1.5 -3.507812 1.375 -3.25 C 1.257812 -2.988281 1.203125 -2.664062 1.203125 -2.28125 C 1.203125 -1.894531 1.257812 -1.570312 1.375 -1.3125 C 1.5 -1.050781 1.664062 -0.851562 1.875 -0.71875 C 2.09375 -0.582031 2.34375 -0.515625 2.625 -0.515625 C 2.9375 -0.515625 3.195312 -0.585938 3.40625 -0.734375 C 3.613281 -0.878906 3.773438 -1.101562 3.890625 -1.40625 L 3.984375 -1.40625 L 4.421875 -1.15625 C 4.304688 -0.769531 4.09375 -0.460938 3.78125 -0.234375 C 3.476562 -0.015625 3.09375 0.09375 2.625 0.09375 Z M 2.625 0.09375 "/></g></g><g transform="translate(38.275162, 63.870226)"><g><path d="M 3.078125 -0.71875 L 3.296875 -0.234375 C 3.191406 -0.128906 3.050781 -0.0507812 2.875 0 C 2.695312 0.0625 2.507812 0.09375 2.3125 0.09375 C 1.4375 0.09375 1 -0.347656 1 -1.234375 L 1 -4.015625 L 0.203125 -4.015625 L 0.203125 -4.5625 L 1 -4.5625 L 1 -5.53125 L 1.671875 -5.640625 L 1.671875 -4.5625 L 3.140625 -4.5625 L 3.140625 -4.015625 L 1.671875 -4.015625 L 1.671875 -1.296875 C 1.671875 -0.773438 1.898438 -0.515625 2.359375 -0.515625 C 2.609375 -0.515625 2.820312 -0.582031 3 -0.71875 Z M 3.078125 -0.71875 "/></g></g><g transform="translate(41.747922, 63.870226)"><g/></g><g transform="translate(43.823309, 63.870226)"><g><path d="M 3.078125 -0.71875 L 3.296875 -0.234375 C 3.191406 -0.128906 3.050781 -0.0507812 2.875 0 C 2.695312 0.0625 2.507812 0.09375 2.3125 0.09375 C 1.4375 0.09375 1 -0.347656 1 -1.234375 L 1 -4.015625 L 0.203125 -4.015625 L 0.203125 -4.5625 L 1 -4.5625 L 1 -5.53125 L 1.671875 -5.640625 L 1.671875 -4.5625 L 3.140625 -4.5625 L 3.140625 -4.015625 L 1.671875 -4.015625 L 1.671875 -1.296875 C 1.671875 -0.773438 1.898438 -0.515625 2.359375 -0.515625 C 2.609375 -0.515625 2.820312 -0.582031 3 -0.71875 Z M 3.078125 -0.71875 "/></g></g><g transform="translate(47.296069, 63.870226)"><g><path d="M 2.625 0.09375 C 2.1875 0.09375 1.804688 0.00390625 1.484375 -0.171875 C 1.171875 -0.359375 0.925781 -0.628906 0.75 -0.984375 C 0.582031 -1.335938 0.5 -1.769531 0.5 -2.28125 C 0.5 -2.78125 0.582031 -3.207031 0.75 -3.5625 C 0.925781 -3.925781 1.171875 -4.195312 1.484375 -4.375 C 1.804688 -4.550781 2.1875 -4.640625 2.625 -4.640625 C 3.050781 -4.640625 3.421875 -4.550781 3.734375 -4.375 C 4.054688 -4.195312 4.300781 -3.925781 4.46875 -3.5625 C 4.644531 -3.207031 4.734375 -2.78125 4.734375 -2.28125 C 4.734375 -1.769531 4.644531 -1.335938 4.46875 -0.984375 C 4.300781 -0.628906 4.054688 -0.359375 3.734375 -0.171875 C 3.421875 0.00390625 3.050781 0.09375 2.625 0.09375 Z M 2.625 -0.515625 C 3.070312 -0.515625 3.414062 -0.65625 3.65625 -0.9375 C 3.90625 -1.226562 4.03125 -1.675781 4.03125 -2.28125 C 4.03125 -2.882812 3.90625 -3.328125 3.65625 -3.609375 C 3.414062 -3.898438 3.070312 -4.046875 2.625 -4.046875 C 2.164062 -4.046875 1.8125 -3.898438 1.5625 -3.609375 C 1.320312 -3.328125 1.203125 -2.882812 1.203125 -2.28125 C 1.203125 -1.675781 1.320312 -1.226562 1.5625 -0.9375 C 1.8125 -0.65625 2.164062 -0.515625 2.625 -0.515625 Z M 2.625 -0.515625 "/></g></g><g transform="translate(52.530015, 63.870226)"><g/></g><g transform="translate(54.605402, 63.870226)"><g><path d="M 1.578125 0 L 0.90625 0 L 0.90625 -6.046875 L 1.96875 -6.046875 L 3.796875 -0.921875 L 3.890625 -0.921875 L 5.71875 -6.046875 L 6.734375 -6.046875 L 6.734375 0 L 6.0625 0 L 6.0625 -4.9375 L 5.953125 -4.953125 L 4.171875 0 L 3.46875 0 L 1.671875 -4.953125 L 1.578125 -4.9375 Z M 1.578125 0 "/></g></g><g transform="translate(62.257877, 63.870226)"><g><path d="M 1.140625 -5.4375 C 0.992188 -5.4375 0.875 -5.476562 0.78125 -5.5625 C 0.695312 -5.65625 0.65625 -5.773438 0.65625 -5.921875 C 0.65625 -6.054688 0.695312 -6.164062 0.78125 -6.25 C 0.875 -6.34375 0.992188 -6.390625 1.140625 -6.390625 C 1.273438 -6.390625 1.382812 -6.34375 1.46875 -6.25 C 1.5625 -6.164062 1.609375 -6.054688 1.609375 -5.921875 C 1.609375 -5.773438 1.5625 -5.65625 1.46875 -5.5625 C 1.382812 -5.476562 1.273438 -5.4375 1.140625 -5.4375 Z M 0.796875 0 L 0.796875 -4.5625 L 1.46875 -4.5625 L 1.46875 0 Z M 0.796875 0 "/></g></g><g transform="translate(64.519305, 63.870226)"><g><path d="M 0.796875 0 L 0.796875 -4.5625 L 1.4375 -4.5625 L 1.4375 -3.84375 L 1.515625 -3.828125 C 1.671875 -4.085938 1.863281 -4.285156 2.09375 -4.421875 C 2.332031 -4.566406 2.625 -4.640625 2.96875 -4.640625 C 3.507812 -4.640625 3.90625 -4.5 4.15625 -4.21875 C 4.40625 -3.945312 4.53125 -3.519531 4.53125 -2.9375 L 4.53125 0 L 3.859375 0 L 3.859375 -2.921875 C 3.859375 -3.191406 3.820312 -3.410156 3.75 -3.578125 C 3.675781 -3.742188 3.566406 -3.863281 3.421875 -3.9375 C 3.273438 -4.019531 3.082031 -4.0625 2.84375 -4.0625 C 2.425781 -4.0625 2.09375 -3.925781 1.84375 -3.65625 C 1.59375 -3.382812 1.46875 -2.945312 1.46875 -2.34375 L 1.46875 0 Z M 0.796875 0 "/></g></g><g transform="translate(69.769788, 63.870226)"><g><path d="M 4.34375 -2.125 L 1.21875 -2.125 C 1.226562 -1.570312 1.359375 -1.164062 1.609375 -0.90625 C 1.859375 -0.644531 2.195312 -0.515625 2.625 -0.515625 C 2.945312 -0.515625 3.207031 -0.570312 3.40625 -0.6875 C 3.601562 -0.800781 3.757812 -0.984375 3.875 -1.234375 L 3.96875 -1.234375 L 4.40625 -0.96875 C 4.269531 -0.644531 4.054688 -0.382812 3.765625 -0.1875 C 3.472656 0 3.09375 0.09375 2.625 0.09375 C 2.1875 0.09375 1.804688 0.00390625 1.484375 -0.171875 C 1.171875 -0.347656 0.925781 -0.613281 0.75 -0.96875 C 0.582031 -1.320312 0.5 -1.757812 0.5 -2.28125 C 0.5 -2.800781 0.585938 -3.238281 0.765625 -3.59375 C 0.953125 -3.945312 1.203125 -4.207031 1.515625 -4.375 C 1.828125 -4.550781 2.179688 -4.640625 2.578125 -4.640625 C 3.171875 -4.640625 3.628906 -4.472656 3.953125 -4.140625 C 4.273438 -3.816406 4.441406 -3.332031 4.453125 -2.6875 C 4.453125 -2.4375 4.445312 -2.265625 4.4375 -2.171875 Z M 3.78125 -2.6875 C 3.769531 -3.175781 3.660156 -3.53125 3.453125 -3.75 C 3.253906 -3.96875 2.960938 -4.078125 2.578125 -4.078125 C 2.179688 -4.078125 1.867188 -3.960938 1.640625 -3.734375 C 1.410156 -3.515625 1.273438 -3.164062 1.234375 -2.6875 Z M 3.78125 -2.6875 "/></g></g><g transform="translate(74.631652, 63.870226)"><g><path d="M 0.796875 0 L 0.796875 -4.5625 L 1.4375 -4.5625 L 1.4375 -3.84375 L 1.515625 -3.828125 C 1.734375 -4.347656 2.132812 -4.609375 2.71875 -4.609375 C 3.03125 -4.609375 3.265625 -4.550781 3.421875 -4.4375 L 3.25 -3.859375 L 3.15625 -3.84375 C 2.988281 -3.925781 2.800781 -3.96875 2.59375 -3.96875 C 2.238281 -3.96875 1.960938 -3.832031 1.765625 -3.5625 C 1.566406 -3.289062 1.46875 -2.847656 1.46875 -2.234375 L 1.46875 0 Z M 0.796875 0 "/></g></g><g transform="translate(78.154023, 63.870226)"><g><path d="M 2.890625 0 L 1.953125 0 L 0.21875 -4.5625 L 0.953125 -4.5625 L 2.390625 -0.765625 L 2.484375 -0.765625 L 3.90625 -4.5625 L 4.609375 -4.5625 Z M 2.890625 0 "/></g></g><g transform="translate(82.986947, 63.870226)"><g><path d="M 1.875 0.09375 C 1.425781 0.09375 1.078125 -0.0195312 0.828125 -0.25 C 0.578125 -0.488281 0.453125 -0.828125 0.453125 -1.265625 C 0.453125 -1.535156 0.503906 -1.765625 0.609375 -1.953125 C 0.722656 -2.140625 0.894531 -2.289062 1.125 -2.40625 C 1.363281 -2.519531 1.675781 -2.609375 2.0625 -2.671875 C 2.382812 -2.734375 2.628906 -2.796875 2.796875 -2.859375 C 2.972656 -2.929688 3.09375 -3.007812 3.15625 -3.09375 C 3.21875 -3.175781 3.25 -3.285156 3.25 -3.421875 C 3.25 -3.628906 3.175781 -3.785156 3.03125 -3.890625 C 2.882812 -4.003906 2.65625 -4.0625 2.34375 -4.0625 C 2.050781 -4.0625 1.800781 -4.003906 1.59375 -3.890625 C 1.382812 -3.773438 1.191406 -3.601562 1.015625 -3.375 L 0.921875 -3.375 L 0.59375 -3.84375 C 0.789062 -4.09375 1.035156 -4.285156 1.328125 -4.421875 C 1.628906 -4.566406 1.96875 -4.640625 2.34375 -4.640625 C 2.882812 -4.640625 3.28125 -4.519531 3.53125 -4.28125 C 3.789062 -4.050781 3.921875 -3.726562 3.921875 -3.3125 L 3.921875 -0.890625 C 3.921875 -0.640625 4.03125 -0.515625 4.25 -0.515625 C 4.3125 -0.515625 4.378906 -0.523438 4.453125 -0.546875 L 4.5 -0.53125 L 4.578125 -0.0625 C 4.535156 -0.03125 4.472656 -0.0078125 4.390625 0 C 4.304688 0.0195312 4.222656 0.03125 4.140625 0.03125 C 3.890625 0.03125 3.695312 -0.0195312 3.5625 -0.125 C 3.4375 -0.238281 3.359375 -0.40625 3.328125 -0.625 L 3.234375 -0.625 C 3.109375 -0.382812 2.929688 -0.203125 2.703125 -0.078125 C 2.484375 0.0351562 2.207031 0.09375 1.875 0.09375 Z M 2.03125 -0.453125 C 2.28125 -0.453125 2.5 -0.507812 2.6875 -0.625 C 2.875 -0.738281 3.015625 -0.898438 3.109375 -1.109375 C 3.210938 -1.328125 3.265625 -1.578125 3.265625 -1.859375 L 3.265625 -2.4375 L 3.1875 -2.453125 C 3.082031 -2.378906 2.957031 -2.316406 2.8125 -2.265625 C 2.664062 -2.222656 2.460938 -2.179688 2.203125 -2.140625 C 1.941406 -2.109375 1.734375 -2.050781 1.578125 -1.96875 C 1.421875 -1.894531 1.304688 -1.800781 1.234375 -1.6875 C 1.171875 -1.570312 1.140625 -1.429688 1.140625 -1.265625 C 1.140625 -1.003906 1.21875 -0.800781 1.375 -0.65625 C 1.53125 -0.519531 1.75 -0.453125 2.03125 -0.453125 Z M 2.03125 -0.453125 "/></g></g><g transform="translate(87.704113, 63.870226)"><g/></g><g transform="translate(89.7795, 63.870226)"><g><path d="M 2.640625 0 L 1.71875 0 L 0.328125 -6.046875 L 1.03125 -6.046875 L 2.171875 -1.046875 L 2.265625 -1.046875 L 3.625 -6.046875 L 4.28125 -6.046875 L 5.640625 -1.046875 L 5.75 -1.046875 L 6.890625 -6.046875 L 7.5625 -6.046875 L 6.1875 0 L 5.25 0 L 3.984375 -4.578125 L 3.90625 -4.578125 Z M 2.640625 0 "/></g></g><g transform="translate(97.671761, 63.870226)"><g><path d="M 1.140625 -5.4375 C 0.992188 -5.4375 0.875 -5.476562 0.78125 -5.5625 C 0.695312 -5.65625 0.65625 -5.773438 0.65625 -5.921875 C 0.65625 -6.054688 0.695312 -6.164062 0.78125 -6.25 C 0.875 -6.34375 0.992188 -6.390625 1.140625 -6.390625 C 1.273438 -6.390625 1.382812 -6.34375 1.46875 -6.25 C 1.5625 -6.164062 1.609375 -6.054688 1.609375 -5.921875 C 1.609375 -5.773438 1.5625 -5.65625 1.46875 -5.5625 C 1.382812 -5.476562 1.273438 -5.4375 1.140625 -5.4375 Z M 0.796875 0 L 0.796875 -4.5625 L 1.46875 -4.5625 L 1.46875 0 Z M 0.796875 0 "/></g></g><g transform="translate(99.933189, 63.870226)"><g><path d="M 1.015625 0 L 1.015625 -4.015625 L 0.21875 -4.015625 L 0.21875 -4.5625 L 1.015625 -4.5625 C 0.960938 -4.757812 0.9375 -4.945312 0.9375 -5.125 C 0.9375 -5.425781 1 -5.675781 1.125 -5.875 C 1.25 -6.082031 1.421875 -6.234375 1.640625 -6.328125 C 1.867188 -6.429688 2.128906 -6.484375 2.421875 -6.484375 C 2.878906 -6.484375 3.226562 -6.382812 3.46875 -6.1875 L 3.21875 -5.703125 L 3.125 -5.6875 C 2.945312 -5.832031 2.710938 -5.90625 2.421875 -5.90625 C 2.160156 -5.90625 1.957031 -5.835938 1.8125 -5.703125 C 1.675781 -5.566406 1.609375 -5.367188 1.609375 -5.109375 C 1.609375 -4.953125 1.632812 -4.769531 1.6875 -4.5625 L 3.140625 -4.5625 L 3.140625 -4.015625 L 1.6875 -4.015625 L 1.6875 0 Z M 1.015625 0 "/></g></g><g transform="translate(103.1827, 63.870226)"><g><path d="M 1.140625 -5.4375 C 0.992188 -5.4375 0.875 -5.476562 0.78125 -5.5625 C 0.695312 -5.65625 0.65625 -5.773438 0.65625 -5.921875 C 0.65625 -6.054688 0.695312 -6.164062 0.78125 -6.25 C 0.875 -6.34375 0.992188 -6.390625 1.140625 -6.390625 C 1.273438 -6.390625 1.382812 -6.34375 1.46875 -6.25 C 1.5625 -6.164062 1.609375 -6.054688 1.609375 -5.921875 C 1.609375 -5.773438 1.5625 -5.65625 1.46875 -5.5625 C 1.382812 -5.476562 1.273438 -5.4375 1.140625 -5.4375 Z M 0.796875 0 L 0.796875 -4.5625 L 1.46875 -4.5625 L 1.46875 0 Z M 0.796875 0 "/></g></g></g><g fill="#000000" fill-opacity="1"><g transform="translate(20.752883, 75.159453)"><g><path d="M 1.609375 0 L 0.90625 0 L 0.90625 -6.046875 L 1.78125 -6.046875 L 4.734375 -1.421875 L 4.84375 -1.4375 L 4.84375 -6.046875 L 5.53125 -6.046875 L 5.53125 0 L 4.78125 0 L 1.71875 -4.9375 L 1.609375 -4.921875 Z M 1.609375 0 "/></g></g><g transform="translate(27.19816, 75.159453)"><g><path d="M 4.34375 -2.125 L 1.21875 -2.125 C 1.226562 -1.570312 1.359375 -1.164062 1.609375 -0.90625 C 1.859375 -0.644531 2.195312 -0.515625 2.625 -0.515625 C 2.945312 -0.515625 3.207031 -0.570312 3.40625 -0.6875 C 3.601562 -0.800781 3.757812 -0.984375 3.875 -1.234375 L 3.96875 -1.234375 L 4.40625 -0.96875 C 4.269531 -0.644531 4.054688 -0.382812 3.765625 -0.1875 C 3.472656 0 3.09375 0.09375 2.625 0.09375 C 2.1875 0.09375 1.804688 0.00390625 1.484375 -0.171875 C 1.171875 -0.347656 0.925781 -0.613281 0.75 -0.96875 C 0.582031 -1.320312 0.5 -1.757812 0.5 -2.28125 C 0.5 -2.800781 0.585938 -3.238281 0.765625 -3.59375 C 0.953125 -3.945312 1.203125 -4.207031 1.515625 -4.375 C 1.828125 -4.550781 2.179688 -4.640625 2.578125 -4.640625 C 3.171875 -4.640625 3.628906 -4.472656 3.953125 -4.140625 C 4.273438 -3.816406 4.441406 -3.332031 4.453125 -2.6875 C 4.453125 -2.4375 4.445312 -2.265625 4.4375 -2.171875 Z M 3.78125 -2.6875 C 3.769531 -3.175781 3.660156 -3.53125 3.453125 -3.75 C 3.253906 -3.96875 2.960938 -4.078125 2.578125 -4.078125 C 2.179688 -4.078125 1.867188 -3.960938 1.640625 -3.734375 C 1.410156 -3.515625 1.273438 -3.164062 1.234375 -2.6875 Z M 3.78125 -2.6875 "/></g></g><g transform="translate(32.060024, 75.159453)"><g><path d="M 3.078125 -0.71875 L 3.296875 -0.234375 C 3.191406 -0.128906 3.050781 -0.0507812 2.875 0 C 2.695312 0.0625 2.507812 0.09375 2.3125 0.09375 C 1.4375 0.09375 1 -0.347656 1 -1.234375 L 1 -4.015625 L 0.203125 -4.015625 L 0.203125 -4.5625 L 1 -4.5625 L 1 -5.53125 L 1.671875 -5.640625 L 1.671875 -4.5625 L 3.140625 -4.5625 L 3.140625 -4.015625 L 1.671875 -4.015625 L 1.671875 -1.296875 C 1.671875 -0.773438 1.898438 -0.515625 2.359375 -0.515625 C 2.609375 -0.515625 2.820312 -0.582031 3 -0.71875 Z M 3.078125 -0.71875 "/></g></g><g transform="translate(35.532784, 75.159453)"><g><path d="M 2.265625 0 L 1.40625 0 L 0.296875 -4.5625 L 0.953125 -4.5625 L 1.828125 -0.78125 L 1.90625 -0.78125 L 2.96875 -4.5625 L 3.6875 -4.5625 L 4.78125 -0.78125 L 4.859375 -0.78125 L 5.703125 -4.5625 L 6.359375 -4.5625 L 5.25 0 L 4.390625 0 L 3.359375 -3.546875 L 3.265625 -3.546875 Z M 2.265625 0 "/></g></g><g transform="translate(42.180639, 75.159453)"><g><path d="M 2.625 0.09375 C 2.1875 0.09375 1.804688 0.00390625 1.484375 -0.171875 C 1.171875 -0.359375 0.925781 -0.628906 0.75 -0.984375 C 0.582031 -1.335938 0.5 -1.769531 0.5 -2.28125 C 0.5 -2.78125 0.582031 -3.207031 0.75 -3.5625 C 0.925781 -3.925781 1.171875 -4.195312 1.484375 -4.375 C 1.804688 -4.550781 2.1875 -4.640625 2.625 -4.640625 C 3.050781 -4.640625 3.421875 -4.550781 3.734375 -4.375 C 4.054688 -4.195312 4.300781 -3.925781 4.46875 -3.5625 C 4.644531 -3.207031 4.734375 -2.78125 4.734375 -2.28125 C 4.734375 -1.769531 4.644531 -1.335938 4.46875 -0.984375 C 4.300781 -0.628906 4.054688 -0.359375 3.734375 -0.171875 C 3.421875 0.00390625 3.050781 0.09375 2.625 0.09375 Z M 2.625 -0.515625 C 3.070312 -0.515625 3.414062 -0.65625 3.65625 -0.9375 C 3.90625 -1.226562 4.03125 -1.675781 4.03125 -2.28125 C 4.03125 -2.882812 3.90625 -3.328125 3.65625 -3.609375 C 3.414062 -3.898438 3.070312 -4.046875 2.625 -4.046875 C 2.164062 -4.046875 1.8125 -3.898438 1.5625 -3.609375 C 1.320312 -3.328125 1.203125 -2.882812 1.203125 -2.28125 C 1.203125 -1.675781 1.320312 -1.226562 1.5625 -0.9375 C 1.8125 -0.65625 2.164062 -0.515625 2.625 -0.515625 Z M 2.625 -0.515625 "/></g></g><g transform="translate(47.414584, 75.159453)"><g><path d="M 0.796875 0 L 0.796875 -4.5625 L 1.4375 -4.5625 L 1.4375 -3.84375 L 1.515625 -3.828125 C 1.734375 -4.347656 2.132812 -4.609375 2.71875 -4.609375 C 3.03125 -4.609375 3.265625 -4.550781 3.421875 -4.4375 L 3.25 -3.859375 L 3.15625 -3.84375 C 2.988281 -3.925781 2.800781 -3.96875 2.59375 -3.96875 C 2.238281 -3.96875 1.960938 -3.832031 1.765625 -3.5625 C 1.566406 -3.289062 1.46875 -2.847656 1.46875 -2.234375 L 1.46875 0 Z M 0.796875 0 "/></g></g><g transform="translate(50.936955, 75.159453)"><g><path d="M 0.796875 0 L 0.796875 -6.390625 L 1.46875 -6.390625 L 1.46875 -2.65625 L 1.578125 -2.65625 L 3.28125 -4.5625 L 3.984375 -4.5625 L 3.984375 -4.46875 L 2.171875 -2.421875 L 4.15625 -0.109375 L 4.15625 0 L 3.40625 0 L 1.578125 -2.109375 L 1.46875 -2.109375 L 1.46875 0 Z M 0.796875 0 "/></g></g><g transform="translate(55.178683, 75.159453)"><g/></g><g transform="translate(57.254071, 75.159453)"><g><path d="M 2.265625 0 L 1.40625 0 L 0.296875 -4.5625 L 0.953125 -4.5625 L 1.828125 -0.78125 L 1.90625 -0.78125 L 2.96875 -4.5625 L 3.6875 -4.5625 L 4.78125 -0.78125 L 4.859375 -0.78125 L 5.703125 -4.5625 L 6.359375 -4.5625 L 5.25 0 L 4.390625 0 L 3.359375 -3.546875 L 3.265625 -3.546875 Z M 2.265625 0 "/></g></g><g transform="translate(63.901926, 75.159453)"><g><path d="M 1.140625 -5.4375 C 0.992188 -5.4375 0.875 -5.476562 0.78125 -5.5625 C 0.695312 -5.65625 0.65625 -5.773438 0.65625 -5.921875 C 0.65625 -6.054688 0.695312 -6.164062 0.78125 -6.25 C 0.875 -6.34375 0.992188 -6.390625 1.140625 -6.390625 C 1.273438 -6.390625 1.382812 -6.34375 1.46875 -6.25 C 1.5625 -6.164062 1.609375 -6.054688 1.609375 -5.921875 C 1.609375 -5.773438 1.5625 -5.65625 1.46875 -5.5625 C 1.382812 -5.476562 1.273438 -5.4375 1.140625 -5.4375 Z M 0.796875 0 L 0.796875 -4.5625 L 1.46875 -4.5625 L 1.46875 0 Z M 0.796875 0 "/></g></g><g transform="translate(66.163354, 75.159453)"><g><path d="M 3.078125 -0.71875 L 3.296875 -0.234375 C 3.191406 -0.128906 3.050781 -0.0507812 2.875 0 C 2.695312 0.0625 2.507812 0.09375 2.3125 0.09375 C 1.4375 0.09375 1 -0.347656 1 -1.234375 L 1 -4.015625 L 0.203125 -4.015625 L 0.203125 -4.5625 L 1 -4.5625 L 1 -5.53125 L 1.671875 -5.640625 L 1.671875 -4.5625 L 3.140625 -4.5625 L 3.140625 -4.015625 L 1.671875 -4.015625 L 1.671875 -1.296875 C 1.671875 -0.773438 1.898438 -0.515625 2.359375 -0.515625 C 2.609375 -0.515625 2.820312 -0.582031 3 -0.71875 Z M 3.078125 -0.71875 "/></g></g><g transform="translate(69.636114, 75.159453)"><g><path d="M 0.796875 0 L 0.796875 -6.390625 L 1.46875 -6.390625 L 1.46875 -3.90625 L 1.5625 -3.890625 C 1.882812 -4.390625 2.351562 -4.640625 2.96875 -4.640625 C 3.507812 -4.640625 3.90625 -4.5 4.15625 -4.21875 C 4.40625 -3.945312 4.53125 -3.519531 4.53125 -2.9375 L 4.53125 0 L 3.859375 0 L 3.859375 -2.921875 C 3.859375 -3.191406 3.820312 -3.410156 3.75 -3.578125 C 3.675781 -3.742188 3.566406 -3.863281 3.421875 -3.9375 C 3.273438 -4.019531 3.082031 -4.0625 2.84375 -4.0625 C 2.425781 -4.0625 2.09375 -3.925781 1.84375 -3.65625 C 1.59375 -3.394531 1.46875 -2.957031 1.46875 -2.34375 L 1.46875 0 Z M 0.796875 0 "/></g></g><g transform="translate(74.886597, 75.159453)"><g/></g><g transform="translate(76.961984, 75.159453)"><g><path d="M 1.875 0.09375 C 1.425781 0.09375 1.078125 -0.0195312 0.828125 -0.25 C 0.578125 -0.488281 0.453125 -0.828125 0.453125 -1.265625 C 0.453125 -1.535156 0.503906 -1.765625 0.609375 -1.953125 C 0.722656 -2.140625 0.894531 -2.289062 1.125 -2.40625 C 1.363281 -2.519531 1.675781 -2.609375 2.0625 -2.671875 C 2.382812 -2.734375 2.628906 -2.796875 2.796875 -2.859375 C 2.972656 -2.929688 3.09375 -3.007812 3.15625 -3.09375 C 3.21875 -3.175781 3.25 -3.285156 3.25 -3.421875 C 3.25 -3.628906 3.175781 -3.785156 3.03125 -3.890625 C 2.882812 -4.003906 2.65625 -4.0625 2.34375 -4.0625 C 2.050781 -4.0625 1.800781 -4.003906 1.59375 -3.890625 C 1.382812 -3.773438 1.191406 -3.601562 1.015625 -3.375 L 0.921875 -3.375 L 0.59375 -3.84375 C 0.789062 -4.09375 1.035156 -4.285156 1.328125 -4.421875 C 1.628906 -4.566406 1.96875 -4.640625 2.34375 -4.640625 C 2.882812 -4.640625 3.28125 -4.519531 3.53125 -4.28125 C 3.789062 -4.050781 3.921875 -3.726562 3.921875 -3.3125 L 3.921875 -0.890625 C 3.921875 -0.640625 4.03125 -0.515625 4.25 -0.515625 C 4.3125 -0.515625 4.378906 -0.523438 4.453125 -0.546875 L 4.5 -0.53125 L 4.578125 -0.0625 C 4.535156 -0.03125 4.472656 -0.0078125 4.390625 0 C 4.304688 0.0195312 4.222656 0.03125 4.140625 0.03125 C 3.890625 0.03125 3.695312 -0.0195312 3.5625 -0.125 C 3.4375 -0.238281 3.359375 -0.40625 3.328125 -0.625 L 3.234375 -0.625 C 3.109375 -0.382812 2.929688 -0.203125 2.703125 -0.078125 C 2.484375 0.0351562 2.207031 0.09375 1.875 0.09375 Z M 2.03125 -0.453125 C 2.28125 -0.453125 2.5 -0.507812 2.6875 -0.625 C 2.875 -0.738281 3.015625 -0.898438 3.109375 -1.109375 C 3.210938 -1.328125 3.265625 -1.578125 3.265625 -1.859375 L 3.265625 -2.4375 L 3.1875 -2.453125 C 3.082031 -2.378906 2.957031 -2.316406 2.8125 -2.265625 C 2.664062 -2.222656 2.460938 -2.179688 2.203125 -2.140625 C 1.941406 -2.109375 1.734375 -2.050781 1.578125 -1.96875 C 1.421875 -1.894531 1.304688 -1.800781 1.234375 -1.6875 C 1.171875 -1.570312 1.140625 -1.429688 1.140625 -1.265625 C 1.140625 -1.003906 1.21875 -0.800781 1.375 -0.65625 C 1.53125 -0.519531 1.75 -0.453125 2.03125 -0.453125 Z M 2.03125 -0.453125 "/></g></g><g transform="translate(81.67915, 75.159453)"><g><path d="M 0.796875 0 L 0.796875 -4.5625 L 1.4375 -4.5625 L 1.4375 -3.84375 L 1.515625 -3.828125 C 1.671875 -4.085938 1.863281 -4.285156 2.09375 -4.421875 C 2.332031 -4.566406 2.625 -4.640625 2.96875 -4.640625 C 3.507812 -4.640625 3.90625 -4.5 4.15625 -4.21875 C 4.40625 -3.945312 4.53125 -3.519531 4.53125 -2.9375 L 4.53125 0 L 3.859375 0 L 3.859375 -2.921875 C 3.859375 -3.191406 3.820312 -3.410156 3.75 -3.578125 C 3.675781 -3.742188 3.566406 -3.863281 3.421875 -3.9375 C 3.273438 -4.019531 3.082031 -4.0625 2.84375 -4.0625 C 2.425781 -4.0625 2.09375 -3.925781 1.84375 -3.65625 C 1.59375 -3.382812 1.46875 -2.945312 1.46875 -2.34375 L 1.46875 0 Z M 0.796875 0 "/></g></g><g transform="translate(86.929632, 75.159453)"><g><path d="M 0.90625 1.9375 C 0.757812 1.9375 0.617188 1.921875 0.484375 1.890625 C 0.347656 1.867188 0.234375 1.832031 0.140625 1.78125 L 0.265625 1.25 L 0.328125 1.234375 C 0.398438 1.265625 0.484375 1.289062 0.578125 1.3125 C 0.679688 1.332031 0.785156 1.34375 0.890625 1.34375 C 1.078125 1.34375 1.226562 1.316406 1.34375 1.265625 C 1.46875 1.222656 1.570312 1.144531 1.65625 1.03125 C 1.75 0.914062 1.832031 0.753906 1.90625 0.546875 L 2.0625 0.109375 L 0.234375 -4.5625 L 0.953125 -4.5625 L 2.390625 -0.84375 L 2.46875 -0.84375 L 3.859375 -4.5625 L 4.546875 -4.5625 L 2.515625 0.71875 C 2.398438 1.007812 2.269531 1.242188 2.125 1.421875 C 1.976562 1.597656 1.804688 1.726562 1.609375 1.8125 C 1.421875 1.894531 1.1875 1.9375 0.90625 1.9375 Z M 0.90625 1.9375 "/></g></g></g><g fill="#000000" fill-opacity="1"><g transform="translate(42.758054, 86.448679)"><g><path d="M 2.359375 0.09375 C 1.992188 0.09375 1.671875 0.00390625 1.390625 -0.171875 C 1.109375 -0.347656 0.890625 -0.613281 0.734375 -0.96875 C 0.578125 -1.320312 0.5 -1.757812 0.5 -2.28125 C 0.5 -2.800781 0.582031 -3.238281 0.75 -3.59375 C 0.914062 -3.945312 1.144531 -4.207031 1.4375 -4.375 C 1.726562 -4.550781 2.0625 -4.640625 2.4375 -4.640625 C 2.75 -4.640625 3.023438 -4.582031 3.265625 -4.46875 C 3.503906 -4.351562 3.710938 -4.164062 3.890625 -3.90625 L 3.96875 -3.921875 L 3.96875 -6.390625 L 4.640625 -6.390625 L 4.640625 0 L 3.96875 0 L 3.96875 -0.671875 L 3.890625 -0.6875 C 3.734375 -0.457031 3.53125 -0.269531 3.28125 -0.125 C 3.03125 0.0195312 2.722656 0.09375 2.359375 0.09375 Z M 2.578125 -0.515625 C 3.003906 -0.515625 3.34375 -0.660156 3.59375 -0.953125 C 3.84375 -1.242188 3.96875 -1.6875 3.96875 -2.28125 C 3.96875 -2.875 3.84375 -3.316406 3.59375 -3.609375 C 3.34375 -3.898438 3.003906 -4.046875 2.578125 -4.046875 C 2.140625 -4.046875 1.800781 -3.898438 1.5625 -3.609375 C 1.320312 -3.328125 1.203125 -2.882812 1.203125 -2.28125 C 1.203125 -1.101562 1.660156 -0.515625 2.578125 -0.515625 Z M 2.578125 -0.515625 "/></g></g><g transform="translate(48.202846, 86.448679)"><g><path d="M 4.34375 -2.125 L 1.21875 -2.125 C 1.226562 -1.570312 1.359375 -1.164062 1.609375 -0.90625 C 1.859375 -0.644531 2.195312 -0.515625 2.625 -0.515625 C 2.945312 -0.515625 3.207031 -0.570312 3.40625 -0.6875 C 3.601562 -0.800781 3.757812 -0.984375 3.875 -1.234375 L 3.96875 -1.234375 L 4.40625 -0.96875 C 4.269531 -0.644531 4.054688 -0.382812 3.765625 -0.1875 C 3.472656 0 3.09375 0.09375 2.625 0.09375 C 2.1875 0.09375 1.804688 0.00390625 1.484375 -0.171875 C 1.171875 -0.347656 0.925781 -0.613281 0.75 -0.96875 C 0.582031 -1.320312 0.5 -1.757812 0.5 -2.28125 C 0.5 -2.800781 0.585938 -3.238281 0.765625 -3.59375 C 0.953125 -3.945312 1.203125 -4.207031 1.515625 -4.375 C 1.828125 -4.550781 2.179688 -4.640625 2.578125 -4.640625 C 3.171875 -4.640625 3.628906 -4.472656 3.953125 -4.140625 C 4.273438 -3.816406 4.441406 -3.332031 4.453125 -2.6875 C 4.453125 -2.4375 4.445312 -2.265625 4.4375 -2.171875 Z M 3.78125 -2.6875 C 3.769531 -3.175781 3.660156 -3.53125 3.453125 -3.75 C 3.253906 -3.96875 2.960938 -4.078125 2.578125 -4.078125 C 2.179688 -4.078125 1.867188 -3.960938 1.640625 -3.734375 C 1.410156 -3.515625 1.273438 -3.164062 1.234375 -2.6875 Z M 3.78125 -2.6875 "/></g></g><g transform="translate(53.06471, 86.448679)"><g><path d="M 2.890625 0 L 1.953125 0 L 0.21875 -4.5625 L 0.953125 -4.5625 L 2.390625 -0.765625 L 2.484375 -0.765625 L 3.90625 -4.5625 L 4.609375 -4.5625 Z M 2.890625 0 "/></g></g><g transform="translate(57.897634, 86.448679)"><g><path d="M 1.140625 -5.4375 C 0.992188 -5.4375 0.875 -5.476562 0.78125 -5.5625 C 0.695312 -5.65625 0.65625 -5.773438 0.65625 -5.921875 C 0.65625 -6.054688 0.695312 -6.164062 0.78125 -6.25 C 0.875 -6.34375 0.992188 -6.390625 1.140625 -6.390625 C 1.273438 -6.390625 1.382812 -6.34375 1.46875 -6.25 C 1.5625 -6.164062 1.609375 -6.054688 1.609375 -5.921875 C 1.609375 -5.773438 1.5625 -5.65625 1.46875 -5.5625 C 1.382812 -5.476562 1.273438 -5.4375 1.140625 -5.4375 Z M 0.796875 0 L 0.796875 -4.5625 L 1.46875 -4.5625 L 1.46875 0 Z M 0.796875 0 "/></g></g><g transform="translate(60.159062, 86.448679)"><g><path d="M 2.625 0.09375 C 2.21875 0.09375 1.851562 0 1.53125 -0.1875 C 1.207031 -0.375 0.953125 -0.644531 0.765625 -1 C 0.585938 -1.351562 0.5 -1.78125 0.5 -2.28125 C 0.5 -2.78125 0.585938 -3.207031 0.765625 -3.5625 C 0.953125 -3.914062 1.207031 -4.179688 1.53125 -4.359375 C 1.851562 -4.546875 2.21875 -4.640625 2.625 -4.640625 C 3.101562 -4.640625 3.484375 -4.550781 3.765625 -4.375 C 4.054688 -4.195312 4.265625 -3.953125 4.390625 -3.640625 L 3.921875 -3.3125 L 3.84375 -3.3125 C 3.71875 -3.5625 3.554688 -3.742188 3.359375 -3.859375 C 3.171875 -3.984375 2.925781 -4.046875 2.625 -4.046875 C 2.34375 -4.046875 2.09375 -3.976562 1.875 -3.84375 C 1.664062 -3.707031 1.5 -3.507812 1.375 -3.25 C 1.257812 -2.988281 1.203125 -2.664062 1.203125 -2.28125 C 1.203125 -1.894531 1.257812 -1.570312 1.375 -1.3125 C 1.5 -1.050781 1.664062 -0.851562 1.875 -0.71875 C 2.09375 -0.582031 2.34375 -0.515625 2.625 -0.515625 C 2.9375 -0.515625 3.195312 -0.585938 3.40625 -0.734375 C 3.613281 -0.878906 3.773438 -1.101562 3.890625 -1.40625 L 3.984375 -1.40625 L 4.421875 -1.15625 C 4.304688 -0.769531 4.09375 -0.460938 3.78125 -0.234375 C 3.476562 -0.015625 3.09375 0.09375 2.625 0.09375 Z M 2.625 0.09375 "/></g></g><g transform="translate(64.859691, 86.448679)"><g><path d="M 4.34375 -2.125 L 1.21875 -2.125 C 1.226562 -1.570312 1.359375 -1.164062 1.609375 -0.90625 C 1.859375 -0.644531 2.195312 -0.515625 2.625 -0.515625 C 2.945312 -0.515625 3.207031 -0.570312 3.40625 -0.6875 C 3.601562 -0.800781 3.757812 -0.984375 3.875 -1.234375 L 3.96875 -1.234375 L 4.40625 -0.96875 C 4.269531 -0.644531 4.054688 -0.382812 3.765625 -0.1875 C 3.472656 0 3.09375 0.09375 2.625 0.09375 C 2.1875 0.09375 1.804688 0.00390625 1.484375 -0.171875 C 1.171875 -0.347656 0.925781 -0.613281 0.75 -0.96875 C 0.582031 -1.320312 0.5 -1.757812 0.5 -2.28125 C 0.5 -2.800781 0.585938 -3.238281 0.765625 -3.59375 C 0.953125 -3.945312 1.203125 -4.207031 1.515625 -4.375 C 1.828125 -4.550781 2.179688 -4.640625 2.578125 -4.640625 C 3.171875 -4.640625 3.628906 -4.472656 3.953125 -4.140625 C 4.273438 -3.816406 4.441406 -3.332031 4.453125 -2.6875 C 4.453125 -2.4375 4.445312 -2.265625 4.4375 -2.171875 Z M 3.78125 -2.6875 C 3.769531 -3.175781 3.660156 -3.53125 3.453125 -3.75 C 3.253906 -3.96875 2.960938 -4.078125 2.578125 -4.078125 C 2.179688 -4.078125 1.867188 -3.960938 1.640625 -3.734375 C 1.410156 -3.515625 1.273438 -3.164062 1.234375 -2.6875 Z M 3.78125 -2.6875 "/></g></g></g></svg>