<svg xmlns="http://www.w3.org/2000/svg" xmlns:xlink="http://www.w3.org/1999/xlink" width="368" zoomAndPan="magnify" viewBox="0 0 276 179.249993" height="239" preserveAspectRatio="xMidYMid meet" version="1.0"><defs><clipPath id="cc1efae562"><path d="M 0.574219 0 L 275.425781 0 L 275.425781 178.503906 L 0.574219 178.503906 Z M 0.574219 0 " clip-rule="nonzero"/></clipPath><clipPath id="f9f20fceb6"><path d="M 42.414062 71 L 224 71 L 224 178.503906 L 42.414062 178.503906 Z M 42.414062 71 " clip-rule="nonzero"/></clipPath><clipPath id="d101e5a2d5"><path d="M 148 0 L 233.617188 0 L 233.617188 85 L 148 85 Z M 148 0 " clip-rule="nonzero"/></clipPath></defs><g clip-path="url(#cc1efae562)"><path fill="#ffffff" d="M 0.574219 0 L 275.425781 0 L 275.425781 178.503906 L 0.574219 178.503906 Z M 0.574219 0 " fill-opacity="1" fill-rule="nonzero"/><path fill="#ffffff" d="M 0.574219 0 L 275.425781 0 L 275.425781 178.503906 L 0.574219 178.503906 Z M 0.574219 0 " fill-opacity="1" fill-rule="nonzero"/></g><g clip-path="url(#f9f20fceb6)"><path fill="#100f0d" d="M 205.242188 161.132812 L 205.242188 80.15625 C 205.242188 79.648438 205.210938 79.132812 205.160156 78.640625 C 203.558594 78.882812 201.960938 79.027344 200.347656 79.070312 L 193.535156 79.199219 L 193.535156 162.964844 L 148.671875 162.964844 C 148.53125 166.761719 145.363281 169.820312 141.488281 169.820312 L 125.183594 169.820312 C 121.316406 169.820312 118.171875 166.761719 118.003906 162.964844 L 72.890625 162.964844 L 72.890625 82.925781 L 136.375 82.925781 L 136.375 71.546875 L 73.558594 71.546875 C 66.734375 71.546875 61.183594 77.484375 61.183594 84.820312 L 61.183594 161.132812 C 61.183594 161.820312 61.214844 162.488281 61.292969 163.125 L 42.410156 163.125 L 42.410156 165.1875 C 42.410156 172.589844 47.941406 178.476562 54.785156 178.476562 L 211.628906 178.476562 C 218.453125 178.476562 223.984375 172.589844 223.984375 165.1875 L 223.984375 163.125 L 205.101562 163.125 C 205.175781 162.488281 205.242188 161.820312 205.242188 161.132812 " fill-opacity="1" fill-rule="nonzero"/></g><g clip-path="url(#d101e5a2d5)"><path fill="#100f0d" d="M 173.980469 16.734375 C 173.980469 15.972656 174.382812 15.269531 175.019531 14.871094 C 175.675781 14.480469 176.464844 14.433594 177.132812 14.761719 L 206.777344 31.765625 C 207.476562 32.085938 207.941406 32.832031 207.941406 33.671875 C 207.941406 34.496094 207.476562 35.242188 206.746094 35.632812 L 177.210938 52.917969 C 176.851562 53.085938 176.496094 53.175781 176.136719 53.175781 C 175.75 53.175781 175.359375 53.066406 175.019531 52.847656 C 174.382812 52.460938 173.980469 51.761719 173.980469 50.984375 Z M 199.59375 68.050781 C 209 68.050781 217.507812 64.246094 223.65625 58.089844 C 229.816406 51.921875 233.621094 43.421875 233.621094 34.03125 C 233.621094 15.238281 218.386719 0.0273438 199.59375 0.0273438 L 182.304688 0.0273438 C 163.53125 0.0273438 148.285156 15.238281 148.285156 34.03125 L 148.285156 84.492188 L 164.726562 68.050781 L 199.59375 68.050781 " fill-opacity="1" fill-rule="nonzero"/></g><path fill="#100f0d" d="M 133.214844 96.738281 C 132.890625 96.742188 132.570312 96.75 132.253906 96.765625 C 131.464844 96.816406 130.492188 96.875 129.503906 97.082031 C 125.210938 97.363281 121.871094 101.289062 121.6875 105.503906 C 121.640625 106.808594 121.710938 108.089844 121.777344 109.054688 C 121.808594 109.535156 121.902344 109.992188 121.980469 110.414062 L 122.003906 110.5 C 122.066406 110.804688 122.125 111.105469 122.160156 111.394531 C 122.136719 111.394531 122.105469 111.410156 122.078125 111.417969 C 120.832031 111.703125 120.152344 113.0625 120.210938 114.234375 L 120.21875 114.269531 C 120.199219 114.628906 120.210938 114.949219 120.230469 115.21875 C 120.253906 115.640625 120.316406 116.054688 120.382812 116.445312 C 120.402344 116.609375 120.417969 116.757812 120.449219 116.921875 C 120.457031 116.964844 120.460938 117.003906 120.46875 117.042969 C 120.6875 118.871094 121.574219 120.273438 122.96875 121.027344 C 123.003906 121.0625 123.011719 121.089844 123.035156 121.148438 C 123.460938 122.804688 124.136719 124.410156 125.132812 125.800781 C 125.308594 126.046875 125.488281 126.289062 125.683594 126.515625 L 125.695312 126.527344 C 126.539062 127.53125 126.996094 128.824219 127.085938 130.117188 C 127.121094 130.582031 127.140625 131.117188 127.085938 131.632812 C 127.011719 132.34375 126.789062 133.035156 126.265625 133.492188 C 126.242188 133.503906 126.222656 133.515625 126.210938 133.527344 C 125.507812 134.09375 124.410156 134.183594 123.558594 134.421875 C 122.726562 134.644531 121.886719 134.871094 121.054688 135.101562 C 119.269531 135.578125 117.484375 136.070312 115.714844 136.585938 C 114.371094 136.988281 112.402344 137.375 111.074219 137.824219 C 111.054688 137.832031 111.03125 137.839844 111.011719 137.851562 C 110.65625 137.972656 110.320312 138.09375 110.015625 138.234375 C 109.433594 138.792969 109.144531 139.539062 108.96875 140.628906 C 108.929688 140.875 108.894531 141.140625 108.871094 141.414062 C 108.644531 143.519531 108.414062 145.628906 108.175781 147.738281 C 108.097656 148.492188 108.6875 149.15625 109.441406 149.15625 L 156.984375 149.15625 C 157.746094 149.15625 158.332031 148.492188 158.25 147.738281 C 158.011719 145.628906 157.78125 143.519531 157.554688 141.414062 C 157.53125 141.140625 157.5 140.875 157.460938 140.628906 C 157.28125 139.539062 156.984375 138.792969 156.414062 138.234375 C 156.105469 138.09375 155.777344 137.972656 155.417969 137.851562 C 155.402344 137.839844 155.382812 137.832031 155.351562 137.824219 C 154.035156 137.375 152.0625 136.988281 150.710938 136.585938 C 148.945312 136.070312 147.15625 135.578125 145.375 135.101562 C 144.539062 134.871094 143.699219 134.644531 142.867188 134.421875 C 142.015625 134.183594 140.917969 134.09375 140.21875 133.527344 C 140.203125 133.515625 140.183594 133.503906 140.171875 133.492188 C 139.636719 133.035156 139.417969 132.34375 139.339844 131.632812 C 139.285156 131.117188 139.304688 130.582031 139.339844 130.117188 C 139.4375 128.824219 139.890625 127.53125 140.730469 126.527344 L 140.75 126.515625 C 140.9375 126.289062 141.117188 126.046875 141.296875 125.800781 C 142.304688 124.382812 142.988281 122.765625 143.421875 121.089844 C 143.433594 121.0625 143.445312 121.050781 143.460938 121.027344 C 144.851562 120.273438 145.746094 118.871094 145.964844 117.042969 C 145.96875 117.003906 145.96875 116.964844 145.988281 116.921875 C 146.007812 116.757812 146.03125 116.609375 146.054688 116.445312 C 146.109375 116.054688 146.171875 115.640625 146.203125 115.21875 C 146.214844 114.949219 146.226562 114.628906 146.207031 114.269531 L 146.214844 114.234375 C 146.273438 113.0625 145.601562 111.703125 144.347656 111.417969 C 144.324219 111.410156 144.292969 111.394531 144.265625 111.394531 C 144.308594 111.105469 144.367188 110.804688 144.429688 110.5 L 144.445312 110.414062 C 144.53125 109.992188 144.617188 109.535156 144.652344 109.054688 C 144.71875 108.089844 144.792969 106.808594 144.738281 105.503906 C 144.554688 101.289062 141.214844 97.363281 136.921875 97.082031 C 135.933594 96.875 134.960938 96.816406 134.171875 96.765625 C 133.855469 96.75 133.535156 96.742188 133.214844 96.738281 " fill-opacity="1" fill-rule="nonzero"/></svg>