<svg xmlns="http://www.w3.org/2000/svg" xmlns:xlink="http://www.w3.org/1999/xlink" width="500" zoomAndPan="magnify" viewBox="0 0 375 187.499995" height="250" preserveAspectRatio="xMidYMid meet" version="1.0"><defs><g/><clipPath id="043a82e404"><path d="M 148.777344 137.734375 L 224.875 137.734375 L 224.875 181.851562 L 148.777344 181.851562 Z M 148.777344 137.734375 " clip-rule="nonzero"/></clipPath><clipPath id="56c344fd1d"><path d="M 172.582031 30.253906 L 204.894531 30.253906 L 204.894531 74.066406 L 172.582031 74.066406 Z M 172.582031 30.253906 " clip-rule="nonzero"/></clipPath><clipPath id="273ab5f5db"><path d="M 91.558594 43 L 111 43 L 111 62 L 91.558594 62 Z M 91.558594 43 " clip-rule="nonzero"/></clipPath><clipPath id="cfbedd6d71"><path d="M 132 49 L 135.371094 49 L 135.371094 56 L 132 56 Z M 132 49 " clip-rule="nonzero"/></clipPath><clipPath id="865b82a335"><path d="M 106 39.019531 L 118 39.019531 L 118 65.308594 L 106 65.308594 Z M 106 39.019531 " clip-rule="nonzero"/></clipPath><clipPath id="31c51ed02c"><path d="M 317.769531 31.953125 L 361.582031 31.953125 L 361.582031 72.476562 L 317.769531 72.476562 Z M 317.769531 31.953125 " clip-rule="nonzero"/></clipPath><clipPath id="36bfb76701"><path d="M 9.980469 29.601562 L 54 29.601562 L 54 73.410156 L 9.980469 73.410156 Z M 9.980469 29.601562 " clip-rule="nonzero"/></clipPath><clipPath id="d501750ea4"><path d="M 242.164062 30.253906 L 280.496094 30.253906 L 280.496094 74.066406 L 242.164062 74.066406 Z M 242.164062 30.253906 " clip-rule="nonzero"/></clipPath><clipPath id="3df3f15b17"><path d="M 67.917969 47.074219 L 77.773438 47.074219 L 77.773438 56.929688 L 67.917969 56.929688 Z M 67.917969 47.074219 " clip-rule="nonzero"/></clipPath><clipPath id="277864fc1b"><path d="M 218.640625 47.074219 L 228.496094 47.074219 L 228.496094 56.929688 L 218.640625 56.929688 Z M 218.640625 47.074219 " clip-rule="nonzero"/></clipPath><clipPath id="2d5426a0be"><path d="M 294.25 47.074219 L 304.105469 47.074219 L 304.105469 56.929688 L 294.25 56.929688 Z M 294.25 47.074219 " clip-rule="nonzero"/></clipPath><clipPath id="69aa56e40e"><path d="M 149.0625 47.125 L 158.917969 47.125 L 158.917969 56.984375 L 149.0625 56.984375 Z M 149.0625 47.125 " clip-rule="nonzero"/></clipPath><clipPath id="7d1960ed1b"><path d="M 310 7 L 374.5 7 L 374.5 16 L 310 16 Z M 310 7 " clip-rule="nonzero"/></clipPath></defs><g clip-path="url(#043a82e404)"><path fill="#000000" d="M 221.808594 180.34375 L 151.84375 180.34375 C 150.976562 180.34375 150.269531 179.632812 150.269531 178.761719 L 150.269531 155.851562 L 182.808594 155.851562 L 182.808594 161.933594 L 190.824219 161.933594 L 190.824219 161.1875 C 190.824219 161.1875 190.824219 161.179688 190.824219 161.179688 L 190.824219 155.851562 L 223.382812 155.851562 L 223.382812 178.761719 C 223.382812 179.632812 222.675781 180.34375 221.808594 180.34375 Z M 184.300781 151.667969 L 189.332031 151.667969 L 189.332031 160.425781 L 184.300781 160.425781 Z M 151.84375 146.859375 L 221.808594 146.859375 C 222.675781 146.859375 223.382812 147.570312 223.382812 148.441406 L 223.382812 154.34375 L 190.824219 154.34375 L 190.824219 150.914062 C 190.824219 150.90625 190.824219 150.90625 190.824219 150.90625 L 190.824219 150.160156 L 190.089844 150.160156 C 190.085938 150.160156 190.085938 150.160156 190.078125 150.160156 L 183.554688 150.160156 C 183.550781 150.160156 183.550781 150.160156 183.550781 150.160156 L 182.808594 150.160156 L 182.808594 154.34375 L 150.269531 154.34375 L 150.269531 148.441406 C 150.269531 147.570312 150.976562 146.859375 151.84375 146.859375 Z M 175.640625 141.945312 C 175.640625 140.457031 176.84375 139.246094 178.316406 139.246094 L 195.335938 139.246094 C 196.808594 139.246094 198.011719 140.457031 198.011719 141.945312 L 198.011719 145.351562 L 175.640625 145.351562 Z M 221.808594 145.351562 L 199.503906 145.351562 L 199.503906 141.945312 C 199.503906 139.628906 197.632812 137.738281 195.335938 137.738281 L 178.316406 137.738281 C 176.019531 137.738281 174.148438 139.628906 174.148438 141.945312 L 174.148438 145.351562 L 151.84375 145.351562 C 150.152344 145.351562 148.777344 146.734375 148.777344 148.441406 L 148.777344 178.761719 C 148.777344 180.46875 150.152344 181.851562 151.84375 181.851562 L 221.808594 181.851562 C 223.5 181.851562 224.875 180.46875 224.875 178.761719 L 224.875 148.441406 C 224.875 146.734375 223.5 145.351562 221.808594 145.351562 " fill-opacity="1" fill-rule="nonzero"/></g><g clip-path="url(#56c344fd1d)"><path fill="#000000" d="M 174.894531 30.253906 L 202.582031 30.253906 C 203.796875 30.253906 204.777344 31.226562 204.777344 32.453125 L 204.777344 71.867188 C 204.777344 73.085938 203.804688 74.066406 202.582031 74.066406 L 174.894531 74.066406 C 173.679688 74.066406 172.699219 73.089844 172.699219 71.867188 L 172.699219 32.453125 C 172.699219 31.234375 173.671875 30.253906 174.894531 30.253906 Z M 174.160156 68.222656 L 203.320312 68.222656 L 203.320312 34.636719 L 174.160156 34.636719 Z M 188.738281 33.175781 C 189.140625 33.175781 189.46875 32.847656 189.46875 32.445312 C 189.46875 32.042969 189.140625 31.714844 188.738281 31.714844 C 188.335938 31.714844 188.011719 32.042969 188.011719 32.445312 C 188.011719 32.847656 188.335938 33.175781 188.738281 33.175781 Z M 188.738281 72.605469 C 189.542969 72.605469 190.195312 71.949219 190.195312 71.144531 C 190.195312 70.339844 189.542969 69.683594 188.738281 69.683594 C 187.933594 69.683594 187.28125 70.339844 187.28125 71.144531 C 187.28125 71.949219 187.933594 72.605469 188.738281 72.605469 Z M 188.738281 72.605469 " fill-opacity="1" fill-rule="evenodd"/></g><g clip-path="url(#273ab5f5db)"><path fill="#100f0d" d="M 94.71875 59.800781 C 93.765625 59.800781 92.988281 59.019531 92.988281 58.058594 L 92.988281 46.257812 C 92.988281 45.300781 93.765625 44.519531 94.71875 44.519531 L 107.65625 44.519531 L 108.125 43.085938 L 94.71875 43.085938 C 92.976562 43.085938 91.558594 44.507812 91.558594 46.257812 L 91.558594 58.058594 C 91.558594 59.808594 92.976562 61.234375 94.71875 61.234375 L 110.929688 61.234375 L 110.929688 59.800781 L 94.71875 59.800781 " fill-opacity="1" fill-rule="nonzero"/></g><path fill="#100f0d" d="M 129.335938 43.085938 L 113.128906 43.085938 L 113.128906 44.519531 L 129.335938 44.519531 C 130.292969 44.519531 131.066406 45.300781 131.066406 46.257812 L 131.066406 58.058594 C 131.066406 59.019531 130.292969 59.800781 129.335938 59.800781 L 116.402344 59.800781 L 115.929688 61.234375 L 129.335938 61.234375 C 131.078125 61.234375 132.496094 59.808594 132.496094 58.058594 L 132.496094 46.257812 C 132.496094 44.507812 131.078125 43.085938 129.335938 43.085938 " fill-opacity="1" fill-rule="nonzero"/><path fill="#100f0d" d="M 93.703125 46.257812 L 93.703125 58.058594 C 93.703125 58.625 94.160156 59.082031 94.71875 59.082031 L 110.929688 59.082031 L 110.929688 55.804688 L 106.417969 55.804688 C 105.84375 55.804688 105.304688 55.527344 104.96875 55.0625 C 104.632812 54.597656 104.542969 53.996094 104.71875 53.449219 L 107.417969 45.238281 L 94.71875 45.238281 C 94.160156 45.238281 93.703125 45.695312 93.703125 46.257812 " fill-opacity="1" fill-rule="nonzero"/><path fill="#100f0d" d="M 130.351562 58.058594 L 130.351562 46.257812 C 130.351562 45.695312 129.898438 45.238281 129.335938 45.238281 L 113.128906 45.238281 L 113.128906 48.515625 L 117.640625 48.515625 C 118.210938 48.515625 118.75 48.789062 119.085938 49.257812 C 119.421875 49.722656 119.515625 50.324219 119.335938 50.871094 L 116.636719 59.082031 L 129.335938 59.082031 C 129.898438 59.082031 130.351562 58.625 130.351562 58.058594 " fill-opacity="1" fill-rule="nonzero"/><g clip-path="url(#cfbedd6d71)"><path fill="#100f0d" d="M 134.054688 49.316406 L 132.910156 49.316406 L 132.910156 55.003906 L 134.054688 55.003906 C 134.78125 55.003906 135.371094 54.410156 135.371094 53.679688 L 135.371094 50.636719 C 135.371094 49.90625 134.78125 49.316406 134.054688 49.316406 " fill-opacity="1" fill-rule="nonzero"/></g><g clip-path="url(#865b82a335)"><path fill="#100f0d" d="M 117.640625 50.308594 L 111.339844 50.308594 L 111.339844 39.023438 L 106.417969 54.011719 C 107.816406 54.011719 111.175781 54.011719 112.714844 54.011719 L 112.714844 65.296875 L 117.640625 50.308594 " fill-opacity="1" fill-rule="nonzero"/></g><g clip-path="url(#31c51ed02c)"><path fill="#000000" d="M 359.527344 31.964844 L 319.824219 31.964844 C 318.695312 31.964844 317.769531 32.890625 317.769531 34.023438 L 317.769531 70.40625 C 317.769531 71.539062 318.695312 72.464844 319.824219 72.464844 L 359.527344 72.464844 C 360.65625 72.464844 361.582031 71.539062 361.582031 70.40625 L 361.582031 34.023438 C 361.582031 32.890625 360.65625 31.964844 359.527344 31.964844 Z M 360.214844 70.40625 C 360.214844 70.78125 359.90625 71.089844 359.527344 71.089844 L 319.824219 71.089844 C 319.449219 71.089844 319.140625 70.78125 319.140625 70.40625 L 319.140625 38.828125 L 360.214844 38.828125 Z M 360.214844 37.457031 L 319.140625 37.457031 L 319.140625 34.023438 C 319.140625 33.644531 319.449219 33.335938 319.824219 33.335938 L 359.527344 33.335938 C 359.90625 33.335938 360.214844 33.644531 360.214844 34.023438 Z M 360.214844 37.457031 " fill-opacity="1" fill-rule="nonzero"/></g><path fill="#000000" d="M 322.5625 35.398438 C 322.5625 35.585938 322.496094 35.75 322.363281 35.882812 C 322.230469 36.015625 322.066406 36.082031 321.878906 36.082031 C 321.6875 36.082031 321.527344 36.015625 321.394531 35.882812 C 321.261719 35.75 321.195312 35.585938 321.195312 35.398438 C 321.195312 35.207031 321.261719 35.046875 321.394531 34.910156 C 321.527344 34.777344 321.6875 34.710938 321.878906 34.710938 C 322.066406 34.710938 322.230469 34.777344 322.363281 34.910156 C 322.496094 35.046875 322.5625 35.207031 322.5625 35.398438 Z M 322.5625 35.398438 " fill-opacity="1" fill-rule="nonzero"/><path fill="#000000" d="M 325.300781 35.398438 C 325.300781 35.585938 325.234375 35.75 325.101562 35.882812 C 324.96875 36.015625 324.804688 36.082031 324.617188 36.082031 C 324.425781 36.082031 324.265625 36.015625 324.132812 35.882812 C 324 35.75 323.933594 35.585938 323.933594 35.398438 C 323.933594 35.207031 324 35.046875 324.132812 34.910156 C 324.265625 34.777344 324.425781 34.710938 324.617188 34.710938 C 324.804688 34.710938 324.96875 34.777344 325.101562 34.910156 C 325.234375 35.046875 325.300781 35.207031 325.300781 35.398438 Z M 325.300781 35.398438 " fill-opacity="1" fill-rule="nonzero"/><path fill="#000000" d="M 328.039062 35.398438 C 328.039062 35.585938 327.972656 35.75 327.839844 35.882812 C 327.707031 36.015625 327.542969 36.082031 327.355469 36.082031 C 327.164062 36.082031 327.003906 36.015625 326.871094 35.882812 C 326.738281 35.75 326.671875 35.585938 326.671875 35.398438 C 326.671875 35.207031 326.738281 35.046875 326.871094 34.910156 C 327.003906 34.777344 327.164062 34.710938 327.355469 34.710938 C 327.542969 34.710938 327.707031 34.777344 327.839844 34.910156 C 327.972656 35.046875 328.039062 35.207031 328.039062 35.398438 Z M 328.039062 35.398438 " fill-opacity="1" fill-rule="nonzero"/><path fill="#000000" d="M 321.878906 53.242188 L 357.476562 53.242188 C 357.851562 53.242188 358.160156 52.933594 358.160156 52.558594 L 358.160156 41.574219 C 358.160156 41.195312 357.851562 40.886719 357.476562 40.886719 L 321.878906 40.886719 C 321.5 40.886719 321.195312 41.195312 321.195312 41.574219 L 321.195312 52.558594 C 321.195312 52.933594 321.5 53.242188 321.878906 53.242188 Z M 322.5625 42.261719 L 356.789062 42.261719 L 356.789062 51.871094 L 322.5625 51.871094 Z M 322.5625 42.261719 " fill-opacity="1" fill-rule="nonzero"/><path fill="#000000" d="M 321.878906 58.734375 L 324.617188 58.734375 C 324.992188 58.734375 325.300781 58.425781 325.300781 58.050781 L 325.300781 55.304688 C 325.300781 54.925781 324.992188 54.617188 324.617188 54.617188 L 321.878906 54.617188 C 321.5 54.617188 321.195312 54.925781 321.195312 55.304688 L 321.195312 58.050781 C 321.195312 58.425781 321.5 58.734375 321.878906 58.734375 Z M 322.5625 55.988281 L 323.933594 55.988281 L 323.933594 57.363281 L 322.5625 57.363281 Z M 322.5625 55.988281 " fill-opacity="1" fill-rule="nonzero"/><path fill="#000000" d="M 337.621094 54.617188 L 327.355469 54.617188 C 326.976562 54.617188 326.671875 54.925781 326.671875 55.304688 C 326.671875 55.679688 326.976562 55.988281 327.355469 55.988281 L 337.621094 55.988281 C 338 55.988281 338.308594 55.679688 338.308594 55.304688 C 338.308594 54.925781 338 54.617188 337.621094 54.617188 Z M 337.621094 54.617188 " fill-opacity="1" fill-rule="nonzero"/><path fill="#000000" d="M 337.621094 57.363281 L 327.355469 57.363281 C 326.976562 57.363281 326.671875 57.671875 326.671875 58.050781 C 326.671875 58.425781 326.976562 58.734375 327.355469 58.734375 L 337.621094 58.734375 C 338 58.734375 338.308594 58.425781 338.308594 58.050781 C 338.308594 57.671875 338 57.363281 337.621094 57.363281 Z M 337.621094 57.363281 " fill-opacity="1" fill-rule="nonzero"/><path fill="#000000" d="M 321.878906 64.226562 L 324.617188 64.226562 C 324.992188 64.226562 325.300781 63.917969 325.300781 63.539062 L 325.300781 60.792969 C 325.300781 60.417969 324.992188 60.109375 324.617188 60.109375 L 321.878906 60.109375 C 321.5 60.109375 321.195312 60.417969 321.195312 60.792969 L 321.195312 63.539062 C 321.195312 63.917969 321.5 64.226562 321.878906 64.226562 Z M 322.5625 61.480469 L 323.933594 61.480469 L 323.933594 62.855469 L 322.5625 62.855469 Z M 322.5625 61.480469 " fill-opacity="1" fill-rule="nonzero"/><path fill="#000000" d="M 337.621094 60.109375 L 327.355469 60.109375 C 326.976562 60.109375 326.671875 60.417969 326.671875 60.792969 C 326.671875 61.171875 326.976562 61.480469 327.355469 61.480469 L 337.621094 61.480469 C 338 61.480469 338.308594 61.171875 338.308594 60.792969 C 338.308594 60.417969 338 60.109375 337.621094 60.109375 Z M 337.621094 60.109375 " fill-opacity="1" fill-rule="nonzero"/><path fill="#000000" d="M 337.621094 62.855469 L 327.355469 62.855469 C 326.976562 62.855469 326.671875 63.164062 326.671875 63.539062 C 326.671875 63.917969 326.976562 64.226562 327.355469 64.226562 L 337.621094 64.226562 C 338 64.226562 338.308594 63.917969 338.308594 63.539062 C 338.308594 63.164062 338 62.855469 337.621094 62.855469 Z M 337.621094 62.855469 " fill-opacity="1" fill-rule="nonzero"/><path fill="#000000" d="M 357.476562 54.617188 L 340.359375 54.617188 C 339.984375 54.617188 339.675781 54.925781 339.675781 55.304688 L 339.675781 63.539062 C 339.675781 63.917969 339.984375 64.226562 340.359375 64.226562 L 357.476562 64.226562 C 357.851562 64.226562 358.160156 63.917969 358.160156 63.539062 L 358.160156 55.304688 C 358.160156 54.925781 357.851562 54.617188 357.476562 54.617188 Z M 356.789062 62.855469 L 341.046875 62.855469 L 341.046875 55.988281 L 356.789062 55.988281 Z M 356.789062 62.855469 " fill-opacity="1" fill-rule="nonzero"/><path fill="#000000" d="M 321.878906 69.71875 L 324.617188 69.71875 C 324.992188 69.71875 325.300781 69.410156 325.300781 69.03125 L 325.300781 66.285156 C 325.300781 65.910156 324.992188 65.601562 324.617188 65.601562 L 321.878906 65.601562 C 321.5 65.601562 321.195312 65.910156 321.195312 66.285156 L 321.195312 69.03125 C 321.195312 69.410156 321.5 69.71875 321.878906 69.71875 Z M 322.5625 66.972656 L 323.933594 66.972656 L 323.933594 68.34375 L 322.5625 68.34375 Z M 322.5625 66.972656 " fill-opacity="1" fill-rule="nonzero"/><path fill="#000000" d="M 337.621094 65.601562 L 327.355469 65.601562 C 326.976562 65.601562 326.671875 65.910156 326.671875 66.285156 C 326.671875 66.664062 326.976562 66.972656 327.355469 66.972656 L 337.621094 66.972656 C 338 66.972656 338.308594 66.664062 338.308594 66.285156 C 338.308594 65.910156 338 65.601562 337.621094 65.601562 Z M 337.621094 65.601562 " fill-opacity="1" fill-rule="nonzero"/><path fill="#000000" d="M 337.621094 68.34375 L 327.355469 68.34375 C 326.976562 68.34375 326.671875 68.65625 326.671875 69.03125 C 326.671875 69.410156 326.976562 69.71875 327.355469 69.71875 L 337.621094 69.71875 C 338 69.71875 338.308594 69.410156 338.308594 69.03125 C 338.308594 68.65625 338 68.34375 337.621094 68.34375 Z M 337.621094 68.34375 " fill-opacity="1" fill-rule="nonzero"/><path fill="#000000" d="M 357.476562 65.601562 L 340.359375 65.601562 C 339.984375 65.601562 339.675781 65.910156 339.675781 66.285156 L 339.675781 69.03125 C 339.675781 69.410156 339.984375 69.71875 340.359375 69.71875 L 357.476562 69.71875 C 357.851562 69.71875 358.160156 69.410156 358.160156 69.03125 L 358.160156 66.285156 C 358.160156 65.910156 357.851562 65.601562 357.476562 65.601562 Z M 356.789062 68.34375 L 341.046875 68.34375 L 341.046875 66.972656 L 356.789062 66.972656 Z M 356.789062 68.34375 " fill-opacity="1" fill-rule="nonzero"/><path fill="#000000" d="M 357.476562 34.710938 L 331.804688 34.710938 C 331.429688 34.710938 331.121094 35.019531 331.121094 35.398438 C 331.121094 35.773438 331.429688 36.082031 331.804688 36.082031 L 357.476562 36.082031 C 357.851562 36.082031 358.160156 35.773438 358.160156 35.398438 C 358.160156 35.019531 357.851562 34.710938 357.476562 34.710938 Z M 357.476562 34.710938 " fill-opacity="1" fill-rule="nonzero"/><g clip-path="url(#36bfb76701)"><path fill="#000000" d="M 24.34375 29.601562 C 24.757812 29.601562 25.097656 29.9375 25.097656 30.355469 L 25.097656 32.621094 C 25.097656 33.039062 24.757812 33.378906 24.34375 33.378906 C 23.925781 33.378906 23.585938 33.039062 23.585938 32.621094 L 23.585938 30.355469 C 23.585938 29.9375 23.925781 29.601562 24.34375 29.601562 Z M 24.339844 37.15625 C 20.585938 37.15625 17.542969 40.199219 17.542969 43.953125 C 17.542969 47.707031 20.585938 50.75 24.339844 50.75 C 28.097656 50.75 31.140625 47.707031 31.140625 43.953125 C 31.140625 40.199219 28.097656 37.15625 24.339844 37.15625 Z M 16.03125 43.953125 C 16.03125 39.363281 19.753906 35.644531 24.339844 35.644531 C 28.929688 35.644531 32.652344 39.363281 32.652344 43.953125 C 32.652344 48.542969 28.929688 52.261719 24.339844 52.261719 C 19.753906 52.261719 16.03125 48.542969 16.03125 43.953125 Z M 37.941406 44.707031 C 38.355469 44.707031 38.695312 44.371094 38.695312 43.953125 C 38.695312 43.535156 38.355469 43.195312 37.941406 43.195312 L 35.675781 43.195312 C 35.257812 43.195312 34.917969 43.535156 34.917969 43.953125 C 34.917969 44.371094 35.257812 44.707031 35.675781 44.707031 Z M 34.492188 54.101562 C 34.195312 54.394531 33.71875 54.394531 33.421875 54.101562 L 31.820312 52.5 C 31.527344 52.203125 31.527344 51.726562 31.820312 51.429688 C 32.117188 51.136719 32.59375 51.136719 32.890625 51.429688 L 34.492188 53.03125 C 34.785156 53.328125 34.785156 53.804688 34.492188 54.101562 Z M 15.261719 54.101562 C 14.964844 54.394531 14.488281 54.394531 14.191406 54.101562 C 13.898438 53.804688 13.898438 53.328125 14.191406 53.03125 L 15.796875 51.429688 C 16.089844 51.136719 16.566406 51.136719 16.863281 51.429688 C 17.160156 51.726562 17.160156 52.203125 16.863281 52.5 Z M 24.34375 54.527344 C 24.757812 54.527344 25.097656 54.867188 25.097656 55.28125 L 25.097656 57.550781 C 25.097656 57.964844 24.757812 58.304688 24.34375 58.304688 C 23.925781 58.304688 23.585938 57.964844 23.585938 57.550781 L 23.585938 55.28125 C 23.585938 54.867188 23.925781 54.527344 24.34375 54.527344 Z M 13.011719 44.707031 C 13.429688 44.707031 13.765625 44.371094 13.765625 43.953125 C 13.765625 43.535156 13.429688 43.195312 13.011719 43.195312 L 10.746094 43.195312 C 10.328125 43.195312 9.988281 43.535156 9.988281 43.953125 C 9.988281 44.371094 10.328125 44.707031 10.746094 44.707031 Z M 16.863281 36.476562 C 16.566406 36.769531 16.089844 36.769531 15.796875 36.476562 L 14.191406 34.871094 C 13.898438 34.578125 13.898438 34.097656 14.191406 33.804688 C 14.488281 33.507812 14.964844 33.507812 15.261719 33.804688 L 16.863281 35.40625 C 17.160156 35.703125 17.160156 36.179688 16.863281 36.476562 Z M 32.890625 36.476562 C 32.59375 36.769531 32.117188 36.769531 31.820312 36.476562 C 31.527344 36.179688 31.527344 35.703125 31.820312 35.40625 L 33.421875 33.804688 C 33.71875 33.507812 34.195312 33.507812 34.492188 33.804688 C 34.785156 34.097656 34.785156 34.578125 34.492188 34.871094 Z M 29.71875 60.570312 C 29.4375 60.570312 29.179688 60.726562 29.050781 60.976562 L 26.886719 65.101562 L 33.859375 65.101562 L 35.992188 60.570312 Z M 33.148438 66.613281 L 26.09375 66.613281 L 23.902344 70.796875 C 23.640625 71.296875 24.003906 71.902344 24.574219 71.902344 L 30.660156 71.902344 Z M 34.820312 66.613281 L 41.460938 66.613281 L 38.972656 71.902344 L 32.332031 71.902344 Z M 42.171875 65.101562 L 35.53125 65.101562 L 37.664062 60.570312 L 44.304688 60.570312 Z M 43.128906 66.613281 L 40.640625 71.902344 L 46.386719 71.902344 C 46.664062 71.902344 46.921875 71.746094 47.054688 71.496094 L 49.613281 66.613281 Z M 50.40625 65.101562 L 43.839844 65.101562 L 45.972656 60.570312 L 51.53125 60.570312 C 52.097656 60.570312 52.464844 61.171875 52.199219 61.675781 Z M 27.710938 60.273438 C 28.101562 59.527344 28.875 59.058594 29.71875 59.058594 L 51.53125 59.058594 C 53.234375 59.058594 54.328125 60.867188 53.539062 62.378906 L 48.390625 72.199219 C 48 72.945312 47.226562 73.410156 46.386719 73.410156 L 24.574219 73.410156 C 22.871094 73.410156 21.777344 71.601562 22.566406 70.09375 Z M 27.710938 60.273438 " fill-opacity="1" fill-rule="evenodd"/></g><g clip-path="url(#d501750ea4)"><path fill="#000000" d="M 278.769531 41.027344 L 243.890625 41.027344 L 245.867188 32.410156 C 245.945312 32.0625 246.253906 31.816406 246.613281 31.816406 L 249.828125 31.816406 C 250.253906 31.816406 250.597656 31.472656 250.597656 31.046875 C 250.597656 30.625 250.253906 30.28125 249.828125 30.28125 C 249.828125 30.28125 247.925781 30.28125 246.613281 30.28125 C 245.539062 30.28125 244.609375 31.019531 244.371094 32.070312 L 242.1875 41.605469 C 242.175781 41.640625 242.171875 41.675781 242.167969 41.714844 C 242.164062 41.746094 242.164062 41.777344 242.164062 41.808594 L 242.164062 49.472656 C 242.164062 50.0625 242.382812 50.601562 242.75 51.007812 C 242.382812 51.414062 242.164062 51.953125 242.164062 52.542969 L 242.164062 55.613281 C 242.164062 56.039062 242.507812 56.382812 242.929688 56.382812 C 243.351562 56.382812 243.695312 56.039062 243.695312 55.613281 L 243.695312 52.542969 C 243.695312 52.121094 244.039062 51.777344 244.464844 51.777344 C 250.449219 51.777344 272.210938 51.777344 278.199219 51.777344 C 278.621094 51.777344 278.964844 52.121094 278.964844 52.542969 C 278.964844 52.542969 278.964844 60.222656 278.964844 60.222656 C 278.964844 60.644531 278.621094 60.988281 278.199219 60.988281 C 278.199219 60.988281 244.464844 60.988281 244.464844 60.988281 C 244.039062 60.988281 243.695312 60.644531 243.695312 60.222656 L 243.695312 58.683594 C 243.695312 58.261719 243.351562 57.917969 242.929688 57.917969 C 242.507812 57.917969 242.164062 58.261719 242.164062 58.683594 L 242.164062 60.222656 C 242.164062 60.808594 242.382812 61.347656 242.75 61.757812 C 242.371094 62.175781 242.164062 62.722656 242.164062 63.292969 C 242.164062 64.816406 242.164062 67.140625 242.164062 68.664062 C 242.164062 69.277344 242.40625 69.863281 242.835938 70.292969 C 243.269531 70.726562 243.851562 70.96875 244.464844 70.96875 C 244.464844 70.96875 244.464844 73.273438 244.464844 73.273438 C 244.464844 73.695312 244.804688 74.039062 245.230469 74.039062 L 277.429688 74.039062 C 277.855469 74.039062 278.199219 73.695312 278.199219 73.273438 L 278.199219 70.96875 C 279.46875 70.96875 280.496094 69.9375 280.496094 68.664062 L 280.496094 67.128906 C 280.496094 66.707031 280.152344 66.363281 279.730469 66.363281 C 279.308594 66.363281 278.964844 66.707031 278.964844 67.128906 L 278.964844 68.664062 C 278.964844 69.089844 278.621094 69.433594 278.199219 69.433594 C 272.210938 69.433594 250.449219 69.433594 244.464844 69.433594 C 244.261719 69.433594 244.0625 69.351562 243.921875 69.207031 C 243.777344 69.066406 243.695312 68.871094 243.695312 68.664062 L 243.695312 63.292969 C 243.695312 63.089844 243.777344 62.890625 243.921875 62.75 C 244.0625 62.605469 244.261719 62.523438 244.464844 62.523438 C 244.464844 62.523438 278.199219 62.523438 278.199219 62.523438 C 278.621094 62.523438 278.964844 62.867188 278.964844 63.292969 L 278.964844 64.828125 C 278.964844 65.25 279.308594 65.59375 279.730469 65.59375 C 280.152344 65.59375 280.496094 65.25 280.496094 64.828125 L 280.496094 63.292969 C 280.496094 62.703125 280.277344 62.164062 279.910156 61.757812 C 280.277344 61.347656 280.496094 60.808594 280.496094 60.222656 L 280.496094 52.542969 C 280.496094 51.953125 280.277344 51.414062 279.910156 51.007812 C 280.289062 50.585938 280.496094 50.039062 280.496094 49.472656 C 280.496094 48.402344 280.496094 47.167969 280.496094 47.167969 C 280.496094 46.746094 280.152344 46.402344 279.730469 46.402344 C 279.308594 46.402344 278.964844 46.746094 278.964844 47.167969 C 278.964844 47.167969 278.964844 48.402344 278.964844 49.472656 C 278.964844 49.675781 278.882812 49.871094 278.738281 50.015625 C 278.597656 50.160156 278.402344 50.242188 278.199219 50.242188 C 272.210938 50.242188 250.449219 50.242188 244.464844 50.242188 C 244.039062 50.242188 243.695312 49.894531 243.695312 49.472656 C 243.695312 49.472656 243.695312 42.5625 243.695312 42.5625 C 243.695312 42.5625 278.964844 42.5625 278.964844 42.5625 C 278.964844 42.5625 278.964844 44.867188 278.964844 44.867188 C 278.964844 45.289062 279.308594 45.632812 279.730469 45.632812 C 280.152344 45.632812 280.496094 45.289062 280.496094 44.867188 L 280.496094 41.808594 C 280.5 41.777344 280.496094 41.746094 280.492188 41.714844 C 280.488281 41.675781 280.484375 41.640625 280.476562 41.605469 L 278.289062 32.070312 C 278.050781 31.019531 277.121094 30.28125 276.046875 30.28125 L 255.964844 30.28125 C 255.539062 30.28125 255.195312 30.625 255.195312 31.046875 C 255.195312 31.472656 255.539062 31.816406 255.964844 31.816406 L 276.046875 31.816406 C 276.40625 31.816406 276.714844 32.0625 276.796875 32.410156 Z M 276.664062 70.96875 L 245.996094 70.96875 L 245.996094 72.503906 C 245.996094 72.503906 276.664062 72.503906 276.664062 72.503906 Z M 275.128906 64.828125 C 274.285156 64.828125 273.597656 65.515625 273.597656 66.363281 C 273.597656 67.210938 274.285156 67.898438 275.128906 67.898438 C 275.976562 67.898438 276.664062 67.210938 276.664062 66.363281 C 276.664062 65.515625 275.976562 64.828125 275.128906 64.828125 Z M 270.53125 64.828125 C 269.683594 64.828125 268.996094 65.515625 268.996094 66.363281 C 268.996094 67.210938 269.683594 67.898438 270.53125 67.898438 C 271.378906 67.898438 272.0625 67.210938 272.0625 66.363281 C 272.0625 65.515625 271.378906 64.828125 270.53125 64.828125 Z M 245.996094 67.128906 L 255.195312 67.128906 C 255.621094 67.128906 255.964844 66.785156 255.964844 66.363281 C 255.964844 65.9375 255.621094 65.59375 255.195312 65.59375 L 245.996094 65.59375 C 245.574219 65.59375 245.230469 65.9375 245.230469 66.363281 C 245.230469 66.785156 245.574219 67.128906 245.996094 67.128906 Z M 275.128906 55.230469 C 274.285156 55.230469 273.597656 55.917969 273.597656 56.765625 C 273.597656 57.613281 274.285156 58.300781 275.128906 58.300781 C 275.976562 58.300781 276.664062 57.613281 276.664062 56.765625 C 276.664062 55.917969 275.976562 55.230469 275.128906 55.230469 Z M 270.53125 55.230469 C 269.683594 55.230469 268.996094 55.917969 268.996094 56.765625 C 268.996094 57.613281 269.683594 58.300781 270.53125 58.300781 C 271.378906 58.300781 272.0625 57.613281 272.0625 56.765625 C 272.0625 55.917969 271.378906 55.230469 270.53125 55.230469 Z M 245.996094 57.148438 L 255.195312 57.148438 C 255.621094 57.148438 255.964844 56.804688 255.964844 56.382812 C 255.964844 55.957031 255.621094 55.613281 255.195312 55.613281 L 245.996094 55.613281 C 245.574219 55.613281 245.230469 55.957031 245.230469 56.382812 C 245.230469 56.804688 245.574219 57.148438 245.996094 57.148438 Z M 275.128906 45.25 C 274.285156 45.25 273.597656 45.9375 273.597656 46.785156 C 273.597656 47.632812 274.285156 48.320312 275.128906 48.320312 C 275.976562 48.320312 276.664062 47.632812 276.664062 46.785156 C 276.664062 45.9375 275.976562 45.25 275.128906 45.25 Z M 270.53125 45.25 C 269.683594 45.25 268.996094 45.9375 268.996094 46.785156 C 268.996094 47.632812 269.683594 48.320312 270.53125 48.320312 C 271.378906 48.320312 272.0625 47.632812 272.0625 46.785156 C 272.0625 45.9375 271.378906 45.25 270.53125 45.25 Z M 245.996094 47.167969 L 255.195312 47.167969 C 255.621094 47.167969 255.964844 46.824219 255.964844 46.402344 C 255.964844 45.976562 255.621094 45.632812 255.195312 45.632812 L 245.996094 45.632812 C 245.574219 45.632812 245.230469 45.976562 245.230469 46.402344 C 245.230469 46.824219 245.574219 47.167969 245.996094 47.167969 Z M 252.128906 31.816406 L 253.664062 31.816406 C 254.085938 31.816406 254.429688 31.472656 254.429688 31.046875 C 254.429688 30.625 254.085938 30.28125 253.664062 30.28125 L 252.128906 30.28125 C 251.707031 30.28125 251.363281 30.625 251.363281 31.046875 C 251.363281 31.472656 251.707031 31.816406 252.128906 31.816406 Z M 252.128906 31.816406 " fill-opacity="1" fill-rule="evenodd"/></g><g clip-path="url(#3df3f15b17)"><path fill="#100f0d" d="M 74.078125 47.074219 L 71.613281 47.074219 L 71.613281 50.769531 L 67.917969 50.769531 L 67.917969 53.234375 L 71.613281 53.234375 L 71.613281 56.929688 L 74.078125 56.929688 L 74.078125 53.234375 L 77.773438 53.234375 L 77.773438 50.769531 L 74.078125 50.769531 L 74.078125 47.074219 " fill-opacity="1" fill-rule="nonzero"/></g><g clip-path="url(#277864fc1b)"><path fill="#100f0d" d="M 224.800781 47.074219 L 222.335938 47.074219 L 222.335938 50.769531 L 218.640625 50.769531 L 218.640625 53.234375 L 222.335938 53.234375 L 222.335938 56.929688 L 224.800781 56.929688 L 224.800781 53.234375 L 228.496094 53.234375 L 228.496094 50.769531 L 224.800781 50.769531 L 224.800781 47.074219 " fill-opacity="1" fill-rule="nonzero"/></g><g clip-path="url(#2d5426a0be)"><path fill="#100f0d" d="M 300.410156 47.074219 L 297.945312 47.074219 L 297.945312 50.769531 L 294.25 50.769531 L 294.25 53.234375 L 297.945312 53.234375 L 297.945312 56.929688 L 300.410156 56.929688 L 300.410156 53.234375 L 304.105469 53.234375 L 304.105469 50.769531 L 300.410156 50.769531 L 300.410156 47.074219 " fill-opacity="1" fill-rule="nonzero"/></g><g clip-path="url(#69aa56e40e)"><path fill="#100f0d" d="M 155.222656 47.125 L 152.757812 47.125 L 152.757812 50.820312 L 149.0625 50.820312 L 149.0625 53.285156 L 152.757812 53.285156 L 152.757812 56.984375 L 155.222656 56.984375 L 155.222656 53.285156 L 158.917969 53.285156 L 158.917969 50.820312 L 155.222656 50.820312 L 155.222656 47.125 " fill-opacity="1" fill-rule="nonzero"/></g><path stroke-linecap="butt" transform="matrix(0.481126, 0.573384, -0.573005, 0.480809, 114.200187, 88.393171)" fill="none" stroke-linejoin="miter" d="M -0.00184511 1.499908 L 62.71603 1.498914 " stroke="#000000" stroke-width="3" stroke-opacity="1" stroke-miterlimit="4"/><path stroke-linecap="round" transform="matrix(0.481126, 0.573384, -0.573005, 0.480809, 114.200187, 88.393171)" fill-opacity="1" fill="#000000" fill-rule="nonzero" stroke-linejoin="round" d="M 63.470985 -3.000482 L 69.46886 1.497105 L 63.465186 6.000074 Z M 63.470985 -3.000482 " stroke="#000000" stroke-width="3" stroke-opacity="1" stroke-miterlimit="4"/><path stroke-linecap="butt" transform="matrix(0.00138933, 0.747712, -0.748004, 0.00138987, 189.121206, 88.406056)" fill="none" stroke-linejoin="miter" d="M -0.00252615 1.498925 L 31.766267 1.500488 " stroke="#000000" stroke-width="3" stroke-opacity="1" stroke-miterlimit="4"/><path stroke-linecap="round" transform="matrix(0.00138933, 0.747712, -0.748004, 0.00138987, 189.121206, 88.406056)" fill-opacity="1" fill="#000000" fill-rule="nonzero" stroke-linejoin="round" d="M 32.516479 -2.999683 L 38.516022 1.50258 L 32.515426 5.998221 Z M 32.516479 -2.999683 " stroke="#000000" stroke-width="3" stroke-opacity="1" stroke-miterlimit="4"/><g fill="#000000" fill-opacity="1"><g transform="translate(169.777469, 173.948277)"><g><path d="M 1.625 0 L 0.953125 0 L 0.953125 -6.25 L 2.03125 -6.25 L 3.9375 -0.953125 L 4.015625 -0.953125 L 5.921875 -6.25 L 6.96875 -6.25 L 6.96875 0 L 6.28125 0 L 6.28125 -5.109375 L 6.171875 -5.125 L 4.3125 0 L 3.59375 0 L 1.734375 -5.125 L 1.625 -5.109375 Z M 1.625 0 "/></g></g><g transform="translate(177.696843, 173.948277)"><g><path d="M 1.171875 -5.625 C 1.023438 -5.625 0.90625 -5.671875 0.8125 -5.765625 C 0.71875 -5.859375 0.671875 -5.976562 0.671875 -6.125 C 0.671875 -6.269531 0.71875 -6.382812 0.8125 -6.46875 C 0.90625 -6.5625 1.023438 -6.609375 1.171875 -6.609375 C 1.316406 -6.609375 1.4375 -6.5625 1.53125 -6.46875 C 1.625 -6.382812 1.671875 -6.269531 1.671875 -6.125 C 1.671875 -5.976562 1.625 -5.859375 1.53125 -5.765625 C 1.4375 -5.671875 1.316406 -5.625 1.171875 -5.625 Z M 0.828125 0 L 0.828125 -4.71875 L 1.515625 -4.71875 L 1.515625 0 Z M 0.828125 0 "/></g></g><g transform="translate(180.037144, 173.948277)"><g><path d="M 0.828125 0 L 0.828125 -4.71875 L 1.484375 -4.71875 L 1.484375 -3.984375 L 1.578125 -3.953125 C 1.734375 -4.234375 1.929688 -4.445312 2.171875 -4.59375 C 2.421875 -4.738281 2.71875 -4.8125 3.0625 -4.8125 C 3.632812 -4.8125 4.046875 -4.664062 4.296875 -4.375 C 4.554688 -4.082031 4.6875 -3.632812 4.6875 -3.03125 L 4.6875 0 L 3.984375 0 L 3.984375 -3.015625 C 3.984375 -3.304688 3.945312 -3.535156 3.875 -3.703125 C 3.800781 -3.878906 3.6875 -4.003906 3.53125 -4.078125 C 3.382812 -4.160156 3.1875 -4.203125 2.9375 -4.203125 C 2.507812 -4.203125 2.164062 -4.0625 1.90625 -3.78125 C 1.644531 -3.5 1.515625 -3.046875 1.515625 -2.421875 L 1.515625 0 Z M 0.828125 0 "/></g></g><g transform="translate(185.470751, 173.948277)"><g><path d="M 4.5 -2.203125 L 1.25 -2.203125 C 1.269531 -1.628906 1.40625 -1.207031 1.65625 -0.9375 C 1.914062 -0.664062 2.269531 -0.53125 2.71875 -0.53125 C 3.050781 -0.53125 3.320312 -0.585938 3.53125 -0.703125 C 3.738281 -0.828125 3.898438 -1.019531 4.015625 -1.28125 L 4.109375 -1.28125 L 4.5625 -1.015625 C 4.425781 -0.671875 4.207031 -0.398438 3.90625 -0.203125 C 3.601562 -0.00390625 3.207031 0.09375 2.71875 0.09375 C 2.257812 0.09375 1.863281 0.00390625 1.53125 -0.171875 C 1.207031 -0.359375 0.957031 -0.632812 0.78125 -1 C 0.601562 -1.363281 0.515625 -1.816406 0.515625 -2.359375 C 0.515625 -2.890625 0.609375 -3.335938 0.796875 -3.703125 C 0.984375 -4.078125 1.238281 -4.351562 1.5625 -4.53125 C 1.882812 -4.71875 2.253906 -4.8125 2.671875 -4.8125 C 3.273438 -4.8125 3.742188 -4.640625 4.078125 -4.296875 C 4.421875 -3.953125 4.597656 -3.445312 4.609375 -2.78125 C 4.609375 -2.519531 4.601562 -2.34375 4.59375 -2.25 Z M 3.921875 -2.78125 C 3.910156 -3.28125 3.796875 -3.644531 3.578125 -3.875 C 3.367188 -4.101562 3.066406 -4.21875 2.671875 -4.21875 C 2.253906 -4.21875 1.925781 -4.101562 1.6875 -3.875 C 1.457031 -3.644531 1.316406 -3.28125 1.265625 -2.78125 Z M 3.921875 -2.78125 "/></g></g><g transform="translate(190.502185, 173.948277)"><g><path d="M 0.828125 0 L 0.828125 -4.71875 L 1.484375 -4.71875 L 1.484375 -3.984375 L 1.578125 -3.953125 C 1.796875 -4.492188 2.207031 -4.765625 2.8125 -4.765625 C 3.132812 -4.765625 3.378906 -4.707031 3.546875 -4.59375 L 3.359375 -4 L 3.28125 -3.984375 C 3.101562 -4.066406 2.90625 -4.109375 2.6875 -4.109375 C 2.3125 -4.109375 2.019531 -3.96875 1.8125 -3.6875 C 1.613281 -3.40625 1.515625 -2.945312 1.515625 -2.3125 L 1.515625 0 Z M 0.828125 0 "/></g></g><g transform="translate(194.147407, 173.948277)"><g><path d="M 2.984375 0 L 2.03125 0 L 0.234375 -4.71875 L 0.984375 -4.71875 L 2.46875 -0.796875 L 2.5625 -0.796875 L 4.046875 -4.71875 L 4.78125 -4.71875 Z M 2.984375 0 "/></g></g><g transform="translate(199.148892, 173.948277)"><g><path d="M 1.953125 0.09375 C 1.484375 0.09375 1.117188 -0.0234375 0.859375 -0.265625 C 0.597656 -0.515625 0.46875 -0.863281 0.46875 -1.3125 C 0.46875 -1.59375 0.523438 -1.828125 0.640625 -2.015625 C 0.753906 -2.210938 0.929688 -2.367188 1.171875 -2.484375 C 1.421875 -2.609375 1.738281 -2.707031 2.125 -2.78125 C 2.46875 -2.832031 2.726562 -2.894531 2.90625 -2.96875 C 3.082031 -3.039062 3.203125 -3.117188 3.265625 -3.203125 C 3.328125 -3.296875 3.359375 -3.410156 3.359375 -3.546875 C 3.359375 -3.753906 3.285156 -3.914062 3.140625 -4.03125 C 2.992188 -4.144531 2.757812 -4.203125 2.4375 -4.203125 C 2.125 -4.203125 1.859375 -4.140625 1.640625 -4.015625 C 1.421875 -3.898438 1.222656 -3.726562 1.046875 -3.5 L 0.953125 -3.5 L 0.609375 -3.984375 C 0.816406 -4.234375 1.070312 -4.429688 1.375 -4.578125 C 1.6875 -4.734375 2.039062 -4.8125 2.4375 -4.8125 C 2.988281 -4.8125 3.394531 -4.6875 3.65625 -4.4375 C 3.925781 -4.195312 4.0625 -3.863281 4.0625 -3.4375 L 4.0625 -0.921875 C 4.0625 -0.660156 4.171875 -0.53125 4.390625 -0.53125 C 4.460938 -0.53125 4.535156 -0.546875 4.609375 -0.578125 L 4.671875 -0.5625 L 4.75 -0.078125 C 4.695312 -0.0351562 4.628906 -0.0078125 4.546875 0 C 4.460938 0.0195312 4.375 0.03125 4.28125 0.03125 C 4.019531 0.03125 3.820312 -0.0234375 3.6875 -0.140625 C 3.5625 -0.253906 3.476562 -0.421875 3.4375 -0.640625 L 3.34375 -0.65625 C 3.21875 -0.40625 3.039062 -0.21875 2.8125 -0.09375 C 2.582031 0.03125 2.296875 0.09375 1.953125 0.09375 Z M 2.09375 -0.46875 C 2.363281 -0.46875 2.59375 -0.523438 2.78125 -0.640625 C 2.976562 -0.765625 3.125 -0.9375 3.21875 -1.15625 C 3.320312 -1.375 3.375 -1.628906 3.375 -1.921875 L 3.375 -2.515625 L 3.296875 -2.53125 C 3.191406 -2.457031 3.0625 -2.394531 2.90625 -2.34375 C 2.757812 -2.300781 2.550781 -2.257812 2.28125 -2.21875 C 2.007812 -2.175781 1.789062 -2.117188 1.625 -2.046875 C 1.46875 -1.972656 1.351562 -1.875 1.28125 -1.75 C 1.21875 -1.632812 1.1875 -1.488281 1.1875 -1.3125 C 1.1875 -1.039062 1.265625 -0.832031 1.421875 -0.6875 C 1.585938 -0.539062 1.8125 -0.46875 2.09375 -0.46875 Z M 2.09375 -0.46875 "/></g></g></g><g fill="#000000" fill-opacity="1"><g transform="translate(0.763938, 13.889844)"><g><path d="M 3.1875 -6.25 C 3.613281 -6.25 3.976562 -6.171875 4.28125 -6.015625 C 4.59375 -5.867188 4.828125 -5.648438 4.984375 -5.359375 C 5.148438 -5.078125 5.234375 -4.742188 5.234375 -4.359375 C 5.234375 -3.960938 5.148438 -3.625 4.984375 -3.34375 C 4.828125 -3.0625 4.59375 -2.84375 4.28125 -2.6875 C 3.976562 -2.53125 3.613281 -2.453125 3.1875 -2.453125 L 1.6875 -2.453125 L 1.6875 0 L 0.953125 0 L 0.953125 -6.25 Z M 3.15625 -3.078125 C 4.03125 -3.078125 4.46875 -3.503906 4.46875 -4.359375 C 4.46875 -5.203125 4.03125 -5.625 3.15625 -5.625 L 1.6875 -5.625 L 1.6875 -3.078125 Z M 3.15625 -3.078125 "/></g></g><g transform="translate(6.467086, 13.889844)"><g><path d="M 2.703125 0.09375 C 2.265625 0.09375 1.878906 0 1.546875 -0.1875 C 1.210938 -0.375 0.957031 -0.648438 0.78125 -1.015625 C 0.601562 -1.390625 0.515625 -1.835938 0.515625 -2.359375 C 0.515625 -2.878906 0.601562 -3.320312 0.78125 -3.6875 C 0.957031 -4.0625 1.210938 -4.34375 1.546875 -4.53125 C 1.878906 -4.71875 2.265625 -4.8125 2.703125 -4.8125 C 3.148438 -4.8125 3.535156 -4.71875 3.859375 -4.53125 C 4.191406 -4.34375 4.445312 -4.0625 4.625 -3.6875 C 4.8125 -3.320312 4.90625 -2.878906 4.90625 -2.359375 C 4.90625 -1.835938 4.8125 -1.390625 4.625 -1.015625 C 4.445312 -0.648438 4.191406 -0.375 3.859375 -0.1875 C 3.535156 0 3.148438 0.09375 2.703125 0.09375 Z M 2.703125 -0.53125 C 3.179688 -0.53125 3.546875 -0.675781 3.796875 -0.96875 C 4.046875 -1.269531 4.171875 -1.734375 4.171875 -2.359375 C 4.171875 -2.984375 4.046875 -3.441406 3.796875 -3.734375 C 3.546875 -4.035156 3.179688 -4.1875 2.703125 -4.1875 C 2.234375 -4.1875 1.875 -4.035156 1.625 -3.734375 C 1.375 -3.441406 1.25 -2.984375 1.25 -2.359375 C 1.25 -1.734375 1.375 -1.269531 1.625 -0.96875 C 1.875 -0.675781 2.234375 -0.53125 2.703125 -0.53125 Z M 2.703125 -0.53125 "/></g></g><g transform="translate(11.883578, 13.889844)"><g><path d="M 2.34375 0 L 1.453125 0 L 0.296875 -4.71875 L 1 -4.71875 L 1.890625 -0.8125 L 1.984375 -0.8125 L 3.078125 -4.71875 L 3.8125 -4.71875 L 4.9375 -0.8125 L 5.03125 -0.8125 L 5.90625 -4.71875 L 6.578125 -4.71875 L 5.4375 0 L 4.546875 0 L 3.46875 -3.65625 L 3.375 -3.65625 Z M 2.34375 0 "/></g></g><g transform="translate(18.763294, 13.889844)"><g><path d="M 4.5 -2.203125 L 1.25 -2.203125 C 1.269531 -1.628906 1.40625 -1.207031 1.65625 -0.9375 C 1.914062 -0.664062 2.269531 -0.53125 2.71875 -0.53125 C 3.050781 -0.53125 3.320312 -0.585938 3.53125 -0.703125 C 3.738281 -0.828125 3.898438 -1.019531 4.015625 -1.28125 L 4.109375 -1.28125 L 4.5625 -1.015625 C 4.425781 -0.671875 4.207031 -0.398438 3.90625 -0.203125 C 3.601562 -0.00390625 3.207031 0.09375 2.71875 0.09375 C 2.257812 0.09375 1.863281 0.00390625 1.53125 -0.171875 C 1.207031 -0.359375 0.957031 -0.632812 0.78125 -1 C 0.601562 -1.363281 0.515625 -1.816406 0.515625 -2.359375 C 0.515625 -2.890625 0.609375 -3.335938 0.796875 -3.703125 C 0.984375 -4.078125 1.238281 -4.351562 1.5625 -4.53125 C 1.882812 -4.71875 2.253906 -4.8125 2.671875 -4.8125 C 3.273438 -4.8125 3.742188 -4.640625 4.078125 -4.296875 C 4.421875 -3.953125 4.597656 -3.445312 4.609375 -2.78125 C 4.609375 -2.519531 4.601562 -2.34375 4.59375 -2.25 Z M 3.921875 -2.78125 C 3.910156 -3.28125 3.796875 -3.644531 3.578125 -3.875 C 3.367188 -4.101562 3.066406 -4.21875 2.671875 -4.21875 C 2.253906 -4.21875 1.925781 -4.101562 1.6875 -3.875 C 1.457031 -3.644531 1.316406 -3.28125 1.265625 -2.78125 Z M 3.921875 -2.78125 "/></g></g><g transform="translate(23.794728, 13.889844)"><g><path d="M 0.828125 0 L 0.828125 -4.71875 L 1.484375 -4.71875 L 1.484375 -3.984375 L 1.578125 -3.953125 C 1.796875 -4.492188 2.207031 -4.765625 2.8125 -4.765625 C 3.132812 -4.765625 3.378906 -4.707031 3.546875 -4.59375 L 3.359375 -4 L 3.28125 -3.984375 C 3.101562 -4.066406 2.90625 -4.109375 2.6875 -4.109375 C 2.3125 -4.109375 2.019531 -3.96875 1.8125 -3.6875 C 1.613281 -3.40625 1.515625 -2.945312 1.515625 -2.3125 L 1.515625 0 Z M 0.828125 0 "/></g></g><g transform="translate(27.439951, 13.889844)"><g/></g><g transform="translate(29.587723, 13.889844)"><g><path d="M 2.734375 0.09375 C 2.335938 0.09375 1.984375 0.0390625 1.671875 -0.0625 C 1.359375 -0.175781 1.097656 -0.316406 0.890625 -0.484375 C 0.679688 -0.660156 0.523438 -0.851562 0.421875 -1.0625 L 0.828125 -1.546875 L 0.9375 -1.546875 C 1.320312 -0.898438 1.921875 -0.578125 2.734375 -0.578125 C 3.203125 -0.578125 3.550781 -0.675781 3.78125 -0.875 C 4.007812 -1.070312 4.125 -1.34375 4.125 -1.6875 C 4.125 -1.894531 4.085938 -2.066406 4.015625 -2.203125 C 3.941406 -2.347656 3.816406 -2.472656 3.640625 -2.578125 C 3.460938 -2.679688 3.226562 -2.769531 2.9375 -2.84375 L 2.203125 -3.015625 C 1.648438 -3.148438 1.242188 -3.359375 0.984375 -3.640625 C 0.734375 -3.929688 0.609375 -4.296875 0.609375 -4.734375 C 0.609375 -5.046875 0.6875 -5.320312 0.84375 -5.5625 C 1.007812 -5.8125 1.242188 -6.003906 1.546875 -6.140625 C 1.859375 -6.273438 2.226562 -6.34375 2.65625 -6.34375 C 3.125 -6.34375 3.519531 -6.273438 3.84375 -6.140625 C 4.164062 -6.015625 4.425781 -5.816406 4.625 -5.546875 L 4.265625 -5.0625 L 4.15625 -5.0625 C 3.976562 -5.28125 3.765625 -5.441406 3.515625 -5.546875 C 3.273438 -5.648438 2.988281 -5.703125 2.65625 -5.703125 C 2.21875 -5.703125 1.890625 -5.617188 1.671875 -5.453125 C 1.453125 -5.285156 1.34375 -5.050781 1.34375 -4.75 C 1.34375 -4.46875 1.421875 -4.242188 1.578125 -4.078125 C 1.742188 -3.910156 2.019531 -3.78125 2.40625 -3.6875 L 3.15625 -3.515625 C 3.757812 -3.367188 4.195312 -3.144531 4.46875 -2.84375 C 4.75 -2.550781 4.890625 -2.175781 4.890625 -1.71875 C 4.890625 -1.363281 4.804688 -1.050781 4.640625 -0.78125 C 4.484375 -0.507812 4.242188 -0.296875 3.921875 -0.140625 C 3.597656 0.015625 3.203125 0.09375 2.734375 0.09375 Z M 2.734375 0.09375 "/></g></g><g transform="translate(34.948596, 13.889844)"><g><path d="M 2.703125 0.09375 C 2.265625 0.09375 1.878906 0 1.546875 -0.1875 C 1.210938 -0.375 0.957031 -0.648438 0.78125 -1.015625 C 0.601562 -1.390625 0.515625 -1.835938 0.515625 -2.359375 C 0.515625 -2.878906 0.601562 -3.320312 0.78125 -3.6875 C 0.957031 -4.0625 1.210938 -4.34375 1.546875 -4.53125 C 1.878906 -4.71875 2.265625 -4.8125 2.703125 -4.8125 C 3.148438 -4.8125 3.535156 -4.71875 3.859375 -4.53125 C 4.191406 -4.34375 4.445312 -4.0625 4.625 -3.6875 C 4.8125 -3.320312 4.90625 -2.878906 4.90625 -2.359375 C 4.90625 -1.835938 4.8125 -1.390625 4.625 -1.015625 C 4.445312 -0.648438 4.191406 -0.375 3.859375 -0.1875 C 3.535156 0 3.148438 0.09375 2.703125 0.09375 Z M 2.703125 -0.53125 C 3.179688 -0.53125 3.546875 -0.675781 3.796875 -0.96875 C 4.046875 -1.269531 4.171875 -1.734375 4.171875 -2.359375 C 4.171875 -2.984375 4.046875 -3.441406 3.796875 -3.734375 C 3.546875 -4.035156 3.179688 -4.1875 2.703125 -4.1875 C 2.234375 -4.1875 1.875 -4.035156 1.625 -3.734375 C 1.375 -3.441406 1.25 -2.984375 1.25 -2.359375 C 1.25 -1.734375 1.375 -1.269531 1.625 -0.96875 C 1.875 -0.675781 2.234375 -0.53125 2.703125 -0.53125 Z M 2.703125 -0.53125 "/></g></g><g transform="translate(40.365089, 13.889844)"><g><path d="M 2.328125 0.09375 C 1.796875 0.09375 1.398438 -0.046875 1.140625 -0.328125 C 0.878906 -0.609375 0.75 -1.023438 0.75 -1.578125 L 0.75 -4.71875 L 1.453125 -4.71875 L 1.453125 -1.59375 C 1.453125 -0.875 1.785156 -0.515625 2.453125 -0.515625 C 2.878906 -0.515625 3.21875 -0.65625 3.46875 -0.9375 C 3.71875 -1.21875 3.84375 -1.671875 3.84375 -2.296875 L 3.84375 -4.71875 L 4.546875 -4.71875 L 4.546875 0 L 3.875 0 L 3.875 -0.734375 L 3.796875 -0.765625 C 3.628906 -0.472656 3.429688 -0.253906 3.203125 -0.109375 C 2.984375 0.0234375 2.691406 0.09375 2.328125 0.09375 Z M 2.328125 0.09375 "/></g></g><g transform="translate(45.725962, 13.889844)"><g><path d="M 0.828125 0 L 0.828125 -4.71875 L 1.484375 -4.71875 L 1.484375 -3.984375 L 1.578125 -3.953125 C 1.796875 -4.492188 2.207031 -4.765625 2.8125 -4.765625 C 3.132812 -4.765625 3.378906 -4.707031 3.546875 -4.59375 L 3.359375 -4 L 3.28125 -3.984375 C 3.101562 -4.066406 2.90625 -4.109375 2.6875 -4.109375 C 2.3125 -4.109375 2.019531 -3.96875 1.8125 -3.6875 C 1.613281 -3.40625 1.515625 -2.945312 1.515625 -2.3125 L 1.515625 0 Z M 0.828125 0 "/></g></g><g transform="translate(49.371184, 13.889844)"><g><path d="M 2.703125 0.09375 C 2.285156 0.09375 1.910156 0 1.578125 -0.1875 C 1.253906 -0.382812 0.992188 -0.664062 0.796875 -1.03125 C 0.609375 -1.40625 0.515625 -1.847656 0.515625 -2.359375 C 0.515625 -2.878906 0.609375 -3.320312 0.796875 -3.6875 C 0.992188 -4.050781 1.253906 -4.328125 1.578125 -4.515625 C 1.910156 -4.710938 2.285156 -4.8125 2.703125 -4.8125 C 3.203125 -4.8125 3.597656 -4.71875 3.890625 -4.53125 C 4.191406 -4.34375 4.410156 -4.09375 4.546875 -3.78125 L 4.0625 -3.4375 L 3.984375 -3.4375 C 3.847656 -3.695312 3.679688 -3.882812 3.484375 -4 C 3.285156 -4.125 3.023438 -4.1875 2.703125 -4.1875 C 2.410156 -4.1875 2.15625 -4.117188 1.9375 -3.984375 C 1.71875 -3.847656 1.546875 -3.640625 1.421875 -3.359375 C 1.304688 -3.085938 1.25 -2.753906 1.25 -2.359375 C 1.25 -1.960938 1.3125 -1.628906 1.4375 -1.359375 C 1.5625 -1.085938 1.726562 -0.878906 1.9375 -0.734375 C 2.15625 -0.597656 2.410156 -0.53125 2.703125 -0.53125 C 3.035156 -0.53125 3.304688 -0.601562 3.515625 -0.75 C 3.734375 -0.90625 3.90625 -1.140625 4.03125 -1.453125 L 4.125 -1.453125 L 4.578125 -1.1875 C 4.453125 -0.789062 4.234375 -0.476562 3.921875 -0.25 C 3.609375 -0.0195312 3.203125 0.09375 2.703125 0.09375 Z M 2.703125 0.09375 "/></g></g><g transform="translate(54.235759, 13.889844)"><g><path d="M 4.5 -2.203125 L 1.25 -2.203125 C 1.269531 -1.628906 1.40625 -1.207031 1.65625 -0.9375 C 1.914062 -0.664062 2.269531 -0.53125 2.71875 -0.53125 C 3.050781 -0.53125 3.320312 -0.585938 3.53125 -0.703125 C 3.738281 -0.828125 3.898438 -1.019531 4.015625 -1.28125 L 4.109375 -1.28125 L 4.5625 -1.015625 C 4.425781 -0.671875 4.207031 -0.398438 3.90625 -0.203125 C 3.601562 -0.00390625 3.207031 0.09375 2.71875 0.09375 C 2.257812 0.09375 1.863281 0.00390625 1.53125 -0.171875 C 1.207031 -0.359375 0.957031 -0.632812 0.78125 -1 C 0.601562 -1.363281 0.515625 -1.816406 0.515625 -2.359375 C 0.515625 -2.890625 0.609375 -3.335938 0.796875 -3.703125 C 0.984375 -4.078125 1.238281 -4.351562 1.5625 -4.53125 C 1.882812 -4.71875 2.253906 -4.8125 2.671875 -4.8125 C 3.273438 -4.8125 3.742188 -4.640625 4.078125 -4.296875 C 4.421875 -3.953125 4.597656 -3.445312 4.609375 -2.78125 C 4.609375 -2.519531 4.601562 -2.34375 4.59375 -2.25 Z M 3.921875 -2.78125 C 3.910156 -3.28125 3.796875 -3.644531 3.578125 -3.875 C 3.367188 -4.101562 3.066406 -4.21875 2.671875 -4.21875 C 2.253906 -4.21875 1.925781 -4.101562 1.6875 -3.875 C 1.457031 -3.644531 1.316406 -3.28125 1.265625 -2.78125 Z M 3.921875 -2.78125 "/></g></g></g><g fill="#000000" fill-opacity="1"><g transform="translate(171.907552, 13.889844)"><g><path d="M 4.890625 -6.25 L 4.890625 -5.625 L 2.921875 -5.625 L 2.921875 0 L 2.1875 0 L 2.1875 -5.625 L 0.234375 -5.625 L 0.234375 -6.25 Z M 4.890625 -6.25 "/></g></g><g transform="translate(177.015998, 13.889844)"><g><path d="M 1.953125 0.09375 C 1.484375 0.09375 1.117188 -0.0234375 0.859375 -0.265625 C 0.597656 -0.515625 0.46875 -0.863281 0.46875 -1.3125 C 0.46875 -1.59375 0.523438 -1.828125 0.640625 -2.015625 C 0.753906 -2.210938 0.929688 -2.367188 1.171875 -2.484375 C 1.421875 -2.609375 1.738281 -2.707031 2.125 -2.78125 C 2.46875 -2.832031 2.726562 -2.894531 2.90625 -2.96875 C 3.082031 -3.039062 3.203125 -3.117188 3.265625 -3.203125 C 3.328125 -3.296875 3.359375 -3.410156 3.359375 -3.546875 C 3.359375 -3.753906 3.285156 -3.914062 3.140625 -4.03125 C 2.992188 -4.144531 2.757812 -4.203125 2.4375 -4.203125 C 2.125 -4.203125 1.859375 -4.140625 1.640625 -4.015625 C 1.421875 -3.898438 1.222656 -3.726562 1.046875 -3.5 L 0.953125 -3.5 L 0.609375 -3.984375 C 0.816406 -4.234375 1.070312 -4.429688 1.375 -4.578125 C 1.6875 -4.734375 2.039062 -4.8125 2.4375 -4.8125 C 2.988281 -4.8125 3.394531 -4.6875 3.65625 -4.4375 C 3.925781 -4.195312 4.0625 -3.863281 4.0625 -3.4375 L 4.0625 -0.921875 C 4.0625 -0.660156 4.171875 -0.53125 4.390625 -0.53125 C 4.460938 -0.53125 4.535156 -0.546875 4.609375 -0.578125 L 4.671875 -0.5625 L 4.75 -0.078125 C 4.695312 -0.0351562 4.628906 -0.0078125 4.546875 0 C 4.460938 0.0195312 4.375 0.03125 4.28125 0.03125 C 4.019531 0.03125 3.820312 -0.0234375 3.6875 -0.140625 C 3.5625 -0.253906 3.476562 -0.421875 3.4375 -0.640625 L 3.34375 -0.65625 C 3.21875 -0.40625 3.039062 -0.21875 2.8125 -0.09375 C 2.582031 0.03125 2.296875 0.09375 1.953125 0.09375 Z M 2.09375 -0.46875 C 2.363281 -0.46875 2.59375 -0.523438 2.78125 -0.640625 C 2.976562 -0.765625 3.125 -0.9375 3.21875 -1.15625 C 3.320312 -1.375 3.375 -1.628906 3.375 -1.921875 L 3.375 -2.515625 L 3.296875 -2.53125 C 3.191406 -2.457031 3.0625 -2.394531 2.90625 -2.34375 C 2.757812 -2.300781 2.550781 -2.257812 2.28125 -2.21875 C 2.007812 -2.175781 1.789062 -2.117188 1.625 -2.046875 C 1.46875 -1.972656 1.351562 -1.875 1.28125 -1.75 C 1.21875 -1.632812 1.1875 -1.488281 1.1875 -1.3125 C 1.1875 -1.039062 1.265625 -0.832031 1.421875 -0.6875 C 1.585938 -0.539062 1.8125 -0.46875 2.09375 -0.46875 Z M 2.09375 -0.46875 "/></g></g><g transform="translate(181.897687, 13.889844)"><g><path d="M 3.140625 0.09375 C 2.785156 0.09375 2.476562 0.0234375 2.21875 -0.109375 C 1.96875 -0.242188 1.765625 -0.425781 1.609375 -0.65625 L 1.515625 -0.640625 L 1.515625 0 L 0.828125 0 L 0.828125 -6.609375 L 1.515625 -6.609375 L 1.515625 -4.015625 L 1.609375 -4 C 1.972656 -4.539062 2.492188 -4.8125 3.171875 -4.8125 C 3.566406 -4.8125 3.90625 -4.71875 4.1875 -4.53125 C 4.476562 -4.351562 4.703125 -4.082031 4.859375 -3.71875 C 5.023438 -3.351562 5.109375 -2.898438 5.109375 -2.359375 C 5.109375 -1.816406 5.023438 -1.363281 4.859375 -1 C 4.691406 -0.632812 4.457031 -0.359375 4.15625 -0.171875 C 3.863281 0.00390625 3.523438 0.09375 3.140625 0.09375 Z M 2.96875 -0.53125 C 3.914062 -0.53125 4.390625 -1.140625 4.390625 -2.359375 C 4.390625 -2.984375 4.265625 -3.441406 4.015625 -3.734375 C 3.765625 -4.035156 3.414062 -4.1875 2.96875 -4.1875 C 2.53125 -4.1875 2.175781 -4.035156 1.90625 -3.734375 C 1.644531 -3.429688 1.515625 -2.972656 1.515625 -2.359375 C 1.515625 -1.742188 1.644531 -1.285156 1.90625 -0.984375 C 2.175781 -0.679688 2.53125 -0.53125 2.96875 -0.53125 Z M 2.96875 -0.53125 "/></g></g><g transform="translate(187.528101, 13.889844)"><g><path d="M 1.875 0.09375 C 1.539062 0.09375 1.273438 0 1.078125 -0.1875 C 0.890625 -0.382812 0.796875 -0.671875 0.796875 -1.046875 L 0.796875 -6.609375 L 1.5 -6.609375 L 1.5 -1.09375 C 1.5 -0.894531 1.535156 -0.75 1.609375 -0.65625 C 1.691406 -0.570312 1.8125 -0.53125 1.96875 -0.53125 C 2.0625 -0.53125 2.160156 -0.546875 2.265625 -0.578125 L 2.328125 -0.5625 L 2.40625 -0.015625 C 2.351562 0.015625 2.28125 0.0390625 2.1875 0.0625 C 2.09375 0.0820312 1.988281 0.09375 1.875 0.09375 Z M 1.875 0.09375 "/></g></g><g transform="translate(190.095159, 13.889844)"><g><path d="M 4.5 -2.203125 L 1.25 -2.203125 C 1.269531 -1.628906 1.40625 -1.207031 1.65625 -0.9375 C 1.914062 -0.664062 2.269531 -0.53125 2.71875 -0.53125 C 3.050781 -0.53125 3.320312 -0.585938 3.53125 -0.703125 C 3.738281 -0.828125 3.898438 -1.019531 4.015625 -1.28125 L 4.109375 -1.28125 L 4.5625 -1.015625 C 4.425781 -0.671875 4.207031 -0.398438 3.90625 -0.203125 C 3.601562 -0.00390625 3.207031 0.09375 2.71875 0.09375 C 2.257812 0.09375 1.863281 0.00390625 1.53125 -0.171875 C 1.207031 -0.359375 0.957031 -0.632812 0.78125 -1 C 0.601562 -1.363281 0.515625 -1.816406 0.515625 -2.359375 C 0.515625 -2.890625 0.609375 -3.335938 0.796875 -3.703125 C 0.984375 -4.078125 1.238281 -4.351562 1.5625 -4.53125 C 1.882812 -4.71875 2.253906 -4.8125 2.671875 -4.8125 C 3.273438 -4.8125 3.742188 -4.640625 4.078125 -4.296875 C 4.421875 -3.953125 4.597656 -3.445312 4.609375 -2.78125 C 4.609375 -2.519531 4.601562 -2.34375 4.59375 -2.25 Z M 3.921875 -2.78125 C 3.910156 -3.28125 3.796875 -3.644531 3.578125 -3.875 C 3.367188 -4.101562 3.066406 -4.21875 2.671875 -4.21875 C 2.253906 -4.21875 1.925781 -4.101562 1.6875 -3.875 C 1.457031 -3.644531 1.316406 -3.28125 1.265625 -2.78125 Z M 3.921875 -2.78125 "/></g></g><g transform="translate(195.126593, 13.889844)"><g><path d="M 3.1875 -0.75 L 3.421875 -0.25 C 3.304688 -0.132812 3.15625 -0.0507812 2.96875 0 C 2.789062 0.0625 2.597656 0.09375 2.390625 0.09375 C 1.484375 0.09375 1.03125 -0.363281 1.03125 -1.28125 L 1.03125 -4.15625 L 0.21875 -4.15625 L 0.21875 -4.71875 L 1.03125 -4.71875 L 1.03125 -5.71875 L 1.734375 -5.84375 L 1.734375 -4.71875 L 3.25 -4.71875 L 3.25 -4.15625 L 1.734375 -4.15625 L 1.734375 -1.34375 C 1.734375 -0.800781 1.96875 -0.53125 2.4375 -0.53125 C 2.695312 -0.53125 2.921875 -0.601562 3.109375 -0.75 Z M 3.1875 -0.75 "/></g></g><g transform="translate(198.720474, 13.889844)"><g><path d="M 2.15625 0.09375 C 1.851562 0.09375 1.578125 0.0546875 1.328125 -0.015625 C 1.078125 -0.0976562 0.863281 -0.207031 0.6875 -0.34375 C 0.507812 -0.488281 0.390625 -0.644531 0.328125 -0.8125 L 0.734375 -1.234375 L 0.828125 -1.234375 C 0.972656 -1.003906 1.15625 -0.828125 1.375 -0.703125 C 1.59375 -0.585938 1.851562 -0.53125 2.15625 -0.53125 C 2.5 -0.53125 2.757812 -0.597656 2.9375 -0.734375 C 3.125 -0.867188 3.21875 -1.0625 3.21875 -1.3125 C 3.21875 -1.488281 3.160156 -1.640625 3.046875 -1.765625 C 2.941406 -1.890625 2.765625 -1.976562 2.515625 -2.03125 L 1.71875 -2.234375 C 1.300781 -2.335938 0.992188 -2.5 0.796875 -2.71875 C 0.597656 -2.945312 0.5 -3.222656 0.5 -3.546875 C 0.5 -3.804688 0.5625 -4.03125 0.6875 -4.21875 C 0.820312 -4.40625 1.015625 -4.550781 1.265625 -4.65625 C 1.515625 -4.757812 1.804688 -4.8125 2.140625 -4.8125 C 2.578125 -4.8125 2.921875 -4.75 3.171875 -4.625 C 3.421875 -4.507812 3.613281 -4.34375 3.75 -4.125 L 3.359375 -3.734375 L 3.28125 -3.734375 C 3.125 -3.910156 2.957031 -4.035156 2.78125 -4.109375 C 2.601562 -4.191406 2.390625 -4.234375 2.140625 -4.234375 C 1.828125 -4.234375 1.585938 -4.175781 1.421875 -4.0625 C 1.265625 -3.945312 1.1875 -3.785156 1.1875 -3.578125 C 1.1875 -3.390625 1.242188 -3.234375 1.359375 -3.109375 C 1.472656 -2.992188 1.675781 -2.898438 1.96875 -2.828125 L 2.75 -2.640625 C 3.164062 -2.546875 3.460938 -2.382812 3.640625 -2.15625 C 3.828125 -1.9375 3.921875 -1.65625 3.921875 -1.3125 C 3.921875 -1.039062 3.851562 -0.796875 3.71875 -0.578125 C 3.582031 -0.367188 3.378906 -0.203125 3.109375 -0.078125 C 2.847656 0.0351562 2.53125 0.09375 2.15625 0.09375 Z M 2.15625 0.09375 "/></g></g></g><g fill="#000000" fill-opacity="1"><g transform="translate(92.886022, 13.889844)"><g><path d="M 0.953125 0 L 0.953125 -6.25 L 3.3125 -6.25 C 3.695312 -6.25 4.023438 -6.1875 4.296875 -6.0625 C 4.566406 -5.945312 4.769531 -5.773438 4.90625 -5.546875 C 5.039062 -5.316406 5.109375 -5.046875 5.109375 -4.734375 C 5.109375 -4.460938 5.035156 -4.21875 4.890625 -4 C 4.742188 -3.78125 4.53125 -3.609375 4.25 -3.484375 L 4.25 -3.390625 C 4.664062 -3.296875 4.984375 -3.113281 5.203125 -2.84375 C 5.421875 -2.570312 5.53125 -2.226562 5.53125 -1.8125 C 5.53125 -1.226562 5.359375 -0.78125 5.015625 -0.46875 C 4.671875 -0.15625 4.164062 0 3.5 0 Z M 3.28125 -3.625 C 3.625 -3.625 3.890625 -3.710938 4.078125 -3.890625 C 4.273438 -4.078125 4.375 -4.328125 4.375 -4.640625 C 4.375 -4.984375 4.28125 -5.238281 4.09375 -5.40625 C 3.914062 -5.570312 3.644531 -5.65625 3.28125 -5.65625 L 1.6875 -5.65625 L 1.6875 -3.625 Z M 3.4375 -0.609375 C 4.332031 -0.609375 4.78125 -1.007812 4.78125 -1.8125 C 4.78125 -2.613281 4.332031 -3.015625 3.4375 -3.015625 L 1.6875 -3.015625 L 1.6875 -0.609375 Z M 3.4375 -0.609375 "/></g></g><g transform="translate(98.905773, 13.889844)"><g><path d="M 1.953125 0.09375 C 1.484375 0.09375 1.117188 -0.0234375 0.859375 -0.265625 C 0.597656 -0.515625 0.46875 -0.863281 0.46875 -1.3125 C 0.46875 -1.59375 0.523438 -1.828125 0.640625 -2.015625 C 0.753906 -2.210938 0.929688 -2.367188 1.171875 -2.484375 C 1.421875 -2.609375 1.738281 -2.707031 2.125 -2.78125 C 2.46875 -2.832031 2.726562 -2.894531 2.90625 -2.96875 C 3.082031 -3.039062 3.203125 -3.117188 3.265625 -3.203125 C 3.328125 -3.296875 3.359375 -3.410156 3.359375 -3.546875 C 3.359375 -3.753906 3.285156 -3.914062 3.140625 -4.03125 C 2.992188 -4.144531 2.757812 -4.203125 2.4375 -4.203125 C 2.125 -4.203125 1.859375 -4.140625 1.640625 -4.015625 C 1.421875 -3.898438 1.222656 -3.726562 1.046875 -3.5 L 0.953125 -3.5 L 0.609375 -3.984375 C 0.816406 -4.234375 1.070312 -4.429688 1.375 -4.578125 C 1.6875 -4.734375 2.039062 -4.8125 2.4375 -4.8125 C 2.988281 -4.8125 3.394531 -4.6875 3.65625 -4.4375 C 3.925781 -4.195312 4.0625 -3.863281 4.0625 -3.4375 L 4.0625 -0.921875 C 4.0625 -0.660156 4.171875 -0.53125 4.390625 -0.53125 C 4.460938 -0.53125 4.535156 -0.546875 4.609375 -0.578125 L 4.671875 -0.5625 L 4.75 -0.078125 C 4.695312 -0.0351562 4.628906 -0.0078125 4.546875 0 C 4.460938 0.0195312 4.375 0.03125 4.28125 0.03125 C 4.019531 0.03125 3.820312 -0.0234375 3.6875 -0.140625 C 3.5625 -0.253906 3.476562 -0.421875 3.4375 -0.640625 L 3.34375 -0.65625 C 3.21875 -0.40625 3.039062 -0.21875 2.8125 -0.09375 C 2.582031 0.03125 2.296875 0.09375 1.953125 0.09375 Z M 2.09375 -0.46875 C 2.363281 -0.46875 2.59375 -0.523438 2.78125 -0.640625 C 2.976562 -0.765625 3.125 -0.9375 3.21875 -1.15625 C 3.320312 -1.375 3.375 -1.628906 3.375 -1.921875 L 3.375 -2.515625 L 3.296875 -2.53125 C 3.191406 -2.457031 3.0625 -2.394531 2.90625 -2.34375 C 2.757812 -2.300781 2.550781 -2.257812 2.28125 -2.21875 C 2.007812 -2.175781 1.789062 -2.117188 1.625 -2.046875 C 1.46875 -1.972656 1.351562 -1.875 1.28125 -1.75 C 1.21875 -1.632812 1.1875 -1.488281 1.1875 -1.3125 C 1.1875 -1.039062 1.265625 -0.832031 1.421875 -0.6875 C 1.585938 -0.539062 1.8125 -0.46875 2.09375 -0.46875 Z M 2.09375 -0.46875 "/></g></g><g transform="translate(103.787462, 13.889844)"><g><path d="M 3.1875 -0.75 L 3.421875 -0.25 C 3.304688 -0.132812 3.15625 -0.0507812 2.96875 0 C 2.789062 0.0625 2.597656 0.09375 2.390625 0.09375 C 1.484375 0.09375 1.03125 -0.363281 1.03125 -1.28125 L 1.03125 -4.15625 L 0.21875 -4.15625 L 0.21875 -4.71875 L 1.03125 -4.71875 L 1.03125 -5.71875 L 1.734375 -5.84375 L 1.734375 -4.71875 L 3.25 -4.71875 L 3.25 -4.15625 L 1.734375 -4.15625 L 1.734375 -1.34375 C 1.734375 -0.800781 1.96875 -0.53125 2.4375 -0.53125 C 2.695312 -0.53125 2.921875 -0.601562 3.109375 -0.75 Z M 3.1875 -0.75 "/></g></g><g transform="translate(107.381343, 13.889844)"><g><path d="M 3.1875 -0.75 L 3.421875 -0.25 C 3.304688 -0.132812 3.15625 -0.0507812 2.96875 0 C 2.789062 0.0625 2.597656 0.09375 2.390625 0.09375 C 1.484375 0.09375 1.03125 -0.363281 1.03125 -1.28125 L 1.03125 -4.15625 L 0.21875 -4.15625 L 0.21875 -4.71875 L 1.03125 -4.71875 L 1.03125 -5.71875 L 1.734375 -5.84375 L 1.734375 -4.71875 L 3.25 -4.71875 L 3.25 -4.15625 L 1.734375 -4.15625 L 1.734375 -1.34375 C 1.734375 -0.800781 1.96875 -0.53125 2.4375 -0.53125 C 2.695312 -0.53125 2.921875 -0.601562 3.109375 -0.75 Z M 3.1875 -0.75 "/></g></g><g transform="translate(110.975225, 13.889844)"><g><path d="M 4.5 -2.203125 L 1.25 -2.203125 C 1.269531 -1.628906 1.40625 -1.207031 1.65625 -0.9375 C 1.914062 -0.664062 2.269531 -0.53125 2.71875 -0.53125 C 3.050781 -0.53125 3.320312 -0.585938 3.53125 -0.703125 C 3.738281 -0.828125 3.898438 -1.019531 4.015625 -1.28125 L 4.109375 -1.28125 L 4.5625 -1.015625 C 4.425781 -0.671875 4.207031 -0.398438 3.90625 -0.203125 C 3.601562 -0.00390625 3.207031 0.09375 2.71875 0.09375 C 2.257812 0.09375 1.863281 0.00390625 1.53125 -0.171875 C 1.207031 -0.359375 0.957031 -0.632812 0.78125 -1 C 0.601562 -1.363281 0.515625 -1.816406 0.515625 -2.359375 C 0.515625 -2.890625 0.609375 -3.335938 0.796875 -3.703125 C 0.984375 -4.078125 1.238281 -4.351562 1.5625 -4.53125 C 1.882812 -4.71875 2.253906 -4.8125 2.671875 -4.8125 C 3.273438 -4.8125 3.742188 -4.640625 4.078125 -4.296875 C 4.421875 -3.953125 4.597656 -3.445312 4.609375 -2.78125 C 4.609375 -2.519531 4.601562 -2.34375 4.59375 -2.25 Z M 3.921875 -2.78125 C 3.910156 -3.28125 3.796875 -3.644531 3.578125 -3.875 C 3.367188 -4.101562 3.066406 -4.21875 2.671875 -4.21875 C 2.253906 -4.21875 1.925781 -4.101562 1.6875 -3.875 C 1.457031 -3.644531 1.316406 -3.28125 1.265625 -2.78125 Z M 3.921875 -2.78125 "/></g></g><g transform="translate(116.006659, 13.889844)"><g><path d="M 0.828125 0 L 0.828125 -4.71875 L 1.484375 -4.71875 L 1.484375 -3.984375 L 1.578125 -3.953125 C 1.796875 -4.492188 2.207031 -4.765625 2.8125 -4.765625 C 3.132812 -4.765625 3.378906 -4.707031 3.546875 -4.59375 L 3.359375 -4 L 3.28125 -3.984375 C 3.101562 -4.066406 2.90625 -4.109375 2.6875 -4.109375 C 2.3125 -4.109375 2.019531 -3.96875 1.8125 -3.6875 C 1.613281 -3.40625 1.515625 -2.945312 1.515625 -2.3125 L 1.515625 0 Z M 0.828125 0 "/></g></g><g transform="translate(119.651881, 13.889844)"><g><path d="M 0.953125 2 C 0.785156 2 0.632812 1.984375 0.5 1.953125 C 0.363281 1.929688 0.242188 1.894531 0.140625 1.84375 L 0.265625 1.296875 L 0.34375 1.265625 C 0.414062 1.304688 0.5 1.335938 0.59375 1.359375 C 0.695312 1.378906 0.804688 1.390625 0.921875 1.390625 C 1.109375 1.390625 1.265625 1.363281 1.390625 1.3125 C 1.515625 1.257812 1.625 1.175781 1.71875 1.0625 C 1.8125 0.945312 1.894531 0.785156 1.96875 0.578125 L 2.140625 0.109375 L 0.234375 -4.71875 L 1 -4.71875 L 2.484375 -0.875 L 2.5625 -0.875 L 4 -4.71875 L 4.71875 -4.71875 L 2.609375 0.734375 C 2.484375 1.035156 2.347656 1.28125 2.203125 1.46875 C 2.054688 1.65625 1.878906 1.789062 1.671875 1.875 C 1.472656 1.957031 1.234375 2 0.953125 2 Z M 0.953125 2 "/></g></g></g><g clip-path="url(#7d1960ed1b)"><g fill="#000000" fill-opacity="1"><g transform="translate(310.552261, 13.889844)"><g><path d="M 5.625 0 L 4.84375 0 L 4.265625 -1.71875 L 1.59375 -1.71875 L 1.015625 0 L 0.25 0 L 2.4375 -6.25 L 3.453125 -6.25 Z M 2.875 -5.5 L 1.8125 -2.328125 L 4.0625 -2.328125 L 2.984375 -5.5 Z M 2.875 -5.5 "/></g></g><g transform="translate(316.430824, 13.889844)"><g><path d="M 0.828125 0 L 0.828125 -4.71875 L 1.484375 -4.71875 L 1.484375 -4.015625 L 1.578125 -4 C 1.734375 -4.269531 1.925781 -4.472656 2.15625 -4.609375 C 2.382812 -4.742188 2.65625 -4.8125 2.96875 -4.8125 C 3.332031 -4.8125 3.613281 -4.738281 3.8125 -4.59375 C 4.019531 -4.457031 4.175781 -4.238281 4.28125 -3.9375 L 4.375 -3.9375 C 4.539062 -4.21875 4.738281 -4.429688 4.96875 -4.578125 C 5.207031 -4.734375 5.503906 -4.8125 5.859375 -4.8125 C 6.335938 -4.8125 6.695312 -4.675781 6.9375 -4.40625 C 7.175781 -4.144531 7.296875 -3.75 7.296875 -3.21875 L 7.296875 0 L 6.59375 0 L 6.59375 -3.203125 C 6.59375 -3.546875 6.519531 -3.796875 6.375 -3.953125 C 6.238281 -4.117188 6.007812 -4.203125 5.6875 -4.203125 C 5.3125 -4.203125 5.003906 -4.0625 4.765625 -3.78125 C 4.523438 -3.507812 4.40625 -3.0625 4.40625 -2.4375 L 4.40625 0 L 3.703125 0 L 3.703125 -3.203125 C 3.703125 -3.546875 3.628906 -3.796875 3.484375 -3.953125 C 3.347656 -4.117188 3.117188 -4.203125 2.796875 -4.203125 C 2.421875 -4.203125 2.113281 -4.066406 1.875 -3.796875 C 1.632812 -3.535156 1.515625 -3.109375 1.515625 -2.515625 L 1.515625 0 Z M 0.828125 0 "/></g></g><g transform="translate(324.474273, 13.889844)"><g><path d="M 0.828125 1.90625 L 0.828125 -4.71875 L 1.515625 -4.71875 L 1.515625 -4.015625 L 1.609375 -4 C 1.960938 -4.539062 2.476562 -4.8125 3.15625 -4.8125 C 3.550781 -4.8125 3.894531 -4.71875 4.1875 -4.53125 C 4.476562 -4.351562 4.703125 -4.082031 4.859375 -3.71875 C 5.023438 -3.351562 5.109375 -2.898438 5.109375 -2.359375 C 5.109375 -1.816406 5.019531 -1.363281 4.84375 -1 C 4.675781 -0.632812 4.441406 -0.359375 4.140625 -0.171875 C 3.835938 0.00390625 3.492188 0.09375 3.109375 0.09375 C 2.785156 0.09375 2.5 0.0351562 2.25 -0.078125 C 2 -0.191406 1.785156 -0.375 1.609375 -0.625 L 1.515625 -0.609375 L 1.515625 1.90625 Z M 2.953125 -0.53125 C 3.910156 -0.53125 4.390625 -1.140625 4.390625 -2.359375 C 4.390625 -3.578125 3.910156 -4.1875 2.953125 -4.1875 C 2.671875 -4.1875 2.421875 -4.117188 2.203125 -3.984375 C 1.992188 -3.859375 1.828125 -3.660156 1.703125 -3.390625 C 1.578125 -3.117188 1.515625 -2.773438 1.515625 -2.359375 C 1.515625 -1.941406 1.578125 -1.597656 1.703125 -1.328125 C 1.828125 -1.054688 1.992188 -0.851562 2.203125 -0.71875 C 2.421875 -0.59375 2.671875 -0.53125 2.953125 -0.53125 Z M 2.953125 -0.53125 "/></g></g><g transform="translate(330.104687, 13.889844)"><g><path d="M 1.875 0.09375 C 1.539062 0.09375 1.273438 0 1.078125 -0.1875 C 0.890625 -0.382812 0.796875 -0.671875 0.796875 -1.046875 L 0.796875 -6.609375 L 1.5 -6.609375 L 1.5 -1.09375 C 1.5 -0.894531 1.535156 -0.75 1.609375 -0.65625 C 1.691406 -0.570312 1.8125 -0.53125 1.96875 -0.53125 C 2.0625 -0.53125 2.160156 -0.546875 2.265625 -0.578125 L 2.328125 -0.5625 L 2.40625 -0.015625 C 2.351562 0.015625 2.28125 0.0390625 2.1875 0.0625 C 2.09375 0.0820312 1.988281 0.09375 1.875 0.09375 Z M 1.875 0.09375 "/></g></g><g transform="translate(332.671745, 13.889844)"><g><path d="M 4.5 -2.203125 L 1.25 -2.203125 C 1.269531 -1.628906 1.40625 -1.207031 1.65625 -0.9375 C 1.914062 -0.664062 2.269531 -0.53125 2.71875 -0.53125 C 3.050781 -0.53125 3.320312 -0.585938 3.53125 -0.703125 C 3.738281 -0.828125 3.898438 -1.019531 4.015625 -1.28125 L 4.109375 -1.28125 L 4.5625 -1.015625 C 4.425781 -0.671875 4.207031 -0.398438 3.90625 -0.203125 C 3.601562 -0.00390625 3.207031 0.09375 2.71875 0.09375 C 2.257812 0.09375 1.863281 0.00390625 1.53125 -0.171875 C 1.207031 -0.359375 0.957031 -0.632812 0.78125 -1 C 0.601562 -1.363281 0.515625 -1.816406 0.515625 -2.359375 C 0.515625 -2.890625 0.609375 -3.335938 0.796875 -3.703125 C 0.984375 -4.078125 1.238281 -4.351562 1.5625 -4.53125 C 1.882812 -4.71875 2.253906 -4.8125 2.671875 -4.8125 C 3.273438 -4.8125 3.742188 -4.640625 4.078125 -4.296875 C 4.421875 -3.953125 4.597656 -3.445312 4.609375 -2.78125 C 4.609375 -2.519531 4.601562 -2.34375 4.59375 -2.25 Z M 3.921875 -2.78125 C 3.910156 -3.28125 3.796875 -3.644531 3.578125 -3.875 C 3.367188 -4.101562 3.066406 -4.21875 2.671875 -4.21875 C 2.253906 -4.21875 1.925781 -4.101562 1.6875 -3.875 C 1.457031 -3.644531 1.316406 -3.28125 1.265625 -2.78125 Z M 3.921875 -2.78125 "/></g></g><g transform="translate(337.703179, 13.889844)"><g/></g><g transform="translate(339.850951, 13.889844)"><g><path d="M 3.453125 0.09375 C 2.910156 0.09375 2.425781 -0.03125 2 -0.28125 C 1.570312 -0.53125 1.234375 -0.894531 0.984375 -1.375 C 0.742188 -1.863281 0.625 -2.445312 0.625 -3.125 C 0.625 -3.800781 0.742188 -4.378906 0.984375 -4.859375 C 1.234375 -5.347656 1.570312 -5.71875 2 -5.96875 C 2.425781 -6.21875 2.910156 -6.34375 3.453125 -6.34375 C 4.035156 -6.34375 4.519531 -6.234375 4.90625 -6.015625 C 5.300781 -5.796875 5.582031 -5.460938 5.75 -5.015625 L 5.28125 -4.703125 L 5.171875 -4.703125 C 5.003906 -5.054688 4.78125 -5.304688 4.5 -5.453125 C 4.226562 -5.609375 3.878906 -5.6875 3.453125 -5.6875 C 3.066406 -5.6875 2.71875 -5.597656 2.40625 -5.421875 C 2.101562 -5.242188 1.859375 -4.960938 1.671875 -4.578125 C 1.492188 -4.203125 1.40625 -3.71875 1.40625 -3.125 C 1.40625 -2.53125 1.492188 -2.039062 1.671875 -1.65625 C 1.859375 -1.28125 2.101562 -1.003906 2.40625 -0.828125 C 2.71875 -0.660156 3.066406 -0.578125 3.453125 -0.578125 C 3.910156 -0.578125 4.28125 -0.675781 4.5625 -0.875 C 4.851562 -1.082031 5.070312 -1.414062 5.21875 -1.875 L 5.3125 -1.875 L 5.8125 -1.625 C 5.664062 -1.070312 5.390625 -0.644531 4.984375 -0.34375 C 4.585938 -0.0507812 4.078125 0.09375 3.453125 0.09375 Z M 3.453125 0.09375 "/></g></g><g transform="translate(345.98622, 13.889844)"><g><path d="M 2.703125 0.09375 C 2.265625 0.09375 1.878906 0 1.546875 -0.1875 C 1.210938 -0.375 0.957031 -0.648438 0.78125 -1.015625 C 0.601562 -1.390625 0.515625 -1.835938 0.515625 -2.359375 C 0.515625 -2.878906 0.601562 -3.320312 0.78125 -3.6875 C 0.957031 -4.0625 1.210938 -4.34375 1.546875 -4.53125 C 1.878906 -4.71875 2.265625 -4.8125 2.703125 -4.8125 C 3.148438 -4.8125 3.535156 -4.71875 3.859375 -4.53125 C 4.191406 -4.34375 4.445312 -4.0625 4.625 -3.6875 C 4.8125 -3.320312 4.90625 -2.878906 4.90625 -2.359375 C 4.90625 -1.835938 4.8125 -1.390625 4.625 -1.015625 C 4.445312 -0.648438 4.191406 -0.375 3.859375 -0.1875 C 3.535156 0 3.148438 0.09375 2.703125 0.09375 Z M 2.703125 -0.53125 C 3.179688 -0.53125 3.546875 -0.675781 3.796875 -0.96875 C 4.046875 -1.269531 4.171875 -1.734375 4.171875 -2.359375 C 4.171875 -2.984375 4.046875 -3.441406 3.796875 -3.734375 C 3.546875 -4.035156 3.179688 -4.1875 2.703125 -4.1875 C 2.234375 -4.1875 1.875 -4.035156 1.625 -3.734375 C 1.375 -3.441406 1.25 -2.984375 1.25 -2.359375 C 1.25 -1.734375 1.375 -1.269531 1.625 -0.96875 C 1.875 -0.675781 2.234375 -0.53125 2.703125 -0.53125 Z M 2.703125 -0.53125 "/></g></g><g transform="translate(351.402713, 13.889844)"><g><path d="M 0.828125 0 L 0.828125 -4.71875 L 1.484375 -4.71875 L 1.484375 -3.984375 L 1.578125 -3.953125 C 1.734375 -4.234375 1.929688 -4.445312 2.171875 -4.59375 C 2.421875 -4.738281 2.71875 -4.8125 3.0625 -4.8125 C 3.632812 -4.8125 4.046875 -4.664062 4.296875 -4.375 C 4.554688 -4.082031 4.6875 -3.632812 4.6875 -3.03125 L 4.6875 0 L 3.984375 0 L 3.984375 -3.015625 C 3.984375 -3.304688 3.945312 -3.535156 3.875 -3.703125 C 3.800781 -3.878906 3.6875 -4.003906 3.53125 -4.078125 C 3.382812 -4.160156 3.1875 -4.203125 2.9375 -4.203125 C 2.507812 -4.203125 2.164062 -4.0625 1.90625 -3.78125 C 1.644531 -3.5 1.515625 -3.046875 1.515625 -2.421875 L 1.515625 0 Z M 0.828125 0 "/></g></g><g transform="translate(356.836319, 13.889844)"><g><path d="M 3.1875 -0.75 L 3.421875 -0.25 C 3.304688 -0.132812 3.15625 -0.0507812 2.96875 0 C 2.789062 0.0625 2.597656 0.09375 2.390625 0.09375 C 1.484375 0.09375 1.03125 -0.363281 1.03125 -1.28125 L 1.03125 -4.15625 L 0.21875 -4.15625 L 0.21875 -4.71875 L 1.03125 -4.71875 L 1.03125 -5.71875 L 1.734375 -5.84375 L 1.734375 -4.71875 L 3.25 -4.71875 L 3.25 -4.15625 L 1.734375 -4.15625 L 1.734375 -1.34375 C 1.734375 -0.800781 1.96875 -0.53125 2.4375 -0.53125 C 2.695312 -0.53125 2.921875 -0.601562 3.109375 -0.75 Z M 3.1875 -0.75 "/></g></g><g transform="translate(360.4302, 13.889844)"><g><path d="M 4.5 -2.203125 L 1.25 -2.203125 C 1.269531 -1.628906 1.40625 -1.207031 1.65625 -0.9375 C 1.914062 -0.664062 2.269531 -0.53125 2.71875 -0.53125 C 3.050781 -0.53125 3.320312 -0.585938 3.53125 -0.703125 C 3.738281 -0.828125 3.898438 -1.019531 4.015625 -1.28125 L 4.109375 -1.28125 L 4.5625 -1.015625 C 4.425781 -0.671875 4.207031 -0.398438 3.90625 -0.203125 C 3.601562 -0.00390625 3.207031 0.09375 2.71875 0.09375 C 2.257812 0.09375 1.863281 0.00390625 1.53125 -0.171875 C 1.207031 -0.359375 0.957031 -0.632812 0.78125 -1 C 0.601562 -1.363281 0.515625 -1.816406 0.515625 -2.359375 C 0.515625 -2.890625 0.609375 -3.335938 0.796875 -3.703125 C 0.984375 -4.078125 1.238281 -4.351562 1.5625 -4.53125 C 1.882812 -4.71875 2.253906 -4.8125 2.671875 -4.8125 C 3.273438 -4.8125 3.742188 -4.640625 4.078125 -4.296875 C 4.421875 -3.953125 4.597656 -3.445312 4.609375 -2.78125 C 4.609375 -2.519531 4.601562 -2.34375 4.59375 -2.25 Z M 3.921875 -2.78125 C 3.910156 -3.28125 3.796875 -3.644531 3.578125 -3.875 C 3.367188 -4.101562 3.066406 -4.21875 2.671875 -4.21875 C 2.253906 -4.21875 1.925781 -4.101562 1.6875 -3.875 C 1.457031 -3.644531 1.316406 -3.28125 1.265625 -2.78125 Z M 3.921875 -2.78125 "/></g></g><g transform="translate(365.461634, 13.889844)"><g><path d="M 0.828125 0 L 0.828125 -4.71875 L 1.484375 -4.71875 L 1.484375 -3.984375 L 1.578125 -3.953125 C 1.734375 -4.234375 1.929688 -4.445312 2.171875 -4.59375 C 2.421875 -4.738281 2.71875 -4.8125 3.0625 -4.8125 C 3.632812 -4.8125 4.046875 -4.664062 4.296875 -4.375 C 4.554688 -4.082031 4.6875 -3.632812 4.6875 -3.03125 L 4.6875 0 L 3.984375 0 L 3.984375 -3.015625 C 3.984375 -3.304688 3.945312 -3.535156 3.875 -3.703125 C 3.800781 -3.878906 3.6875 -4.003906 3.53125 -4.078125 C 3.382812 -4.160156 3.1875 -4.203125 2.9375 -4.203125 C 2.507812 -4.203125 2.164062 -4.0625 1.90625 -3.78125 C 1.644531 -3.5 1.515625 -3.046875 1.515625 -2.421875 L 1.515625 0 Z M 0.828125 0 "/></g></g><g transform="translate(370.895241, 13.889844)"><g><path d="M 3.1875 -0.75 L 3.421875 -0.25 C 3.304688 -0.132812 3.15625 -0.0507812 2.96875 0 C 2.789062 0.0625 2.597656 0.09375 2.390625 0.09375 C 1.484375 0.09375 1.03125 -0.363281 1.03125 -1.28125 L 1.03125 -4.15625 L 0.21875 -4.15625 L 0.21875 -4.71875 L 1.03125 -4.71875 L 1.03125 -5.71875 L 1.734375 -5.84375 L 1.734375 -4.71875 L 3.25 -4.71875 L 3.25 -4.15625 L 1.734375 -4.15625 L 1.734375 -1.34375 C 1.734375 -0.800781 1.96875 -0.53125 2.4375 -0.53125 C 2.695312 -0.53125 2.921875 -0.601562 3.109375 -0.75 Z M 3.1875 -0.75 "/></g></g></g></g><g fill="#000000" fill-opacity="1"><g transform="translate(252.375177, 13.889844)"><g><path d="M 2.734375 0.09375 C 2.335938 0.09375 1.984375 0.0390625 1.671875 -0.0625 C 1.359375 -0.175781 1.097656 -0.316406 0.890625 -0.484375 C 0.679688 -0.660156 0.523438 -0.851562 0.421875 -1.0625 L 0.828125 -1.546875 L 0.9375 -1.546875 C 1.320312 -0.898438 1.921875 -0.578125 2.734375 -0.578125 C 3.203125 -0.578125 3.550781 -0.675781 3.78125 -0.875 C 4.007812 -1.070312 4.125 -1.34375 4.125 -1.6875 C 4.125 -1.894531 4.085938 -2.066406 4.015625 -2.203125 C 3.941406 -2.347656 3.816406 -2.472656 3.640625 -2.578125 C 3.460938 -2.679688 3.226562 -2.769531 2.9375 -2.84375 L 2.203125 -3.015625 C 1.648438 -3.148438 1.242188 -3.359375 0.984375 -3.640625 C 0.734375 -3.929688 0.609375 -4.296875 0.609375 -4.734375 C 0.609375 -5.046875 0.6875 -5.320312 0.84375 -5.5625 C 1.007812 -5.8125 1.242188 -6.003906 1.546875 -6.140625 C 1.859375 -6.273438 2.226562 -6.34375 2.65625 -6.34375 C 3.125 -6.34375 3.519531 -6.273438 3.84375 -6.140625 C 4.164062 -6.015625 4.425781 -5.816406 4.625 -5.546875 L 4.265625 -5.0625 L 4.15625 -5.0625 C 3.976562 -5.28125 3.765625 -5.441406 3.515625 -5.546875 C 3.273438 -5.648438 2.988281 -5.703125 2.65625 -5.703125 C 2.21875 -5.703125 1.890625 -5.617188 1.671875 -5.453125 C 1.453125 -5.285156 1.34375 -5.050781 1.34375 -4.75 C 1.34375 -4.46875 1.421875 -4.242188 1.578125 -4.078125 C 1.742188 -3.910156 2.019531 -3.78125 2.40625 -3.6875 L 3.15625 -3.515625 C 3.757812 -3.367188 4.195312 -3.144531 4.46875 -2.84375 C 4.75 -2.550781 4.890625 -2.175781 4.890625 -1.71875 C 4.890625 -1.363281 4.804688 -1.050781 4.640625 -0.78125 C 4.484375 -0.507812 4.242188 -0.296875 3.921875 -0.140625 C 3.597656 0.015625 3.203125 0.09375 2.734375 0.09375 Z M 2.734375 0.09375 "/></g></g><g transform="translate(257.73605, 13.889844)"><g><path d="M 4.5 -2.203125 L 1.25 -2.203125 C 1.269531 -1.628906 1.40625 -1.207031 1.65625 -0.9375 C 1.914062 -0.664062 2.269531 -0.53125 2.71875 -0.53125 C 3.050781 -0.53125 3.320312 -0.585938 3.53125 -0.703125 C 3.738281 -0.828125 3.898438 -1.019531 4.015625 -1.28125 L 4.109375 -1.28125 L 4.5625 -1.015625 C 4.425781 -0.671875 4.207031 -0.398438 3.90625 -0.203125 C 3.601562 -0.00390625 3.207031 0.09375 2.71875 0.09375 C 2.257812 0.09375 1.863281 0.00390625 1.53125 -0.171875 C 1.207031 -0.359375 0.957031 -0.632812 0.78125 -1 C 0.601562 -1.363281 0.515625 -1.816406 0.515625 -2.359375 C 0.515625 -2.890625 0.609375 -3.335938 0.796875 -3.703125 C 0.984375 -4.078125 1.238281 -4.351562 1.5625 -4.53125 C 1.882812 -4.71875 2.253906 -4.8125 2.671875 -4.8125 C 3.273438 -4.8125 3.742188 -4.640625 4.078125 -4.296875 C 4.421875 -3.953125 4.597656 -3.445312 4.609375 -2.78125 C 4.609375 -2.519531 4.601562 -2.34375 4.59375 -2.25 Z M 3.921875 -2.78125 C 3.910156 -3.28125 3.796875 -3.644531 3.578125 -3.875 C 3.367188 -4.101562 3.066406 -4.21875 2.671875 -4.21875 C 2.253906 -4.21875 1.925781 -4.101562 1.6875 -3.875 C 1.457031 -3.644531 1.316406 -3.28125 1.265625 -2.78125 Z M 3.921875 -2.78125 "/></g></g><g transform="translate(262.767484, 13.889844)"><g><path d="M 0.828125 0 L 0.828125 -4.71875 L 1.484375 -4.71875 L 1.484375 -3.984375 L 1.578125 -3.953125 C 1.796875 -4.492188 2.207031 -4.765625 2.8125 -4.765625 C 3.132812 -4.765625 3.378906 -4.707031 3.546875 -4.59375 L 3.359375 -4 L 3.28125 -3.984375 C 3.101562 -4.066406 2.90625 -4.109375 2.6875 -4.109375 C 2.3125 -4.109375 2.019531 -3.96875 1.8125 -3.6875 C 1.613281 -3.40625 1.515625 -2.945312 1.515625 -2.3125 L 1.515625 0 Z M 0.828125 0 "/></g></g><g transform="translate(266.412707, 13.889844)"><g><path d="M 2.984375 0 L 2.03125 0 L 0.234375 -4.71875 L 0.984375 -4.71875 L 2.46875 -0.796875 L 2.5625 -0.796875 L 4.046875 -4.71875 L 4.78125 -4.71875 Z M 2.984375 0 "/></g></g><g transform="translate(271.414192, 13.889844)"><g><path d="M 4.5 -2.203125 L 1.25 -2.203125 C 1.269531 -1.628906 1.40625 -1.207031 1.65625 -0.9375 C 1.914062 -0.664062 2.269531 -0.53125 2.71875 -0.53125 C 3.050781 -0.53125 3.320312 -0.585938 3.53125 -0.703125 C 3.738281 -0.828125 3.898438 -1.019531 4.015625 -1.28125 L 4.109375 -1.28125 L 4.5625 -1.015625 C 4.425781 -0.671875 4.207031 -0.398438 3.90625 -0.203125 C 3.601562 -0.00390625 3.207031 0.09375 2.71875 0.09375 C 2.257812 0.09375 1.863281 0.00390625 1.53125 -0.171875 C 1.207031 -0.359375 0.957031 -0.632812 0.78125 -1 C 0.601562 -1.363281 0.515625 -1.816406 0.515625 -2.359375 C 0.515625 -2.890625 0.609375 -3.335938 0.796875 -3.703125 C 0.984375 -4.078125 1.238281 -4.351562 1.5625 -4.53125 C 1.882812 -4.71875 2.253906 -4.8125 2.671875 -4.8125 C 3.273438 -4.8125 3.742188 -4.640625 4.078125 -4.296875 C 4.421875 -3.953125 4.597656 -3.445312 4.609375 -2.78125 C 4.609375 -2.519531 4.601562 -2.34375 4.59375 -2.25 Z M 3.921875 -2.78125 C 3.910156 -3.28125 3.796875 -3.644531 3.578125 -3.875 C 3.367188 -4.101562 3.066406 -4.21875 2.671875 -4.21875 C 2.253906 -4.21875 1.925781 -4.101562 1.6875 -3.875 C 1.457031 -3.644531 1.316406 -3.28125 1.265625 -2.78125 Z M 3.921875 -2.78125 "/></g></g><g transform="translate(276.445626, 13.889844)"><g><path d="M 0.828125 0 L 0.828125 -4.71875 L 1.484375 -4.71875 L 1.484375 -3.984375 L 1.578125 -3.953125 C 1.796875 -4.492188 2.207031 -4.765625 2.8125 -4.765625 C 3.132812 -4.765625 3.378906 -4.707031 3.546875 -4.59375 L 3.359375 -4 L 3.28125 -3.984375 C 3.101562 -4.066406 2.90625 -4.109375 2.6875 -4.109375 C 2.3125 -4.109375 2.019531 -3.96875 1.8125 -3.6875 C 1.613281 -3.40625 1.515625 -2.945312 1.515625 -2.3125 L 1.515625 0 Z M 0.828125 0 "/></g></g></g><path stroke-linecap="butt" transform="matrix(-0.498416, 0.555642, -0.556815, -0.499468, 264.150868, 89.158941)" fill="none" stroke-linejoin="miter" d="M -0.000264704 1.49887 L 65.920613 1.497903 " stroke="#000000" stroke-width="3" stroke-opacity="1" stroke-miterlimit="4"/><path stroke-linecap="round" transform="matrix(-0.498416, 0.555642, -0.556815, -0.499468, 264.150868, 89.158941)" fill-opacity="1" fill="#000000" fill-rule="nonzero" stroke-linejoin="round" d="M 66.669484 -3.002801 L 72.669113 1.497405 L 66.668946 5.998363 Z M 66.669484 -3.002801 " stroke="#000000" stroke-width="3" stroke-opacity="1" stroke-miterlimit="4"/></svg>