<svg xmlns="http://www.w3.org/2000/svg" xmlns:xlink="http://www.w3.org/1999/xlink" width="700" zoomAndPan="magnify" viewBox="0 0 525 299.999988" height="400" preserveAspectRatio="xMidYMid meet" version="1.0"><defs><g/><clipPath id="28525e4a65"><path d="M 210.28125 197.054688 L 314.742188 197.054688 L 314.742188 257.035156 L 210.28125 257.035156 Z M 210.28125 197.054688 " clip-rule="nonzero"/></clipPath><clipPath id="7586c3881b"><path d="M 243 49.859375 L 287 49.859375 L 287 109.859375 L 243 109.859375 Z M 243 49.859375 " clip-rule="nonzero"/></clipPath><clipPath id="38b010ce03"><path d="M 131.921875 67 L 159 67 L 159 93 L 131.921875 93 Z M 131.921875 67 " clip-rule="nonzero"/></clipPath><clipPath id="c4e525723e"><path d="M 188 75 L 191.921875 75 L 191.921875 84 L 188 84 Z M 188 75 " clip-rule="nonzero"/></clipPath><clipPath id="5b51660012"><path d="M 152 61.867188 L 168 61.867188 L 168 97.867188 L 152 97.867188 Z M 152 61.867188 " clip-rule="nonzero"/></clipPath><clipPath id="88e2263ba5"><path d="M 441.722656 52.1875 L 501.722656 52.1875 L 501.722656 107.6875 L 441.722656 107.6875 Z M 441.722656 52.1875 " clip-rule="nonzero"/></clipPath><clipPath id="a23144b2d4"><path d="M 20.199219 48.964844 L 80.949219 48.964844 L 80.949219 108.964844 L 20.199219 108.964844 Z M 20.199219 48.964844 " clip-rule="nonzero"/></clipPath><clipPath id="1bbfe9c85e"><path d="M 338.179688 49.859375 L 390.679688 49.859375 L 390.679688 109.859375 L 338.179688 109.859375 Z M 338.179688 49.859375 " clip-rule="nonzero"/></clipPath><clipPath id="b9a4902288"><path d="M 99.546875 72.894531 L 113.046875 72.894531 L 113.046875 86.394531 L 99.546875 86.394531 Z M 99.546875 72.894531 " clip-rule="nonzero"/></clipPath><clipPath id="2b57ceac7d"><path d="M 305.964844 72.894531 L 319.464844 72.894531 L 319.464844 86.394531 L 305.964844 86.394531 Z M 305.964844 72.894531 " clip-rule="nonzero"/></clipPath><clipPath id="a86d1b061f"><path d="M 409.507812 72.894531 L 423.007812 72.894531 L 423.007812 86.394531 L 409.507812 86.394531 Z M 409.507812 72.894531 " clip-rule="nonzero"/></clipPath><clipPath id="a8a6a2c95b"><path d="M 210.671875 72.964844 L 224.171875 72.964844 L 224.171875 86.464844 L 210.671875 86.464844 Z M 210.671875 72.964844 " clip-rule="nonzero"/></clipPath></defs><g clip-path="url(#28525e4a65)"><path fill="#000000" d="M 310.53125 254.984375 L 214.488281 254.984375 C 213.296875 254.984375 212.328125 254.019531 212.328125 252.835938 L 212.328125 221.6875 L 257 221.6875 L 257 229.957031 L 268 229.957031 L 268 228.941406 C 268 228.941406 268 228.933594 268 228.933594 L 268 221.6875 L 312.691406 221.6875 L 312.691406 252.835938 C 312.691406 254.019531 311.726562 254.984375 310.53125 254.984375 Z M 259.046875 216 L 265.953125 216 L 265.953125 227.910156 L 259.046875 227.910156 Z M 214.488281 209.464844 L 310.53125 209.464844 C 311.726562 209.464844 312.691406 210.429688 312.691406 211.613281 L 312.691406 219.636719 L 268 219.636719 L 268 214.972656 C 268 214.964844 268 214.964844 268 214.964844 L 268 213.949219 L 266.992188 213.949219 C 266.984375 213.949219 266.984375 213.949219 266.976562 213.949219 L 258.023438 213.949219 C 258.015625 213.949219 258.015625 213.949219 258.015625 213.949219 L 257 213.949219 L 257 219.636719 L 212.328125 219.636719 L 212.328125 211.613281 C 212.328125 210.429688 213.296875 209.464844 214.488281 209.464844 Z M 247.15625 202.785156 C 247.15625 200.761719 248.804688 199.113281 250.832031 199.113281 L 274.191406 199.113281 C 276.21875 199.113281 277.867188 200.761719 277.867188 202.785156 L 277.867188 207.414062 L 247.15625 207.414062 Z M 310.53125 207.414062 L 279.914062 207.414062 L 279.914062 202.785156 C 279.914062 199.632812 277.34375 197.0625 274.191406 197.0625 L 250.832031 197.0625 C 247.679688 197.0625 245.109375 199.632812 245.109375 202.785156 L 245.109375 207.414062 L 214.488281 207.414062 C 212.167969 207.414062 210.28125 209.296875 210.28125 211.613281 L 210.28125 252.835938 C 210.28125 255.152344 212.167969 257.035156 214.488281 257.035156 L 310.53125 257.035156 C 312.851562 257.035156 314.742188 255.152344 314.742188 252.835938 L 314.742188 211.613281 C 314.742188 209.296875 312.851562 207.414062 310.53125 207.414062 " fill-opacity="1" fill-rule="nonzero"/></g><g clip-path="url(#7586c3881b)"><path fill="#000000" d="M 246.054688 49.859375 L 283.972656 49.859375 C 285.636719 49.859375 286.976562 51.195312 286.976562 52.871094 L 286.976562 106.851562 C 286.976562 108.515625 285.648438 109.859375 283.972656 109.859375 L 246.054688 109.859375 C 244.390625 109.859375 243.046875 108.527344 243.046875 106.851562 L 243.046875 52.871094 C 243.046875 51.203125 244.378906 49.859375 246.054688 49.859375 Z M 245.046875 101.859375 L 284.980469 101.859375 L 284.980469 55.859375 L 245.046875 55.859375 Z M 265.011719 53.859375 C 265.566406 53.859375 266.011719 53.414062 266.011719 52.859375 C 266.011719 52.308594 265.566406 51.859375 265.011719 51.859375 C 264.460938 51.859375 264.015625 52.308594 264.015625 52.859375 C 264.015625 53.414062 264.460938 53.859375 265.011719 53.859375 Z M 265.011719 107.859375 C 266.117188 107.859375 267.011719 106.964844 267.011719 105.859375 C 267.011719 104.757812 266.117188 103.859375 265.011719 103.859375 C 263.910156 103.859375 263.015625 104.757812 263.015625 105.859375 C 263.015625 106.964844 263.910156 107.859375 265.011719 107.859375 Z M 265.011719 107.859375 " fill-opacity="1" fill-rule="evenodd"/></g><g clip-path="url(#38b010ce03)"><path fill="#100f0d" d="M 136.25 90.324219 C 134.945312 90.324219 133.878906 89.253906 133.878906 87.941406 L 133.878906 71.78125 C 133.878906 70.46875 134.945312 69.398438 136.25 69.398438 L 153.964844 69.398438 L 154.613281 67.433594 L 136.25 67.433594 C 133.863281 67.433594 131.921875 69.382812 131.921875 71.78125 L 131.921875 87.941406 C 131.921875 90.339844 133.863281 92.289062 136.25 92.289062 L 158.449219 92.289062 L 158.449219 90.324219 L 136.25 90.324219 " fill-opacity="1" fill-rule="nonzero"/></g><path fill="#100f0d" d="M 183.660156 67.433594 L 161.460938 67.433594 L 161.460938 69.398438 L 183.660156 69.398438 C 184.96875 69.398438 186.03125 70.46875 186.03125 71.78125 L 186.03125 87.941406 C 186.03125 89.253906 184.96875 90.324219 183.660156 90.324219 L 165.945312 90.324219 L 165.300781 92.289062 L 183.660156 92.289062 C 186.046875 92.289062 187.988281 90.339844 187.988281 87.941406 L 187.988281 71.78125 C 187.988281 69.382812 186.046875 67.433594 183.660156 67.433594 " fill-opacity="1" fill-rule="nonzero"/><path fill="#100f0d" d="M 134.859375 71.78125 L 134.859375 87.941406 C 134.859375 88.714844 135.484375 89.339844 136.25 89.339844 L 158.449219 89.339844 L 158.449219 84.855469 L 152.269531 84.855469 C 151.484375 84.855469 150.75 84.476562 150.289062 83.835938 C 149.828125 83.199219 149.703125 82.375 149.949219 81.628906 L 153.644531 70.382812 L 136.25 70.382812 C 135.484375 70.382812 134.859375 71.007812 134.859375 71.78125 " fill-opacity="1" fill-rule="nonzero"/><path fill="#100f0d" d="M 185.054688 87.941406 L 185.054688 71.78125 C 185.054688 71.007812 184.429688 70.382812 183.660156 70.382812 L 161.460938 70.382812 L 161.460938 74.867188 L 167.640625 74.867188 C 168.425781 74.867188 169.164062 75.246094 169.621094 75.886719 C 170.082031 76.523438 170.210938 77.347656 169.964844 78.09375 L 166.269531 89.339844 L 183.660156 89.339844 C 184.429688 89.339844 185.054688 88.714844 185.054688 87.941406 " fill-opacity="1" fill-rule="nonzero"/><g clip-path="url(#c4e525723e)"><path fill="#100f0d" d="M 190.121094 75.964844 L 188.550781 75.964844 L 188.550781 83.757812 L 190.121094 83.757812 C 191.117188 83.757812 191.921875 82.945312 191.921875 81.945312 L 191.921875 77.777344 C 191.921875 76.777344 191.117188 75.964844 190.121094 75.964844 " fill-opacity="1" fill-rule="nonzero"/></g><g clip-path="url(#5b51660012)"><path fill="#100f0d" d="M 167.640625 77.324219 L 159.015625 77.324219 L 159.015625 61.867188 L 152.269531 82.398438 C 154.1875 82.398438 158.789062 82.398438 160.894531 82.398438 L 160.894531 97.855469 L 167.640625 77.324219 " fill-opacity="1" fill-rule="nonzero"/></g><g clip-path="url(#88e2263ba5)"><path fill="#000000" d="M 498.910156 52.203125 L 444.535156 52.203125 C 442.988281 52.203125 441.722656 53.472656 441.722656 55.023438 L 441.722656 104.847656 C 441.722656 106.398438 442.988281 107.667969 444.535156 107.667969 L 498.910156 107.667969 C 500.457031 107.667969 501.722656 106.398438 501.722656 104.847656 L 501.722656 55.023438 C 501.722656 53.472656 500.457031 52.203125 498.910156 52.203125 Z M 499.847656 104.847656 C 499.847656 105.367188 499.425781 105.789062 498.910156 105.789062 L 444.535156 105.789062 C 444.019531 105.789062 443.597656 105.367188 443.597656 104.847656 L 443.597656 61.605469 L 499.847656 61.605469 Z M 499.847656 59.722656 L 443.597656 59.722656 L 443.597656 55.023438 C 443.597656 54.507812 444.019531 54.082031 444.535156 54.082031 L 498.910156 54.082031 C 499.425781 54.082031 499.847656 54.507812 499.847656 55.023438 Z M 499.847656 59.722656 " fill-opacity="1" fill-rule="nonzero"/></g><path fill="#000000" d="M 448.285156 56.902344 C 448.285156 57.164062 448.195312 57.386719 448.011719 57.570312 C 447.828125 57.753906 447.609375 57.84375 447.347656 57.84375 C 447.089844 57.84375 446.871094 57.753906 446.6875 57.570312 C 446.503906 57.386719 446.410156 57.164062 446.410156 56.902344 C 446.410156 56.644531 446.503906 56.421875 446.6875 56.238281 C 446.871094 56.054688 447.089844 55.964844 447.347656 55.964844 C 447.609375 55.964844 447.828125 56.054688 448.011719 56.238281 C 448.195312 56.421875 448.285156 56.644531 448.285156 56.902344 Z M 448.285156 56.902344 " fill-opacity="1" fill-rule="nonzero"/><path fill="#000000" d="M 452.035156 56.902344 C 452.035156 57.164062 451.945312 57.386719 451.761719 57.570312 C 451.578125 57.753906 451.359375 57.84375 451.097656 57.84375 C 450.839844 57.84375 450.621094 57.753906 450.4375 57.570312 C 450.253906 57.386719 450.160156 57.164062 450.160156 56.902344 C 450.160156 56.644531 450.253906 56.421875 450.4375 56.238281 C 450.621094 56.054688 450.839844 55.964844 451.097656 55.964844 C 451.359375 55.964844 451.578125 56.054688 451.761719 56.238281 C 451.945312 56.421875 452.035156 56.644531 452.035156 56.902344 Z M 452.035156 56.902344 " fill-opacity="1" fill-rule="nonzero"/><path fill="#000000" d="M 455.785156 56.902344 C 455.785156 57.164062 455.695312 57.386719 455.511719 57.570312 C 455.328125 57.753906 455.109375 57.84375 454.847656 57.84375 C 454.589844 57.84375 454.371094 57.753906 454.1875 57.570312 C 454.003906 57.386719 453.910156 57.164062 453.910156 56.902344 C 453.910156 56.644531 454.003906 56.421875 454.1875 56.238281 C 454.371094 56.054688 454.589844 55.964844 454.847656 55.964844 C 455.109375 55.964844 455.328125 56.054688 455.511719 56.238281 C 455.695312 56.421875 455.785156 56.644531 455.785156 56.902344 Z M 455.785156 56.902344 " fill-opacity="1" fill-rule="nonzero"/><path fill="#000000" d="M 447.347656 81.347656 L 496.097656 81.347656 C 496.613281 81.347656 497.035156 80.921875 497.035156 80.40625 L 497.035156 65.363281 C 497.035156 64.847656 496.613281 64.425781 496.097656 64.425781 L 447.347656 64.425781 C 446.832031 64.425781 446.410156 64.847656 446.410156 65.363281 L 446.410156 80.40625 C 446.410156 80.921875 446.832031 81.347656 447.347656 81.347656 Z M 448.285156 66.304688 L 495.160156 66.304688 L 495.160156 79.464844 L 448.285156 79.464844 Z M 448.285156 66.304688 " fill-opacity="1" fill-rule="nonzero"/><path fill="#000000" d="M 447.347656 88.867188 L 451.097656 88.867188 C 451.613281 88.867188 452.035156 88.445312 452.035156 87.925781 L 452.035156 84.167969 C 452.035156 83.648438 451.613281 83.226562 451.097656 83.226562 L 447.347656 83.226562 C 446.832031 83.226562 446.410156 83.648438 446.410156 84.167969 L 446.410156 87.925781 C 446.410156 88.445312 446.832031 88.867188 447.347656 88.867188 Z M 448.285156 85.105469 L 450.160156 85.105469 L 450.160156 86.988281 L 448.285156 86.988281 Z M 448.285156 85.105469 " fill-opacity="1" fill-rule="nonzero"/><path fill="#000000" d="M 468.910156 83.226562 L 454.847656 83.226562 C 454.332031 83.226562 453.910156 83.648438 453.910156 84.167969 C 453.910156 84.683594 454.332031 85.105469 454.847656 85.105469 L 468.910156 85.105469 C 469.425781 85.105469 469.847656 84.683594 469.847656 84.167969 C 469.847656 83.648438 469.425781 83.226562 468.910156 83.226562 Z M 468.910156 83.226562 " fill-opacity="1" fill-rule="nonzero"/><path fill="#000000" d="M 468.910156 86.988281 L 454.847656 86.988281 C 454.332031 86.988281 453.910156 87.410156 453.910156 87.925781 C 453.910156 88.445312 454.332031 88.867188 454.847656 88.867188 L 468.910156 88.867188 C 469.425781 88.867188 469.847656 88.445312 469.847656 87.925781 C 469.847656 87.410156 469.425781 86.988281 468.910156 86.988281 Z M 468.910156 86.988281 " fill-opacity="1" fill-rule="nonzero"/><path fill="#000000" d="M 447.347656 96.386719 L 451.097656 96.386719 C 451.613281 96.386719 452.035156 95.964844 452.035156 95.449219 L 452.035156 91.6875 C 452.035156 91.171875 451.613281 90.746094 451.097656 90.746094 L 447.347656 90.746094 C 446.832031 90.746094 446.410156 91.171875 446.410156 91.6875 L 446.410156 95.449219 C 446.410156 95.964844 446.832031 96.386719 447.347656 96.386719 Z M 448.285156 92.628906 L 450.160156 92.628906 L 450.160156 94.507812 L 448.285156 94.507812 Z M 448.285156 92.628906 " fill-opacity="1" fill-rule="nonzero"/><path fill="#000000" d="M 468.910156 90.746094 L 454.847656 90.746094 C 454.332031 90.746094 453.910156 91.171875 453.910156 91.6875 C 453.910156 92.203125 454.332031 92.628906 454.847656 92.628906 L 468.910156 92.628906 C 469.425781 92.628906 469.847656 92.203125 469.847656 91.6875 C 469.847656 91.171875 469.425781 90.746094 468.910156 90.746094 Z M 468.910156 90.746094 " fill-opacity="1" fill-rule="nonzero"/><path fill="#000000" d="M 468.910156 94.507812 L 454.847656 94.507812 C 454.332031 94.507812 453.910156 94.929688 453.910156 95.449219 C 453.910156 95.964844 454.332031 96.386719 454.847656 96.386719 L 468.910156 96.386719 C 469.425781 96.386719 469.847656 95.964844 469.847656 95.449219 C 469.847656 94.929688 469.425781 94.507812 468.910156 94.507812 Z M 468.910156 94.507812 " fill-opacity="1" fill-rule="nonzero"/><path fill="#000000" d="M 496.097656 83.226562 L 472.660156 83.226562 C 472.144531 83.226562 471.722656 83.648438 471.722656 84.167969 L 471.722656 95.449219 C 471.722656 95.964844 472.144531 96.386719 472.660156 96.386719 L 496.097656 96.386719 C 496.613281 96.386719 497.035156 95.964844 497.035156 95.449219 L 497.035156 84.167969 C 497.035156 83.648438 496.613281 83.226562 496.097656 83.226562 Z M 495.160156 94.507812 L 473.597656 94.507812 L 473.597656 85.105469 L 495.160156 85.105469 Z M 495.160156 94.507812 " fill-opacity="1" fill-rule="nonzero"/><path fill="#000000" d="M 447.347656 103.90625 L 451.097656 103.90625 C 451.613281 103.90625 452.035156 103.484375 452.035156 102.96875 L 452.035156 99.207031 C 452.035156 98.691406 451.613281 98.269531 451.097656 98.269531 L 447.347656 98.269531 C 446.832031 98.269531 446.410156 98.691406 446.410156 99.207031 L 446.410156 102.96875 C 446.410156 103.484375 446.832031 103.90625 447.347656 103.90625 Z M 448.285156 100.148438 L 450.160156 100.148438 L 450.160156 102.027344 L 448.285156 102.027344 Z M 448.285156 100.148438 " fill-opacity="1" fill-rule="nonzero"/><path fill="#000000" d="M 468.910156 98.269531 L 454.847656 98.269531 C 454.332031 98.269531 453.910156 98.691406 453.910156 99.207031 C 453.910156 99.726562 454.332031 100.148438 454.847656 100.148438 L 468.910156 100.148438 C 469.425781 100.148438 469.847656 99.726562 469.847656 99.207031 C 469.847656 98.691406 469.425781 98.269531 468.910156 98.269531 Z M 468.910156 98.269531 " fill-opacity="1" fill-rule="nonzero"/><path fill="#000000" d="M 468.910156 102.027344 L 454.847656 102.027344 C 454.332031 102.027344 453.910156 102.449219 453.910156 102.96875 C 453.910156 103.484375 454.332031 103.90625 454.847656 103.90625 L 468.910156 103.90625 C 469.425781 103.90625 469.847656 103.484375 469.847656 102.96875 C 469.847656 102.449219 469.425781 102.027344 468.910156 102.027344 Z M 468.910156 102.027344 " fill-opacity="1" fill-rule="nonzero"/><path fill="#000000" d="M 496.097656 98.269531 L 472.660156 98.269531 C 472.144531 98.269531 471.722656 98.691406 471.722656 99.207031 L 471.722656 102.96875 C 471.722656 103.484375 472.144531 103.90625 472.660156 103.90625 L 496.097656 103.90625 C 496.613281 103.90625 497.035156 103.484375 497.035156 102.96875 L 497.035156 99.207031 C 497.035156 98.691406 496.613281 98.269531 496.097656 98.269531 Z M 495.160156 102.027344 L 473.597656 102.027344 L 473.597656 100.148438 L 495.160156 100.148438 Z M 495.160156 102.027344 " fill-opacity="1" fill-rule="nonzero"/><path fill="#000000" d="M 496.097656 55.964844 L 460.941406 55.964844 C 460.425781 55.964844 460.003906 56.386719 460.003906 56.902344 C 460.003906 57.421875 460.425781 57.84375 460.941406 57.84375 L 496.097656 57.84375 C 496.613281 57.84375 497.035156 57.421875 497.035156 56.902344 C 497.035156 56.386719 496.613281 55.964844 496.097656 55.964844 Z M 496.097656 55.964844 " fill-opacity="1" fill-rule="nonzero"/><g clip-path="url(#a23144b2d4)"><path fill="#000000" d="M 39.871094 48.964844 C 40.441406 48.964844 40.902344 49.429688 40.902344 50 L 40.902344 53.105469 C 40.902344 53.675781 40.441406 54.136719 39.871094 54.136719 C 39.296875 54.136719 38.835938 53.675781 38.835938 53.105469 L 38.835938 50 C 38.835938 49.429688 39.296875 48.964844 39.871094 48.964844 Z M 39.867188 59.3125 C 34.726562 59.3125 30.558594 63.480469 30.558594 68.621094 C 30.558594 73.761719 34.726562 77.933594 39.867188 77.933594 C 45.011719 77.933594 49.179688 73.761719 49.179688 68.621094 C 49.179688 63.480469 45.011719 59.3125 39.867188 59.3125 Z M 28.488281 68.621094 C 28.488281 62.335938 33.582031 57.242188 39.867188 57.242188 C 46.152344 57.242188 51.25 62.335938 51.25 68.621094 C 51.25 74.90625 46.152344 80 39.867188 80 C 33.582031 80 28.488281 74.90625 28.488281 68.621094 Z M 58.492188 69.65625 C 59.0625 69.65625 59.527344 69.191406 59.527344 68.621094 C 59.527344 68.050781 59.0625 67.585938 58.492188 67.585938 L 55.386719 67.585938 C 54.816406 67.585938 54.355469 68.050781 54.355469 68.621094 C 54.355469 69.191406 54.816406 69.65625 55.386719 69.65625 Z M 53.769531 82.519531 C 53.363281 82.921875 52.710938 82.921875 52.304688 82.519531 L 50.109375 80.324219 C 49.707031 79.921875 49.707031 79.265625 50.109375 78.863281 C 50.515625 78.457031 51.171875 78.457031 51.574219 78.863281 L 53.769531 81.058594 C 54.171875 81.460938 54.171875 82.117188 53.769531 82.519531 Z M 27.433594 82.519531 C 27.027344 82.921875 26.375 82.921875 25.96875 82.519531 C 25.566406 82.117188 25.566406 81.460938 25.96875 81.058594 L 28.164062 78.863281 C 28.566406 78.457031 29.222656 78.457031 29.625 78.863281 C 30.03125 79.265625 30.03125 79.921875 29.625 80.324219 Z M 39.871094 83.105469 C 40.441406 83.105469 40.902344 83.566406 40.902344 84.136719 L 40.902344 87.242188 C 40.902344 87.8125 40.441406 88.277344 39.871094 88.277344 C 39.296875 88.277344 38.835938 87.8125 38.835938 87.242188 L 38.835938 84.136719 C 38.835938 83.566406 39.296875 83.105469 39.871094 83.105469 Z M 24.351562 69.65625 C 24.921875 69.65625 25.382812 69.191406 25.382812 68.621094 C 25.382812 68.050781 24.921875 67.585938 24.351562 67.585938 L 21.246094 67.585938 C 20.675781 67.585938 20.210938 68.050781 20.210938 68.621094 C 20.210938 69.191406 20.675781 69.65625 21.246094 69.65625 Z M 29.625 58.378906 C 29.222656 58.785156 28.566406 58.785156 28.164062 58.378906 L 25.96875 56.1875 C 25.566406 55.78125 25.566406 55.128906 25.96875 54.722656 C 26.375 54.320312 27.027344 54.320312 27.433594 54.722656 L 29.625 56.917969 C 30.03125 57.320312 30.03125 57.976562 29.625 58.378906 Z M 51.574219 58.378906 C 51.171875 58.785156 50.515625 58.785156 50.109375 58.378906 C 49.707031 57.976562 49.707031 57.320312 50.109375 56.917969 L 52.304688 54.722656 C 52.710938 54.320312 53.363281 54.320312 53.769531 54.722656 C 54.171875 55.128906 54.171875 55.78125 53.769531 56.1875 Z M 47.234375 91.378906 C 46.847656 91.378906 46.496094 91.59375 46.316406 91.933594 L 43.355469 97.585938 L 52.90625 97.585938 L 55.824219 91.378906 Z M 51.929688 99.65625 L 42.269531 99.65625 L 39.269531 105.382812 C 38.910156 106.070312 39.40625 106.898438 40.1875 106.898438 L 48.523438 106.898438 Z M 54.21875 99.65625 L 63.3125 99.65625 L 59.902344 106.898438 L 50.808594 106.898438 Z M 64.285156 97.585938 L 55.191406 97.585938 L 58.113281 91.378906 L 67.207031 91.378906 Z M 65.597656 99.65625 L 62.191406 106.898438 L 70.058594 106.898438 C 70.441406 106.898438 70.792969 106.683594 70.972656 106.34375 L 74.476562 99.65625 Z M 75.5625 97.585938 L 66.570312 97.585938 L 69.492188 91.378906 L 77.105469 91.378906 C 77.882812 91.378906 78.382812 92.207031 78.019531 92.894531 Z M 44.484375 90.972656 C 45.019531 89.953125 46.078125 89.3125 47.234375 89.3125 L 77.105469 89.3125 C 79.4375 89.3125 80.9375 91.789062 79.851562 93.855469 L 72.804688 107.304688 C 72.269531 108.324219 71.210938 108.964844 70.058594 108.964844 L 40.1875 108.964844 C 37.851562 108.964844 36.355469 106.488281 37.4375 104.421875 Z M 44.484375 90.972656 " fill-opacity="1" fill-rule="evenodd"/></g><g clip-path="url(#1bbfe9c85e)"><path fill="#000000" d="M 388.308594 64.617188 L 340.546875 64.617188 L 343.25 52.816406 C 343.359375 52.335938 343.78125 52 344.269531 52 L 348.679688 52 C 349.257812 52 349.726562 51.527344 349.726562 50.949219 C 349.726562 50.367188 349.257812 49.894531 348.679688 49.894531 C 348.679688 49.894531 346.070312 49.894531 344.269531 49.894531 C 342.804688 49.894531 341.53125 50.910156 341.199219 52.347656 L 338.210938 65.410156 C 338.199219 65.457031 338.191406 65.503906 338.183594 65.554688 C 338.179688 65.597656 338.175781 65.644531 338.179688 65.6875 L 338.179688 76.179688 C 338.179688 76.988281 338.480469 77.726562 338.980469 78.285156 C 338.480469 78.84375 338.179688 79.578125 338.179688 80.386719 L 338.179688 84.59375 C 338.179688 85.171875 338.648438 85.644531 339.226562 85.644531 C 339.808594 85.644531 340.277344 85.171875 340.277344 84.59375 L 340.277344 80.386719 C 340.277344 79.804688 340.75 79.335938 341.328125 79.335938 C 349.527344 79.335938 379.328125 79.335938 387.527344 79.335938 C 388.109375 79.335938 388.578125 79.804688 388.578125 80.386719 C 388.578125 80.386719 388.578125 90.902344 388.578125 90.902344 C 388.578125 91.480469 388.109375 91.953125 387.527344 91.953125 C 387.527344 91.953125 341.328125 91.953125 341.328125 91.953125 C 340.75 91.953125 340.277344 91.480469 340.277344 90.902344 L 340.277344 88.796875 C 340.277344 88.21875 339.808594 87.746094 339.226562 87.746094 C 338.648438 87.746094 338.179688 88.21875 338.179688 88.796875 L 338.179688 90.902344 C 338.179688 91.707031 338.480469 92.445312 338.980469 93.003906 C 338.464844 93.582031 338.179688 94.328125 338.179688 95.105469 C 338.179688 97.195312 338.179688 100.378906 338.179688 102.464844 C 338.179688 103.304688 338.507812 104.105469 339.101562 104.695312 C 339.691406 105.289062 340.492188 105.621094 341.328125 105.621094 C 341.328125 105.621094 341.328125 108.773438 341.328125 108.773438 C 341.328125 109.355469 341.796875 109.828125 342.378906 109.828125 L 386.476562 109.828125 C 387.058594 109.828125 387.527344 109.355469 387.527344 108.773438 L 387.527344 105.621094 C 389.269531 105.621094 390.679688 104.207031 390.679688 102.464844 L 390.679688 100.363281 C 390.679688 99.78125 390.207031 99.3125 389.628906 99.3125 C 389.046875 99.3125 388.578125 99.78125 388.578125 100.363281 L 388.578125 102.464844 C 388.578125 103.046875 388.109375 103.519531 387.527344 103.519531 C 379.328125 103.519531 349.527344 103.519531 341.328125 103.519531 C 341.050781 103.519531 340.78125 103.40625 340.585938 103.210938 C 340.386719 103.011719 340.277344 102.746094 340.277344 102.464844 L 340.277344 95.105469 C 340.277344 94.828125 340.386719 94.558594 340.585938 94.363281 C 340.78125 94.164062 341.050781 94.054688 341.328125 94.054688 C 341.328125 94.054688 387.527344 94.054688 387.527344 94.054688 C 388.109375 94.054688 388.578125 94.527344 388.578125 95.105469 L 388.578125 97.210938 C 388.578125 97.789062 389.046875 98.261719 389.628906 98.261719 C 390.207031 98.261719 390.679688 97.789062 390.679688 97.210938 L 390.679688 95.105469 C 390.679688 94.300781 390.375 93.5625 389.875 93.003906 C 390.375 92.445312 390.679688 91.707031 390.679688 90.902344 L 390.679688 80.386719 C 390.679688 79.578125 390.375 78.84375 389.875 78.285156 C 390.390625 77.707031 390.679688 76.960938 390.679688 76.179688 C 390.679688 74.71875 390.679688 73.027344 390.679688 73.027344 C 390.679688 72.445312 390.207031 71.976562 389.628906 71.976562 C 389.046875 71.976562 388.578125 72.445312 388.578125 73.027344 C 388.578125 73.027344 388.578125 74.71875 388.578125 76.179688 C 388.578125 76.460938 388.46875 76.726562 388.269531 76.925781 C 388.074219 77.121094 387.804688 77.234375 387.527344 77.234375 C 379.328125 77.234375 349.527344 77.234375 341.328125 77.234375 C 340.75 77.234375 340.277344 76.761719 340.277344 76.179688 C 340.277344 76.179688 340.277344 66.71875 340.277344 66.71875 C 340.277344 66.71875 388.578125 66.71875 388.578125 66.71875 C 388.578125 66.71875 388.578125 69.871094 388.578125 69.871094 C 388.578125 70.453125 389.046875 70.925781 389.628906 70.925781 C 390.207031 70.925781 390.679688 70.453125 390.679688 69.871094 L 390.679688 65.6875 C 390.679688 65.644531 390.675781 65.597656 390.671875 65.554688 C 390.667969 65.503906 390.65625 65.457031 390.644531 65.410156 L 387.65625 52.347656 C 387.328125 50.910156 386.050781 49.894531 384.585938 49.894531 L 357.078125 49.894531 C 356.5 49.894531 356.027344 50.367188 356.027344 50.949219 C 356.027344 51.527344 356.5 52 357.078125 52 L 384.585938 52 C 385.074219 52 385.5 52.335938 385.609375 52.816406 Z M 385.429688 105.621094 L 343.429688 105.621094 L 343.429688 107.722656 C 343.429688 107.722656 385.429688 107.722656 385.429688 107.722656 Z M 383.328125 97.210938 C 382.167969 97.210938 381.226562 98.152344 381.226562 99.3125 C 381.226562 100.472656 382.167969 101.414062 383.328125 101.414062 C 384.488281 101.414062 385.429688 100.472656 385.429688 99.3125 C 385.429688 98.152344 384.488281 97.210938 383.328125 97.210938 Z M 377.027344 97.210938 C 375.867188 97.210938 374.929688 98.152344 374.929688 99.3125 C 374.929688 100.472656 375.867188 101.414062 377.027344 101.414062 C 378.1875 101.414062 379.128906 100.472656 379.128906 99.3125 C 379.128906 98.152344 378.1875 97.210938 377.027344 97.210938 Z M 343.429688 100.363281 L 356.027344 100.363281 C 356.609375 100.363281 357.078125 99.890625 357.078125 99.3125 C 357.078125 98.730469 356.609375 98.261719 356.027344 98.261719 L 343.429688 98.261719 C 342.847656 98.261719 342.378906 98.730469 342.378906 99.3125 C 342.378906 99.890625 342.847656 100.363281 343.429688 100.363281 Z M 383.328125 84.066406 C 382.167969 84.066406 381.226562 85.007812 381.226562 86.167969 C 381.226562 87.332031 382.167969 88.273438 383.328125 88.273438 C 384.488281 88.273438 385.429688 87.332031 385.429688 86.167969 C 385.429688 85.007812 384.488281 84.066406 383.328125 84.066406 Z M 377.027344 84.066406 C 375.867188 84.066406 374.929688 85.007812 374.929688 86.167969 C 374.929688 87.332031 375.867188 88.273438 377.027344 88.273438 C 378.1875 88.273438 379.128906 87.332031 379.128906 86.167969 C 379.128906 85.007812 378.1875 84.066406 377.027344 84.066406 Z M 343.429688 86.695312 L 356.027344 86.695312 C 356.609375 86.695312 357.078125 86.222656 357.078125 85.644531 C 357.078125 85.0625 356.609375 84.59375 356.027344 84.59375 L 343.429688 84.59375 C 342.847656 84.59375 342.378906 85.0625 342.378906 85.644531 C 342.378906 86.222656 342.847656 86.695312 343.429688 86.695312 Z M 383.328125 70.398438 C 382.167969 70.398438 381.226562 71.339844 381.226562 72.5 C 381.226562 73.660156 382.167969 74.605469 383.328125 74.605469 C 384.488281 74.605469 385.429688 73.660156 385.429688 72.5 C 385.429688 71.339844 384.488281 70.398438 383.328125 70.398438 Z M 377.027344 70.398438 C 375.867188 70.398438 374.929688 71.339844 374.929688 72.5 C 374.929688 73.660156 375.867188 74.605469 377.027344 74.605469 C 378.1875 74.605469 379.128906 73.660156 379.128906 72.5 C 379.128906 71.339844 378.1875 70.398438 377.027344 70.398438 Z M 343.429688 73.027344 L 356.027344 73.027344 C 356.609375 73.027344 357.078125 72.554688 357.078125 71.976562 C 357.078125 71.394531 356.609375 70.925781 356.027344 70.925781 L 343.429688 70.925781 C 342.847656 70.925781 342.378906 71.394531 342.378906 71.976562 C 342.378906 72.554688 342.847656 73.027344 343.429688 73.027344 Z M 351.828125 52 L 353.929688 52 C 354.507812 52 354.976562 51.527344 354.976562 50.949219 C 354.976562 50.367188 354.507812 49.894531 353.929688 49.894531 L 351.828125 49.894531 C 351.25 49.894531 350.777344 50.367188 350.777344 50.949219 C 350.777344 51.527344 351.25 52 351.828125 52 Z M 351.828125 52 " fill-opacity="1" fill-rule="evenodd"/></g><g clip-path="url(#b9a4902288)"><path fill="#100f0d" d="M 107.984375 72.894531 L 104.609375 72.894531 L 104.609375 77.957031 L 99.546875 77.957031 L 99.546875 81.332031 L 104.609375 81.332031 L 104.609375 86.394531 L 107.984375 86.394531 L 107.984375 81.332031 L 113.046875 81.332031 L 113.046875 77.957031 L 107.984375 77.957031 L 107.984375 72.894531 " fill-opacity="1" fill-rule="nonzero"/></g><g clip-path="url(#2b57ceac7d)"><path fill="#100f0d" d="M 314.402344 72.894531 L 311.027344 72.894531 L 311.027344 77.957031 L 305.964844 77.957031 L 305.964844 81.332031 L 311.027344 81.332031 L 311.027344 86.394531 L 314.402344 86.394531 L 314.402344 81.332031 L 319.464844 81.332031 L 319.464844 77.957031 L 314.402344 77.957031 L 314.402344 72.894531 " fill-opacity="1" fill-rule="nonzero"/></g><g clip-path="url(#a86d1b061f)"><path fill="#100f0d" d="M 417.945312 72.894531 L 414.570312 72.894531 L 414.570312 77.957031 L 409.507812 77.957031 L 409.507812 81.332031 L 414.570312 81.332031 L 414.570312 86.394531 L 417.945312 86.394531 L 417.945312 81.332031 L 423.007812 81.332031 L 423.007812 77.957031 L 417.945312 77.957031 L 417.945312 72.894531 " fill-opacity="1" fill-rule="nonzero"/></g><g clip-path="url(#a8a6a2c95b)"><path fill="#100f0d" d="M 219.109375 72.964844 L 215.734375 72.964844 L 215.734375 78.027344 L 210.671875 78.027344 L 210.671875 81.402344 L 215.734375 81.402344 L 215.734375 86.464844 L 219.109375 86.464844 L 219.109375 81.402344 L 224.171875 81.402344 L 224.171875 78.027344 L 219.109375 78.027344 L 219.109375 72.964844 " fill-opacity="1" fill-rule="nonzero"/></g><path stroke-linecap="butt" transform="matrix(0.482479, 0.574996, -0.574533, 0.482091, 162.904142, 129.504393)" fill="none" stroke-linejoin="miter" d="M -0.000821536 2.001345 L 85.931184 2.000438 " stroke="#000000" stroke-width="4" stroke-opacity="1" stroke-miterlimit="4"/><path stroke-linecap="round" transform="matrix(0.482479, 0.574996, -0.574533, 0.482091, 162.904142, 129.504393)" fill-opacity="1" fill="#000000" fill-rule="nonzero" stroke-linejoin="round" d="M 86.932356 -3.998592 L 94.933245 1.999669 L 86.932313 8.001601 Z M 86.932356 -3.998592 " stroke="#000000" stroke-width="4" stroke-opacity="1" stroke-miterlimit="4"/><path stroke-linecap="butt" transform="matrix(0.00140234, 0.754716, -0.749999, 0.00139358, 265.499842, 129.501141)" fill="none" stroke-linejoin="miter" d="M -0.000028142 1.999794 L 43.65777 1.998091 " stroke="#000000" stroke-width="4" stroke-opacity="1" stroke-miterlimit="4"/><path stroke-linecap="round" transform="matrix(0.00140234, 0.754716, -0.749999, 0.00139358, 265.499842, 129.501141)" fill-opacity="1" fill="#000000" fill-rule="nonzero" stroke-linejoin="round" d="M 44.657421 -4.000051 L 52.658467 1.999295 L 44.655966 7.999968 Z M 44.657421 -4.000051 " stroke="#000000" stroke-width="4" stroke-opacity="1" stroke-miterlimit="4"/><g fill="#000000" fill-opacity="1"><g transform="translate(239.044913, 246.652437)"><g><path d="M 2.234375 0 L 1.296875 0 L 1.296875 -8.5625 L 2.796875 -8.5625 L 5.390625 -1.3125 L 5.515625 -1.3125 L 8.109375 -8.5625 L 9.546875 -8.5625 L 9.546875 0 L 8.59375 0 L 8.59375 -6.984375 L 8.4375 -7.015625 L 5.90625 0 L 4.90625 0 L 2.375 -7.015625 L 2.234375 -6.984375 Z M 2.234375 0 "/></g></g><g transform="translate(249.890616, 246.652437)"><g><path d="M 1.609375 -7.71875 C 1.398438 -7.71875 1.234375 -7.78125 1.109375 -7.90625 C 0.984375 -8.03125 0.921875 -8.191406 0.921875 -8.390625 C 0.921875 -8.578125 0.984375 -8.734375 1.109375 -8.859375 C 1.234375 -8.992188 1.398438 -9.0625 1.609375 -9.0625 C 1.804688 -9.0625 1.96875 -8.992188 2.09375 -8.859375 C 2.226562 -8.734375 2.296875 -8.578125 2.296875 -8.390625 C 2.296875 -8.191406 2.226562 -8.03125 2.09375 -7.90625 C 1.96875 -7.78125 1.804688 -7.71875 1.609375 -7.71875 Z M 1.125 0 L 1.125 -6.46875 L 2.078125 -6.46875 L 2.078125 0 Z M 1.125 0 "/></g></g><g transform="translate(253.095693, 246.652437)"><g><path d="M 1.125 0 L 1.125 -6.46875 L 2.03125 -6.46875 L 2.03125 -5.453125 L 2.15625 -5.421875 C 2.375 -5.796875 2.648438 -6.082031 2.984375 -6.28125 C 3.316406 -6.488281 3.722656 -6.59375 4.203125 -6.59375 C 4.984375 -6.59375 5.546875 -6.390625 5.890625 -5.984375 C 6.242188 -5.585938 6.421875 -4.976562 6.421875 -4.15625 L 6.421875 0 L 5.46875 0 L 5.46875 -4.140625 C 5.46875 -4.523438 5.414062 -4.835938 5.3125 -5.078125 C 5.207031 -5.316406 5.050781 -5.488281 4.84375 -5.59375 C 4.632812 -5.695312 4.363281 -5.75 4.03125 -5.75 C 3.445312 -5.75 2.972656 -5.554688 2.609375 -5.171875 C 2.253906 -4.785156 2.078125 -4.164062 2.078125 -3.3125 L 2.078125 0 Z M 1.125 0 "/></g></g><g transform="translate(260.537099, 246.652437)"><g><path d="M 6.15625 -3.015625 L 1.71875 -3.015625 C 1.75 -2.222656 1.9375 -1.644531 2.28125 -1.28125 C 2.632812 -0.914062 3.113281 -0.734375 3.71875 -0.734375 C 4.175781 -0.734375 4.546875 -0.8125 4.828125 -0.96875 C 5.109375 -1.132812 5.332031 -1.394531 5.5 -1.75 L 5.625 -1.75 L 6.234375 -1.390625 C 6.046875 -0.921875 5.742188 -0.550781 5.328125 -0.28125 C 4.921875 -0.0078125 4.382812 0.125 3.71875 0.125 C 3.09375 0.125 2.554688 0.00390625 2.109375 -0.234375 C 1.660156 -0.484375 1.3125 -0.859375 1.0625 -1.359375 C 0.820312 -1.859375 0.703125 -2.484375 0.703125 -3.234375 C 0.703125 -3.960938 0.832031 -4.578125 1.09375 -5.078125 C 1.351562 -5.585938 1.703125 -5.96875 2.140625 -6.21875 C 2.585938 -6.46875 3.09375 -6.59375 3.65625 -6.59375 C 4.488281 -6.59375 5.132812 -6.359375 5.59375 -5.890625 C 6.0625 -5.421875 6.300781 -4.726562 6.3125 -3.8125 C 6.3125 -3.445312 6.300781 -3.203125 6.28125 -3.078125 Z M 5.359375 -3.8125 C 5.347656 -4.5 5.195312 -5 4.90625 -5.3125 C 4.613281 -5.625 4.195312 -5.78125 3.65625 -5.78125 C 3.09375 -5.78125 2.648438 -5.617188 2.328125 -5.296875 C 2.003906 -4.984375 1.804688 -4.488281 1.734375 -3.8125 Z M 5.359375 -3.8125 "/></g></g><g transform="translate(267.427724, 246.652437)"><g><path d="M 1.125 0 L 1.125 -6.46875 L 2.03125 -6.46875 L 2.03125 -5.453125 L 2.15625 -5.421875 C 2.457031 -6.148438 3.023438 -6.515625 3.859375 -6.515625 C 4.296875 -6.515625 4.625 -6.4375 4.84375 -6.28125 L 4.59375 -5.46875 L 4.484375 -5.453125 C 4.242188 -5.566406 3.976562 -5.625 3.6875 -5.625 C 3.164062 -5.625 2.765625 -5.429688 2.484375 -5.046875 C 2.210938 -4.660156 2.078125 -4.035156 2.078125 -3.171875 L 2.078125 0 Z M 1.125 0 "/></g></g><g transform="translate(272.419911, 246.652437)"><g><path d="M 4.09375 0 L 2.78125 0 L 0.3125 -6.46875 L 1.34375 -6.46875 L 3.375 -1.09375 L 3.515625 -1.09375 L 5.53125 -6.46875 L 6.546875 -6.46875 Z M 4.09375 0 "/></g></g><g transform="translate(279.269519, 246.652437)"><g><path d="M 2.671875 0.125 C 2.035156 0.125 1.535156 -0.0390625 1.171875 -0.375 C 0.816406 -0.707031 0.640625 -1.179688 0.640625 -1.796875 C 0.640625 -2.179688 0.71875 -2.503906 0.875 -2.765625 C 1.03125 -3.035156 1.273438 -3.25 1.609375 -3.40625 C 1.941406 -3.570312 2.375 -3.703125 2.90625 -3.796875 C 3.375 -3.878906 3.726562 -3.96875 3.96875 -4.0625 C 4.21875 -4.15625 4.382812 -4.265625 4.46875 -4.390625 C 4.550781 -4.515625 4.59375 -4.664062 4.59375 -4.84375 C 4.59375 -5.132812 4.492188 -5.359375 4.296875 -5.515625 C 4.097656 -5.671875 3.773438 -5.75 3.328125 -5.75 C 2.910156 -5.75 2.550781 -5.664062 2.25 -5.5 C 1.957031 -5.34375 1.6875 -5.101562 1.4375 -4.78125 L 1.3125 -4.78125 L 0.84375 -5.453125 C 1.113281 -5.796875 1.457031 -6.070312 1.875 -6.28125 C 2.300781 -6.488281 2.785156 -6.59375 3.328125 -6.59375 C 4.085938 -6.59375 4.648438 -6.421875 5.015625 -6.078125 C 5.378906 -5.742188 5.5625 -5.285156 5.5625 -4.703125 L 5.5625 -1.265625 C 5.5625 -0.910156 5.710938 -0.734375 6.015625 -0.734375 C 6.117188 -0.734375 6.21875 -0.75 6.3125 -0.78125 L 6.390625 -0.765625 L 6.5 -0.09375 C 6.425781 -0.0507812 6.332031 -0.0195312 6.21875 0 C 6.101562 0.03125 5.984375 0.046875 5.859375 0.046875 C 5.503906 0.046875 5.234375 -0.03125 5.046875 -0.1875 C 4.867188 -0.34375 4.757812 -0.570312 4.71875 -0.875 L 4.59375 -0.890625 C 4.40625 -0.546875 4.15625 -0.289062 3.84375 -0.125 C 3.53125 0.0390625 3.140625 0.125 2.671875 0.125 Z M 2.875 -0.640625 C 3.238281 -0.640625 3.550781 -0.722656 3.8125 -0.890625 C 4.070312 -1.054688 4.269531 -1.289062 4.40625 -1.59375 C 4.550781 -1.894531 4.625 -2.238281 4.625 -2.625 L 4.625 -3.453125 L 4.515625 -3.46875 C 4.367188 -3.375 4.191406 -3.289062 3.984375 -3.21875 C 3.785156 -3.15625 3.5 -3.09375 3.125 -3.03125 C 2.75 -2.976562 2.453125 -2.898438 2.234375 -2.796875 C 2.015625 -2.691406 1.859375 -2.554688 1.765625 -2.390625 C 1.671875 -2.234375 1.625 -2.035156 1.625 -1.796875 C 1.625 -1.421875 1.734375 -1.132812 1.953125 -0.9375 C 2.171875 -0.738281 2.476562 -0.640625 2.875 -0.640625 Z M 2.875 -0.640625 "/></g></g></g><g fill="#000000" fill-opacity="1"><g transform="translate(7.578318, 27.449998)"><g><path d="M 4.359375 -8.5625 C 4.953125 -8.5625 5.457031 -8.457031 5.875 -8.25 C 6.300781 -8.039062 6.625 -7.738281 6.84375 -7.34375 C 7.0625 -6.945312 7.171875 -6.484375 7.171875 -5.953125 C 7.171875 -5.421875 7.0625 -4.957031 6.84375 -4.5625 C 6.625 -4.175781 6.300781 -3.878906 5.875 -3.671875 C 5.457031 -3.460938 4.953125 -3.359375 4.359375 -3.359375 L 2.296875 -3.359375 L 2.296875 0 L 1.296875 0 L 1.296875 -8.5625 Z M 4.328125 -4.21875 C 5.523438 -4.21875 6.125 -4.796875 6.125 -5.953125 C 6.125 -7.128906 5.523438 -7.71875 4.328125 -7.71875 L 2.296875 -7.71875 L 2.296875 -4.21875 Z M 4.328125 -4.21875 "/></g></g><g transform="translate(15.388864, 27.449998)"><g><path d="M 3.703125 0.125 C 3.097656 0.125 2.566406 -0.00390625 2.109375 -0.265625 C 1.660156 -0.523438 1.3125 -0.90625 1.0625 -1.40625 C 0.820312 -1.90625 0.703125 -2.515625 0.703125 -3.234375 C 0.703125 -3.941406 0.820312 -4.546875 1.0625 -5.046875 C 1.3125 -5.554688 1.660156 -5.941406 2.109375 -6.203125 C 2.566406 -6.460938 3.097656 -6.59375 3.703125 -6.59375 C 4.316406 -6.59375 4.847656 -6.460938 5.296875 -6.203125 C 5.753906 -5.941406 6.101562 -5.554688 6.34375 -5.046875 C 6.582031 -4.546875 6.703125 -3.941406 6.703125 -3.234375 C 6.703125 -2.515625 6.582031 -1.90625 6.34375 -1.40625 C 6.101562 -0.90625 5.753906 -0.523438 5.296875 -0.265625 C 4.847656 -0.00390625 4.316406 0.125 3.703125 0.125 Z M 3.703125 -0.734375 C 4.347656 -0.734375 4.84375 -0.9375 5.1875 -1.34375 C 5.53125 -1.75 5.703125 -2.378906 5.703125 -3.234375 C 5.703125 -4.085938 5.53125 -4.71875 5.1875 -5.125 C 4.84375 -5.53125 4.347656 -5.734375 3.703125 -5.734375 C 3.066406 -5.734375 2.578125 -5.523438 2.234375 -5.109375 C 1.890625 -4.703125 1.71875 -4.078125 1.71875 -3.234375 C 1.71875 -2.378906 1.890625 -1.75 2.234375 -1.34375 C 2.578125 -0.9375 3.066406 -0.734375 3.703125 -0.734375 Z M 3.703125 -0.734375 "/></g></g><g transform="translate(22.806832, 27.449998)"><g><path d="M 3.203125 0 L 2 0 L 0.421875 -6.46875 L 1.359375 -6.46875 L 2.578125 -1.109375 L 2.703125 -1.109375 L 4.21875 -6.46875 L 5.21875 -6.46875 L 6.765625 -1.109375 L 6.890625 -1.109375 L 8.09375 -6.46875 L 9 -6.46875 L 7.4375 0 L 6.234375 0 L 4.75 -5.015625 L 4.625 -5.015625 Z M 3.203125 0 "/></g></g><g transform="translate(32.228706, 27.449998)"><g><path d="M 6.15625 -3.015625 L 1.71875 -3.015625 C 1.75 -2.222656 1.9375 -1.644531 2.28125 -1.28125 C 2.632812 -0.914062 3.113281 -0.734375 3.71875 -0.734375 C 4.175781 -0.734375 4.546875 -0.8125 4.828125 -0.96875 C 5.109375 -1.132812 5.332031 -1.394531 5.5 -1.75 L 5.625 -1.75 L 6.234375 -1.390625 C 6.046875 -0.921875 5.742188 -0.550781 5.328125 -0.28125 C 4.921875 -0.0078125 4.382812 0.125 3.71875 0.125 C 3.09375 0.125 2.554688 0.00390625 2.109375 -0.234375 C 1.660156 -0.484375 1.3125 -0.859375 1.0625 -1.359375 C 0.820312 -1.859375 0.703125 -2.484375 0.703125 -3.234375 C 0.703125 -3.960938 0.832031 -4.578125 1.09375 -5.078125 C 1.351562 -5.585938 1.703125 -5.96875 2.140625 -6.21875 C 2.585938 -6.46875 3.09375 -6.59375 3.65625 -6.59375 C 4.488281 -6.59375 5.132812 -6.359375 5.59375 -5.890625 C 6.0625 -5.421875 6.300781 -4.726562 6.3125 -3.8125 C 6.3125 -3.445312 6.300781 -3.203125 6.28125 -3.078125 Z M 5.359375 -3.8125 C 5.347656 -4.5 5.195312 -5 4.90625 -5.3125 C 4.613281 -5.625 4.195312 -5.78125 3.65625 -5.78125 C 3.09375 -5.78125 2.648438 -5.617188 2.328125 -5.296875 C 2.003906 -4.984375 1.804688 -4.488281 1.734375 -3.8125 Z M 5.359375 -3.8125 "/></g></g><g transform="translate(39.119331, 27.449998)"><g><path d="M 1.125 0 L 1.125 -6.46875 L 2.03125 -6.46875 L 2.03125 -5.453125 L 2.15625 -5.421875 C 2.457031 -6.148438 3.023438 -6.515625 3.859375 -6.515625 C 4.296875 -6.515625 4.625 -6.4375 4.84375 -6.28125 L 4.59375 -5.46875 L 4.484375 -5.453125 C 4.242188 -5.566406 3.976562 -5.625 3.6875 -5.625 C 3.164062 -5.625 2.765625 -5.429688 2.484375 -5.046875 C 2.210938 -4.660156 2.078125 -4.035156 2.078125 -3.171875 L 2.078125 0 Z M 1.125 0 "/></g></g><g transform="translate(44.111518, 27.449998)"><g/></g><g transform="translate(47.052924, 27.449998)"><g><path d="M 3.75 0.125 C 3.207031 0.125 2.722656 0.0507812 2.296875 -0.09375 C 1.867188 -0.238281 1.507812 -0.429688 1.21875 -0.671875 C 0.9375 -0.910156 0.726562 -1.171875 0.59375 -1.453125 L 1.140625 -2.125 L 1.28125 -2.125 C 1.8125 -1.226562 2.632812 -0.78125 3.75 -0.78125 C 4.394531 -0.78125 4.875 -0.914062 5.1875 -1.1875 C 5.5 -1.457031 5.65625 -1.832031 5.65625 -2.3125 C 5.65625 -2.59375 5.601562 -2.832031 5.5 -3.03125 C 5.394531 -3.226562 5.222656 -3.394531 4.984375 -3.53125 C 4.742188 -3.664062 4.421875 -3.785156 4.015625 -3.890625 L 3.015625 -4.140625 C 2.265625 -4.316406 1.710938 -4.597656 1.359375 -4.984375 C 1.003906 -5.378906 0.828125 -5.878906 0.828125 -6.484375 C 0.828125 -6.910156 0.9375 -7.289062 1.15625 -7.625 C 1.375 -7.957031 1.691406 -8.21875 2.109375 -8.40625 C 2.535156 -8.59375 3.046875 -8.6875 3.640625 -8.6875 C 4.273438 -8.6875 4.816406 -8.59375 5.265625 -8.40625 C 5.710938 -8.226562 6.066406 -7.957031 6.328125 -7.59375 L 5.84375 -6.9375 L 5.6875 -6.9375 C 5.445312 -7.238281 5.15625 -7.457031 4.8125 -7.59375 C 4.476562 -7.738281 4.085938 -7.8125 3.640625 -7.8125 C 3.046875 -7.8125 2.59375 -7.695312 2.28125 -7.46875 C 1.976562 -7.238281 1.828125 -6.921875 1.828125 -6.515625 C 1.828125 -6.128906 1.9375 -5.820312 2.15625 -5.59375 C 2.382812 -5.363281 2.765625 -5.1875 3.296875 -5.0625 L 4.3125 -4.8125 C 5.144531 -4.613281 5.75 -4.3125 6.125 -3.90625 C 6.5 -3.507812 6.6875 -2.992188 6.6875 -2.359375 C 6.6875 -1.878906 6.578125 -1.453125 6.359375 -1.078125 C 6.140625 -0.703125 5.8125 -0.40625 5.375 -0.1875 C 4.9375 0.0195312 4.394531 0.125 3.75 0.125 Z M 3.75 0.125 "/></g></g><g transform="translate(54.39472, 27.449998)"><g><path d="M 3.703125 0.125 C 3.097656 0.125 2.566406 -0.00390625 2.109375 -0.265625 C 1.660156 -0.523438 1.3125 -0.90625 1.0625 -1.40625 C 0.820312 -1.90625 0.703125 -2.515625 0.703125 -3.234375 C 0.703125 -3.941406 0.820312 -4.546875 1.0625 -5.046875 C 1.3125 -5.554688 1.660156 -5.941406 2.109375 -6.203125 C 2.566406 -6.460938 3.097656 -6.59375 3.703125 -6.59375 C 4.316406 -6.59375 4.847656 -6.460938 5.296875 -6.203125 C 5.753906 -5.941406 6.101562 -5.554688 6.34375 -5.046875 C 6.582031 -4.546875 6.703125 -3.941406 6.703125 -3.234375 C 6.703125 -2.515625 6.582031 -1.90625 6.34375 -1.40625 C 6.101562 -0.90625 5.753906 -0.523438 5.296875 -0.265625 C 4.847656 -0.00390625 4.316406 0.125 3.703125 0.125 Z M 3.703125 -0.734375 C 4.347656 -0.734375 4.84375 -0.9375 5.1875 -1.34375 C 5.53125 -1.75 5.703125 -2.378906 5.703125 -3.234375 C 5.703125 -4.085938 5.53125 -4.71875 5.1875 -5.125 C 4.84375 -5.53125 4.347656 -5.734375 3.703125 -5.734375 C 3.066406 -5.734375 2.578125 -5.523438 2.234375 -5.109375 C 1.890625 -4.703125 1.71875 -4.078125 1.71875 -3.234375 C 1.71875 -2.378906 1.890625 -1.75 2.234375 -1.34375 C 2.578125 -0.9375 3.066406 -0.734375 3.703125 -0.734375 Z M 3.703125 -0.734375 "/></g></g><g transform="translate(61.812688, 27.449998)"><g><path d="M 3.1875 0.125 C 2.457031 0.125 1.914062 -0.0664062 1.5625 -0.453125 C 1.207031 -0.835938 1.03125 -1.40625 1.03125 -2.15625 L 1.03125 -6.46875 L 1.984375 -6.46875 L 1.984375 -2.1875 C 1.984375 -1.195312 2.441406 -0.703125 3.359375 -0.703125 C 3.953125 -0.703125 4.414062 -0.894531 4.75 -1.28125 C 5.09375 -1.664062 5.265625 -2.285156 5.265625 -3.140625 L 5.265625 -6.46875 L 6.21875 -6.46875 L 6.21875 0 L 5.3125 0 L 5.3125 -1.015625 L 5.1875 -1.046875 C 4.96875 -0.648438 4.703125 -0.351562 4.390625 -0.15625 C 4.078125 0.03125 3.675781 0.125 3.1875 0.125 Z M 3.1875 0.125 "/></g></g><g transform="translate(69.154485, 27.449998)"><g><path d="M 1.125 0 L 1.125 -6.46875 L 2.03125 -6.46875 L 2.03125 -5.453125 L 2.15625 -5.421875 C 2.457031 -6.148438 3.023438 -6.515625 3.859375 -6.515625 C 4.296875 -6.515625 4.625 -6.4375 4.84375 -6.28125 L 4.59375 -5.46875 L 4.484375 -5.453125 C 4.242188 -5.566406 3.976562 -5.625 3.6875 -5.625 C 3.164062 -5.625 2.765625 -5.429688 2.484375 -5.046875 C 2.210938 -4.660156 2.078125 -4.035156 2.078125 -3.171875 L 2.078125 0 Z M 1.125 0 "/></g></g><g transform="translate(74.146672, 27.449998)"><g><path d="M 3.703125 0.125 C 3.140625 0.125 2.628906 -0.00390625 2.171875 -0.265625 C 1.722656 -0.523438 1.363281 -0.90625 1.09375 -1.40625 C 0.832031 -1.914062 0.703125 -2.523438 0.703125 -3.234375 C 0.703125 -3.941406 0.832031 -4.546875 1.09375 -5.046875 C 1.363281 -5.554688 1.722656 -5.941406 2.171875 -6.203125 C 2.628906 -6.460938 3.140625 -6.59375 3.703125 -6.59375 C 4.390625 -6.59375 4.9375 -6.460938 5.34375 -6.203125 C 5.75 -5.941406 6.039062 -5.597656 6.21875 -5.171875 L 5.5625 -4.703125 L 5.453125 -4.703125 C 5.273438 -5.054688 5.046875 -5.316406 4.765625 -5.484375 C 4.492188 -5.648438 4.140625 -5.734375 3.703125 -5.734375 C 3.304688 -5.734375 2.957031 -5.640625 2.65625 -5.453125 C 2.351562 -5.265625 2.117188 -4.984375 1.953125 -4.609375 C 1.796875 -4.234375 1.71875 -3.773438 1.71875 -3.234375 C 1.71875 -2.691406 1.800781 -2.234375 1.96875 -1.859375 C 2.132812 -1.484375 2.363281 -1.203125 2.65625 -1.015625 C 2.957031 -0.828125 3.304688 -0.734375 3.703125 -0.734375 C 4.160156 -0.734375 4.535156 -0.832031 4.828125 -1.03125 C 5.117188 -1.238281 5.347656 -1.5625 5.515625 -2 L 5.640625 -2 L 6.265625 -1.625 C 6.097656 -1.082031 5.796875 -0.65625 5.359375 -0.34375 C 4.929688 -0.03125 4.378906 0.125 3.703125 0.125 Z M 3.703125 0.125 "/></g></g><g transform="translate(80.808781, 27.449998)"><g><path d="M 6.15625 -3.015625 L 1.71875 -3.015625 C 1.75 -2.222656 1.9375 -1.644531 2.28125 -1.28125 C 2.632812 -0.914062 3.113281 -0.734375 3.71875 -0.734375 C 4.175781 -0.734375 4.546875 -0.8125 4.828125 -0.96875 C 5.109375 -1.132812 5.332031 -1.394531 5.5 -1.75 L 5.625 -1.75 L 6.234375 -1.390625 C 6.046875 -0.921875 5.742188 -0.550781 5.328125 -0.28125 C 4.921875 -0.0078125 4.382812 0.125 3.71875 0.125 C 3.09375 0.125 2.554688 0.00390625 2.109375 -0.234375 C 1.660156 -0.484375 1.3125 -0.859375 1.0625 -1.359375 C 0.820312 -1.859375 0.703125 -2.484375 0.703125 -3.234375 C 0.703125 -3.960938 0.832031 -4.578125 1.09375 -5.078125 C 1.351562 -5.585938 1.703125 -5.96875 2.140625 -6.21875 C 2.585938 -6.46875 3.09375 -6.59375 3.65625 -6.59375 C 4.488281 -6.59375 5.132812 -6.359375 5.59375 -5.890625 C 6.0625 -5.421875 6.300781 -4.726562 6.3125 -3.8125 C 6.3125 -3.445312 6.300781 -3.203125 6.28125 -3.078125 Z M 5.359375 -3.8125 C 5.347656 -4.5 5.195312 -5 4.90625 -5.3125 C 4.613281 -5.625 4.195312 -5.78125 3.65625 -5.78125 C 3.09375 -5.78125 2.648438 -5.617188 2.328125 -5.296875 C 2.003906 -4.984375 1.804688 -4.488281 1.734375 -3.8125 Z M 5.359375 -3.8125 "/></g></g></g><g fill="#000000" fill-opacity="1"><g transform="translate(241.962062, 27.449998)"><g><path d="M 6.6875 -8.5625 L 6.6875 -7.71875 L 4 -7.71875 L 4 0 L 3 0 L 3 -7.71875 L 0.3125 -7.71875 L 0.3125 -8.5625 Z M 6.6875 -8.5625 "/></g></g><g transform="translate(248.958155, 27.449998)"><g><path d="M 2.671875 0.125 C 2.035156 0.125 1.535156 -0.0390625 1.171875 -0.375 C 0.816406 -0.707031 0.640625 -1.179688 0.640625 -1.796875 C 0.640625 -2.179688 0.71875 -2.503906 0.875 -2.765625 C 1.03125 -3.035156 1.273438 -3.25 1.609375 -3.40625 C 1.941406 -3.570312 2.375 -3.703125 2.90625 -3.796875 C 3.375 -3.878906 3.726562 -3.96875 3.96875 -4.0625 C 4.21875 -4.15625 4.382812 -4.265625 4.46875 -4.390625 C 4.550781 -4.515625 4.59375 -4.664062 4.59375 -4.84375 C 4.59375 -5.132812 4.492188 -5.359375 4.296875 -5.515625 C 4.097656 -5.671875 3.773438 -5.75 3.328125 -5.75 C 2.910156 -5.75 2.550781 -5.664062 2.25 -5.5 C 1.957031 -5.34375 1.6875 -5.101562 1.4375 -4.78125 L 1.3125 -4.78125 L 0.84375 -5.453125 C 1.113281 -5.796875 1.457031 -6.070312 1.875 -6.28125 C 2.300781 -6.488281 2.785156 -6.59375 3.328125 -6.59375 C 4.085938 -6.59375 4.648438 -6.421875 5.015625 -6.078125 C 5.378906 -5.742188 5.5625 -5.285156 5.5625 -4.703125 L 5.5625 -1.265625 C 5.5625 -0.910156 5.710938 -0.734375 6.015625 -0.734375 C 6.117188 -0.734375 6.21875 -0.75 6.3125 -0.78125 L 6.390625 -0.765625 L 6.5 -0.09375 C 6.425781 -0.0507812 6.332031 -0.0195312 6.21875 0 C 6.101562 0.03125 5.984375 0.046875 5.859375 0.046875 C 5.503906 0.046875 5.234375 -0.03125 5.046875 -0.1875 C 4.867188 -0.34375 4.757812 -0.570312 4.71875 -0.875 L 4.59375 -0.890625 C 4.40625 -0.546875 4.15625 -0.289062 3.84375 -0.125 C 3.53125 0.0390625 3.140625 0.125 2.671875 0.125 Z M 2.875 -0.640625 C 3.238281 -0.640625 3.550781 -0.722656 3.8125 -0.890625 C 4.070312 -1.054688 4.269531 -1.289062 4.40625 -1.59375 C 4.550781 -1.894531 4.625 -2.238281 4.625 -2.625 L 4.625 -3.453125 L 4.515625 -3.46875 C 4.367188 -3.375 4.191406 -3.289062 3.984375 -3.21875 C 3.785156 -3.15625 3.5 -3.09375 3.125 -3.03125 C 2.75 -2.976562 2.453125 -2.898438 2.234375 -2.796875 C 2.015625 -2.691406 1.859375 -2.554688 1.765625 -2.390625 C 1.671875 -2.234375 1.625 -2.035156 1.625 -1.796875 C 1.625 -1.421875 1.734375 -1.132812 1.953125 -0.9375 C 2.171875 -0.738281 2.476562 -0.640625 2.875 -0.640625 Z M 2.875 -0.640625 "/></g></g><g transform="translate(255.643702, 27.449998)"><g><path d="M 4.296875 0.125 C 3.816406 0.125 3.398438 0.03125 3.046875 -0.15625 C 2.691406 -0.34375 2.410156 -0.585938 2.203125 -0.890625 L 2.078125 -0.875 L 2.078125 0 L 1.125 0 L 1.125 -9.0625 L 2.078125 -9.0625 L 2.078125 -5.5 L 2.203125 -5.46875 C 2.691406 -6.21875 3.40625 -6.59375 4.34375 -6.59375 C 4.875 -6.59375 5.335938 -6.46875 5.734375 -6.21875 C 6.140625 -5.96875 6.453125 -5.59375 6.671875 -5.09375 C 6.890625 -4.59375 7 -3.972656 7 -3.234375 C 7 -2.492188 6.882812 -1.875 6.65625 -1.375 C 6.425781 -0.875 6.109375 -0.5 5.703125 -0.25 C 5.296875 0 4.828125 0.125 4.296875 0.125 Z M 4.0625 -0.734375 C 5.351562 -0.734375 6 -1.566406 6 -3.234375 C 6 -4.097656 5.832031 -4.726562 5.5 -5.125 C 5.164062 -5.53125 4.6875 -5.734375 4.0625 -5.734375 C 3.457031 -5.734375 2.972656 -5.523438 2.609375 -5.109375 C 2.253906 -4.703125 2.078125 -4.078125 2.078125 -3.234375 C 2.078125 -2.390625 2.253906 -1.757812 2.609375 -1.34375 C 2.972656 -0.9375 3.457031 -0.734375 4.0625 -0.734375 Z M 4.0625 -0.734375 "/></g></g><g transform="translate(263.354639, 27.449998)"><g><path d="M 2.578125 0.125 C 2.117188 0.125 1.757812 -0.00390625 1.5 -0.265625 C 1.238281 -0.523438 1.109375 -0.914062 1.109375 -1.4375 L 1.109375 -9.0625 L 2.0625 -9.0625 L 2.0625 -1.5 C 2.0625 -1.226562 2.113281 -1.03125 2.21875 -0.90625 C 2.320312 -0.789062 2.484375 -0.734375 2.703125 -0.734375 C 2.828125 -0.734375 2.957031 -0.753906 3.09375 -0.796875 L 3.1875 -0.78125 L 3.296875 -0.03125 C 3.222656 0.0195312 3.117188 0.0546875 2.984375 0.078125 C 2.859375 0.109375 2.722656 0.125 2.578125 0.125 Z M 2.578125 0.125 "/></g></g><g transform="translate(266.870263, 27.449998)"><g><path d="M 6.15625 -3.015625 L 1.71875 -3.015625 C 1.75 -2.222656 1.9375 -1.644531 2.28125 -1.28125 C 2.632812 -0.914062 3.113281 -0.734375 3.71875 -0.734375 C 4.175781 -0.734375 4.546875 -0.8125 4.828125 -0.96875 C 5.109375 -1.132812 5.332031 -1.394531 5.5 -1.75 L 5.625 -1.75 L 6.234375 -1.390625 C 6.046875 -0.921875 5.742188 -0.550781 5.328125 -0.28125 C 4.921875 -0.0078125 4.382812 0.125 3.71875 0.125 C 3.09375 0.125 2.554688 0.00390625 2.109375 -0.234375 C 1.660156 -0.484375 1.3125 -0.859375 1.0625 -1.359375 C 0.820312 -1.859375 0.703125 -2.484375 0.703125 -3.234375 C 0.703125 -3.960938 0.832031 -4.578125 1.09375 -5.078125 C 1.351562 -5.585938 1.703125 -5.96875 2.140625 -6.21875 C 2.585938 -6.46875 3.09375 -6.59375 3.65625 -6.59375 C 4.488281 -6.59375 5.132812 -6.359375 5.59375 -5.890625 C 6.0625 -5.421875 6.300781 -4.726562 6.3125 -3.8125 C 6.3125 -3.445312 6.300781 -3.203125 6.28125 -3.078125 Z M 5.359375 -3.8125 C 5.347656 -4.5 5.195312 -5 4.90625 -5.3125 C 4.613281 -5.625 4.195312 -5.78125 3.65625 -5.78125 C 3.09375 -5.78125 2.648438 -5.617188 2.328125 -5.296875 C 2.003906 -4.984375 1.804688 -4.488281 1.734375 -3.8125 Z M 5.359375 -3.8125 "/></g></g><g transform="translate(273.760888, 27.449998)"><g><path d="M 4.375 -1.03125 L 4.671875 -0.34375 C 4.523438 -0.1875 4.328125 -0.0703125 4.078125 0 C 3.828125 0.0820312 3.554688 0.125 3.265625 0.125 C 2.035156 0.125 1.421875 -0.5 1.421875 -1.75 L 1.421875 -5.6875 L 0.296875 -5.6875 L 0.296875 -6.46875 L 1.421875 -6.46875 L 1.421875 -7.828125 L 2.375 -8 L 2.375 -6.46875 L 4.453125 -6.46875 L 4.453125 -5.6875 L 2.375 -5.6875 L 2.375 -1.84375 C 2.375 -1.101562 2.695312 -0.734375 3.34375 -0.734375 C 3.695312 -0.734375 4 -0.832031 4.25 -1.03125 Z M 4.375 -1.03125 "/></g></g><g transform="translate(278.682762, 27.449998)"><g><path d="M 2.953125 0.125 C 2.546875 0.125 2.164062 0.0703125 1.8125 -0.03125 C 1.46875 -0.144531 1.175781 -0.296875 0.9375 -0.484375 C 0.707031 -0.671875 0.539062 -0.878906 0.4375 -1.109375 L 1 -1.703125 L 1.125 -1.703125 C 1.332031 -1.378906 1.582031 -1.132812 1.875 -0.96875 C 2.175781 -0.8125 2.535156 -0.734375 2.953125 -0.734375 C 3.421875 -0.734375 3.78125 -0.828125 4.03125 -1.015625 C 4.28125 -1.203125 4.40625 -1.457031 4.40625 -1.78125 C 4.40625 -2.039062 4.328125 -2.253906 4.171875 -2.421875 C 4.023438 -2.585938 3.785156 -2.710938 3.453125 -2.796875 L 2.359375 -3.0625 C 1.773438 -3.195312 1.347656 -3.414062 1.078125 -3.71875 C 0.816406 -4.03125 0.6875 -4.410156 0.6875 -4.859375 C 0.6875 -5.210938 0.773438 -5.519531 0.953125 -5.78125 C 1.128906 -6.039062 1.382812 -6.238281 1.71875 -6.375 C 2.0625 -6.519531 2.46875 -6.59375 2.9375 -6.59375 C 3.53125 -6.59375 4 -6.507812 4.34375 -6.34375 C 4.6875 -6.175781 4.953125 -5.941406 5.140625 -5.640625 L 4.59375 -5.109375 L 4.484375 -5.109375 C 4.273438 -5.347656 4.046875 -5.519531 3.796875 -5.625 C 3.554688 -5.738281 3.269531 -5.796875 2.9375 -5.796875 C 2.507812 -5.796875 2.179688 -5.71875 1.953125 -5.5625 C 1.734375 -5.40625 1.625 -5.1875 1.625 -4.90625 C 1.625 -4.632812 1.703125 -4.421875 1.859375 -4.265625 C 2.015625 -4.109375 2.296875 -3.976562 2.703125 -3.875 L 3.765625 -3.625 C 4.328125 -3.488281 4.734375 -3.265625 4.984375 -2.953125 C 5.234375 -2.648438 5.359375 -2.265625 5.359375 -1.796875 C 5.359375 -1.421875 5.269531 -1.085938 5.09375 -0.796875 C 4.914062 -0.503906 4.644531 -0.273438 4.28125 -0.109375 C 3.914062 0.046875 3.472656 0.125 2.953125 0.125 Z M 2.953125 0.125 "/></g></g></g><g fill="#000000" fill-opacity="1"><g transform="translate(133.740899, 27.449998)"><g><path d="M 1.296875 0 L 1.296875 -8.5625 L 4.546875 -8.5625 C 5.066406 -8.5625 5.507812 -8.476562 5.875 -8.3125 C 6.25 -8.144531 6.523438 -7.90625 6.703125 -7.59375 C 6.890625 -7.28125 6.984375 -6.910156 6.984375 -6.484375 C 6.984375 -6.117188 6.882812 -5.785156 6.6875 -5.484375 C 6.488281 -5.179688 6.203125 -4.945312 5.828125 -4.78125 L 5.828125 -4.65625 C 6.398438 -4.507812 6.832031 -4.25 7.125 -3.875 C 7.414062 -3.507812 7.5625 -3.046875 7.5625 -2.484375 C 7.5625 -1.691406 7.328125 -1.078125 6.859375 -0.640625 C 6.398438 -0.210938 5.707031 0 4.78125 0 Z M 4.5 -4.96875 C 4.96875 -4.96875 5.332031 -5.09375 5.59375 -5.34375 C 5.851562 -5.59375 5.984375 -5.929688 5.984375 -6.359375 C 5.984375 -6.816406 5.859375 -7.160156 5.609375 -7.390625 C 5.359375 -7.617188 4.988281 -7.734375 4.5 -7.734375 L 2.296875 -7.734375 L 2.296875 -4.96875 Z M 4.71875 -0.828125 C 5.9375 -0.828125 6.546875 -1.378906 6.546875 -2.484375 C 6.546875 -3.585938 5.9375 -4.140625 4.71875 -4.140625 L 2.296875 -4.140625 L 2.296875 -0.828125 Z M 4.71875 -0.828125 "/></g></g><g transform="translate(141.985039, 27.449998)"><g><path d="M 2.671875 0.125 C 2.035156 0.125 1.535156 -0.0390625 1.171875 -0.375 C 0.816406 -0.707031 0.640625 -1.179688 0.640625 -1.796875 C 0.640625 -2.179688 0.71875 -2.503906 0.875 -2.765625 C 1.03125 -3.035156 1.273438 -3.25 1.609375 -3.40625 C 1.941406 -3.570312 2.375 -3.703125 2.90625 -3.796875 C 3.375 -3.878906 3.726562 -3.96875 3.96875 -4.0625 C 4.21875 -4.15625 4.382812 -4.265625 4.46875 -4.390625 C 4.550781 -4.515625 4.59375 -4.664062 4.59375 -4.84375 C 4.59375 -5.132812 4.492188 -5.359375 4.296875 -5.515625 C 4.097656 -5.671875 3.773438 -5.75 3.328125 -5.75 C 2.910156 -5.75 2.550781 -5.664062 2.25 -5.5 C 1.957031 -5.34375 1.6875 -5.101562 1.4375 -4.78125 L 1.3125 -4.78125 L 0.84375 -5.453125 C 1.113281 -5.796875 1.457031 -6.070312 1.875 -6.28125 C 2.300781 -6.488281 2.785156 -6.59375 3.328125 -6.59375 C 4.085938 -6.59375 4.648438 -6.421875 5.015625 -6.078125 C 5.378906 -5.742188 5.5625 -5.285156 5.5625 -4.703125 L 5.5625 -1.265625 C 5.5625 -0.910156 5.710938 -0.734375 6.015625 -0.734375 C 6.117188 -0.734375 6.21875 -0.75 6.3125 -0.78125 L 6.390625 -0.765625 L 6.5 -0.09375 C 6.425781 -0.0507812 6.332031 -0.0195312 6.21875 0 C 6.101562 0.03125 5.984375 0.046875 5.859375 0.046875 C 5.503906 0.046875 5.234375 -0.03125 5.046875 -0.1875 C 4.867188 -0.34375 4.757812 -0.570312 4.71875 -0.875 L 4.59375 -0.890625 C 4.40625 -0.546875 4.15625 -0.289062 3.84375 -0.125 C 3.53125 0.0390625 3.140625 0.125 2.671875 0.125 Z M 2.875 -0.640625 C 3.238281 -0.640625 3.550781 -0.722656 3.8125 -0.890625 C 4.070312 -1.054688 4.269531 -1.289062 4.40625 -1.59375 C 4.550781 -1.894531 4.625 -2.238281 4.625 -2.625 L 4.625 -3.453125 L 4.515625 -3.46875 C 4.367188 -3.375 4.191406 -3.289062 3.984375 -3.21875 C 3.785156 -3.15625 3.5 -3.09375 3.125 -3.03125 C 2.75 -2.976562 2.453125 -2.898438 2.234375 -2.796875 C 2.015625 -2.691406 1.859375 -2.554688 1.765625 -2.390625 C 1.671875 -2.234375 1.625 -2.035156 1.625 -1.796875 C 1.625 -1.421875 1.734375 -1.132812 1.953125 -0.9375 C 2.171875 -0.738281 2.476562 -0.640625 2.875 -0.640625 Z M 2.875 -0.640625 "/></g></g><g transform="translate(148.670586, 27.449998)"><g><path d="M 4.375 -1.03125 L 4.671875 -0.34375 C 4.523438 -0.1875 4.328125 -0.0703125 4.078125 0 C 3.828125 0.0820312 3.554688 0.125 3.265625 0.125 C 2.035156 0.125 1.421875 -0.5 1.421875 -1.75 L 1.421875 -5.6875 L 0.296875 -5.6875 L 0.296875 -6.46875 L 1.421875 -6.46875 L 1.421875 -7.828125 L 2.375 -8 L 2.375 -6.46875 L 4.453125 -6.46875 L 4.453125 -5.6875 L 2.375 -5.6875 L 2.375 -1.84375 C 2.375 -1.101562 2.695312 -0.734375 3.34375 -0.734375 C 3.695312 -0.734375 4 -0.832031 4.25 -1.03125 Z M 4.375 -1.03125 "/></g></g><g transform="translate(153.59246, 27.449998)"><g><path d="M 4.375 -1.03125 L 4.671875 -0.34375 C 4.523438 -0.1875 4.328125 -0.0703125 4.078125 0 C 3.828125 0.0820312 3.554688 0.125 3.265625 0.125 C 2.035156 0.125 1.421875 -0.5 1.421875 -1.75 L 1.421875 -5.6875 L 0.296875 -5.6875 L 0.296875 -6.46875 L 1.421875 -6.46875 L 1.421875 -7.828125 L 2.375 -8 L 2.375 -6.46875 L 4.453125 -6.46875 L 4.453125 -5.6875 L 2.375 -5.6875 L 2.375 -1.84375 C 2.375 -1.101562 2.695312 -0.734375 3.34375 -0.734375 C 3.695312 -0.734375 4 -0.832031 4.25 -1.03125 Z M 4.375 -1.03125 "/></g></g><g transform="translate(158.514335, 27.449998)"><g><path d="M 6.15625 -3.015625 L 1.71875 -3.015625 C 1.75 -2.222656 1.9375 -1.644531 2.28125 -1.28125 C 2.632812 -0.914062 3.113281 -0.734375 3.71875 -0.734375 C 4.175781 -0.734375 4.546875 -0.8125 4.828125 -0.96875 C 5.109375 -1.132812 5.332031 -1.394531 5.5 -1.75 L 5.625 -1.75 L 6.234375 -1.390625 C 6.046875 -0.921875 5.742188 -0.550781 5.328125 -0.28125 C 4.921875 -0.0078125 4.382812 0.125 3.71875 0.125 C 3.09375 0.125 2.554688 0.00390625 2.109375 -0.234375 C 1.660156 -0.484375 1.3125 -0.859375 1.0625 -1.359375 C 0.820312 -1.859375 0.703125 -2.484375 0.703125 -3.234375 C 0.703125 -3.960938 0.832031 -4.578125 1.09375 -5.078125 C 1.351562 -5.585938 1.703125 -5.96875 2.140625 -6.21875 C 2.585938 -6.46875 3.09375 -6.59375 3.65625 -6.59375 C 4.488281 -6.59375 5.132812 -6.359375 5.59375 -5.890625 C 6.0625 -5.421875 6.300781 -4.726562 6.3125 -3.8125 C 6.3125 -3.445312 6.300781 -3.203125 6.28125 -3.078125 Z M 5.359375 -3.8125 C 5.347656 -4.5 5.195312 -5 4.90625 -5.3125 C 4.613281 -5.625 4.195312 -5.78125 3.65625 -5.78125 C 3.09375 -5.78125 2.648438 -5.617188 2.328125 -5.296875 C 2.003906 -4.984375 1.804688 -4.488281 1.734375 -3.8125 Z M 5.359375 -3.8125 "/></g></g><g transform="translate(165.404959, 27.449998)"><g><path d="M 1.125 0 L 1.125 -6.46875 L 2.03125 -6.46875 L 2.03125 -5.453125 L 2.15625 -5.421875 C 2.457031 -6.148438 3.023438 -6.515625 3.859375 -6.515625 C 4.296875 -6.515625 4.625 -6.4375 4.84375 -6.28125 L 4.59375 -5.46875 L 4.484375 -5.453125 C 4.242188 -5.566406 3.976562 -5.625 3.6875 -5.625 C 3.164062 -5.625 2.765625 -5.429688 2.484375 -5.046875 C 2.210938 -4.660156 2.078125 -4.035156 2.078125 -3.171875 L 2.078125 0 Z M 1.125 0 "/></g></g><g transform="translate(170.397147, 27.449998)"><g><path d="M 1.296875 2.75 C 1.078125 2.75 0.875 2.726562 0.6875 2.6875 C 0.5 2.644531 0.332031 2.59375 0.1875 2.53125 L 0.375 1.78125 L 0.46875 1.734375 C 0.5625 1.785156 0.675781 1.828125 0.8125 1.859375 C 0.957031 1.890625 1.109375 1.90625 1.265625 1.90625 C 1.523438 1.90625 1.738281 1.867188 1.90625 1.796875 C 2.082031 1.734375 2.226562 1.617188 2.34375 1.453125 C 2.46875 1.296875 2.585938 1.070312 2.703125 0.78125 L 2.921875 0.15625 L 0.328125 -6.46875 L 1.359375 -6.46875 L 3.390625 -1.1875 L 3.5 -1.1875 L 5.46875 -6.46875 L 6.453125 -6.46875 L 3.5625 1.015625 C 3.394531 1.429688 3.207031 1.765625 3 2.015625 C 2.800781 2.265625 2.5625 2.445312 2.28125 2.5625 C 2.007812 2.6875 1.679688 2.75 1.296875 2.75 Z M 1.296875 2.75 "/></g></g></g><g fill="#000000" fill-opacity="1"><g transform="translate(431.838102, 27.449998)"><g><path d="M 7.71875 0 L 6.640625 0 L 5.84375 -2.34375 L 2.1875 -2.34375 L 1.390625 0 L 0.34375 0 L 3.328125 -8.5625 L 4.71875 -8.5625 Z M 3.9375 -7.53125 L 2.46875 -3.1875 L 5.5625 -3.1875 L 4.09375 -7.53125 Z M 3.9375 -7.53125 "/></g></g><g transform="translate(439.888883, 27.449998)"><g><path d="M 1.125 0 L 1.125 -6.46875 L 2.03125 -6.46875 L 2.03125 -5.515625 L 2.15625 -5.484375 C 2.375 -5.847656 2.640625 -6.125 2.953125 -6.3125 C 3.265625 -6.5 3.632812 -6.59375 4.0625 -6.59375 C 4.5625 -6.59375 4.945312 -6.492188 5.21875 -6.296875 C 5.5 -6.109375 5.710938 -5.804688 5.859375 -5.390625 L 5.984375 -5.390625 C 6.210938 -5.785156 6.488281 -6.082031 6.8125 -6.28125 C 7.132812 -6.488281 7.535156 -6.59375 8.015625 -6.59375 C 8.679688 -6.59375 9.175781 -6.410156 9.5 -6.046875 C 9.820312 -5.691406 9.984375 -5.144531 9.984375 -4.40625 L 9.984375 0 L 9.03125 0 L 9.03125 -4.390625 C 9.03125 -4.859375 8.929688 -5.203125 8.734375 -5.421875 C 8.535156 -5.640625 8.21875 -5.75 7.78125 -5.75 C 7.269531 -5.75 6.847656 -5.5625 6.515625 -5.1875 C 6.191406 -4.8125 6.03125 -4.195312 6.03125 -3.34375 L 6.03125 0 L 5.078125 0 L 5.078125 -4.390625 C 5.078125 -4.859375 4.976562 -5.203125 4.78125 -5.421875 C 4.582031 -5.640625 4.265625 -5.75 3.828125 -5.75 C 3.316406 -5.75 2.894531 -5.566406 2.5625 -5.203125 C 2.238281 -4.847656 2.078125 -4.257812 2.078125 -3.4375 L 2.078125 0 Z M 1.125 0 "/></g></g><g transform="translate(450.904507, 27.449998)"><g><path d="M 1.125 2.625 L 1.125 -6.46875 L 2.078125 -6.46875 L 2.078125 -5.5 L 2.203125 -5.46875 C 2.679688 -6.21875 3.382812 -6.59375 4.3125 -6.59375 C 4.851562 -6.59375 5.320312 -6.46875 5.71875 -6.21875 C 6.125 -5.96875 6.4375 -5.59375 6.65625 -5.09375 C 6.882812 -4.59375 7 -3.972656 7 -3.234375 C 7 -2.492188 6.878906 -1.875 6.640625 -1.375 C 6.410156 -0.875 6.085938 -0.5 5.671875 -0.25 C 5.265625 0 4.789062 0.125 4.25 0.125 C 3.8125 0.125 3.421875 0.0507812 3.078125 -0.09375 C 2.742188 -0.25 2.453125 -0.503906 2.203125 -0.859375 L 2.078125 -0.828125 L 2.078125 2.625 Z M 4.03125 -0.734375 C 5.34375 -0.734375 6 -1.566406 6 -3.234375 C 6 -4.898438 5.34375 -5.734375 4.03125 -5.734375 C 3.65625 -5.734375 3.316406 -5.644531 3.015625 -5.46875 C 2.722656 -5.289062 2.492188 -5.015625 2.328125 -4.640625 C 2.160156 -4.265625 2.078125 -3.796875 2.078125 -3.234375 C 2.078125 -2.660156 2.160156 -2.1875 2.328125 -1.8125 C 2.492188 -1.445312 2.722656 -1.175781 3.015625 -1 C 3.316406 -0.820312 3.65625 -0.734375 4.03125 -0.734375 Z M 4.03125 -0.734375 "/></g></g><g transform="translate(458.615444, 27.449998)"><g><path d="M 2.578125 0.125 C 2.117188 0.125 1.757812 -0.00390625 1.5 -0.265625 C 1.238281 -0.523438 1.109375 -0.914062 1.109375 -1.4375 L 1.109375 -9.0625 L 2.0625 -9.0625 L 2.0625 -1.5 C 2.0625 -1.226562 2.113281 -1.03125 2.21875 -0.90625 C 2.320312 -0.789062 2.484375 -0.734375 2.703125 -0.734375 C 2.828125 -0.734375 2.957031 -0.753906 3.09375 -0.796875 L 3.1875 -0.78125 L 3.296875 -0.03125 C 3.222656 0.0195312 3.117188 0.0546875 2.984375 0.078125 C 2.859375 0.109375 2.722656 0.125 2.578125 0.125 Z M 2.578125 0.125 "/></g></g><g transform="translate(462.131068, 27.449998)"><g><path d="M 6.15625 -3.015625 L 1.71875 -3.015625 C 1.75 -2.222656 1.9375 -1.644531 2.28125 -1.28125 C 2.632812 -0.914062 3.113281 -0.734375 3.71875 -0.734375 C 4.175781 -0.734375 4.546875 -0.8125 4.828125 -0.96875 C 5.109375 -1.132812 5.332031 -1.394531 5.5 -1.75 L 5.625 -1.75 L 6.234375 -1.390625 C 6.046875 -0.921875 5.742188 -0.550781 5.328125 -0.28125 C 4.921875 -0.0078125 4.382812 0.125 3.71875 0.125 C 3.09375 0.125 2.554688 0.00390625 2.109375 -0.234375 C 1.660156 -0.484375 1.3125 -0.859375 1.0625 -1.359375 C 0.820312 -1.859375 0.703125 -2.484375 0.703125 -3.234375 C 0.703125 -3.960938 0.832031 -4.578125 1.09375 -5.078125 C 1.351562 -5.585938 1.703125 -5.96875 2.140625 -6.21875 C 2.585938 -6.46875 3.09375 -6.59375 3.65625 -6.59375 C 4.488281 -6.59375 5.132812 -6.359375 5.59375 -5.890625 C 6.0625 -5.421875 6.300781 -4.726562 6.3125 -3.8125 C 6.3125 -3.445312 6.300781 -3.203125 6.28125 -3.078125 Z M 5.359375 -3.8125 C 5.347656 -4.5 5.195312 -5 4.90625 -5.3125 C 4.613281 -5.625 4.195312 -5.78125 3.65625 -5.78125 C 3.09375 -5.78125 2.648438 -5.617188 2.328125 -5.296875 C 2.003906 -4.984375 1.804688 -4.488281 1.734375 -3.8125 Z M 5.359375 -3.8125 "/></g></g><g transform="translate(469.021693, 27.449998)"><g/></g><g transform="translate(471.963099, 27.449998)"><g><path d="M 4.734375 0.125 C 3.984375 0.125 3.316406 -0.046875 2.734375 -0.390625 C 2.148438 -0.734375 1.691406 -1.234375 1.359375 -1.890625 C 1.023438 -2.554688 0.859375 -3.351562 0.859375 -4.28125 C 0.859375 -5.207031 1.023438 -6 1.359375 -6.65625 C 1.691406 -7.320312 2.148438 -7.828125 2.734375 -8.171875 C 3.316406 -8.515625 3.984375 -8.6875 4.734375 -8.6875 C 5.535156 -8.6875 6.203125 -8.535156 6.734375 -8.234375 C 7.265625 -7.929688 7.644531 -7.476562 7.875 -6.875 L 7.234375 -6.4375 L 7.09375 -6.4375 C 6.851562 -6.925781 6.546875 -7.269531 6.171875 -7.46875 C 5.796875 -7.675781 5.316406 -7.78125 4.734375 -7.78125 C 4.191406 -7.78125 3.710938 -7.660156 3.296875 -7.421875 C 2.878906 -7.179688 2.546875 -6.800781 2.296875 -6.28125 C 2.054688 -5.757812 1.9375 -5.09375 1.9375 -4.28125 C 1.9375 -3.46875 2.054688 -2.800781 2.296875 -2.28125 C 2.546875 -1.757812 2.878906 -1.378906 3.296875 -1.140625 C 3.710938 -0.898438 4.191406 -0.78125 4.734375 -0.78125 C 5.359375 -0.78125 5.863281 -0.921875 6.25 -1.203125 C 6.644531 -1.484375 6.941406 -1.9375 7.140625 -2.5625 L 7.28125 -2.5625 L 7.953125 -2.234375 C 7.753906 -1.472656 7.378906 -0.890625 6.828125 -0.484375 C 6.273438 -0.078125 5.578125 0.125 4.734375 0.125 Z M 4.734375 0.125 "/></g></g><g transform="translate(480.365442, 27.449998)"><g><path d="M 3.703125 0.125 C 3.097656 0.125 2.566406 -0.00390625 2.109375 -0.265625 C 1.660156 -0.523438 1.3125 -0.90625 1.0625 -1.40625 C 0.820312 -1.90625 0.703125 -2.515625 0.703125 -3.234375 C 0.703125 -3.941406 0.820312 -4.546875 1.0625 -5.046875 C 1.3125 -5.554688 1.660156 -5.941406 2.109375 -6.203125 C 2.566406 -6.460938 3.097656 -6.59375 3.703125 -6.59375 C 4.316406 -6.59375 4.847656 -6.460938 5.296875 -6.203125 C 5.753906 -5.941406 6.101562 -5.554688 6.34375 -5.046875 C 6.582031 -4.546875 6.703125 -3.941406 6.703125 -3.234375 C 6.703125 -2.515625 6.582031 -1.90625 6.34375 -1.40625 C 6.101562 -0.90625 5.753906 -0.523438 5.296875 -0.265625 C 4.847656 -0.00390625 4.316406 0.125 3.703125 0.125 Z M 3.703125 -0.734375 C 4.347656 -0.734375 4.84375 -0.9375 5.1875 -1.34375 C 5.53125 -1.75 5.703125 -2.378906 5.703125 -3.234375 C 5.703125 -4.085938 5.53125 -4.71875 5.1875 -5.125 C 4.84375 -5.53125 4.347656 -5.734375 3.703125 -5.734375 C 3.066406 -5.734375 2.578125 -5.523438 2.234375 -5.109375 C 1.890625 -4.703125 1.71875 -4.078125 1.71875 -3.234375 C 1.71875 -2.378906 1.890625 -1.75 2.234375 -1.34375 C 2.578125 -0.9375 3.066406 -0.734375 3.703125 -0.734375 Z M 3.703125 -0.734375 "/></g></g><g transform="translate(487.78341, 27.449998)"><g><path d="M 1.125 0 L 1.125 -6.46875 L 2.03125 -6.46875 L 2.03125 -5.453125 L 2.15625 -5.421875 C 2.375 -5.796875 2.648438 -6.082031 2.984375 -6.28125 C 3.316406 -6.488281 3.722656 -6.59375 4.203125 -6.59375 C 4.984375 -6.59375 5.546875 -6.390625 5.890625 -5.984375 C 6.242188 -5.585938 6.421875 -4.976562 6.421875 -4.15625 L 6.421875 0 L 5.46875 0 L 5.46875 -4.140625 C 5.46875 -4.523438 5.414062 -4.835938 5.3125 -5.078125 C 5.207031 -5.316406 5.050781 -5.488281 4.84375 -5.59375 C 4.632812 -5.695312 4.363281 -5.75 4.03125 -5.75 C 3.445312 -5.75 2.972656 -5.554688 2.609375 -5.171875 C 2.253906 -4.785156 2.078125 -4.164062 2.078125 -3.3125 L 2.078125 0 Z M 1.125 0 "/></g></g><g transform="translate(495.224816, 27.449998)"><g><path d="M 4.375 -1.03125 L 4.671875 -0.34375 C 4.523438 -0.1875 4.328125 -0.0703125 4.078125 0 C 3.828125 0.0820312 3.554688 0.125 3.265625 0.125 C 2.035156 0.125 1.421875 -0.5 1.421875 -1.75 L 1.421875 -5.6875 L 0.296875 -5.6875 L 0.296875 -6.46875 L 1.421875 -6.46875 L 1.421875 -7.828125 L 2.375 -8 L 2.375 -6.46875 L 4.453125 -6.46875 L 4.453125 -5.6875 L 2.375 -5.6875 L 2.375 -1.84375 C 2.375 -1.101562 2.695312 -0.734375 3.34375 -0.734375 C 3.695312 -0.734375 4 -0.832031 4.25 -1.03125 Z M 4.375 -1.03125 "/></g></g><g transform="translate(500.14669, 27.449998)"><g><path d="M 6.15625 -3.015625 L 1.71875 -3.015625 C 1.75 -2.222656 1.9375 -1.644531 2.28125 -1.28125 C 2.632812 -0.914062 3.113281 -0.734375 3.71875 -0.734375 C 4.175781 -0.734375 4.546875 -0.8125 4.828125 -0.96875 C 5.109375 -1.132812 5.332031 -1.394531 5.5 -1.75 L 5.625 -1.75 L 6.234375 -1.390625 C 6.046875 -0.921875 5.742188 -0.550781 5.328125 -0.28125 C 4.921875 -0.0078125 4.382812 0.125 3.71875 0.125 C 3.09375 0.125 2.554688 0.00390625 2.109375 -0.234375 C 1.660156 -0.484375 1.3125 -0.859375 1.0625 -1.359375 C 0.820312 -1.859375 0.703125 -2.484375 0.703125 -3.234375 C 0.703125 -3.960938 0.832031 -4.578125 1.09375 -5.078125 C 1.351562 -5.585938 1.703125 -5.96875 2.140625 -6.21875 C 2.585938 -6.46875 3.09375 -6.59375 3.65625 -6.59375 C 4.488281 -6.59375 5.132812 -6.359375 5.59375 -5.890625 C 6.0625 -5.421875 6.300781 -4.726562 6.3125 -3.8125 C 6.3125 -3.445312 6.300781 -3.203125 6.28125 -3.078125 Z M 5.359375 -3.8125 C 5.347656 -4.5 5.195312 -5 4.90625 -5.3125 C 4.613281 -5.625 4.195312 -5.78125 3.65625 -5.78125 C 3.09375 -5.78125 2.648438 -5.617188 2.328125 -5.296875 C 2.003906 -4.984375 1.804688 -4.488281 1.734375 -3.8125 Z M 5.359375 -3.8125 "/></g></g><g transform="translate(507.037315, 27.449998)"><g><path d="M 1.125 0 L 1.125 -6.46875 L 2.03125 -6.46875 L 2.03125 -5.453125 L 2.15625 -5.421875 C 2.375 -5.796875 2.648438 -6.082031 2.984375 -6.28125 C 3.316406 -6.488281 3.722656 -6.59375 4.203125 -6.59375 C 4.984375 -6.59375 5.546875 -6.390625 5.890625 -5.984375 C 6.242188 -5.585938 6.421875 -4.976562 6.421875 -4.15625 L 6.421875 0 L 5.46875 0 L 5.46875 -4.140625 C 5.46875 -4.523438 5.414062 -4.835938 5.3125 -5.078125 C 5.207031 -5.316406 5.050781 -5.488281 4.84375 -5.59375 C 4.632812 -5.695312 4.363281 -5.75 4.03125 -5.75 C 3.445312 -5.75 2.972656 -5.554688 2.609375 -5.171875 C 2.253906 -4.785156 2.078125 -4.164062 2.078125 -3.3125 L 2.078125 0 Z M 1.125 0 "/></g></g><g transform="translate(514.47872, 27.449998)"><g><path d="M 4.375 -1.03125 L 4.671875 -0.34375 C 4.523438 -0.1875 4.328125 -0.0703125 4.078125 0 C 3.828125 0.0820312 3.554688 0.125 3.265625 0.125 C 2.035156 0.125 1.421875 -0.5 1.421875 -1.75 L 1.421875 -5.6875 L 0.296875 -5.6875 L 0.296875 -6.46875 L 1.421875 -6.46875 L 1.421875 -7.828125 L 2.375 -8 L 2.375 -6.46875 L 4.453125 -6.46875 L 4.453125 -5.6875 L 2.375 -5.6875 L 2.375 -1.84375 C 2.375 -1.101562 2.695312 -0.734375 3.34375 -0.734375 C 3.695312 -0.734375 4 -0.832031 4.25 -1.03125 Z M 4.375 -1.03125 "/></g></g></g><g fill="#000000" fill-opacity="1"><g transform="translate(352.163713, 27.449998)"><g><path d="M 3.75 0.125 C 3.207031 0.125 2.722656 0.0507812 2.296875 -0.09375 C 1.867188 -0.238281 1.507812 -0.429688 1.21875 -0.671875 C 0.9375 -0.910156 0.726562 -1.171875 0.59375 -1.453125 L 1.140625 -2.125 L 1.28125 -2.125 C 1.8125 -1.226562 2.632812 -0.78125 3.75 -0.78125 C 4.394531 -0.78125 4.875 -0.914062 5.1875 -1.1875 C 5.5 -1.457031 5.65625 -1.832031 5.65625 -2.3125 C 5.65625 -2.59375 5.601562 -2.832031 5.5 -3.03125 C 5.394531 -3.226562 5.222656 -3.394531 4.984375 -3.53125 C 4.742188 -3.664062 4.421875 -3.785156 4.015625 -3.890625 L 3.015625 -4.140625 C 2.265625 -4.316406 1.710938 -4.597656 1.359375 -4.984375 C 1.003906 -5.378906 0.828125 -5.878906 0.828125 -6.484375 C 0.828125 -6.910156 0.9375 -7.289062 1.15625 -7.625 C 1.375 -7.957031 1.691406 -8.21875 2.109375 -8.40625 C 2.535156 -8.59375 3.046875 -8.6875 3.640625 -8.6875 C 4.273438 -8.6875 4.816406 -8.59375 5.265625 -8.40625 C 5.710938 -8.226562 6.066406 -7.957031 6.328125 -7.59375 L 5.84375 -6.9375 L 5.6875 -6.9375 C 5.445312 -7.238281 5.15625 -7.457031 4.8125 -7.59375 C 4.476562 -7.738281 4.085938 -7.8125 3.640625 -7.8125 C 3.046875 -7.8125 2.59375 -7.695312 2.28125 -7.46875 C 1.976562 -7.238281 1.828125 -6.921875 1.828125 -6.515625 C 1.828125 -6.128906 1.9375 -5.820312 2.15625 -5.59375 C 2.382812 -5.363281 2.765625 -5.1875 3.296875 -5.0625 L 4.3125 -4.8125 C 5.144531 -4.613281 5.75 -4.3125 6.125 -3.90625 C 6.5 -3.507812 6.6875 -2.992188 6.6875 -2.359375 C 6.6875 -1.878906 6.578125 -1.453125 6.359375 -1.078125 C 6.140625 -0.703125 5.8125 -0.40625 5.375 -0.1875 C 4.9375 0.0195312 4.394531 0.125 3.75 0.125 Z M 3.75 0.125 "/></g></g><g transform="translate(359.505509, 27.449998)"><g><path d="M 6.15625 -3.015625 L 1.71875 -3.015625 C 1.75 -2.222656 1.9375 -1.644531 2.28125 -1.28125 C 2.632812 -0.914062 3.113281 -0.734375 3.71875 -0.734375 C 4.175781 -0.734375 4.546875 -0.8125 4.828125 -0.96875 C 5.109375 -1.132812 5.332031 -1.394531 5.5 -1.75 L 5.625 -1.75 L 6.234375 -1.390625 C 6.046875 -0.921875 5.742188 -0.550781 5.328125 -0.28125 C 4.921875 -0.0078125 4.382812 0.125 3.71875 0.125 C 3.09375 0.125 2.554688 0.00390625 2.109375 -0.234375 C 1.660156 -0.484375 1.3125 -0.859375 1.0625 -1.359375 C 0.820312 -1.859375 0.703125 -2.484375 0.703125 -3.234375 C 0.703125 -3.960938 0.832031 -4.578125 1.09375 -5.078125 C 1.351562 -5.585938 1.703125 -5.96875 2.140625 -6.21875 C 2.585938 -6.46875 3.09375 -6.59375 3.65625 -6.59375 C 4.488281 -6.59375 5.132812 -6.359375 5.59375 -5.890625 C 6.0625 -5.421875 6.300781 -4.726562 6.3125 -3.8125 C 6.3125 -3.445312 6.300781 -3.203125 6.28125 -3.078125 Z M 5.359375 -3.8125 C 5.347656 -4.5 5.195312 -5 4.90625 -5.3125 C 4.613281 -5.625 4.195312 -5.78125 3.65625 -5.78125 C 3.09375 -5.78125 2.648438 -5.617188 2.328125 -5.296875 C 2.003906 -4.984375 1.804688 -4.488281 1.734375 -3.8125 Z M 5.359375 -3.8125 "/></g></g><g transform="translate(366.396133, 27.449998)"><g><path d="M 1.125 0 L 1.125 -6.46875 L 2.03125 -6.46875 L 2.03125 -5.453125 L 2.15625 -5.421875 C 2.457031 -6.148438 3.023438 -6.515625 3.859375 -6.515625 C 4.296875 -6.515625 4.625 -6.4375 4.84375 -6.28125 L 4.59375 -5.46875 L 4.484375 -5.453125 C 4.242188 -5.566406 3.976562 -5.625 3.6875 -5.625 C 3.164062 -5.625 2.765625 -5.429688 2.484375 -5.046875 C 2.210938 -4.660156 2.078125 -4.035156 2.078125 -3.171875 L 2.078125 0 Z M 1.125 0 "/></g></g><g transform="translate(371.388321, 27.449998)"><g><path d="M 4.09375 0 L 2.78125 0 L 0.3125 -6.46875 L 1.34375 -6.46875 L 3.375 -1.09375 L 3.515625 -1.09375 L 5.53125 -6.46875 L 6.546875 -6.46875 Z M 4.09375 0 "/></g></g><g transform="translate(378.237929, 27.449998)"><g><path d="M 6.15625 -3.015625 L 1.71875 -3.015625 C 1.75 -2.222656 1.9375 -1.644531 2.28125 -1.28125 C 2.632812 -0.914062 3.113281 -0.734375 3.71875 -0.734375 C 4.175781 -0.734375 4.546875 -0.8125 4.828125 -0.96875 C 5.109375 -1.132812 5.332031 -1.394531 5.5 -1.75 L 5.625 -1.75 L 6.234375 -1.390625 C 6.046875 -0.921875 5.742188 -0.550781 5.328125 -0.28125 C 4.921875 -0.0078125 4.382812 0.125 3.71875 0.125 C 3.09375 0.125 2.554688 0.00390625 2.109375 -0.234375 C 1.660156 -0.484375 1.3125 -0.859375 1.0625 -1.359375 C 0.820312 -1.859375 0.703125 -2.484375 0.703125 -3.234375 C 0.703125 -3.960938 0.832031 -4.578125 1.09375 -5.078125 C 1.351562 -5.585938 1.703125 -5.96875 2.140625 -6.21875 C 2.585938 -6.46875 3.09375 -6.59375 3.65625 -6.59375 C 4.488281 -6.59375 5.132812 -6.359375 5.59375 -5.890625 C 6.0625 -5.421875 6.300781 -4.726562 6.3125 -3.8125 C 6.3125 -3.445312 6.300781 -3.203125 6.28125 -3.078125 Z M 5.359375 -3.8125 C 5.347656 -4.5 5.195312 -5 4.90625 -5.3125 C 4.613281 -5.625 4.195312 -5.78125 3.65625 -5.78125 C 3.09375 -5.78125 2.648438 -5.617188 2.328125 -5.296875 C 2.003906 -4.984375 1.804688 -4.488281 1.734375 -3.8125 Z M 5.359375 -3.8125 "/></g></g><g transform="translate(385.128554, 27.449998)"><g><path d="M 1.125 0 L 1.125 -6.46875 L 2.03125 -6.46875 L 2.03125 -5.453125 L 2.15625 -5.421875 C 2.457031 -6.148438 3.023438 -6.515625 3.859375 -6.515625 C 4.296875 -6.515625 4.625 -6.4375 4.84375 -6.28125 L 4.59375 -5.46875 L 4.484375 -5.453125 C 4.242188 -5.566406 3.976562 -5.625 3.6875 -5.625 C 3.164062 -5.625 2.765625 -5.429688 2.484375 -5.046875 C 2.210938 -4.660156 2.078125 -4.035156 2.078125 -3.171875 L 2.078125 0 Z M 1.125 0 "/></g></g></g><path stroke-linecap="butt" transform="matrix(-0.499332, 0.556664, -0.5583, -0.5008, 368.268993, 130.505248)" fill="none" stroke-linejoin="miter" d="M 0.000301159 1.999818 L 90.306668 2.001359 " stroke="#000000" stroke-width="4" stroke-opacity="1" stroke-miterlimit="4"/><path stroke-linecap="round" transform="matrix(-0.499332, 0.556664, -0.5583, -0.5008, 368.268993, 130.505248)" fill-opacity="1" fill="#000000" fill-rule="nonzero" stroke-linejoin="round" d="M 91.306723 -4.000648 L 99.306792 1.998017 L 91.304271 8.000856 Z M 91.306723 -4.000648 " stroke="#000000" stroke-width="4" stroke-opacity="1" stroke-miterlimit="4"/></svg>