<svg xmlns="http://www.w3.org/2000/svg" xmlns:xlink="http://www.w3.org/1999/xlink" width="300" zoomAndPan="magnify" viewBox="0 0 224.87999 112.499997" height="150" preserveAspectRatio="xMidYMid meet" version="1.0"><defs><g/><clipPath id="1c9374bab1"><path d="M 92.792969 59.253906 L 131.886719 59.253906 L 131.886719 81.648438 L 92.792969 81.648438 Z M 92.792969 59.253906 " clip-rule="nonzero"/></clipPath><clipPath id="c4bb9c7455"><path d="M 105.691406 7.652344 L 122.210938 7.652344 L 122.210938 30.054688 L 105.691406 30.054688 Z M 105.691406 7.652344 " clip-rule="nonzero"/></clipPath><clipPath id="3d7034e9b1"><path d="M 64.265625 14 L 75 14 L 75 24 L 64.265625 24 Z M 64.265625 14 " clip-rule="nonzero"/></clipPath><clipPath id="af848ec0e7"><path d="M 85 17 L 86.664062 17 L 86.664062 21 L 85 21 Z M 85 17 " clip-rule="nonzero"/></clipPath><clipPath id="0da47a0766"><path d="M 71 12.136719 L 78 12.136719 L 78 25.574219 L 71 25.574219 Z M 71 12.136719 " clip-rule="nonzero"/></clipPath><clipPath id="94d2b0ee8f"><path d="M 179.925781 8.519531 L 202.328125 8.519531 L 202.328125 29.242188 L 179.925781 29.242188 Z M 179.925781 8.519531 " clip-rule="nonzero"/></clipPath><clipPath id="7c9983c479"><path d="M 22.554688 7.320312 L 45 7.320312 L 45 29.71875 L 22.554688 29.71875 Z M 22.554688 7.320312 " clip-rule="nonzero"/></clipPath><clipPath id="6cca11cb2e"><path d="M 141.269531 7.652344 L 160.867188 7.652344 L 160.867188 30.054688 L 141.269531 30.054688 Z M 141.269531 7.652344 " clip-rule="nonzero"/></clipPath><clipPath id="ba2252e54d"><path d="M 52.175781 16.253906 L 57.21875 16.253906 L 57.21875 21.292969 L 52.175781 21.292969 Z M 52.175781 16.253906 " clip-rule="nonzero"/></clipPath><clipPath id="82911e3acc"><path d="M 129.242188 16.253906 L 134.28125 16.253906 L 134.28125 21.292969 L 129.242188 21.292969 Z M 129.242188 16.253906 " clip-rule="nonzero"/></clipPath><clipPath id="aa5dee9780"><path d="M 167.898438 16.253906 L 172.9375 16.253906 L 172.9375 21.292969 L 167.898438 21.292969 Z M 167.898438 16.253906 " clip-rule="nonzero"/></clipPath><clipPath id="c357bdac25"><path d="M 93.664062 16.28125 L 98.707031 16.28125 L 98.707031 21.320312 L 93.664062 21.320312 Z M 93.664062 16.28125 " clip-rule="nonzero"/></clipPath></defs><g clip-path="url(#1c9374bab1)"><path fill="#000000" d="M 130.3125 80.882812 L 94.367188 80.882812 C 93.921875 80.882812 93.558594 80.519531 93.558594 80.078125 L 93.558594 68.449219 L 110.277344 68.449219 L 110.277344 71.539062 L 114.394531 71.539062 L 114.394531 71.160156 C 114.394531 71.160156 114.394531 71.15625 114.394531 71.15625 L 114.394531 68.449219 L 131.121094 68.449219 L 131.121094 80.078125 C 131.121094 80.519531 130.757812 80.882812 130.3125 80.882812 Z M 111.042969 66.328125 L 113.628906 66.328125 L 113.628906 70.773438 L 111.042969 70.773438 Z M 94.367188 63.886719 L 130.3125 63.886719 C 130.757812 63.886719 131.121094 64.25 131.121094 64.691406 L 131.121094 67.6875 L 114.394531 67.6875 L 114.394531 65.945312 C 114.394531 65.941406 114.394531 65.941406 114.394531 65.941406 L 114.394531 65.5625 L 114.015625 65.5625 C 114.015625 65.5625 114.015625 65.5625 114.011719 65.5625 L 110.660156 65.5625 C 110.65625 65.5625 110.65625 65.5625 110.65625 65.5625 L 110.277344 65.5625 L 110.277344 67.6875 L 93.558594 67.6875 L 93.558594 64.691406 C 93.558594 64.25 93.921875 63.886719 94.367188 63.886719 Z M 106.59375 61.394531 C 106.59375 60.636719 107.210938 60.023438 107.96875 60.023438 L 116.710938 60.023438 C 117.46875 60.023438 118.085938 60.636719 118.085938 61.394531 L 118.085938 63.121094 L 106.59375 63.121094 Z M 130.3125 63.121094 L 118.851562 63.121094 L 118.851562 61.394531 C 118.851562 60.214844 117.890625 59.257812 116.710938 59.257812 L 107.96875 59.257812 C 106.789062 59.257812 105.828125 60.214844 105.828125 61.394531 L 105.828125 63.121094 L 94.367188 63.121094 C 93.5 63.121094 92.792969 63.824219 92.792969 64.691406 L 92.792969 80.078125 C 92.792969 80.945312 93.5 81.648438 94.367188 81.648438 L 130.3125 81.648438 C 131.179688 81.648438 131.886719 80.945312 131.886719 80.078125 L 131.886719 64.691406 C 131.886719 63.824219 131.179688 63.121094 130.3125 63.121094 " fill-opacity="1" fill-rule="nonzero"/></g><g clip-path="url(#c4bb9c7455)"><path fill="#000000" d="M 106.875 7.652344 L 121.03125 7.652344 C 121.652344 7.652344 122.152344 8.152344 122.152344 8.777344 L 122.152344 28.929688 C 122.152344 29.550781 121.65625 30.054688 121.03125 30.054688 L 106.875 30.054688 C 106.253906 30.054688 105.753906 29.554688 105.753906 28.929688 L 105.753906 8.777344 C 105.753906 8.15625 106.25 7.652344 106.875 7.652344 Z M 106.496094 27.066406 L 121.40625 27.066406 L 121.40625 9.894531 L 106.496094 9.894531 Z M 113.953125 9.148438 C 114.160156 9.148438 114.324219 8.980469 114.324219 8.773438 C 114.324219 8.566406 114.160156 8.398438 113.953125 8.398438 C 113.746094 8.398438 113.578125 8.566406 113.578125 8.773438 C 113.578125 8.980469 113.746094 9.148438 113.953125 9.148438 Z M 113.953125 29.308594 C 114.363281 29.308594 114.699219 28.972656 114.699219 28.558594 C 114.699219 28.148438 114.363281 27.8125 113.953125 27.8125 C 113.539062 27.8125 113.207031 28.148438 113.207031 28.558594 C 113.207031 28.972656 113.539062 29.308594 113.953125 29.308594 Z M 113.953125 29.308594 " fill-opacity="1" fill-rule="evenodd"/></g><g clip-path="url(#3d7034e9b1)"><path fill="#100f0d" d="M 65.878906 22.757812 C 65.390625 22.757812 64.996094 22.359375 64.996094 21.871094 L 64.996094 15.835938 C 64.996094 15.347656 65.390625 14.949219 65.878906 14.949219 L 72.496094 14.949219 L 72.734375 14.214844 L 65.878906 14.214844 C 64.988281 14.214844 64.265625 14.941406 64.265625 15.835938 L 64.265625 21.871094 C 64.265625 22.765625 64.988281 23.492188 65.878906 23.492188 L 74.167969 23.492188 L 74.167969 22.757812 L 65.878906 22.757812 " fill-opacity="1" fill-rule="nonzero"/></g><path fill="#100f0d" d="M 83.578125 14.214844 L 75.292969 14.214844 L 75.292969 14.949219 L 83.578125 14.949219 C 84.066406 14.949219 84.464844 15.347656 84.464844 15.835938 L 84.464844 21.871094 C 84.464844 22.359375 84.066406 22.757812 83.578125 22.757812 L 76.964844 22.757812 L 76.726562 23.492188 L 83.578125 23.492188 C 84.472656 23.492188 85.195312 22.765625 85.195312 21.871094 L 85.195312 15.835938 C 85.195312 14.941406 84.472656 14.214844 83.578125 14.214844 " fill-opacity="1" fill-rule="nonzero"/><path fill="#100f0d" d="M 65.359375 15.835938 L 65.359375 21.871094 C 65.359375 22.160156 65.59375 22.394531 65.878906 22.394531 L 74.167969 22.394531 L 74.167969 20.71875 L 71.863281 20.71875 C 71.566406 20.71875 71.292969 20.574219 71.121094 20.335938 C 70.949219 20.097656 70.902344 19.792969 70.996094 19.511719 L 72.375 15.3125 L 65.878906 15.3125 C 65.59375 15.3125 65.359375 15.546875 65.359375 15.835938 " fill-opacity="1" fill-rule="nonzero"/><path fill="#100f0d" d="M 84.101562 21.871094 L 84.101562 15.835938 C 84.101562 15.546875 83.867188 15.3125 83.578125 15.3125 L 75.292969 15.3125 L 75.292969 16.988281 L 77.597656 16.988281 C 77.890625 16.988281 78.167969 17.132812 78.339844 17.371094 C 78.511719 17.609375 78.558594 17.914062 78.464844 18.195312 L 77.085938 22.394531 L 83.578125 22.394531 C 83.867188 22.394531 84.101562 22.160156 84.101562 21.871094 " fill-opacity="1" fill-rule="nonzero"/><g clip-path="url(#af848ec0e7)"><path fill="#100f0d" d="M 85.992188 17.398438 L 85.40625 17.398438 L 85.40625 20.308594 L 85.992188 20.308594 C 86.363281 20.308594 86.664062 20.003906 86.664062 19.632812 L 86.664062 18.074219 C 86.664062 17.703125 86.363281 17.398438 85.992188 17.398438 " fill-opacity="1" fill-rule="nonzero"/></g><g clip-path="url(#0da47a0766)"><path fill="#100f0d" d="M 77.597656 17.90625 L 74.378906 17.90625 L 74.378906 12.136719 L 71.863281 19.800781 C 72.578125 19.800781 74.292969 19.800781 75.082031 19.800781 L 75.082031 25.570312 L 77.597656 17.90625 " fill-opacity="1" fill-rule="nonzero"/></g><g clip-path="url(#94d2b0ee8f)"><path fill="#000000" d="M 201.277344 8.527344 L 180.976562 8.527344 C 180.398438 8.527344 179.925781 9 179.925781 9.582031 L 179.925781 28.183594 C 179.925781 28.761719 180.398438 29.234375 180.976562 29.234375 L 201.277344 29.234375 C 201.855469 29.234375 202.328125 28.761719 202.328125 28.183594 L 202.328125 9.582031 C 202.328125 9 201.855469 8.527344 201.277344 8.527344 Z M 201.625 28.183594 C 201.625 28.375 201.46875 28.53125 201.277344 28.53125 L 180.976562 28.53125 C 180.785156 28.53125 180.625 28.375 180.625 28.183594 L 180.625 12.039062 L 201.625 12.039062 Z M 201.625 11.335938 L 180.625 11.335938 L 180.625 9.582031 C 180.625 9.386719 180.785156 9.230469 180.976562 9.230469 L 201.277344 9.230469 C 201.46875 9.230469 201.625 9.386719 201.625 9.582031 Z M 201.625 11.335938 " fill-opacity="1" fill-rule="nonzero"/></g><path fill="#000000" d="M 182.375 10.28125 C 182.375 10.378906 182.34375 10.460938 182.273438 10.53125 C 182.207031 10.597656 182.121094 10.632812 182.027344 10.632812 C 181.929688 10.632812 181.847656 10.597656 181.777344 10.53125 C 181.710938 10.460938 181.675781 10.378906 181.675781 10.28125 C 181.675781 10.1875 181.710938 10.101562 181.777344 10.035156 C 181.847656 9.964844 181.929688 9.933594 182.027344 9.933594 C 182.121094 9.933594 182.207031 9.964844 182.273438 10.035156 C 182.34375 10.101562 182.375 10.1875 182.375 10.28125 Z M 182.375 10.28125 " fill-opacity="1" fill-rule="nonzero"/><path fill="#000000" d="M 183.777344 10.28125 C 183.777344 10.378906 183.742188 10.460938 183.671875 10.53125 C 183.605469 10.597656 183.523438 10.632812 183.425781 10.632812 C 183.328125 10.632812 183.246094 10.597656 183.179688 10.53125 C 183.109375 10.460938 183.074219 10.378906 183.074219 10.28125 C 183.074219 10.1875 183.109375 10.101562 183.179688 10.035156 C 183.246094 9.964844 183.328125 9.933594 183.425781 9.933594 C 183.523438 9.933594 183.605469 9.964844 183.671875 10.035156 C 183.742188 10.101562 183.777344 10.1875 183.777344 10.28125 Z M 183.777344 10.28125 " fill-opacity="1" fill-rule="nonzero"/><path fill="#000000" d="M 185.175781 10.28125 C 185.175781 10.378906 185.140625 10.460938 185.074219 10.53125 C 185.003906 10.597656 184.921875 10.632812 184.824219 10.632812 C 184.730469 10.632812 184.648438 10.597656 184.578125 10.53125 C 184.511719 10.460938 184.476562 10.378906 184.476562 10.28125 C 184.476562 10.1875 184.511719 10.101562 184.578125 10.035156 C 184.648438 9.964844 184.730469 9.933594 184.824219 9.933594 C 184.921875 9.933594 185.003906 9.964844 185.074219 10.035156 C 185.140625 10.101562 185.175781 10.1875 185.175781 10.28125 Z M 185.175781 10.28125 " fill-opacity="1" fill-rule="nonzero"/><path fill="#000000" d="M 182.027344 19.40625 L 200.226562 19.40625 C 200.417969 19.40625 200.578125 19.25 200.578125 19.058594 L 200.578125 13.441406 C 200.578125 13.25 200.417969 13.089844 200.226562 13.089844 L 182.027344 13.089844 C 181.832031 13.089844 181.675781 13.25 181.675781 13.441406 L 181.675781 19.058594 C 181.675781 19.25 181.832031 19.40625 182.027344 19.40625 Z M 182.375 13.792969 L 199.875 13.792969 L 199.875 18.707031 L 182.375 18.707031 Z M 182.375 13.792969 " fill-opacity="1" fill-rule="nonzero"/><path fill="#000000" d="M 182.027344 22.214844 L 183.425781 22.214844 C 183.617188 22.214844 183.777344 22.058594 183.777344 21.863281 L 183.777344 20.460938 C 183.777344 20.269531 183.617188 20.109375 183.425781 20.109375 L 182.027344 20.109375 C 181.832031 20.109375 181.675781 20.269531 181.675781 20.460938 L 181.675781 21.863281 C 181.675781 22.058594 181.832031 22.214844 182.027344 22.214844 Z M 182.375 20.8125 L 183.074219 20.8125 L 183.074219 21.515625 L 182.375 21.515625 Z M 182.375 20.8125 " fill-opacity="1" fill-rule="nonzero"/><path fill="#000000" d="M 190.078125 20.109375 L 184.824219 20.109375 C 184.632812 20.109375 184.476562 20.269531 184.476562 20.460938 C 184.476562 20.652344 184.632812 20.8125 184.824219 20.8125 L 190.078125 20.8125 C 190.269531 20.8125 190.425781 20.652344 190.425781 20.460938 C 190.425781 20.269531 190.269531 20.109375 190.078125 20.109375 Z M 190.078125 20.109375 " fill-opacity="1" fill-rule="nonzero"/><path fill="#000000" d="M 190.078125 21.515625 L 184.824219 21.515625 C 184.632812 21.515625 184.476562 21.671875 184.476562 21.863281 C 184.476562 22.058594 184.632812 22.214844 184.824219 22.214844 L 190.078125 22.214844 C 190.269531 22.214844 190.425781 22.058594 190.425781 21.863281 C 190.425781 21.671875 190.269531 21.515625 190.078125 21.515625 Z M 190.078125 21.515625 " fill-opacity="1" fill-rule="nonzero"/><path fill="#000000" d="M 182.027344 25.023438 L 183.425781 25.023438 C 183.617188 25.023438 183.777344 24.867188 183.777344 24.671875 L 183.777344 23.269531 C 183.777344 23.074219 183.617188 22.917969 183.425781 22.917969 L 182.027344 22.917969 C 181.832031 22.917969 181.675781 23.074219 181.675781 23.269531 L 181.675781 24.671875 C 181.675781 24.867188 181.832031 25.023438 182.027344 25.023438 Z M 182.375 23.621094 L 183.074219 23.621094 L 183.074219 24.320312 L 182.375 24.320312 Z M 182.375 23.621094 " fill-opacity="1" fill-rule="nonzero"/><path fill="#000000" d="M 190.078125 22.917969 L 184.824219 22.917969 C 184.632812 22.917969 184.476562 23.074219 184.476562 23.269531 C 184.476562 23.460938 184.632812 23.621094 184.824219 23.621094 L 190.078125 23.621094 C 190.269531 23.621094 190.425781 23.460938 190.425781 23.269531 C 190.425781 23.074219 190.269531 22.917969 190.078125 22.917969 Z M 190.078125 22.917969 " fill-opacity="1" fill-rule="nonzero"/><path fill="#000000" d="M 190.078125 24.320312 L 184.824219 24.320312 C 184.632812 24.320312 184.476562 24.480469 184.476562 24.671875 C 184.476562 24.867188 184.632812 25.023438 184.824219 25.023438 L 190.078125 25.023438 C 190.269531 25.023438 190.425781 24.867188 190.425781 24.671875 C 190.425781 24.480469 190.269531 24.320312 190.078125 24.320312 Z M 190.078125 24.320312 " fill-opacity="1" fill-rule="nonzero"/><path fill="#000000" d="M 200.226562 20.109375 L 191.476562 20.109375 C 191.285156 20.109375 191.125 20.269531 191.125 20.460938 L 191.125 24.671875 C 191.125 24.867188 191.285156 25.023438 191.476562 25.023438 L 200.226562 25.023438 C 200.417969 25.023438 200.578125 24.867188 200.578125 24.671875 L 200.578125 20.460938 C 200.578125 20.269531 200.417969 20.109375 200.226562 20.109375 Z M 199.875 24.320312 L 191.828125 24.320312 L 191.828125 20.8125 L 199.875 20.8125 Z M 199.875 24.320312 " fill-opacity="1" fill-rule="nonzero"/><path fill="#000000" d="M 182.027344 27.832031 L 183.425781 27.832031 C 183.617188 27.832031 183.777344 27.671875 183.777344 27.480469 L 183.777344 26.078125 C 183.777344 25.882812 183.617188 25.726562 183.425781 25.726562 L 182.027344 25.726562 C 181.832031 25.726562 181.675781 25.882812 181.675781 26.078125 L 181.675781 27.480469 C 181.675781 27.671875 181.832031 27.832031 182.027344 27.832031 Z M 182.375 26.425781 L 183.074219 26.425781 L 183.074219 27.128906 L 182.375 27.128906 Z M 182.375 26.425781 " fill-opacity="1" fill-rule="nonzero"/><path fill="#000000" d="M 190.078125 25.726562 L 184.824219 25.726562 C 184.632812 25.726562 184.476562 25.882812 184.476562 26.078125 C 184.476562 26.269531 184.632812 26.425781 184.824219 26.425781 L 190.078125 26.425781 C 190.269531 26.425781 190.425781 26.269531 190.425781 26.078125 C 190.425781 25.882812 190.269531 25.726562 190.078125 25.726562 Z M 190.078125 25.726562 " fill-opacity="1" fill-rule="nonzero"/><path fill="#000000" d="M 190.078125 27.128906 L 184.824219 27.128906 C 184.632812 27.128906 184.476562 27.289062 184.476562 27.480469 C 184.476562 27.671875 184.632812 27.832031 184.824219 27.832031 L 190.078125 27.832031 C 190.269531 27.832031 190.425781 27.671875 190.425781 27.480469 C 190.425781 27.289062 190.269531 27.128906 190.078125 27.128906 Z M 190.078125 27.128906 " fill-opacity="1" fill-rule="nonzero"/><path fill="#000000" d="M 200.226562 25.726562 L 191.476562 25.726562 C 191.285156 25.726562 191.125 25.882812 191.125 26.078125 L 191.125 27.480469 C 191.125 27.671875 191.285156 27.832031 191.476562 27.832031 L 200.226562 27.832031 C 200.417969 27.832031 200.578125 27.671875 200.578125 27.480469 L 200.578125 26.078125 C 200.578125 25.882812 200.417969 25.726562 200.226562 25.726562 Z M 199.875 27.128906 L 191.828125 27.128906 L 191.828125 26.425781 L 199.875 26.425781 Z M 199.875 27.128906 " fill-opacity="1" fill-rule="nonzero"/><path fill="#000000" d="M 200.226562 9.933594 L 187.101562 9.933594 C 186.910156 9.933594 186.75 10.089844 186.75 10.28125 C 186.75 10.476562 186.910156 10.632812 187.101562 10.632812 L 200.226562 10.632812 C 200.417969 10.632812 200.578125 10.476562 200.578125 10.28125 C 200.578125 10.089844 200.417969 9.933594 200.226562 9.933594 Z M 200.226562 9.933594 " fill-opacity="1" fill-rule="nonzero"/><g clip-path="url(#7c9983c479)"><path fill="#000000" d="M 29.898438 7.320312 C 30.109375 7.320312 30.285156 7.492188 30.285156 7.707031 L 30.285156 8.863281 C 30.285156 9.078125 30.109375 9.25 29.898438 9.25 C 29.683594 9.25 29.511719 9.078125 29.511719 8.863281 L 29.511719 7.707031 C 29.511719 7.492188 29.683594 7.320312 29.898438 7.320312 Z M 29.898438 11.179688 C 27.976562 11.179688 26.421875 12.738281 26.421875 14.65625 C 26.421875 16.578125 27.976562 18.132812 29.898438 18.132812 C 31.816406 18.132812 33.375 16.578125 33.375 14.65625 C 33.375 12.738281 31.816406 11.179688 29.898438 11.179688 Z M 25.648438 14.65625 C 25.648438 12.3125 27.550781 10.410156 29.898438 10.410156 C 32.242188 10.410156 34.144531 12.3125 34.144531 14.65625 C 34.144531 17.003906 32.242188 18.90625 29.898438 18.90625 C 27.550781 18.90625 25.648438 17.003906 25.648438 14.65625 Z M 36.847656 15.042969 C 37.0625 15.042969 37.234375 14.871094 37.234375 14.65625 C 37.234375 14.445312 37.0625 14.269531 36.847656 14.269531 L 35.691406 14.269531 C 35.476562 14.269531 35.304688 14.445312 35.304688 14.65625 C 35.304688 14.871094 35.476562 15.042969 35.691406 15.042969 Z M 35.085938 19.847656 C 34.933594 19.996094 34.691406 19.996094 34.539062 19.847656 L 33.722656 19.027344 C 33.570312 18.875 33.570312 18.632812 33.722656 18.480469 C 33.871094 18.328125 34.117188 18.328125 34.265625 18.480469 L 35.085938 19.300781 C 35.238281 19.449219 35.238281 19.695312 35.085938 19.847656 Z M 25.253906 19.847656 C 25.101562 19.996094 24.859375 19.996094 24.707031 19.847656 C 24.558594 19.695312 24.558594 19.449219 24.707031 19.300781 L 25.527344 18.480469 C 25.679688 18.328125 25.921875 18.328125 26.074219 18.480469 C 26.222656 18.632812 26.222656 18.875 26.074219 19.027344 Z M 29.898438 20.0625 C 30.109375 20.0625 30.285156 20.238281 30.285156 20.449219 L 30.285156 21.609375 C 30.285156 21.824219 30.109375 21.996094 29.898438 21.996094 C 29.683594 21.996094 29.511719 21.824219 29.511719 21.609375 L 29.511719 20.449219 C 29.511719 20.238281 29.683594 20.0625 29.898438 20.0625 Z M 24.101562 15.042969 C 24.316406 15.042969 24.488281 14.871094 24.488281 14.65625 C 24.488281 14.445312 24.316406 14.269531 24.101562 14.269531 L 22.945312 14.269531 C 22.730469 14.269531 22.558594 14.445312 22.558594 14.65625 C 22.558594 14.871094 22.730469 15.042969 22.945312 15.042969 Z M 26.074219 10.832031 C 25.921875 10.984375 25.679688 10.984375 25.527344 10.832031 L 24.707031 10.015625 C 24.558594 9.863281 24.558594 9.621094 24.707031 9.46875 C 24.859375 9.316406 25.101562 9.316406 25.253906 9.46875 L 26.074219 10.289062 C 26.222656 10.4375 26.222656 10.683594 26.074219 10.832031 Z M 34.265625 10.832031 C 34.117188 10.984375 33.871094 10.984375 33.722656 10.832031 C 33.570312 10.683594 33.570312 10.4375 33.722656 10.289062 L 34.539062 9.46875 C 34.691406 9.316406 34.933594 9.316406 35.085938 9.46875 C 35.238281 9.621094 35.238281 9.863281 35.085938 10.015625 Z M 32.644531 23.152344 C 32.503906 23.152344 32.371094 23.234375 32.304688 23.359375 L 31.199219 25.472656 L 34.765625 25.472656 L 35.855469 23.152344 Z M 34.402344 26.242188 L 30.792969 26.242188 L 29.671875 28.382812 C 29.539062 28.640625 29.726562 28.945312 30.015625 28.945312 L 33.128906 28.945312 Z M 35.253906 26.242188 L 38.648438 26.242188 L 37.375 28.945312 L 33.980469 28.945312 Z M 39.011719 25.472656 L 35.617188 25.472656 L 36.707031 23.152344 L 40.101562 23.152344 Z M 39.503906 26.242188 L 38.230469 28.945312 L 41.167969 28.945312 C 41.3125 28.945312 41.441406 28.867188 41.507812 28.738281 L 42.816406 26.242188 Z M 43.222656 25.472656 L 39.867188 25.472656 L 40.957031 23.152344 L 43.796875 23.152344 C 44.089844 23.152344 44.277344 23.460938 44.140625 23.71875 Z M 31.621094 23.003906 C 31.820312 22.621094 32.214844 22.382812 32.644531 22.382812 L 43.796875 22.382812 C 44.667969 22.382812 45.230469 23.304688 44.824219 24.078125 L 42.195312 29.097656 C 41.992188 29.480469 41.597656 29.71875 41.167969 29.71875 L 30.015625 29.71875 C 29.144531 29.71875 28.585938 28.792969 28.988281 28.023438 Z M 31.621094 23.003906 " fill-opacity="1" fill-rule="evenodd"/></g><g clip-path="url(#6cca11cb2e)"><path fill="#000000" d="M 159.984375 13.160156 L 142.152344 13.160156 L 143.160156 8.757812 C 143.203125 8.578125 143.359375 8.453125 143.542969 8.453125 L 145.1875 8.453125 C 145.40625 8.453125 145.578125 8.277344 145.578125 8.058594 C 145.578125 7.84375 145.40625 7.667969 145.1875 7.667969 C 145.1875 7.667969 144.214844 7.667969 143.542969 7.667969 C 142.996094 7.667969 142.519531 8.046875 142.394531 8.582031 L 141.28125 13.457031 C 141.273438 13.476562 141.273438 13.492188 141.269531 13.511719 C 141.269531 13.527344 141.265625 13.546875 141.269531 13.5625 L 141.269531 17.480469 C 141.269531 17.78125 141.382812 18.054688 141.566406 18.265625 C 141.382812 18.472656 141.269531 18.75 141.269531 19.050781 L 141.269531 20.621094 C 141.269531 20.835938 141.445312 21.011719 141.660156 21.011719 C 141.875 21.011719 142.050781 20.835938 142.050781 20.621094 L 142.050781 19.050781 C 142.050781 18.832031 142.226562 18.65625 142.445312 18.65625 C 145.503906 18.65625 156.632812 18.65625 159.691406 18.65625 C 159.910156 18.65625 160.085938 18.832031 160.085938 19.050781 C 160.085938 19.050781 160.085938 22.976562 160.085938 22.976562 C 160.085938 23.191406 159.910156 23.367188 159.691406 23.367188 C 159.691406 23.367188 142.445312 23.367188 142.445312 23.367188 C 142.226562 23.367188 142.050781 23.191406 142.050781 22.976562 L 142.050781 22.191406 C 142.050781 21.972656 141.875 21.796875 141.660156 21.796875 C 141.445312 21.796875 141.269531 21.972656 141.269531 22.191406 L 141.269531 22.976562 C 141.269531 23.277344 141.382812 23.550781 141.566406 23.761719 C 141.375 23.976562 141.269531 24.253906 141.269531 24.546875 C 141.269531 25.324219 141.269531 26.511719 141.269531 27.292969 C 141.269531 27.605469 141.390625 27.90625 141.613281 28.125 C 141.832031 28.347656 142.132812 28.46875 142.445312 28.46875 C 142.445312 28.46875 142.445312 29.648438 142.445312 29.648438 C 142.445312 29.863281 142.621094 30.039062 142.835938 30.039062 L 159.300781 30.039062 C 159.515625 30.039062 159.691406 29.863281 159.691406 29.648438 L 159.691406 28.46875 C 160.339844 28.46875 160.867188 27.945312 160.867188 27.292969 L 160.867188 26.507812 C 160.867188 26.292969 160.691406 26.117188 160.476562 26.117188 C 160.261719 26.117188 160.085938 26.292969 160.085938 26.507812 L 160.085938 27.292969 C 160.085938 27.507812 159.910156 27.683594 159.691406 27.683594 C 156.632812 27.683594 145.503906 27.683594 142.445312 27.683594 C 142.339844 27.683594 142.238281 27.644531 142.167969 27.570312 C 142.09375 27.496094 142.050781 27.398438 142.050781 27.292969 L 142.050781 24.546875 C 142.050781 24.441406 142.09375 24.339844 142.167969 24.269531 C 142.238281 24.195312 142.339844 24.152344 142.445312 24.152344 C 142.445312 24.152344 159.691406 24.152344 159.691406 24.152344 C 159.910156 24.152344 160.085938 24.328125 160.085938 24.546875 L 160.085938 25.332031 C 160.085938 25.546875 160.261719 25.722656 160.476562 25.722656 C 160.691406 25.722656 160.867188 25.546875 160.867188 25.332031 L 160.867188 24.546875 C 160.867188 24.242188 160.753906 23.96875 160.570312 23.761719 C 160.753906 23.550781 160.867188 23.277344 160.867188 22.976562 L 160.867188 19.050781 C 160.867188 18.75 160.753906 18.472656 160.570312 18.265625 C 160.761719 18.050781 160.867188 17.769531 160.867188 17.480469 C 160.867188 16.933594 160.867188 16.300781 160.867188 16.300781 C 160.867188 16.085938 160.691406 15.910156 160.476562 15.910156 C 160.261719 15.910156 160.085938 16.085938 160.085938 16.300781 C 160.085938 16.300781 160.085938 16.933594 160.085938 17.480469 C 160.085938 17.582031 160.042969 17.683594 159.96875 17.757812 C 159.894531 17.832031 159.796875 17.871094 159.691406 17.871094 C 156.632812 17.871094 145.503906 17.871094 142.445312 17.871094 C 142.226562 17.871094 142.050781 17.695312 142.050781 17.480469 C 142.050781 17.480469 142.050781 13.945312 142.050781 13.945312 C 142.050781 13.945312 160.085938 13.945312 160.085938 13.945312 C 160.085938 13.945312 160.085938 15.125 160.085938 15.125 C 160.085938 15.339844 160.261719 15.515625 160.476562 15.515625 C 160.691406 15.515625 160.867188 15.339844 160.867188 15.125 L 160.867188 13.5625 C 160.867188 13.546875 160.867188 13.527344 160.867188 13.511719 C 160.863281 13.492188 160.859375 13.476562 160.855469 13.457031 L 159.738281 8.582031 C 159.617188 8.046875 159.140625 7.667969 158.59375 7.667969 L 148.324219 7.667969 C 148.109375 7.667969 147.933594 7.84375 147.933594 8.058594 C 147.933594 8.277344 148.109375 8.453125 148.324219 8.453125 L 158.59375 8.453125 C 158.777344 8.453125 158.933594 8.578125 158.976562 8.757812 Z M 158.910156 28.46875 L 143.226562 28.46875 L 143.226562 29.253906 C 143.226562 29.253906 158.910156 29.253906 158.910156 29.253906 Z M 158.125 25.332031 C 157.691406 25.332031 157.339844 25.683594 157.339844 26.117188 C 157.339844 26.546875 157.691406 26.902344 158.125 26.902344 C 158.558594 26.902344 158.910156 26.546875 158.910156 26.117188 C 158.910156 25.683594 158.558594 25.332031 158.125 25.332031 Z M 155.773438 25.332031 C 155.339844 25.332031 154.988281 25.683594 154.988281 26.117188 C 154.988281 26.546875 155.339844 26.902344 155.773438 26.902344 C 156.203125 26.902344 156.554688 26.546875 156.554688 26.117188 C 156.554688 25.683594 156.203125 25.332031 155.773438 25.332031 Z M 143.226562 26.507812 L 147.933594 26.507812 C 148.148438 26.507812 148.324219 26.332031 148.324219 26.117188 C 148.324219 25.898438 148.148438 25.722656 147.933594 25.722656 L 143.226562 25.722656 C 143.011719 25.722656 142.835938 25.898438 142.835938 26.117188 C 142.835938 26.332031 143.011719 26.507812 143.226562 26.507812 Z M 158.125 20.421875 C 157.691406 20.421875 157.339844 20.773438 157.339844 21.207031 C 157.339844 21.640625 157.691406 21.992188 158.125 21.992188 C 158.558594 21.992188 158.910156 21.640625 158.910156 21.207031 C 158.910156 20.773438 158.558594 20.421875 158.125 20.421875 Z M 155.773438 20.421875 C 155.339844 20.421875 154.988281 20.773438 154.988281 21.207031 C 154.988281 21.640625 155.339844 21.992188 155.773438 21.992188 C 156.203125 21.992188 156.554688 21.640625 156.554688 21.207031 C 156.554688 20.773438 156.203125 20.421875 155.773438 20.421875 Z M 143.226562 21.40625 L 147.933594 21.40625 C 148.148438 21.40625 148.324219 21.230469 148.324219 21.011719 C 148.324219 20.796875 148.148438 20.621094 147.933594 20.621094 L 143.226562 20.621094 C 143.011719 20.621094 142.835938 20.796875 142.835938 21.011719 C 142.835938 21.230469 143.011719 21.40625 143.226562 21.40625 Z M 158.125 15.320312 C 157.691406 15.320312 157.339844 15.671875 157.339844 16.105469 C 157.339844 16.539062 157.691406 16.890625 158.125 16.890625 C 158.558594 16.890625 158.910156 16.539062 158.910156 16.105469 C 158.910156 15.671875 158.558594 15.320312 158.125 15.320312 Z M 155.773438 15.320312 C 155.339844 15.320312 154.988281 15.671875 154.988281 16.105469 C 154.988281 16.539062 155.339844 16.890625 155.773438 16.890625 C 156.203125 16.890625 156.554688 16.539062 156.554688 16.105469 C 156.554688 15.671875 156.203125 15.320312 155.773438 15.320312 Z M 143.226562 16.300781 L 147.933594 16.300781 C 148.148438 16.300781 148.324219 16.125 148.324219 15.910156 C 148.324219 15.691406 148.148438 15.515625 147.933594 15.515625 L 143.226562 15.515625 C 143.011719 15.515625 142.835938 15.691406 142.835938 15.910156 C 142.835938 16.125 143.011719 16.300781 143.226562 16.300781 Z M 146.363281 8.453125 L 147.148438 8.453125 C 147.363281 8.453125 147.539062 8.277344 147.539062 8.058594 C 147.539062 7.84375 147.363281 7.667969 147.148438 7.667969 L 146.363281 7.667969 C 146.148438 7.667969 145.972656 7.84375 145.972656 8.058594 C 145.972656 8.277344 146.148438 8.453125 146.363281 8.453125 Z M 146.363281 8.453125 " fill-opacity="1" fill-rule="evenodd"/></g><g clip-path="url(#ba2252e54d)"><path fill="#100f0d" d="M 55.328125 16.253906 L 54.066406 16.253906 L 54.066406 18.144531 L 52.175781 18.144531 L 52.175781 19.402344 L 54.066406 19.402344 L 54.066406 21.292969 L 55.328125 21.292969 L 55.328125 19.402344 L 57.21875 19.402344 L 57.21875 18.144531 L 55.328125 18.144531 L 55.328125 16.253906 " fill-opacity="1" fill-rule="nonzero"/></g><g clip-path="url(#82911e3acc)"><path fill="#100f0d" d="M 132.390625 16.253906 L 131.128906 16.253906 L 131.128906 18.144531 L 129.242188 18.144531 L 129.242188 19.402344 L 131.128906 19.402344 L 131.128906 21.292969 L 132.390625 21.292969 L 132.390625 19.402344 L 134.28125 19.402344 L 134.28125 18.144531 L 132.390625 18.144531 L 132.390625 16.253906 " fill-opacity="1" fill-rule="nonzero"/></g><g clip-path="url(#aa5dee9780)"><path fill="#100f0d" d="M 171.050781 16.253906 L 169.789062 16.253906 L 169.789062 18.144531 L 167.898438 18.144531 L 167.898438 19.402344 L 169.789062 19.402344 L 169.789062 21.292969 L 171.050781 21.292969 L 171.050781 19.402344 L 172.9375 19.402344 L 172.9375 18.144531 L 171.050781 18.144531 L 171.050781 16.253906 " fill-opacity="1" fill-rule="nonzero"/></g><g clip-path="url(#c357bdac25)"><path fill="#100f0d" d="M 96.816406 16.28125 L 95.554688 16.28125 L 95.554688 18.167969 L 93.664062 18.167969 L 93.664062 19.429688 L 95.554688 19.429688 L 95.554688 21.320312 L 96.816406 21.320312 L 96.816406 19.429688 L 98.707031 19.429688 L 98.707031 18.167969 L 96.816406 18.167969 L 96.816406 16.28125 " fill-opacity="1" fill-rule="nonzero"/></g><path stroke-linecap="butt" transform="matrix(0.475418, 0.566581, -0.571991, 0.479958, 75.249025, 33.915653)" fill="none" stroke-linejoin="miter" d="M -0.00220595 1.000356 L 30.850441 1.000238 " stroke="#000000" stroke-width="2" stroke-opacity="1" stroke-miterlimit="4"/><path stroke-linecap="round" transform="matrix(0.475418, 0.566581, -0.571991, 0.479958, 75.249025, 33.915653)" fill-opacity="1" fill="#000000" fill-rule="nonzero" stroke-linejoin="round" d="M 31.350301 -1.998904 L 35.352731 0.999966 L 31.351395 3.998056 Z M 31.350301 -1.998904 " stroke="#000000" stroke-width="2" stroke-opacity="1" stroke-miterlimit="4"/><path stroke-linecap="butt" transform="matrix(0.0013546, 0.729024, -0.74668, 0.00138741, 113.591746, 34.037896)" fill="none" stroke-linejoin="miter" d="M -0.000306968 1.001761 L 14.997277 0.997581 " stroke="#000000" stroke-width="2" stroke-opacity="1" stroke-miterlimit="4"/><path stroke-linecap="round" transform="matrix(0.0013546, 0.729024, -0.74668, 0.00138741, 113.591746, 34.037896)" fill-opacity="1" fill="#000000" fill-rule="nonzero" stroke-linejoin="round" d="M 15.495933 -1.999159 L 19.498151 1.000515 L 15.49523 4.00136 Z M 15.495933 -1.999159 " stroke="#000000" stroke-width="2" stroke-opacity="1" stroke-miterlimit="4"/><g fill="#000000" fill-opacity="1"><g transform="translate(103.532739, 77.771216)"><g><path d="M 0.828125 0 L 0.484375 0 L 0.484375 -3.203125 L 1.046875 -3.203125 L 2.015625 -0.484375 L 2.0625 -0.484375 L 3.03125 -3.203125 L 3.5625 -3.203125 L 3.5625 0 L 3.203125 0 L 3.203125 -2.609375 L 3.15625 -2.625 L 2.203125 0 L 1.828125 0 L 0.890625 -2.625 L 0.828125 -2.609375 Z M 0.828125 0 "/></g></g><g transform="translate(107.581881, 77.771216)"><g><path d="M 0.59375 -2.875 C 0.519531 -2.875 0.457031 -2.898438 0.40625 -2.953125 C 0.363281 -3.003906 0.34375 -3.066406 0.34375 -3.140625 C 0.34375 -3.210938 0.363281 -3.269531 0.40625 -3.3125 C 0.457031 -3.363281 0.519531 -3.390625 0.59375 -3.390625 C 0.675781 -3.390625 0.738281 -3.363281 0.78125 -3.3125 C 0.832031 -3.269531 0.859375 -3.210938 0.859375 -3.140625 C 0.859375 -3.066406 0.832031 -3.003906 0.78125 -2.953125 C 0.738281 -2.898438 0.675781 -2.875 0.59375 -2.875 Z M 0.421875 0 L 0.421875 -2.421875 L 0.78125 -2.421875 L 0.78125 0 Z M 0.421875 0 "/></g></g><g transform="translate(108.778467, 77.771216)"><g><path d="M 0.421875 0 L 0.421875 -2.421875 L 0.765625 -2.421875 L 0.765625 -2.03125 L 0.8125 -2.03125 C 0.882812 -2.164062 0.984375 -2.269531 1.109375 -2.34375 C 1.234375 -2.425781 1.382812 -2.46875 1.5625 -2.46875 C 1.851562 -2.46875 2.0625 -2.390625 2.1875 -2.234375 C 2.320312 -2.085938 2.390625 -1.859375 2.390625 -1.546875 L 2.390625 0 L 2.046875 0 L 2.046875 -1.546875 C 2.046875 -1.691406 2.023438 -1.804688 1.984375 -1.890625 C 1.941406 -1.984375 1.878906 -2.050781 1.796875 -2.09375 C 1.722656 -2.132812 1.625 -2.15625 1.5 -2.15625 C 1.28125 -2.15625 1.101562 -2.082031 0.96875 -1.9375 C 0.84375 -1.789062 0.78125 -1.554688 0.78125 -1.234375 L 0.78125 0 Z M 0.421875 0 "/></g></g><g transform="translate(111.556647, 77.771216)"><g><path d="M 2.296875 -1.125 L 0.640625 -1.125 C 0.648438 -0.832031 0.71875 -0.617188 0.84375 -0.484375 C 0.976562 -0.347656 1.160156 -0.28125 1.390625 -0.28125 C 1.566406 -0.28125 1.707031 -0.304688 1.8125 -0.359375 C 1.914062 -0.421875 1.992188 -0.519531 2.046875 -0.65625 L 2.09375 -0.65625 L 2.328125 -0.515625 C 2.265625 -0.335938 2.15625 -0.195312 2 -0.09375 C 1.84375 0 1.640625 0.046875 1.390625 0.046875 C 1.160156 0.046875 0.957031 0 0.78125 -0.09375 C 0.613281 -0.1875 0.484375 -0.328125 0.390625 -0.515625 C 0.304688 -0.703125 0.265625 -0.929688 0.265625 -1.203125 C 0.265625 -1.484375 0.3125 -1.71875 0.40625 -1.90625 C 0.5 -2.09375 0.628906 -2.234375 0.796875 -2.328125 C 0.960938 -2.421875 1.15625 -2.46875 1.375 -2.46875 C 1.675781 -2.46875 1.914062 -2.378906 2.09375 -2.203125 C 2.269531 -2.023438 2.359375 -1.765625 2.359375 -1.421875 C 2.359375 -1.285156 2.351562 -1.195312 2.34375 -1.15625 Z M 2 -1.421875 C 2 -1.679688 1.941406 -1.867188 1.828125 -1.984375 C 1.722656 -2.097656 1.570312 -2.15625 1.375 -2.15625 C 1.15625 -2.15625 0.984375 -2.097656 0.859375 -1.984375 C 0.742188 -1.867188 0.675781 -1.679688 0.65625 -1.421875 Z M 2 -1.421875 "/></g></g><g transform="translate(114.129197, 77.771216)"><g><path d="M 0.421875 0 L 0.421875 -2.421875 L 0.765625 -2.421875 L 0.765625 -2.03125 L 0.8125 -2.03125 C 0.914062 -2.300781 1.125 -2.4375 1.4375 -2.4375 C 1.601562 -2.4375 1.726562 -2.40625 1.8125 -2.34375 L 1.71875 -2.046875 L 1.671875 -2.03125 C 1.585938 -2.082031 1.488281 -2.109375 1.375 -2.109375 C 1.1875 -2.109375 1.039062 -2.035156 0.9375 -1.890625 C 0.832031 -1.742188 0.78125 -1.507812 0.78125 -1.1875 L 0.78125 0 Z M 0.421875 0 "/></g></g><g transform="translate(115.992984, 77.771216)"><g><path d="M 1.53125 0 L 1.03125 0 L 0.125 -2.421875 L 0.5 -2.421875 L 1.265625 -0.40625 L 1.3125 -0.40625 L 2.0625 -2.421875 L 2.4375 -2.421875 Z M 1.53125 0 "/></g></g><g transform="translate(118.550222, 77.771216)"><g><path d="M 1 0.046875 C 0.757812 0.046875 0.570312 -0.015625 0.4375 -0.140625 C 0.300781 -0.265625 0.234375 -0.441406 0.234375 -0.671875 C 0.234375 -0.816406 0.265625 -0.9375 0.328125 -1.03125 C 0.390625 -1.132812 0.476562 -1.21875 0.59375 -1.28125 C 0.71875 -1.34375 0.882812 -1.390625 1.09375 -1.421875 C 1.257812 -1.453125 1.390625 -1.484375 1.484375 -1.515625 C 1.578125 -1.554688 1.640625 -1.597656 1.671875 -1.640625 C 1.703125 -1.679688 1.71875 -1.738281 1.71875 -1.8125 C 1.71875 -1.914062 1.679688 -2 1.609375 -2.0625 C 1.535156 -2.125 1.414062 -2.15625 1.25 -2.15625 C 1.09375 -2.15625 0.957031 -2.125 0.84375 -2.0625 C 0.726562 -2 0.625 -1.90625 0.53125 -1.78125 L 0.484375 -1.78125 L 0.3125 -2.03125 C 0.414062 -2.164062 0.546875 -2.269531 0.703125 -2.34375 C 0.859375 -2.425781 1.039062 -2.46875 1.25 -2.46875 C 1.53125 -2.46875 1.738281 -2.40625 1.875 -2.28125 C 2.007812 -2.15625 2.078125 -1.976562 2.078125 -1.75 L 2.078125 -0.46875 C 2.078125 -0.34375 2.132812 -0.28125 2.25 -0.28125 C 2.28125 -0.28125 2.316406 -0.285156 2.359375 -0.296875 L 2.390625 -0.28125 L 2.421875 -0.03125 C 2.398438 -0.0195312 2.367188 -0.0078125 2.328125 0 C 2.285156 0.0078125 2.238281 0.015625 2.1875 0.015625 C 2.0625 0.015625 1.960938 -0.0078125 1.890625 -0.0625 C 1.816406 -0.125 1.773438 -0.210938 1.765625 -0.328125 L 1.71875 -0.328125 C 1.644531 -0.203125 1.550781 -0.109375 1.4375 -0.046875 C 1.320312 0.015625 1.175781 0.046875 1 0.046875 Z M 1.078125 -0.234375 C 1.210938 -0.234375 1.328125 -0.265625 1.421875 -0.328125 C 1.523438 -0.390625 1.601562 -0.476562 1.65625 -0.59375 C 1.707031 -0.707031 1.734375 -0.835938 1.734375 -0.984375 L 1.734375 -1.296875 L 1.6875 -1.296875 C 1.632812 -1.253906 1.566406 -1.222656 1.484375 -1.203125 C 1.410156 -1.179688 1.304688 -1.160156 1.171875 -1.140625 C 1.023438 -1.117188 0.910156 -1.085938 0.828125 -1.046875 C 0.742188 -1.003906 0.6875 -0.953125 0.65625 -0.890625 C 0.625 -0.835938 0.609375 -0.765625 0.609375 -0.671875 C 0.609375 -0.523438 0.648438 -0.414062 0.734375 -0.34375 C 0.816406 -0.269531 0.929688 -0.234375 1.078125 -0.234375 Z M 1.078125 -0.234375 "/></g></g></g><g fill="#000000" fill-opacity="1"><g transform="translate(17.536867, 4.312085)"><g><path d="M 1.625 -3.203125 C 1.84375 -3.203125 2.03125 -3.160156 2.1875 -3.078125 C 2.351562 -3.003906 2.476562 -2.894531 2.5625 -2.75 C 2.644531 -2.601562 2.6875 -2.429688 2.6875 -2.234375 C 2.6875 -2.023438 2.644531 -1.847656 2.5625 -1.703125 C 2.476562 -1.554688 2.351562 -1.441406 2.1875 -1.359375 C 2.03125 -1.285156 1.84375 -1.25 1.625 -1.25 L 0.859375 -1.25 L 0.859375 0 L 0.484375 0 L 0.484375 -3.203125 Z M 1.625 -1.578125 C 2.0625 -1.578125 2.28125 -1.796875 2.28125 -2.234375 C 2.28125 -2.660156 2.0625 -2.875 1.625 -2.875 L 0.859375 -2.875 L 0.859375 -1.578125 Z M 1.625 -1.578125 "/></g></g><g transform="translate(20.452862, 4.312085)"><g><path d="M 1.390625 0.046875 C 1.160156 0.046875 0.957031 0 0.78125 -0.09375 C 0.613281 -0.195312 0.484375 -0.34375 0.390625 -0.53125 C 0.304688 -0.71875 0.265625 -0.941406 0.265625 -1.203125 C 0.265625 -1.472656 0.304688 -1.703125 0.390625 -1.890625 C 0.484375 -2.078125 0.613281 -2.21875 0.78125 -2.3125 C 0.957031 -2.414062 1.160156 -2.46875 1.390625 -2.46875 C 1.617188 -2.46875 1.816406 -2.414062 1.984375 -2.3125 C 2.148438 -2.21875 2.273438 -2.078125 2.359375 -1.890625 C 2.453125 -1.703125 2.5 -1.472656 2.5 -1.203125 C 2.5 -0.941406 2.453125 -0.71875 2.359375 -0.53125 C 2.273438 -0.34375 2.148438 -0.195312 1.984375 -0.09375 C 1.816406 0 1.617188 0.046875 1.390625 0.046875 Z M 1.390625 -0.28125 C 1.628906 -0.28125 1.8125 -0.351562 1.9375 -0.5 C 2.0625 -0.65625 2.125 -0.890625 2.125 -1.203125 C 2.125 -1.523438 2.0625 -1.757812 1.9375 -1.90625 C 1.8125 -2.0625 1.628906 -2.140625 1.390625 -2.140625 C 1.148438 -2.140625 0.960938 -2.0625 0.828125 -1.90625 C 0.703125 -1.757812 0.640625 -1.523438 0.640625 -1.203125 C 0.640625 -0.890625 0.703125 -0.65625 0.828125 -0.5 C 0.960938 -0.351562 1.148438 -0.28125 1.390625 -0.28125 Z M 1.390625 -0.28125 "/></g></g><g transform="translate(23.222292, 4.312085)"><g><path d="M 1.203125 0 L 0.75 0 L 0.15625 -2.421875 L 0.515625 -2.421875 L 0.96875 -0.421875 L 1.015625 -0.421875 L 1.578125 -2.421875 L 1.953125 -2.421875 L 2.53125 -0.421875 L 2.578125 -0.421875 L 3.03125 -2.421875 L 3.359375 -2.421875 L 2.78125 0 L 2.328125 0 L 1.78125 -1.875 L 1.734375 -1.875 Z M 1.203125 0 "/></g></g><g transform="translate(26.739861, 4.312085)"><g><path d="M 2.296875 -1.125 L 0.640625 -1.125 C 0.648438 -0.832031 0.71875 -0.617188 0.84375 -0.484375 C 0.976562 -0.347656 1.160156 -0.28125 1.390625 -0.28125 C 1.566406 -0.28125 1.707031 -0.304688 1.8125 -0.359375 C 1.914062 -0.421875 1.992188 -0.519531 2.046875 -0.65625 L 2.09375 -0.65625 L 2.328125 -0.515625 C 2.265625 -0.335938 2.15625 -0.195312 2 -0.09375 C 1.84375 0 1.640625 0.046875 1.390625 0.046875 C 1.160156 0.046875 0.957031 0 0.78125 -0.09375 C 0.613281 -0.1875 0.484375 -0.328125 0.390625 -0.515625 C 0.304688 -0.703125 0.265625 -0.929688 0.265625 -1.203125 C 0.265625 -1.484375 0.3125 -1.71875 0.40625 -1.90625 C 0.5 -2.09375 0.628906 -2.234375 0.796875 -2.328125 C 0.960938 -2.421875 1.15625 -2.46875 1.375 -2.46875 C 1.675781 -2.46875 1.914062 -2.378906 2.09375 -2.203125 C 2.269531 -2.023438 2.359375 -1.765625 2.359375 -1.421875 C 2.359375 -1.285156 2.351562 -1.195312 2.34375 -1.15625 Z M 2 -1.421875 C 2 -1.679688 1.941406 -1.867188 1.828125 -1.984375 C 1.722656 -2.097656 1.570312 -2.15625 1.375 -2.15625 C 1.15625 -2.15625 0.984375 -2.097656 0.859375 -1.984375 C 0.742188 -1.867188 0.675781 -1.679688 0.65625 -1.421875 Z M 2 -1.421875 "/></g></g><g transform="translate(29.312412, 4.312085)"><g><path d="M 0.421875 0 L 0.421875 -2.421875 L 0.765625 -2.421875 L 0.765625 -2.03125 L 0.8125 -2.03125 C 0.914062 -2.300781 1.125 -2.4375 1.4375 -2.4375 C 1.601562 -2.4375 1.726562 -2.40625 1.8125 -2.34375 L 1.71875 -2.046875 L 1.671875 -2.03125 C 1.585938 -2.082031 1.488281 -2.109375 1.375 -2.109375 C 1.1875 -2.109375 1.039062 -2.035156 0.9375 -1.890625 C 0.832031 -1.742188 0.78125 -1.507812 0.78125 -1.1875 L 0.78125 0 Z M 0.421875 0 "/></g></g><g transform="translate(31.176198, 4.312085)"><g/></g><g transform="translate(32.274345, 4.312085)"><g><path d="M 1.40625 0.046875 C 1.195312 0.046875 1.015625 0.0195312 0.859375 -0.03125 C 0.703125 -0.09375 0.566406 -0.164062 0.453125 -0.25 C 0.347656 -0.34375 0.269531 -0.441406 0.21875 -0.546875 L 0.421875 -0.796875 L 0.484375 -0.796875 C 0.679688 -0.460938 0.988281 -0.296875 1.40625 -0.296875 C 1.644531 -0.296875 1.820312 -0.34375 1.9375 -0.4375 C 2.050781 -0.539062 2.109375 -0.679688 2.109375 -0.859375 C 2.109375 -0.960938 2.085938 -1.050781 2.046875 -1.125 C 2.015625 -1.195312 1.953125 -1.257812 1.859375 -1.3125 C 1.773438 -1.363281 1.65625 -1.410156 1.5 -1.453125 L 1.125 -1.546875 C 0.84375 -1.609375 0.632812 -1.710938 0.5 -1.859375 C 0.375 -2.015625 0.3125 -2.203125 0.3125 -2.421875 C 0.3125 -2.578125 0.351562 -2.71875 0.4375 -2.84375 C 0.519531 -2.96875 0.640625 -3.066406 0.796875 -3.140625 C 0.953125 -3.210938 1.140625 -3.25 1.359375 -3.25 C 1.597656 -3.25 1.800781 -3.210938 1.96875 -3.140625 C 2.132812 -3.078125 2.265625 -2.976562 2.359375 -2.84375 L 2.1875 -2.59375 L 2.125 -2.59375 C 2.03125 -2.707031 1.921875 -2.789062 1.796875 -2.84375 C 1.671875 -2.894531 1.523438 -2.921875 1.359375 -2.921875 C 1.140625 -2.921875 0.972656 -2.875 0.859375 -2.78125 C 0.742188 -2.695312 0.6875 -2.582031 0.6875 -2.4375 C 0.6875 -2.289062 0.726562 -2.171875 0.8125 -2.078125 C 0.894531 -1.992188 1.035156 -1.929688 1.234375 -1.890625 L 1.609375 -1.796875 C 1.921875 -1.722656 2.144531 -1.609375 2.28125 -1.453125 C 2.425781 -1.304688 2.5 -1.113281 2.5 -0.875 C 2.5 -0.695312 2.457031 -0.535156 2.375 -0.390625 C 2.289062 -0.253906 2.164062 -0.144531 2 -0.0625 C 1.84375 0.0078125 1.644531 0.046875 1.40625 0.046875 Z M 1.40625 0.046875 "/></g></g><g transform="translate(35.015337, 4.312085)"><g><path d="M 1.390625 0.046875 C 1.160156 0.046875 0.957031 0 0.78125 -0.09375 C 0.613281 -0.195312 0.484375 -0.34375 0.390625 -0.53125 C 0.304688 -0.71875 0.265625 -0.941406 0.265625 -1.203125 C 0.265625 -1.472656 0.304688 -1.703125 0.390625 -1.890625 C 0.484375 -2.078125 0.613281 -2.21875 0.78125 -2.3125 C 0.957031 -2.414062 1.160156 -2.46875 1.390625 -2.46875 C 1.617188 -2.46875 1.816406 -2.414062 1.984375 -2.3125 C 2.148438 -2.21875 2.273438 -2.078125 2.359375 -1.890625 C 2.453125 -1.703125 2.5 -1.472656 2.5 -1.203125 C 2.5 -0.941406 2.453125 -0.71875 2.359375 -0.53125 C 2.273438 -0.34375 2.148438 -0.195312 1.984375 -0.09375 C 1.816406 0 1.617188 0.046875 1.390625 0.046875 Z M 1.390625 -0.28125 C 1.628906 -0.28125 1.8125 -0.351562 1.9375 -0.5 C 2.0625 -0.65625 2.125 -0.890625 2.125 -1.203125 C 2.125 -1.523438 2.0625 -1.757812 1.9375 -1.90625 C 1.8125 -2.0625 1.628906 -2.140625 1.390625 -2.140625 C 1.148438 -2.140625 0.960938 -2.0625 0.828125 -1.90625 C 0.703125 -1.757812 0.640625 -1.523438 0.640625 -1.203125 C 0.640625 -0.890625 0.703125 -0.65625 0.828125 -0.5 C 0.960938 -0.351562 1.148438 -0.28125 1.390625 -0.28125 Z M 1.390625 -0.28125 "/></g></g><g transform="translate(37.784766, 4.312085)"><g><path d="M 1.1875 0.046875 C 0.914062 0.046875 0.710938 -0.0234375 0.578125 -0.171875 C 0.453125 -0.316406 0.390625 -0.53125 0.390625 -0.8125 L 0.390625 -2.421875 L 0.734375 -2.421875 L 0.734375 -0.8125 C 0.734375 -0.445312 0.90625 -0.265625 1.25 -0.265625 C 1.46875 -0.265625 1.640625 -0.332031 1.765625 -0.46875 C 1.898438 -0.613281 1.96875 -0.847656 1.96875 -1.171875 L 1.96875 -2.421875 L 2.328125 -2.421875 L 2.328125 0 L 1.984375 0 L 1.984375 -0.375 L 1.9375 -0.390625 C 1.851562 -0.242188 1.753906 -0.132812 1.640625 -0.0625 C 1.523438 0.0078125 1.375 0.046875 1.1875 0.046875 Z M 1.1875 0.046875 "/></g></g><g transform="translate(40.525757, 4.312085)"><g><path d="M 0.421875 0 L 0.421875 -2.421875 L 0.765625 -2.421875 L 0.765625 -2.03125 L 0.8125 -2.03125 C 0.914062 -2.300781 1.125 -2.4375 1.4375 -2.4375 C 1.601562 -2.4375 1.726562 -2.40625 1.8125 -2.34375 L 1.71875 -2.046875 L 1.671875 -2.03125 C 1.585938 -2.082031 1.488281 -2.109375 1.375 -2.109375 C 1.1875 -2.109375 1.039062 -2.035156 0.9375 -1.890625 C 0.832031 -1.742188 0.78125 -1.507812 0.78125 -1.1875 L 0.78125 0 Z M 0.421875 0 "/></g></g><g transform="translate(42.389544, 4.312085)"><g><path d="M 1.390625 0.046875 C 1.171875 0.046875 0.976562 0 0.8125 -0.09375 C 0.644531 -0.195312 0.507812 -0.34375 0.40625 -0.53125 C 0.3125 -0.71875 0.265625 -0.941406 0.265625 -1.203125 C 0.265625 -1.472656 0.3125 -1.703125 0.40625 -1.890625 C 0.507812 -2.078125 0.644531 -2.21875 0.8125 -2.3125 C 0.976562 -2.414062 1.171875 -2.46875 1.390625 -2.46875 C 1.640625 -2.46875 1.835938 -2.414062 1.984375 -2.3125 C 2.140625 -2.21875 2.253906 -2.09375 2.328125 -1.9375 L 2.078125 -1.75 L 2.03125 -1.75 C 1.96875 -1.882812 1.882812 -1.984375 1.78125 -2.046875 C 1.675781 -2.109375 1.546875 -2.140625 1.390625 -2.140625 C 1.234375 -2.140625 1.097656 -2.101562 0.984375 -2.03125 C 0.878906 -1.96875 0.796875 -1.863281 0.734375 -1.71875 C 0.671875 -1.582031 0.640625 -1.410156 0.640625 -1.203125 C 0.640625 -1.003906 0.671875 -0.832031 0.734375 -0.6875 C 0.796875 -0.550781 0.878906 -0.445312 0.984375 -0.375 C 1.097656 -0.3125 1.234375 -0.28125 1.390625 -0.28125 C 1.554688 -0.28125 1.691406 -0.316406 1.796875 -0.390625 C 1.910156 -0.460938 2 -0.582031 2.0625 -0.75 L 2.109375 -0.75 L 2.34375 -0.609375 C 2.28125 -0.398438 2.164062 -0.238281 2 -0.125 C 1.84375 -0.0078125 1.640625 0.046875 1.390625 0.046875 Z M 1.390625 0.046875 "/></g></g><g transform="translate(44.876781, 4.312085)"><g><path d="M 2.296875 -1.125 L 0.640625 -1.125 C 0.648438 -0.832031 0.71875 -0.617188 0.84375 -0.484375 C 0.976562 -0.347656 1.160156 -0.28125 1.390625 -0.28125 C 1.566406 -0.28125 1.707031 -0.304688 1.8125 -0.359375 C 1.914062 -0.421875 1.992188 -0.519531 2.046875 -0.65625 L 2.09375 -0.65625 L 2.328125 -0.515625 C 2.265625 -0.335938 2.15625 -0.195312 2 -0.09375 C 1.84375 0 1.640625 0.046875 1.390625 0.046875 C 1.160156 0.046875 0.957031 0 0.78125 -0.09375 C 0.613281 -0.1875 0.484375 -0.328125 0.390625 -0.515625 C 0.304688 -0.703125 0.265625 -0.929688 0.265625 -1.203125 C 0.265625 -1.484375 0.3125 -1.71875 0.40625 -1.90625 C 0.5 -2.09375 0.628906 -2.234375 0.796875 -2.328125 C 0.960938 -2.421875 1.15625 -2.46875 1.375 -2.46875 C 1.675781 -2.46875 1.914062 -2.378906 2.09375 -2.203125 C 2.269531 -2.023438 2.359375 -1.765625 2.359375 -1.421875 C 2.359375 -1.285156 2.351562 -1.195312 2.34375 -1.15625 Z M 2 -1.421875 C 2 -1.679688 1.941406 -1.867188 1.828125 -1.984375 C 1.722656 -2.097656 1.570312 -2.15625 1.375 -2.15625 C 1.15625 -2.15625 0.984375 -2.097656 0.859375 -1.984375 C 0.742188 -1.867188 0.675781 -1.679688 0.65625 -1.421875 Z M 2 -1.421875 "/></g></g></g><g fill="#000000" fill-opacity="1"><g transform="translate(105.041857, 4.312085)"><g><path d="M 2.5 -3.203125 L 2.5 -2.875 L 1.5 -2.875 L 1.5 0 L 1.125 0 L 1.125 -2.875 L 0.125 -2.875 L 0.125 -3.203125 Z M 2.5 -3.203125 "/></g></g><g transform="translate(107.653784, 4.312085)"><g><path d="M 1 0.046875 C 0.757812 0.046875 0.570312 -0.015625 0.4375 -0.140625 C 0.300781 -0.265625 0.234375 -0.441406 0.234375 -0.671875 C 0.234375 -0.816406 0.265625 -0.9375 0.328125 -1.03125 C 0.390625 -1.132812 0.476562 -1.21875 0.59375 -1.28125 C 0.71875 -1.34375 0.882812 -1.390625 1.09375 -1.421875 C 1.257812 -1.453125 1.390625 -1.484375 1.484375 -1.515625 C 1.578125 -1.554688 1.640625 -1.597656 1.671875 -1.640625 C 1.703125 -1.679688 1.71875 -1.738281 1.71875 -1.8125 C 1.71875 -1.914062 1.679688 -2 1.609375 -2.0625 C 1.535156 -2.125 1.414062 -2.15625 1.25 -2.15625 C 1.09375 -2.15625 0.957031 -2.125 0.84375 -2.0625 C 0.726562 -2 0.625 -1.90625 0.53125 -1.78125 L 0.484375 -1.78125 L 0.3125 -2.03125 C 0.414062 -2.164062 0.546875 -2.269531 0.703125 -2.34375 C 0.859375 -2.425781 1.039062 -2.46875 1.25 -2.46875 C 1.53125 -2.46875 1.738281 -2.40625 1.875 -2.28125 C 2.007812 -2.15625 2.078125 -1.976562 2.078125 -1.75 L 2.078125 -0.46875 C 2.078125 -0.34375 2.132812 -0.28125 2.25 -0.28125 C 2.28125 -0.28125 2.316406 -0.285156 2.359375 -0.296875 L 2.390625 -0.28125 L 2.421875 -0.03125 C 2.398438 -0.0195312 2.367188 -0.0078125 2.328125 0 C 2.285156 0.0078125 2.238281 0.015625 2.1875 0.015625 C 2.0625 0.015625 1.960938 -0.0078125 1.890625 -0.0625 C 1.816406 -0.125 1.773438 -0.210938 1.765625 -0.328125 L 1.71875 -0.328125 C 1.644531 -0.203125 1.550781 -0.109375 1.4375 -0.046875 C 1.320312 0.015625 1.175781 0.046875 1 0.046875 Z M 1.078125 -0.234375 C 1.210938 -0.234375 1.328125 -0.265625 1.421875 -0.328125 C 1.523438 -0.390625 1.601562 -0.476562 1.65625 -0.59375 C 1.707031 -0.707031 1.734375 -0.835938 1.734375 -0.984375 L 1.734375 -1.296875 L 1.6875 -1.296875 C 1.632812 -1.253906 1.566406 -1.222656 1.484375 -1.203125 C 1.410156 -1.179688 1.304688 -1.160156 1.171875 -1.140625 C 1.023438 -1.117188 0.910156 -1.085938 0.828125 -1.046875 C 0.742188 -1.003906 0.6875 -0.953125 0.65625 -0.890625 C 0.625 -0.835938 0.609375 -0.765625 0.609375 -0.671875 C 0.609375 -0.523438 0.648438 -0.414062 0.734375 -0.34375 C 0.816406 -0.269531 0.929688 -0.234375 1.078125 -0.234375 Z M 1.078125 -0.234375 "/></g></g><g transform="translate(110.14977, 4.312085)"><g><path d="M 1.609375 0.046875 C 1.421875 0.046875 1.257812 0.015625 1.125 -0.046875 C 1 -0.117188 0.898438 -0.210938 0.828125 -0.328125 L 0.78125 -0.328125 L 0.78125 0 L 0.421875 0 L 0.421875 -3.390625 L 0.78125 -3.390625 L 0.78125 -2.046875 L 0.828125 -2.046875 C 1.003906 -2.328125 1.269531 -2.46875 1.625 -2.46875 C 1.820312 -2.46875 1.992188 -2.421875 2.140625 -2.328125 C 2.296875 -2.234375 2.410156 -2.09375 2.484375 -1.90625 C 2.566406 -1.71875 2.609375 -1.484375 2.609375 -1.203125 C 2.609375 -0.929688 2.566406 -0.703125 2.484375 -0.515625 C 2.398438 -0.328125 2.28125 -0.1875 2.125 -0.09375 C 1.976562 0 1.804688 0.046875 1.609375 0.046875 Z M 1.515625 -0.28125 C 2.003906 -0.28125 2.25 -0.585938 2.25 -1.203125 C 2.25 -1.523438 2.179688 -1.757812 2.046875 -1.90625 C 1.921875 -2.0625 1.742188 -2.140625 1.515625 -2.140625 C 1.296875 -2.140625 1.117188 -2.0625 0.984375 -1.90625 C 0.847656 -1.75 0.78125 -1.515625 0.78125 -1.203125 C 0.78125 -0.890625 0.847656 -0.65625 0.984375 -0.5 C 1.117188 -0.351562 1.296875 -0.28125 1.515625 -0.28125 Z M 1.515625 -0.28125 "/></g></g><g transform="translate(113.028577, 4.312085)"><g><path d="M 0.96875 0.046875 C 0.789062 0.046875 0.648438 0 0.546875 -0.09375 C 0.453125 -0.195312 0.40625 -0.34375 0.40625 -0.53125 L 0.40625 -3.390625 L 0.765625 -3.390625 L 0.765625 -0.5625 C 0.765625 -0.457031 0.785156 -0.382812 0.828125 -0.34375 C 0.867188 -0.300781 0.925781 -0.28125 1 -0.28125 C 1.050781 -0.28125 1.101562 -0.285156 1.15625 -0.296875 L 1.1875 -0.28125 L 1.234375 -0.015625 C 1.203125 0.00390625 1.160156 0.0195312 1.109375 0.03125 C 1.066406 0.0390625 1.019531 0.046875 0.96875 0.046875 Z M 0.96875 0.046875 "/></g></g><g transform="translate(114.341103, 4.312085)"><g><path d="M 2.296875 -1.125 L 0.640625 -1.125 C 0.648438 -0.832031 0.71875 -0.617188 0.84375 -0.484375 C 0.976562 -0.347656 1.160156 -0.28125 1.390625 -0.28125 C 1.566406 -0.28125 1.707031 -0.304688 1.8125 -0.359375 C 1.914062 -0.421875 1.992188 -0.519531 2.046875 -0.65625 L 2.09375 -0.65625 L 2.328125 -0.515625 C 2.265625 -0.335938 2.15625 -0.195312 2 -0.09375 C 1.84375 0 1.640625 0.046875 1.390625 0.046875 C 1.160156 0.046875 0.957031 0 0.78125 -0.09375 C 0.613281 -0.1875 0.484375 -0.328125 0.390625 -0.515625 C 0.304688 -0.703125 0.265625 -0.929688 0.265625 -1.203125 C 0.265625 -1.484375 0.3125 -1.71875 0.40625 -1.90625 C 0.5 -2.09375 0.628906 -2.234375 0.796875 -2.328125 C 0.960938 -2.421875 1.15625 -2.46875 1.375 -2.46875 C 1.675781 -2.46875 1.914062 -2.378906 2.09375 -2.203125 C 2.269531 -2.023438 2.359375 -1.765625 2.359375 -1.421875 C 2.359375 -1.285156 2.351562 -1.195312 2.34375 -1.15625 Z M 2 -1.421875 C 2 -1.679688 1.941406 -1.867188 1.828125 -1.984375 C 1.722656 -2.097656 1.570312 -2.15625 1.375 -2.15625 C 1.15625 -2.15625 0.984375 -2.097656 0.859375 -1.984375 C 0.742188 -1.867188 0.675781 -1.679688 0.65625 -1.421875 Z M 2 -1.421875 "/></g></g><g transform="translate(116.913653, 4.312085)"><g><path d="M 1.640625 -0.390625 L 1.75 -0.125 C 1.6875 -0.0703125 1.609375 -0.03125 1.515625 0 C 1.429688 0.03125 1.332031 0.046875 1.21875 0.046875 C 0.757812 0.046875 0.53125 -0.1875 0.53125 -0.65625 L 0.53125 -2.125 L 0.109375 -2.125 L 0.109375 -2.421875 L 0.53125 -2.421875 L 0.53125 -2.921875 L 0.890625 -2.984375 L 0.890625 -2.421875 L 1.671875 -2.421875 L 1.671875 -2.125 L 0.890625 -2.125 L 0.890625 -0.6875 C 0.890625 -0.414062 1.007812 -0.28125 1.25 -0.28125 C 1.375 -0.28125 1.488281 -0.316406 1.59375 -0.390625 Z M 1.640625 -0.390625 "/></g></g><g transform="translate(118.751189, 4.312085)"><g><path d="M 1.09375 0.046875 C 0.945312 0.046875 0.804688 0.0234375 0.671875 -0.015625 C 0.546875 -0.0546875 0.4375 -0.109375 0.34375 -0.171875 C 0.257812 -0.242188 0.203125 -0.328125 0.171875 -0.421875 L 0.375 -0.640625 L 0.421875 -0.640625 C 0.492188 -0.515625 0.585938 -0.421875 0.703125 -0.359375 C 0.816406 -0.304688 0.945312 -0.28125 1.09375 -0.28125 C 1.28125 -0.28125 1.414062 -0.3125 1.5 -0.375 C 1.59375 -0.445312 1.640625 -0.546875 1.640625 -0.671875 C 1.640625 -0.765625 1.613281 -0.84375 1.5625 -0.90625 C 1.507812 -0.96875 1.421875 -1.015625 1.296875 -1.046875 L 0.875 -1.140625 C 0.664062 -1.191406 0.507812 -1.273438 0.40625 -1.390625 C 0.300781 -1.503906 0.25 -1.644531 0.25 -1.8125 C 0.25 -1.945312 0.28125 -2.0625 0.34375 -2.15625 C 0.414062 -2.25 0.515625 -2.320312 0.640625 -2.375 C 0.773438 -2.4375 0.925781 -2.46875 1.09375 -2.46875 C 1.320312 -2.46875 1.5 -2.4375 1.625 -2.375 C 1.75 -2.3125 1.847656 -2.222656 1.921875 -2.109375 L 1.71875 -1.90625 L 1.671875 -1.90625 C 1.597656 -2 1.515625 -2.0625 1.421875 -2.09375 C 1.328125 -2.132812 1.21875 -2.15625 1.09375 -2.15625 C 0.9375 -2.15625 0.816406 -2.128906 0.734375 -2.078125 C 0.648438 -2.023438 0.609375 -1.941406 0.609375 -1.828125 C 0.609375 -1.734375 0.632812 -1.65625 0.6875 -1.59375 C 0.75 -1.53125 0.851562 -1.484375 1 -1.453125 L 1.40625 -1.359375 C 1.613281 -1.304688 1.765625 -1.222656 1.859375 -1.109375 C 1.953125 -0.992188 2 -0.847656 2 -0.671875 C 2 -0.523438 1.960938 -0.398438 1.890625 -0.296875 C 1.828125 -0.191406 1.726562 -0.109375 1.59375 -0.046875 C 1.457031 0.015625 1.289062 0.046875 1.09375 0.046875 Z M 1.09375 0.046875 "/></g></g></g><g fill="#000000" fill-opacity="1"><g transform="translate(64.638497, 4.312085)"><g><path d="M 0.484375 0 L 0.484375 -3.203125 L 1.703125 -3.203125 C 1.898438 -3.203125 2.066406 -3.171875 2.203125 -3.109375 C 2.335938 -3.046875 2.4375 -2.957031 2.5 -2.84375 C 2.570312 -2.726562 2.609375 -2.585938 2.609375 -2.421875 C 2.609375 -2.285156 2.570312 -2.160156 2.5 -2.046875 C 2.425781 -1.929688 2.316406 -1.84375 2.171875 -1.78125 L 2.171875 -1.734375 C 2.390625 -1.679688 2.550781 -1.585938 2.65625 -1.453125 C 2.769531 -1.316406 2.828125 -1.140625 2.828125 -0.921875 C 2.828125 -0.628906 2.738281 -0.398438 2.5625 -0.234375 C 2.382812 -0.078125 2.125 0 1.78125 0 Z M 1.671875 -1.859375 C 1.847656 -1.859375 1.984375 -1.90625 2.078125 -2 C 2.179688 -2.09375 2.234375 -2.21875 2.234375 -2.375 C 2.234375 -2.550781 2.1875 -2.679688 2.09375 -2.765625 C 2 -2.847656 1.859375 -2.890625 1.671875 -2.890625 L 0.859375 -2.890625 L 0.859375 -1.859375 Z M 1.765625 -0.3125 C 2.210938 -0.3125 2.4375 -0.515625 2.4375 -0.921875 C 2.4375 -1.335938 2.210938 -1.546875 1.765625 -1.546875 L 0.859375 -1.546875 L 0.859375 -0.3125 Z M 1.765625 -0.3125 "/></g></g><g transform="translate(67.71637, 4.312085)"><g><path d="M 1 0.046875 C 0.757812 0.046875 0.570312 -0.015625 0.4375 -0.140625 C 0.300781 -0.265625 0.234375 -0.441406 0.234375 -0.671875 C 0.234375 -0.816406 0.265625 -0.9375 0.328125 -1.03125 C 0.390625 -1.132812 0.476562 -1.21875 0.59375 -1.28125 C 0.71875 -1.34375 0.882812 -1.390625 1.09375 -1.421875 C 1.257812 -1.453125 1.390625 -1.484375 1.484375 -1.515625 C 1.578125 -1.554688 1.640625 -1.597656 1.671875 -1.640625 C 1.703125 -1.679688 1.71875 -1.738281 1.71875 -1.8125 C 1.71875 -1.914062 1.679688 -2 1.609375 -2.0625 C 1.535156 -2.125 1.414062 -2.15625 1.25 -2.15625 C 1.09375 -2.15625 0.957031 -2.125 0.84375 -2.0625 C 0.726562 -2 0.625 -1.90625 0.53125 -1.78125 L 0.484375 -1.78125 L 0.3125 -2.03125 C 0.414062 -2.164062 0.546875 -2.269531 0.703125 -2.34375 C 0.859375 -2.425781 1.039062 -2.46875 1.25 -2.46875 C 1.53125 -2.46875 1.738281 -2.40625 1.875 -2.28125 C 2.007812 -2.15625 2.078125 -1.976562 2.078125 -1.75 L 2.078125 -0.46875 C 2.078125 -0.34375 2.132812 -0.28125 2.25 -0.28125 C 2.28125 -0.28125 2.316406 -0.285156 2.359375 -0.296875 L 2.390625 -0.28125 L 2.421875 -0.03125 C 2.398438 -0.0195312 2.367188 -0.0078125 2.328125 0 C 2.285156 0.0078125 2.238281 0.015625 2.1875 0.015625 C 2.0625 0.015625 1.960938 -0.0078125 1.890625 -0.0625 C 1.816406 -0.125 1.773438 -0.210938 1.765625 -0.328125 L 1.71875 -0.328125 C 1.644531 -0.203125 1.550781 -0.109375 1.4375 -0.046875 C 1.320312 0.015625 1.175781 0.046875 1 0.046875 Z M 1.078125 -0.234375 C 1.210938 -0.234375 1.328125 -0.265625 1.421875 -0.328125 C 1.523438 -0.390625 1.601562 -0.476562 1.65625 -0.59375 C 1.707031 -0.707031 1.734375 -0.835938 1.734375 -0.984375 L 1.734375 -1.296875 L 1.6875 -1.296875 C 1.632812 -1.253906 1.566406 -1.222656 1.484375 -1.203125 C 1.410156 -1.179688 1.304688 -1.160156 1.171875 -1.140625 C 1.023438 -1.117188 0.910156 -1.085938 0.828125 -1.046875 C 0.742188 -1.003906 0.6875 -0.953125 0.65625 -0.890625 C 0.625 -0.835938 0.609375 -0.765625 0.609375 -0.671875 C 0.609375 -0.523438 0.648438 -0.414062 0.734375 -0.34375 C 0.816406 -0.269531 0.929688 -0.234375 1.078125 -0.234375 Z M 1.078125 -0.234375 "/></g></g><g transform="translate(70.212356, 4.312085)"><g><path d="M 1.640625 -0.390625 L 1.75 -0.125 C 1.6875 -0.0703125 1.609375 -0.03125 1.515625 0 C 1.429688 0.03125 1.332031 0.046875 1.21875 0.046875 C 0.757812 0.046875 0.53125 -0.1875 0.53125 -0.65625 L 0.53125 -2.125 L 0.109375 -2.125 L 0.109375 -2.421875 L 0.53125 -2.421875 L 0.53125 -2.921875 L 0.890625 -2.984375 L 0.890625 -2.421875 L 1.671875 -2.421875 L 1.671875 -2.125 L 0.890625 -2.125 L 0.890625 -0.6875 C 0.890625 -0.414062 1.007812 -0.28125 1.25 -0.28125 C 1.375 -0.28125 1.488281 -0.316406 1.59375 -0.390625 Z M 1.640625 -0.390625 "/></g></g><g transform="translate(72.049892, 4.312085)"><g><path d="M 1.640625 -0.390625 L 1.75 -0.125 C 1.6875 -0.0703125 1.609375 -0.03125 1.515625 0 C 1.429688 0.03125 1.332031 0.046875 1.21875 0.046875 C 0.757812 0.046875 0.53125 -0.1875 0.53125 -0.65625 L 0.53125 -2.125 L 0.109375 -2.125 L 0.109375 -2.421875 L 0.53125 -2.421875 L 0.53125 -2.921875 L 0.890625 -2.984375 L 0.890625 -2.421875 L 1.671875 -2.421875 L 1.671875 -2.125 L 0.890625 -2.125 L 0.890625 -0.6875 C 0.890625 -0.414062 1.007812 -0.28125 1.25 -0.28125 C 1.375 -0.28125 1.488281 -0.316406 1.59375 -0.390625 Z M 1.640625 -0.390625 "/></g></g><g transform="translate(73.887429, 4.312085)"><g><path d="M 2.296875 -1.125 L 0.640625 -1.125 C 0.648438 -0.832031 0.71875 -0.617188 0.84375 -0.484375 C 0.976562 -0.347656 1.160156 -0.28125 1.390625 -0.28125 C 1.566406 -0.28125 1.707031 -0.304688 1.8125 -0.359375 C 1.914062 -0.421875 1.992188 -0.519531 2.046875 -0.65625 L 2.09375 -0.65625 L 2.328125 -0.515625 C 2.265625 -0.335938 2.15625 -0.195312 2 -0.09375 C 1.84375 0 1.640625 0.046875 1.390625 0.046875 C 1.160156 0.046875 0.957031 0 0.78125 -0.09375 C 0.613281 -0.1875 0.484375 -0.328125 0.390625 -0.515625 C 0.304688 -0.703125 0.265625 -0.929688 0.265625 -1.203125 C 0.265625 -1.484375 0.3125 -1.71875 0.40625 -1.90625 C 0.5 -2.09375 0.628906 -2.234375 0.796875 -2.328125 C 0.960938 -2.421875 1.15625 -2.46875 1.375 -2.46875 C 1.675781 -2.46875 1.914062 -2.378906 2.09375 -2.203125 C 2.269531 -2.023438 2.359375 -1.765625 2.359375 -1.421875 C 2.359375 -1.285156 2.351562 -1.195312 2.34375 -1.15625 Z M 2 -1.421875 C 2 -1.679688 1.941406 -1.867188 1.828125 -1.984375 C 1.722656 -2.097656 1.570312 -2.15625 1.375 -2.15625 C 1.15625 -2.15625 0.984375 -2.097656 0.859375 -1.984375 C 0.742188 -1.867188 0.675781 -1.679688 0.65625 -1.421875 Z M 2 -1.421875 "/></g></g><g transform="translate(76.459979, 4.312085)"><g><path d="M 0.421875 0 L 0.421875 -2.421875 L 0.765625 -2.421875 L 0.765625 -2.03125 L 0.8125 -2.03125 C 0.914062 -2.300781 1.125 -2.4375 1.4375 -2.4375 C 1.601562 -2.4375 1.726562 -2.40625 1.8125 -2.34375 L 1.71875 -2.046875 L 1.671875 -2.03125 C 1.585938 -2.082031 1.488281 -2.109375 1.375 -2.109375 C 1.1875 -2.109375 1.039062 -2.035156 0.9375 -1.890625 C 0.832031 -1.742188 0.78125 -1.507812 0.78125 -1.1875 L 0.78125 0 Z M 0.421875 0 "/></g></g><g transform="translate(78.323766, 4.312085)"><g><path d="M 0.484375 1.03125 C 0.398438 1.03125 0.320312 1.019531 0.25 1 C 0.1875 0.988281 0.128906 0.972656 0.078125 0.953125 L 0.140625 0.65625 L 0.171875 0.65625 C 0.210938 0.664062 0.257812 0.675781 0.3125 0.6875 C 0.363281 0.707031 0.414062 0.71875 0.46875 0.71875 C 0.570312 0.71875 0.65625 0.703125 0.71875 0.671875 C 0.78125 0.648438 0.832031 0.609375 0.875 0.546875 C 0.925781 0.484375 0.96875 0.398438 1 0.296875 L 1.09375 0.0625 L 0.125 -2.421875 L 0.515625 -2.421875 L 1.265625 -0.4375 L 1.3125 -0.4375 L 2.046875 -2.421875 L 2.40625 -2.421875 L 1.328125 0.375 C 1.265625 0.53125 1.195312 0.65625 1.125 0.75 C 1.050781 0.84375 0.960938 0.910156 0.859375 0.953125 C 0.753906 1.003906 0.628906 1.03125 0.484375 1.03125 Z M 0.484375 1.03125 "/></g></g></g><g fill="#000000" fill-opacity="1"><g transform="translate(175.930321, 4.312085)"><g><path d="M 2.875 0 L 2.484375 0 L 2.1875 -0.875 L 0.8125 -0.875 L 0.515625 0 L 0.125 0 L 1.25 -3.203125 L 1.765625 -3.203125 Z M 1.46875 -2.8125 L 0.921875 -1.1875 L 2.078125 -1.1875 L 1.53125 -2.8125 Z M 1.46875 -2.8125 "/></g></g><g transform="translate(178.936005, 4.312085)"><g><path d="M 0.421875 0 L 0.421875 -2.421875 L 0.765625 -2.421875 L 0.765625 -2.0625 L 0.8125 -2.046875 C 0.882812 -2.179688 0.976562 -2.285156 1.09375 -2.359375 C 1.21875 -2.429688 1.359375 -2.46875 1.515625 -2.46875 C 1.703125 -2.46875 1.847656 -2.429688 1.953125 -2.359375 C 2.054688 -2.285156 2.132812 -2.171875 2.1875 -2.015625 L 2.234375 -2.015625 C 2.316406 -2.160156 2.421875 -2.269531 2.546875 -2.34375 C 2.671875 -2.425781 2.820312 -2.46875 3 -2.46875 C 3.25 -2.46875 3.429688 -2.398438 3.546875 -2.265625 C 3.671875 -2.128906 3.734375 -1.921875 3.734375 -1.640625 L 3.734375 0 L 3.375 0 L 3.375 -1.640625 C 3.375 -1.816406 3.335938 -1.945312 3.265625 -2.03125 C 3.191406 -2.113281 3.070312 -2.15625 2.90625 -2.15625 C 2.71875 -2.15625 2.5625 -2.082031 2.4375 -1.9375 C 2.3125 -1.800781 2.25 -1.570312 2.25 -1.25 L 2.25 0 L 1.890625 0 L 1.890625 -1.640625 C 1.890625 -1.816406 1.851562 -1.945312 1.78125 -2.03125 C 1.707031 -2.113281 1.59375 -2.15625 1.4375 -2.15625 C 1.238281 -2.15625 1.078125 -2.085938 0.953125 -1.953125 C 0.835938 -1.816406 0.78125 -1.59375 0.78125 -1.28125 L 0.78125 0 Z M 0.421875 0 "/></g></g><g transform="translate(183.048586, 4.312085)"><g><path d="M 0.421875 0.984375 L 0.421875 -2.421875 L 0.78125 -2.421875 L 0.78125 -2.046875 L 0.828125 -2.046875 C 1.003906 -2.328125 1.265625 -2.46875 1.609375 -2.46875 C 1.816406 -2.46875 1.992188 -2.421875 2.140625 -2.328125 C 2.285156 -2.234375 2.398438 -2.09375 2.484375 -1.90625 C 2.566406 -1.71875 2.609375 -1.484375 2.609375 -1.203125 C 2.609375 -0.929688 2.566406 -0.703125 2.484375 -0.515625 C 2.398438 -0.328125 2.28125 -0.1875 2.125 -0.09375 C 1.96875 0 1.789062 0.046875 1.59375 0.046875 C 1.425781 0.046875 1.28125 0.0195312 1.15625 -0.03125 C 1.03125 -0.09375 0.921875 -0.1875 0.828125 -0.3125 L 0.78125 -0.3125 L 0.78125 0.984375 Z M 1.515625 -0.28125 C 2.003906 -0.28125 2.25 -0.585938 2.25 -1.203125 C 2.25 -1.828125 2.003906 -2.140625 1.515625 -2.140625 C 1.367188 -2.140625 1.238281 -2.101562 1.125 -2.03125 C 1.019531 -1.96875 0.9375 -1.867188 0.875 -1.734375 C 0.8125 -1.597656 0.78125 -1.421875 0.78125 -1.203125 C 0.78125 -0.992188 0.8125 -0.816406 0.875 -0.671875 C 0.9375 -0.535156 1.019531 -0.4375 1.125 -0.375 C 1.238281 -0.3125 1.367188 -0.28125 1.515625 -0.28125 Z M 1.515625 -0.28125 "/></g></g><g transform="translate(185.927393, 4.312085)"><g><path d="M 0.96875 0.046875 C 0.789062 0.046875 0.648438 0 0.546875 -0.09375 C 0.453125 -0.195312 0.40625 -0.34375 0.40625 -0.53125 L 0.40625 -3.390625 L 0.765625 -3.390625 L 0.765625 -0.5625 C 0.765625 -0.457031 0.785156 -0.382812 0.828125 -0.34375 C 0.867188 -0.300781 0.925781 -0.28125 1 -0.28125 C 1.050781 -0.28125 1.101562 -0.285156 1.15625 -0.296875 L 1.1875 -0.28125 L 1.234375 -0.015625 C 1.203125 0.00390625 1.160156 0.0195312 1.109375 0.03125 C 1.066406 0.0390625 1.019531 0.046875 0.96875 0.046875 Z M 0.96875 0.046875 "/></g></g><g transform="translate(187.239919, 4.312085)"><g><path d="M 2.296875 -1.125 L 0.640625 -1.125 C 0.648438 -0.832031 0.71875 -0.617188 0.84375 -0.484375 C 0.976562 -0.347656 1.160156 -0.28125 1.390625 -0.28125 C 1.566406 -0.28125 1.707031 -0.304688 1.8125 -0.359375 C 1.914062 -0.421875 1.992188 -0.519531 2.046875 -0.65625 L 2.09375 -0.65625 L 2.328125 -0.515625 C 2.265625 -0.335938 2.15625 -0.195312 2 -0.09375 C 1.84375 0 1.640625 0.046875 1.390625 0.046875 C 1.160156 0.046875 0.957031 0 0.78125 -0.09375 C 0.613281 -0.1875 0.484375 -0.328125 0.390625 -0.515625 C 0.304688 -0.703125 0.265625 -0.929688 0.265625 -1.203125 C 0.265625 -1.484375 0.3125 -1.71875 0.40625 -1.90625 C 0.5 -2.09375 0.628906 -2.234375 0.796875 -2.328125 C 0.960938 -2.421875 1.15625 -2.46875 1.375 -2.46875 C 1.675781 -2.46875 1.914062 -2.378906 2.09375 -2.203125 C 2.269531 -2.023438 2.359375 -1.765625 2.359375 -1.421875 C 2.359375 -1.285156 2.351562 -1.195312 2.34375 -1.15625 Z M 2 -1.421875 C 2 -1.679688 1.941406 -1.867188 1.828125 -1.984375 C 1.722656 -2.097656 1.570312 -2.15625 1.375 -2.15625 C 1.15625 -2.15625 0.984375 -2.097656 0.859375 -1.984375 C 0.742188 -1.867188 0.675781 -1.679688 0.65625 -1.421875 Z M 2 -1.421875 "/></g></g><g transform="translate(189.812469, 4.312085)"><g/></g><g transform="translate(190.910616, 4.312085)"><g><path d="M 1.765625 0.046875 C 1.484375 0.046875 1.234375 -0.015625 1.015625 -0.140625 C 0.796875 -0.273438 0.625 -0.460938 0.5 -0.703125 C 0.375 -0.953125 0.3125 -1.25 0.3125 -1.59375 C 0.3125 -1.945312 0.375 -2.242188 0.5 -2.484375 C 0.625 -2.734375 0.796875 -2.921875 1.015625 -3.046875 C 1.234375 -3.179688 1.484375 -3.25 1.765625 -3.25 C 2.066406 -3.25 2.316406 -3.191406 2.515625 -3.078125 C 2.710938 -2.960938 2.851562 -2.789062 2.9375 -2.5625 L 2.703125 -2.40625 L 2.65625 -2.40625 C 2.5625 -2.59375 2.441406 -2.722656 2.296875 -2.796875 C 2.160156 -2.867188 1.984375 -2.90625 1.765625 -2.90625 C 1.566406 -2.90625 1.390625 -2.859375 1.234375 -2.765625 C 1.078125 -2.679688 0.953125 -2.539062 0.859375 -2.34375 C 0.765625 -2.15625 0.71875 -1.90625 0.71875 -1.59375 C 0.71875 -1.289062 0.765625 -1.039062 0.859375 -0.84375 C 0.953125 -0.65625 1.078125 -0.515625 1.234375 -0.421875 C 1.390625 -0.335938 1.566406 -0.296875 1.765625 -0.296875 C 2.003906 -0.296875 2.195312 -0.347656 2.34375 -0.453125 C 2.488281 -0.554688 2.597656 -0.722656 2.671875 -0.953125 L 2.71875 -0.953125 L 2.96875 -0.828125 C 2.894531 -0.546875 2.753906 -0.328125 2.546875 -0.171875 C 2.347656 -0.0234375 2.085938 0.046875 1.765625 0.046875 Z M 1.765625 0.046875 "/></g></g><g transform="translate(194.047553, 4.312085)"><g><path d="M 1.390625 0.046875 C 1.160156 0.046875 0.957031 0 0.78125 -0.09375 C 0.613281 -0.195312 0.484375 -0.34375 0.390625 -0.53125 C 0.304688 -0.71875 0.265625 -0.941406 0.265625 -1.203125 C 0.265625 -1.472656 0.304688 -1.703125 0.390625 -1.890625 C 0.484375 -2.078125 0.613281 -2.21875 0.78125 -2.3125 C 0.957031 -2.414062 1.160156 -2.46875 1.390625 -2.46875 C 1.617188 -2.46875 1.816406 -2.414062 1.984375 -2.3125 C 2.148438 -2.21875 2.273438 -2.078125 2.359375 -1.890625 C 2.453125 -1.703125 2.5 -1.472656 2.5 -1.203125 C 2.5 -0.941406 2.453125 -0.71875 2.359375 -0.53125 C 2.273438 -0.34375 2.148438 -0.195312 1.984375 -0.09375 C 1.816406 0 1.617188 0.046875 1.390625 0.046875 Z M 1.390625 -0.28125 C 1.628906 -0.28125 1.8125 -0.351562 1.9375 -0.5 C 2.0625 -0.65625 2.125 -0.890625 2.125 -1.203125 C 2.125 -1.523438 2.0625 -1.757812 1.9375 -1.90625 C 1.8125 -2.0625 1.628906 -2.140625 1.390625 -2.140625 C 1.148438 -2.140625 0.960938 -2.0625 0.828125 -1.90625 C 0.703125 -1.757812 0.640625 -1.523438 0.640625 -1.203125 C 0.640625 -0.890625 0.703125 -0.65625 0.828125 -0.5 C 0.960938 -0.351562 1.148438 -0.28125 1.390625 -0.28125 Z M 1.390625 -0.28125 "/></g></g><g transform="translate(196.816982, 4.312085)"><g><path d="M 0.421875 0 L 0.421875 -2.421875 L 0.765625 -2.421875 L 0.765625 -2.03125 L 0.8125 -2.03125 C 0.882812 -2.164062 0.984375 -2.269531 1.109375 -2.34375 C 1.234375 -2.425781 1.382812 -2.46875 1.5625 -2.46875 C 1.851562 -2.46875 2.0625 -2.390625 2.1875 -2.234375 C 2.320312 -2.085938 2.390625 -1.859375 2.390625 -1.546875 L 2.390625 0 L 2.046875 0 L 2.046875 -1.546875 C 2.046875 -1.691406 2.023438 -1.804688 1.984375 -1.890625 C 1.941406 -1.984375 1.878906 -2.050781 1.796875 -2.09375 C 1.722656 -2.132812 1.625 -2.15625 1.5 -2.15625 C 1.28125 -2.15625 1.101562 -2.082031 0.96875 -1.9375 C 0.84375 -1.789062 0.78125 -1.554688 0.78125 -1.234375 L 0.78125 0 Z M 0.421875 0 "/></g></g><g transform="translate(199.595162, 4.312085)"><g><path d="M 1.640625 -0.390625 L 1.75 -0.125 C 1.6875 -0.0703125 1.609375 -0.03125 1.515625 0 C 1.429688 0.03125 1.332031 0.046875 1.21875 0.046875 C 0.757812 0.046875 0.53125 -0.1875 0.53125 -0.65625 L 0.53125 -2.125 L 0.109375 -2.125 L 0.109375 -2.421875 L 0.53125 -2.421875 L 0.53125 -2.921875 L 0.890625 -2.984375 L 0.890625 -2.421875 L 1.671875 -2.421875 L 1.671875 -2.125 L 0.890625 -2.125 L 0.890625 -0.6875 C 0.890625 -0.414062 1.007812 -0.28125 1.25 -0.28125 C 1.375 -0.28125 1.488281 -0.316406 1.59375 -0.390625 Z M 1.640625 -0.390625 "/></g></g><g transform="translate(201.432698, 4.312085)"><g><path d="M 2.296875 -1.125 L 0.640625 -1.125 C 0.648438 -0.832031 0.71875 -0.617188 0.84375 -0.484375 C 0.976562 -0.347656 1.160156 -0.28125 1.390625 -0.28125 C 1.566406 -0.28125 1.707031 -0.304688 1.8125 -0.359375 C 1.914062 -0.421875 1.992188 -0.519531 2.046875 -0.65625 L 2.09375 -0.65625 L 2.328125 -0.515625 C 2.265625 -0.335938 2.15625 -0.195312 2 -0.09375 C 1.84375 0 1.640625 0.046875 1.390625 0.046875 C 1.160156 0.046875 0.957031 0 0.78125 -0.09375 C 0.613281 -0.1875 0.484375 -0.328125 0.390625 -0.515625 C 0.304688 -0.703125 0.265625 -0.929688 0.265625 -1.203125 C 0.265625 -1.484375 0.3125 -1.71875 0.40625 -1.90625 C 0.5 -2.09375 0.628906 -2.234375 0.796875 -2.328125 C 0.960938 -2.421875 1.15625 -2.46875 1.375 -2.46875 C 1.675781 -2.46875 1.914062 -2.378906 2.09375 -2.203125 C 2.269531 -2.023438 2.359375 -1.765625 2.359375 -1.421875 C 2.359375 -1.285156 2.351562 -1.195312 2.34375 -1.15625 Z M 2 -1.421875 C 2 -1.679688 1.941406 -1.867188 1.828125 -1.984375 C 1.722656 -2.097656 1.570312 -2.15625 1.375 -2.15625 C 1.15625 -2.15625 0.984375 -2.097656 0.859375 -1.984375 C 0.742188 -1.867188 0.675781 -1.679688 0.65625 -1.421875 Z M 2 -1.421875 "/></g></g><g transform="translate(204.005249, 4.312085)"><g><path d="M 0.421875 0 L 0.421875 -2.421875 L 0.765625 -2.421875 L 0.765625 -2.03125 L 0.8125 -2.03125 C 0.882812 -2.164062 0.984375 -2.269531 1.109375 -2.34375 C 1.234375 -2.425781 1.382812 -2.46875 1.5625 -2.46875 C 1.851562 -2.46875 2.0625 -2.390625 2.1875 -2.234375 C 2.320312 -2.085938 2.390625 -1.859375 2.390625 -1.546875 L 2.390625 0 L 2.046875 0 L 2.046875 -1.546875 C 2.046875 -1.691406 2.023438 -1.804688 1.984375 -1.890625 C 1.941406 -1.984375 1.878906 -2.050781 1.796875 -2.09375 C 1.722656 -2.132812 1.625 -2.15625 1.5 -2.15625 C 1.28125 -2.15625 1.101562 -2.082031 0.96875 -1.9375 C 0.84375 -1.789062 0.78125 -1.554688 0.78125 -1.234375 L 0.78125 0 Z M 0.421875 0 "/></g></g><g transform="translate(206.783428, 4.312085)"><g><path d="M 1.640625 -0.390625 L 1.75 -0.125 C 1.6875 -0.0703125 1.609375 -0.03125 1.515625 0 C 1.429688 0.03125 1.332031 0.046875 1.21875 0.046875 C 0.757812 0.046875 0.53125 -0.1875 0.53125 -0.65625 L 0.53125 -2.125 L 0.109375 -2.125 L 0.109375 -2.421875 L 0.53125 -2.421875 L 0.53125 -2.921875 L 0.890625 -2.984375 L 0.890625 -2.421875 L 1.671875 -2.421875 L 1.671875 -2.125 L 0.890625 -2.125 L 0.890625 -0.6875 C 0.890625 -0.414062 1.007812 -0.28125 1.25 -0.28125 C 1.375 -0.28125 1.488281 -0.316406 1.59375 -0.390625 Z M 1.640625 -0.390625 "/></g></g></g><g fill="#000000" fill-opacity="1"><g transform="translate(146.184622, 4.312085)"><g><path d="M 1.40625 0.046875 C 1.195312 0.046875 1.015625 0.0195312 0.859375 -0.03125 C 0.703125 -0.09375 0.566406 -0.164062 0.453125 -0.25 C 0.347656 -0.34375 0.269531 -0.441406 0.21875 -0.546875 L 0.421875 -0.796875 L 0.484375 -0.796875 C 0.679688 -0.460938 0.988281 -0.296875 1.40625 -0.296875 C 1.644531 -0.296875 1.820312 -0.34375 1.9375 -0.4375 C 2.050781 -0.539062 2.109375 -0.679688 2.109375 -0.859375 C 2.109375 -0.960938 2.085938 -1.050781 2.046875 -1.125 C 2.015625 -1.195312 1.953125 -1.257812 1.859375 -1.3125 C 1.773438 -1.363281 1.65625 -1.410156 1.5 -1.453125 L 1.125 -1.546875 C 0.84375 -1.609375 0.632812 -1.710938 0.5 -1.859375 C 0.375 -2.015625 0.3125 -2.203125 0.3125 -2.421875 C 0.3125 -2.578125 0.351562 -2.71875 0.4375 -2.84375 C 0.519531 -2.96875 0.640625 -3.066406 0.796875 -3.140625 C 0.953125 -3.210938 1.140625 -3.25 1.359375 -3.25 C 1.597656 -3.25 1.800781 -3.210938 1.96875 -3.140625 C 2.132812 -3.078125 2.265625 -2.976562 2.359375 -2.84375 L 2.1875 -2.59375 L 2.125 -2.59375 C 2.03125 -2.707031 1.921875 -2.789062 1.796875 -2.84375 C 1.671875 -2.894531 1.523438 -2.921875 1.359375 -2.921875 C 1.140625 -2.921875 0.972656 -2.875 0.859375 -2.78125 C 0.742188 -2.695312 0.6875 -2.582031 0.6875 -2.4375 C 0.6875 -2.289062 0.726562 -2.171875 0.8125 -2.078125 C 0.894531 -1.992188 1.035156 -1.929688 1.234375 -1.890625 L 1.609375 -1.796875 C 1.921875 -1.722656 2.144531 -1.609375 2.28125 -1.453125 C 2.425781 -1.304688 2.5 -1.113281 2.5 -0.875 C 2.5 -0.695312 2.457031 -0.535156 2.375 -0.390625 C 2.289062 -0.253906 2.164062 -0.144531 2 -0.0625 C 1.84375 0.0078125 1.644531 0.046875 1.40625 0.046875 Z M 1.40625 0.046875 "/></g></g><g transform="translate(148.925613, 4.312085)"><g><path d="M 2.296875 -1.125 L 0.640625 -1.125 C 0.648438 -0.832031 0.71875 -0.617188 0.84375 -0.484375 C 0.976562 -0.347656 1.160156 -0.28125 1.390625 -0.28125 C 1.566406 -0.28125 1.707031 -0.304688 1.8125 -0.359375 C 1.914062 -0.421875 1.992188 -0.519531 2.046875 -0.65625 L 2.09375 -0.65625 L 2.328125 -0.515625 C 2.265625 -0.335938 2.15625 -0.195312 2 -0.09375 C 1.84375 0 1.640625 0.046875 1.390625 0.046875 C 1.160156 0.046875 0.957031 0 0.78125 -0.09375 C 0.613281 -0.1875 0.484375 -0.328125 0.390625 -0.515625 C 0.304688 -0.703125 0.265625 -0.929688 0.265625 -1.203125 C 0.265625 -1.484375 0.3125 -1.71875 0.40625 -1.90625 C 0.5 -2.09375 0.628906 -2.234375 0.796875 -2.328125 C 0.960938 -2.421875 1.15625 -2.46875 1.375 -2.46875 C 1.675781 -2.46875 1.914062 -2.378906 2.09375 -2.203125 C 2.269531 -2.023438 2.359375 -1.765625 2.359375 -1.421875 C 2.359375 -1.285156 2.351562 -1.195312 2.34375 -1.15625 Z M 2 -1.421875 C 2 -1.679688 1.941406 -1.867188 1.828125 -1.984375 C 1.722656 -2.097656 1.570312 -2.15625 1.375 -2.15625 C 1.15625 -2.15625 0.984375 -2.097656 0.859375 -1.984375 C 0.742188 -1.867188 0.675781 -1.679688 0.65625 -1.421875 Z M 2 -1.421875 "/></g></g><g transform="translate(151.498164, 4.312085)"><g><path d="M 0.421875 0 L 0.421875 -2.421875 L 0.765625 -2.421875 L 0.765625 -2.03125 L 0.8125 -2.03125 C 0.914062 -2.300781 1.125 -2.4375 1.4375 -2.4375 C 1.601562 -2.4375 1.726562 -2.40625 1.8125 -2.34375 L 1.71875 -2.046875 L 1.671875 -2.03125 C 1.585938 -2.082031 1.488281 -2.109375 1.375 -2.109375 C 1.1875 -2.109375 1.039062 -2.035156 0.9375 -1.890625 C 0.832031 -1.742188 0.78125 -1.507812 0.78125 -1.1875 L 0.78125 0 Z M 0.421875 0 "/></g></g><g transform="translate(153.36195, 4.312085)"><g><path d="M 1.53125 0 L 1.03125 0 L 0.125 -2.421875 L 0.5 -2.421875 L 1.265625 -0.40625 L 1.3125 -0.40625 L 2.0625 -2.421875 L 2.4375 -2.421875 Z M 1.53125 0 "/></g></g><g transform="translate(155.919188, 4.312085)"><g><path d="M 2.296875 -1.125 L 0.640625 -1.125 C 0.648438 -0.832031 0.71875 -0.617188 0.84375 -0.484375 C 0.976562 -0.347656 1.160156 -0.28125 1.390625 -0.28125 C 1.566406 -0.28125 1.707031 -0.304688 1.8125 -0.359375 C 1.914062 -0.421875 1.992188 -0.519531 2.046875 -0.65625 L 2.09375 -0.65625 L 2.328125 -0.515625 C 2.265625 -0.335938 2.15625 -0.195312 2 -0.09375 C 1.84375 0 1.640625 0.046875 1.390625 0.046875 C 1.160156 0.046875 0.957031 0 0.78125 -0.09375 C 0.613281 -0.1875 0.484375 -0.328125 0.390625 -0.515625 C 0.304688 -0.703125 0.265625 -0.929688 0.265625 -1.203125 C 0.265625 -1.484375 0.3125 -1.71875 0.40625 -1.90625 C 0.5 -2.09375 0.628906 -2.234375 0.796875 -2.328125 C 0.960938 -2.421875 1.15625 -2.46875 1.375 -2.46875 C 1.675781 -2.46875 1.914062 -2.378906 2.09375 -2.203125 C 2.269531 -2.023438 2.359375 -1.765625 2.359375 -1.421875 C 2.359375 -1.285156 2.351562 -1.195312 2.34375 -1.15625 Z M 2 -1.421875 C 2 -1.679688 1.941406 -1.867188 1.828125 -1.984375 C 1.722656 -2.097656 1.570312 -2.15625 1.375 -2.15625 C 1.15625 -2.15625 0.984375 -2.097656 0.859375 -1.984375 C 0.742188 -1.867188 0.675781 -1.679688 0.65625 -1.421875 Z M 2 -1.421875 "/></g></g><g transform="translate(158.491739, 4.312085)"><g><path d="M 0.421875 0 L 0.421875 -2.421875 L 0.765625 -2.421875 L 0.765625 -2.03125 L 0.8125 -2.03125 C 0.914062 -2.300781 1.125 -2.4375 1.4375 -2.4375 C 1.601562 -2.4375 1.726562 -2.40625 1.8125 -2.34375 L 1.71875 -2.046875 L 1.671875 -2.03125 C 1.585938 -2.082031 1.488281 -2.109375 1.375 -2.109375 C 1.1875 -2.109375 1.039062 -2.035156 0.9375 -1.890625 C 0.832031 -1.742188 0.78125 -1.507812 0.78125 -1.1875 L 0.78125 0 Z M 0.421875 0 "/></g></g></g><path stroke-linecap="butt" transform="matrix(-0.498789, 0.556059, -0.55583, -0.498584, 151.915079, 34.533929)" fill="none" stroke-linejoin="miter" d="M -0.000300255 1.000044 L 32.490985 1.001351 " stroke="#000000" stroke-width="2" stroke-opacity="1" stroke-miterlimit="4"/><path stroke-linecap="round" transform="matrix(-0.498789, 0.556059, -0.55583, -0.498584, 151.915079, 34.533929)" fill-opacity="1" fill="#000000" fill-rule="nonzero" stroke-linejoin="round" d="M 32.990755 -1.998215 L 36.990509 0.997525 L 32.98744 3.999456 Z M 32.990755 -1.998215 " stroke="#000000" stroke-width="2" stroke-opacity="1" stroke-miterlimit="4"/></svg>