<svg xmlns="http://www.w3.org/2000/svg" xmlns:xlink="http://www.w3.org/1999/xlink" width="300" zoomAndPan="magnify" viewBox="0 0 224.87999 225" height="300" preserveAspectRatio="xMidYMid meet" version="1.0"><defs><g/><clipPath id="89cbd94926"><path d="M 59.0625 41.730469 L 176 41.730469 L 176 127.9375 L 59.0625 127.9375 Z M 59.0625 41.730469 " clip-rule="nonzero"/></clipPath></defs><g clip-path="url(#89cbd94926)"><path fill="#000000" d="M 160.242188 58.554688 C 154.894531 59.832031 149.339844 60.484375 143.921875 61.488281 C 138.480469 62.488281 133.089844 63.652344 127.695312 64.933594 C 127.039062 65.097656 126.757812 64.117188 127.414062 63.957031 C 132.878906 62.558594 138.339844 61.277344 143.875 60.136719 C 149.175781 59.066406 154.660156 57.878906 160.078125 57.410156 C 160.734375 57.34375 160.875 58.390625 160.242188 58.554688 Z M 96.695312 95.789062 C 89.523438 94.671875 82.347656 93.484375 75.125 92.648438 C 74.75 92.601562 74.65625 93.253906 75.03125 93.320312 C 82.207031 94.8125 89.476562 95.929688 96.71875 97.117188 C 103.964844 98.304688 111.210938 99.5625 118.480469 100.613281 C 119.300781 100.726562 119.675781 99.492188 118.808594 99.332031 C 111.46875 98.027344 104.058594 96.933594 96.695312 95.789062 Z M 81.503906 115.445312 C 76.132812 113.792969 70.785156 112.117188 65.441406 110.414062 C 64.738281 110.183594 64.457031 111.300781 65.160156 111.511719 C 70.433594 113.1875 75.710938 114.839844 80.988281 116.46875 C 83.519531 117.238281 86.050781 118.007812 88.605469 118.753906 C 91.703125 119.636719 94.867188 120.871094 98.035156 121.359375 C 98.410156 121.429688 98.714844 120.894531 98.292969 120.707031 C 95.5 119.476562 92.359375 118.800781 89.429688 117.890625 C 86.800781 117.074219 84.152344 116.261719 81.503906 115.445312 Z M 65.464844 105.851562 C 64.832031 105.664062 64.574219 106.644531 65.207031 106.851562 C 75.945312 110.207031 86.707031 113.464844 97.46875 116.703125 C 97.964844 116.84375 98.152344 116.097656 97.683594 115.933594 C 86.941406 112.511719 76.226562 109.136719 65.464844 105.851562 Z M 118.292969 94.207031 C 103.308594 91.667969 88.300781 89.269531 73.320312 86.753906 C 72.757812 86.660156 72.78125 87.359375 73.34375 87.476562 C 73.34375 87.476562 103.097656 92.808594 118.011719 95.535156 C 119.183594 95.746094 119.464844 94.417969 118.292969 94.207031 Z M 160.195312 52.335938 C 148.871094 54.035156 137.613281 56.109375 126.382812 58.320312 C 125.914062 58.414062 126.125 59.113281 126.59375 59.019531 C 137.871094 57.015625 149.175781 55.152344 160.5 53.359375 C 161.179688 53.265625 160.875 52.242188 160.195312 52.335938 Z M 173.796875 82.097656 C 173.726562 82.214844 173.628906 82.261719 173.511719 82.285156 C 173.394531 82.355469 173.277344 82.398438 173.136719 82.398438 C 171.871094 82.5625 170.605469 82.726562 169.363281 82.890625 C 171.332031 87.035156 172.011719 92.902344 168.988281 96.675781 C 168.941406 96.722656 168.894531 96.769531 168.847656 96.816406 C 168.753906 96.910156 168.613281 96.976562 168.449219 97 C 167.066406 97.304688 165.683594 97.605469 164.320312 97.910156 C 166.667969 102.171875 166.503906 107.226562 164.273438 111.511719 C 164.203125 111.671875 164.0625 111.742188 163.945312 111.789062 C 163.851562 111.835938 163.757812 111.882812 163.640625 111.90625 C 142.234375 117.167969 120.917969 122.828125 99.417969 127.742188 C 99.183594 127.859375 98.902344 127.882812 98.597656 127.789062 C 85.675781 124.109375 72.992188 119.707031 60.164062 115.820312 C 59.367188 115.585938 59.460938 114.539062 60.046875 114.28125 C 63.1875 110.042969 63.046875 104.289062 59.554688 100.261719 C 59.0625 99.679688 59.367188 98.957031 59.859375 98.65625 C 59.929688 98.585938 60.023438 98.539062 60.117188 98.515625 C 63.28125 97.746094 66.378906 96.675781 69.542969 95.953125 C 70.527344 95.746094 70.949219 97.164062 69.964844 97.445312 C 67.503906 98.167969 64.996094 98.679688 62.484375 99.214844 C 68.371094 100.9375 74.257812 102.636719 80.117188 104.40625 C 83.378906 105.386719 86.613281 106.339844 89.875 107.316406 C 91.46875 107.808594 93.085938 108.296875 94.679688 108.785156 C 95.804688 109.136719 97 109.367188 98.082031 109.855469 C 103.753906 108.714844 109.429688 107.550781 115.128906 106.527344 C 109.335938 105.292969 103.519531 104.082031 97.730469 102.894531 C 93.367188 101.984375 89.003906 101.054688 84.644531 100.050781 C 80.328125 99.050781 76.109375 97.675781 71.816406 96.746094 C 71.792969 96.746094 71.769531 96.722656 71.746094 96.722656 C 71.441406 96.675781 71.160156 96.441406 71.019531 96.046875 C 70.527344 94.488281 70.574219 92.714844 70.457031 91.085938 L 70.058594 85.660156 C 69.988281 84.84375 71.394531 84.636719 71.511719 85.449219 C 71.792969 87.242188 72.074219 89.039062 72.359375 90.808594 C 72.617188 92.414062 73.085938 94.136719 72.96875 95.765625 C 72.96875 95.8125 72.945312 95.859375 72.945312 95.90625 C 77.09375 96.769531 81.386719 97.234375 85.558594 98.003906 C 89.828125 98.792969 94.117188 99.585938 98.386719 100.378906 C 107.132812 102.03125 115.902344 103.5 124.671875 104.964844 C 124.742188 104.988281 124.835938 104.988281 124.90625 105.011719 C 126.804688 101.238281 126.6875 96.839844 124.742188 93.089844 C 124.601562 92.925781 124.460938 92.761719 124.320312 92.625 C 124.296875 92.601562 124.296875 92.601562 124.273438 92.578125 C 122.347656 92.460938 120.378906 92.042969 118.480469 91.785156 C 117.121094 91.597656 115.738281 91.390625 114.375 91.179688 C 114.351562 91.179688 114.328125 91.179688 114.28125 91.179688 C 96.8125 88.316406 79.367188 85.335938 61.875 82.515625 C 60.867188 82.355469 61.289062 80.886719 62.273438 81.027344 C 62.460938 81.050781 62.648438 81.074219 62.835938 81.097656 C 62.601562 77.136719 62.460938 73.203125 62.320312 69.242188 C 61.96875 69.195312 61.640625 69.125 61.289062 69.078125 C 61.148438 69.054688 61.03125 69.007812 60.960938 68.917969 C 60.46875 68.636719 60.375 67.730469 61.101562 67.519531 C 64.761719 66.449219 68.441406 65.328125 72.191406 64.65625 C 70.832031 62.816406 70.222656 60.230469 70.105469 58.109375 C 69.917969 55.246094 70.644531 52.453125 72.097656 50.007812 C 72.121094 49.796875 72.261719 49.609375 72.546875 49.539062 C 78.757812 48.074219 85.019531 46.328125 91.328125 45.253906 C 95.195312 44.347656 99.839844 43.484375 102.371094 42.925781 C 105.042969 42.34375 107.414062 41.996094 110.15625 41.925781 C 116.066406 41.785156 122.066406 42.390625 127.953125 42.648438 C 140.5 43.230469 152.175781 44.019531 165.636719 45.558594 C 166.175781 45.628906 166.339844 46.117188 166.246094 46.511719 C 166.292969 46.957031 166.035156 47.398438 165.496094 47.375 C 165.164062 47.421875 164.835938 47.492188 164.507812 47.539062 C 163.96875 50.078125 163.6875 52.636719 163.828125 55.222656 C 163.945312 57.527344 164.484375 59.71875 165 61.953125 C 165.378906 61.90625 165.753906 61.835938 166.128906 61.765625 C 167.089844 61.628906 167.558594 63.070312 166.550781 63.257812 C 163.054688 63.886719 159.539062 64.539062 156.042969 65.214844 C 161.90625 65.515625 167.652344 66.144531 173.441406 67.308594 C 173.582031 67.332031 173.675781 67.378906 173.773438 67.449219 C 174.101562 67.566406 174.289062 67.890625 174.3125 68.21875 C 176.75 72.597656 176.515625 77.859375 173.796875 82.097656 Z M 163.289062 47.746094 C 149.644531 49.960938 135.996094 52.171875 122.371094 54.570312 C 122.371094 54.59375 122.347656 54.640625 122.347656 54.664062 C 121.152344 57.367188 120.753906 60.324219 121.152344 63.257812 C 121.339844 64.5625 121.691406 65.820312 122.136719 67.054688 C 122.488281 67.984375 123.003906 68.824219 123.429688 69.730469 C 136.910156 66.984375 150.347656 64.257812 163.945312 62.140625 C 162.1875 57.597656 162.328125 52.453125 163.289062 47.746094 Z M 76.695312 50.007812 C 91.445312 51.101562 106.195312 52.171875 120.941406 53.5 C 120.988281 53.476562 121.035156 53.453125 121.105469 53.453125 C 133.746094 50.773438 146.523438 48.703125 159.304688 46.722656 C 159.632812 46.675781 159.9375 46.652344 160.265625 46.605469 C 149.855469 45.605469 139.441406 44.835938 128.984375 44.324219 C 122.980469 44.019531 116.980469 43.601562 110.953125 43.324219 C 110.0625 43.277344 109.195312 43.277344 108.351562 43.324219 C 104.621094 44.089844 100.894531 44.882812 97.164062 45.628906 C 94.492188 46.304688 91.5625 47.027344 89.617188 47.421875 C 85.300781 48.375 80.988281 49.144531 76.695312 50.007812 Z M 120.894531 55.199219 C 114.777344 54.664062 108.65625 54.128906 102.535156 53.570312 C 101.644531 58.53125 101.902344 63.28125 103.730469 67.984375 C 109.429688 68.566406 115.128906 69.101562 120.847656 69.546875 C 119.816406 67.589844 119.441406 65.074219 119.347656 63.09375 C 119.230469 60.371094 119.769531 57.667969 120.894531 55.199219 Z M 100.800781 53.429688 C 96.578125 53.058594 92.359375 52.660156 88.136719 52.265625 C 86.894531 57.015625 87.316406 62 89.453125 66.449219 C 93.695312 66.9375 97.941406 67.425781 102.183594 67.867188 C 100.214844 63.375 99.558594 58.179688 100.800781 53.429688 Z M 74.023438 64.5625 C 78.476562 65.121094 82.933594 65.65625 87.410156 66.191406 C 85.417969 61.695312 84.996094 56.875 86.261719 52.078125 C 81.808594 51.660156 77.351562 51.21875 72.898438 50.773438 C 72.804688 50.796875 72.6875 50.796875 72.617188 50.773438 C 71.558594 52.988281 71.113281 55.363281 71.371094 57.808594 C 71.652344 60.4375 72.921875 62.324219 74.023438 64.5625 Z M 114.683594 76.925781 C 97.660156 74.480469 80.585938 72.175781 63.609375 69.429688 C 63.773438 73.363281 63.964844 77.300781 64.035156 81.234375 C 80.800781 83.566406 97.515625 85.988281 114.234375 88.617188 C 114.257812 88.523438 114.28125 88.453125 114.328125 88.363281 C 116.019531 84.753906 116.207031 80.652344 114.683594 76.925781 Z M 115.855469 74.855469 C 133.089844 72.035156 150.417969 69.964844 167.769531 68.03125 C 162.539062 67.191406 157.289062 66.355469 151.988281 66.027344 C 151.964844 66.027344 151.964844 66.027344 151.941406 66.027344 C 142.421875 67.890625 132.925781 69.847656 123.453125 71.804688 C 123.40625 71.804688 123.359375 71.804688 123.3125 71.828125 C 123.195312 71.875 123.027344 71.898438 122.863281 71.875 C 106.429688 70.523438 90.109375 68.289062 73.789062 65.957031 C 73.695312 65.980469 73.601562 65.957031 73.484375 65.933594 C 73.4375 65.957031 73.414062 65.957031 73.367188 65.980469 C 70.480469 66.726562 67.597656 67.402344 64.714844 68.125 C 81.621094 70.175781 98.503906 72.292969 115.363281 74.667969 C 115.574219 74.691406 115.714844 74.761719 115.855469 74.855469 Z M 153.933594 83.050781 C 156.324219 82.726562 158.695312 82.421875 161.085938 82.121094 C 162.070312 78.324219 161.882812 74.390625 160.148438 70.894531 C 157.757812 71.175781 155.363281 71.453125 152.972656 71.734375 C 154.636719 75.203125 155.269531 79.394531 153.933594 83.050781 Z M 141.90625 84.730469 C 145.351562 84.238281 148.800781 83.75 152.246094 83.285156 C 153.113281 79.441406 153.371094 75.761719 151.730469 72.035156 C 151.707031 71.992188 151.683594 71.921875 151.683594 71.875 C 148.257812 72.269531 144.835938 72.6875 141.414062 73.109375 C 142.9375 76.742188 143.359375 81.027344 141.90625 84.730469 Z M 131.707031 86.265625 C 134.566406 85.824219 137.449219 85.382812 140.335938 84.960938 C 141.507812 80.957031 141.8125 77.160156 140.21875 73.246094 C 137.191406 73.597656 134.167969 73.96875 131.164062 74.320312 C 132.996094 78.070312 133.277344 82.398438 131.707031 86.265625 Z M 130.320312 86.5 C 131.304688 82.492188 131.589844 78.394531 129.828125 74.503906 C 129.828125 74.503906 129.828125 74.503906 129.828125 74.480469 C 125.304688 75.019531 120.753906 75.53125 116.207031 76.019531 C 118.058594 80.140625 118.152344 84.730469 116.300781 88.875 C 120.964844 88.035156 125.632812 87.242188 130.320312 86.5 Z M 139.886719 86.988281 C 133.441406 87.917969 126.992188 88.851562 120.519531 89.757812 C 121.902344 89.875 123.3125 89.96875 124.625 90.25 C 129.710938 89.128906 134.800781 88.035156 139.886719 86.988281 Z M 97.730469 112.207031 C 97.632812 112.117188 97.5625 112.023438 97.515625 111.90625 C 96.34375 111.695312 95.242188 111.230469 94.117188 110.882812 C 92.523438 110.367188 90.90625 109.878906 89.3125 109.390625 C 86.074219 108.390625 82.839844 107.386719 79.578125 106.386719 C 73.835938 104.617188 68.113281 102.800781 62.414062 100.9375 C 64.878906 105.246094 64.597656 110.460938 61.5 114.492188 C 74.023438 117.890625 86.402344 121.710938 98.878906 125.273438 C 100.824219 120.964844 101.410156 115.820312 97.730469 112.207031 Z M 122.441406 114.351562 C 122.160156 111.929688 121.386719 109.695312 120.144531 107.644531 C 113.484375 109.25 106.710938 110.367188 100.003906 111.671875 C 103.472656 115.585938 102.792969 121.222656 100.847656 125.808594 C 107.929688 123.921875 115.011719 122.058594 122.089844 120.21875 C 122.113281 119.496094 122.347656 118.777344 122.441406 118.007812 C 122.582031 116.796875 122.558594 115.5625 122.441406 114.351562 Z M 145.445312 102.519531 C 143.265625 103.101562 141.085938 103.683594 138.902344 104.289062 C 136.722656 104.894531 134.542969 105.5 132.363281 106.105469 C 130.226562 106.710938 128.070312 107.316406 125.9375 107.96875 C 125.210938 108.179688 124.320312 108.34375 123.59375 108.179688 C 123.007812 108.039062 122.605469 107.945312 121.855469 107.761719 C 122.957031 109.601562 123.828125 111.835938 124.15625 113.957031 C 124.390625 115.445312 124.625 117.890625 124.109375 119.707031 C 131.800781 117.703125 139.488281 115.726562 147.179688 113.769531 C 147.8125 109.855469 147.390625 106.039062 145.445312 102.519531 Z M 163.804688 104.429688 C 163.757812 102.542969 163.101562 99.84375 161.53125 98.5625 C 156.605469 99.703125 151.683594 100.890625 146.78125 102.171875 C 148.707031 105.546875 149.550781 109.554688 148.824219 113.351562 C 153.441406 112.183594 158.0625 111.019531 162.703125 109.878906 C 163.5 108.132812 163.851562 106.316406 163.804688 104.429688 Z M 168.800781 89.851562 C 168.800781 87.640625 168.285156 85.472656 167.277344 83.496094 C 167.230469 83.425781 167.207031 83.332031 167.183594 83.261719 C 160.476562 84.730469 153.628906 85.753906 146.875 87.105469 C 139.9375 88.5 133.019531 89.96875 126.101562 91.484375 C 126.101562 91.527344 126.101562 91.550781 126.101562 91.597656 C 128.164062 94.859375 128.726562 98.75 127.835938 102.382812 C 127.671875 103.617188 127.34375 104.804688 126.898438 105.992188 C 140.453125 102.007812 154.121094 98.539062 167.863281 95.253906 C 168.285156 93.460938 168.800781 91.738281 168.800781 89.851562 Z M 172.644531 69.453125 C 168.964844 69.847656 165.257812 70.265625 161.578125 70.710938 C 163.359375 74.414062 163.523438 78.046875 162.585938 81.910156 C 166.082031 81.46875 169.597656 81.027344 173.089844 80.605469 C 173.089844 80.605469 173.113281 80.605469 173.113281 80.605469 C 174.570312 77.230469 174.78125 72.597656 172.644531 69.453125 Z M 172.644531 69.453125 " fill-opacity="1" fill-rule="nonzero"/></g><g fill="#000000" fill-opacity="1"><g transform="translate(34.217484, 158.867156)"><g><path d="M 1.046875 0 L 1.046875 -1.4375 L 5.09375 -1.4375 L 5.09375 -12.765625 L 4.859375 -12.828125 C 4.203125 -12.503906 3.628906 -12.253906 3.140625 -12.078125 C 2.648438 -11.910156 2.019531 -11.742188 1.25 -11.578125 L 1.25 -13.1875 C 2.007812 -13.34375 2.757812 -13.554688 3.5 -13.828125 C 4.25 -14.109375 4.929688 -14.4375 5.546875 -14.8125 L 6.796875 -14.8125 L 6.796875 -1.4375 L 10.421875 -1.4375 L 10.421875 0 Z M 1.046875 0 "/></g></g><g transform="translate(45.261451, 158.867156)"><g><path d="M 7.28125 0.21875 C 6.195312 0.21875 5.222656 -0.0390625 4.359375 -0.5625 C 3.492188 -1.09375 2.800781 -1.925781 2.28125 -3.0625 C 1.769531 -4.195312 1.515625 -5.644531 1.515625 -7.40625 C 1.515625 -9.164062 1.769531 -10.613281 2.28125 -11.75 C 2.800781 -12.882812 3.492188 -13.710938 4.359375 -14.234375 C 5.222656 -14.765625 6.195312 -15.03125 7.28125 -15.03125 C 8.375 -15.03125 9.351562 -14.765625 10.21875 -14.234375 C 11.082031 -13.710938 11.769531 -12.882812 12.28125 -11.75 C 12.789062 -10.613281 13.046875 -9.164062 13.046875 -7.40625 C 13.046875 -5.644531 12.789062 -4.195312 12.28125 -3.0625 C 11.769531 -1.925781 11.082031 -1.09375 10.21875 -0.5625 C 9.351562 -0.0390625 8.375 0.21875 7.28125 0.21875 Z M 7.28125 -1.390625 C 8.570312 -1.390625 9.550781 -1.851562 10.21875 -2.78125 C 10.882812 -3.71875 11.21875 -5.257812 11.21875 -7.40625 C 11.21875 -9.550781 10.882812 -11.085938 10.21875 -12.015625 C 9.550781 -12.953125 8.570312 -13.421875 7.28125 -13.421875 C 6.4375 -13.421875 5.722656 -13.222656 5.140625 -12.828125 C 4.554688 -12.429688 4.109375 -11.789062 3.796875 -10.90625 C 3.492188 -10.019531 3.34375 -8.851562 3.34375 -7.40625 C 3.34375 -5.957031 3.492188 -4.789062 3.796875 -3.90625 C 4.109375 -3.019531 4.554688 -2.378906 5.140625 -1.984375 C 5.722656 -1.585938 6.4375 -1.390625 7.28125 -1.390625 Z M 7.28125 -1.390625 "/></g></g><g transform="translate(59.831382, 158.867156)"><g><path d="M 7.28125 0.21875 C 6.195312 0.21875 5.222656 -0.0390625 4.359375 -0.5625 C 3.492188 -1.09375 2.800781 -1.925781 2.28125 -3.0625 C 1.769531 -4.195312 1.515625 -5.644531 1.515625 -7.40625 C 1.515625 -9.164062 1.769531 -10.613281 2.28125 -11.75 C 2.800781 -12.882812 3.492188 -13.710938 4.359375 -14.234375 C 5.222656 -14.765625 6.195312 -15.03125 7.28125 -15.03125 C 8.375 -15.03125 9.351562 -14.765625 10.21875 -14.234375 C 11.082031 -13.710938 11.769531 -12.882812 12.28125 -11.75 C 12.789062 -10.613281 13.046875 -9.164062 13.046875 -7.40625 C 13.046875 -5.644531 12.789062 -4.195312 12.28125 -3.0625 C 11.769531 -1.925781 11.082031 -1.09375 10.21875 -0.5625 C 9.351562 -0.0390625 8.375 0.21875 7.28125 0.21875 Z M 7.28125 -1.390625 C 8.570312 -1.390625 9.550781 -1.851562 10.21875 -2.78125 C 10.882812 -3.71875 11.21875 -5.257812 11.21875 -7.40625 C 11.21875 -9.550781 10.882812 -11.085938 10.21875 -12.015625 C 9.550781 -12.953125 8.570312 -13.421875 7.28125 -13.421875 C 6.4375 -13.421875 5.722656 -13.222656 5.140625 -12.828125 C 4.554688 -12.429688 4.109375 -11.789062 3.796875 -10.90625 C 3.492188 -10.019531 3.34375 -8.851562 3.34375 -7.40625 C 3.34375 -5.957031 3.492188 -4.789062 3.796875 -3.90625 C 4.109375 -3.019531 4.554688 -2.378906 5.140625 -1.984375 C 5.722656 -1.585938 6.4375 -1.390625 7.28125 -1.390625 Z M 7.28125 -1.390625 "/></g></g><g transform="translate(74.401314, 158.867156)"><g><path d="M 0.640625 3.09375 C 1.222656 2.707031 1.71875 2.257812 2.125 1.75 C 2.53125 1.25 2.738281 0.691406 2.75 0.078125 C 2.351562 0.078125 2.039062 -0.0234375 1.8125 -0.234375 C 1.59375 -0.453125 1.484375 -0.742188 1.484375 -1.109375 C 1.484375 -1.453125 1.59375 -1.738281 1.8125 -1.96875 C 2.03125 -2.195312 2.320312 -2.3125 2.6875 -2.3125 C 3.082031 -2.3125 3.398438 -2.171875 3.640625 -1.890625 C 3.890625 -1.617188 4.015625 -1.1875 4.015625 -0.59375 C 4.015625 0.46875 3.789062 1.359375 3.34375 2.078125 C 2.894531 2.796875 2.226562 3.453125 1.34375 4.046875 Z M 0.640625 3.09375 "/></g></g><g transform="translate(79.903033, 158.867156)"><g><path d="M 7.28125 0.21875 C 6.195312 0.21875 5.222656 -0.0390625 4.359375 -0.5625 C 3.492188 -1.09375 2.800781 -1.925781 2.28125 -3.0625 C 1.769531 -4.195312 1.515625 -5.644531 1.515625 -7.40625 C 1.515625 -9.164062 1.769531 -10.613281 2.28125 -11.75 C 2.800781 -12.882812 3.492188 -13.710938 4.359375 -14.234375 C 5.222656 -14.765625 6.195312 -15.03125 7.28125 -15.03125 C 8.375 -15.03125 9.351562 -14.765625 10.21875 -14.234375 C 11.082031 -13.710938 11.769531 -12.882812 12.28125 -11.75 C 12.789062 -10.613281 13.046875 -9.164062 13.046875 -7.40625 C 13.046875 -5.644531 12.789062 -4.195312 12.28125 -3.0625 C 11.769531 -1.925781 11.082031 -1.09375 10.21875 -0.5625 C 9.351562 -0.0390625 8.375 0.21875 7.28125 0.21875 Z M 7.28125 -1.390625 C 8.570312 -1.390625 9.550781 -1.851562 10.21875 -2.78125 C 10.882812 -3.71875 11.21875 -5.257812 11.21875 -7.40625 C 11.21875 -9.550781 10.882812 -11.085938 10.21875 -12.015625 C 9.550781 -12.953125 8.570312 -13.421875 7.28125 -13.421875 C 6.4375 -13.421875 5.722656 -13.222656 5.140625 -12.828125 C 4.554688 -12.429688 4.109375 -11.789062 3.796875 -10.90625 C 3.492188 -10.019531 3.34375 -8.851562 3.34375 -7.40625 C 3.34375 -5.957031 3.492188 -4.789062 3.796875 -3.90625 C 4.109375 -3.019531 4.554688 -2.378906 5.140625 -1.984375 C 5.722656 -1.585938 6.4375 -1.390625 7.28125 -1.390625 Z M 7.28125 -1.390625 "/></g></g><g transform="translate(94.472965, 158.867156)"><g><path d="M 7.28125 0.21875 C 6.195312 0.21875 5.222656 -0.0390625 4.359375 -0.5625 C 3.492188 -1.09375 2.800781 -1.925781 2.28125 -3.0625 C 1.769531 -4.195312 1.515625 -5.644531 1.515625 -7.40625 C 1.515625 -9.164062 1.769531 -10.613281 2.28125 -11.75 C 2.800781 -12.882812 3.492188 -13.710938 4.359375 -14.234375 C 5.222656 -14.765625 6.195312 -15.03125 7.28125 -15.03125 C 8.375 -15.03125 9.351562 -14.765625 10.21875 -14.234375 C 11.082031 -13.710938 11.769531 -12.882812 12.28125 -11.75 C 12.789062 -10.613281 13.046875 -9.164062 13.046875 -7.40625 C 13.046875 -5.644531 12.789062 -4.195312 12.28125 -3.0625 C 11.769531 -1.925781 11.082031 -1.09375 10.21875 -0.5625 C 9.351562 -0.0390625 8.375 0.21875 7.28125 0.21875 Z M 7.28125 -1.390625 C 8.570312 -1.390625 9.550781 -1.851562 10.21875 -2.78125 C 10.882812 -3.71875 11.21875 -5.257812 11.21875 -7.40625 C 11.21875 -9.550781 10.882812 -11.085938 10.21875 -12.015625 C 9.550781 -12.953125 8.570312 -13.421875 7.28125 -13.421875 C 6.4375 -13.421875 5.722656 -13.222656 5.140625 -12.828125 C 4.554688 -12.429688 4.109375 -11.789062 3.796875 -10.90625 C 3.492188 -10.019531 3.34375 -8.851562 3.34375 -7.40625 C 3.34375 -5.957031 3.492188 -4.789062 3.796875 -3.90625 C 4.109375 -3.019531 4.554688 -2.378906 5.140625 -1.984375 C 5.722656 -1.585938 6.4375 -1.390625 7.28125 -1.390625 Z M 7.28125 -1.390625 "/></g></g><g transform="translate(109.042896, 158.867156)"><g><path d="M 7.28125 0.21875 C 6.195312 0.21875 5.222656 -0.0390625 4.359375 -0.5625 C 3.492188 -1.09375 2.800781 -1.925781 2.28125 -3.0625 C 1.769531 -4.195312 1.515625 -5.644531 1.515625 -7.40625 C 1.515625 -9.164062 1.769531 -10.613281 2.28125 -11.75 C 2.800781 -12.882812 3.492188 -13.710938 4.359375 -14.234375 C 5.222656 -14.765625 6.195312 -15.03125 7.28125 -15.03125 C 8.375 -15.03125 9.351562 -14.765625 10.21875 -14.234375 C 11.082031 -13.710938 11.769531 -12.882812 12.28125 -11.75 C 12.789062 -10.613281 13.046875 -9.164062 13.046875 -7.40625 C 13.046875 -5.644531 12.789062 -4.195312 12.28125 -3.0625 C 11.769531 -1.925781 11.082031 -1.09375 10.21875 -0.5625 C 9.351562 -0.0390625 8.375 0.21875 7.28125 0.21875 Z M 7.28125 -1.390625 C 8.570312 -1.390625 9.550781 -1.851562 10.21875 -2.78125 C 10.882812 -3.71875 11.21875 -5.257812 11.21875 -7.40625 C 11.21875 -9.550781 10.882812 -11.085938 10.21875 -12.015625 C 9.550781 -12.953125 8.570312 -13.421875 7.28125 -13.421875 C 6.4375 -13.421875 5.722656 -13.222656 5.140625 -12.828125 C 4.554688 -12.429688 4.109375 -11.789062 3.796875 -10.90625 C 3.492188 -10.019531 3.34375 -8.851562 3.34375 -7.40625 C 3.34375 -5.957031 3.492188 -4.789062 3.796875 -3.90625 C 4.109375 -3.019531 4.554688 -2.378906 5.140625 -1.984375 C 5.722656 -1.585938 6.4375 -1.390625 7.28125 -1.390625 Z M 7.28125 -1.390625 "/></g></g><g transform="translate(123.612827, 158.867156)"><g/></g><g transform="translate(128.699131, 158.867156)"><g><path d="M 10.65625 -5.203125 L 2.96875 -5.203125 C 3.019531 -3.847656 3.347656 -2.851562 3.953125 -2.21875 C 4.554688 -1.582031 5.382812 -1.265625 6.4375 -1.265625 C 7.226562 -1.265625 7.867188 -1.40625 8.359375 -1.6875 C 8.847656 -1.976562 9.226562 -2.425781 9.5 -3.03125 L 9.71875 -3.03125 L 10.796875 -2.390625 C 10.460938 -1.578125 9.941406 -0.9375 9.234375 -0.46875 C 8.523438 -0.0078125 7.59375 0.21875 6.4375 0.21875 C 5.351562 0.21875 4.421875 0.00390625 3.640625 -0.421875 C 2.867188 -0.847656 2.269531 -1.492188 1.84375 -2.359375 C 1.425781 -3.222656 1.21875 -4.296875 1.21875 -5.578125 C 1.21875 -6.847656 1.4375 -7.914062 1.875 -8.78125 C 2.320312 -9.65625 2.929688 -10.304688 3.703125 -10.734375 C 4.472656 -11.171875 5.347656 -11.390625 6.328125 -11.390625 C 7.765625 -11.390625 8.882812 -10.984375 9.6875 -10.171875 C 10.488281 -9.367188 10.894531 -8.171875 10.90625 -6.578125 C 10.90625 -5.960938 10.890625 -5.546875 10.859375 -5.328125 Z M 9.265625 -6.578125 C 9.242188 -7.773438 8.984375 -8.640625 8.484375 -9.171875 C 7.984375 -9.710938 7.265625 -9.984375 6.328125 -9.984375 C 5.347656 -9.984375 4.578125 -9.710938 4.015625 -9.171875 C 3.460938 -8.628906 3.128906 -7.765625 3.015625 -6.578125 Z M 9.265625 -6.578125 "/></g></g><g transform="translate(140.614458, 158.867156)"><g><path d="M 2.234375 0 L 2.234375 -14.8125 L 7.859375 -14.8125 C 8.765625 -14.8125 9.535156 -14.664062 10.171875 -14.375 C 10.804688 -14.082031 11.285156 -13.664062 11.609375 -13.125 C 11.929688 -12.59375 12.09375 -11.957031 12.09375 -11.21875 C 12.09375 -10.570312 11.914062 -9.988281 11.5625 -9.46875 C 11.21875 -8.945312 10.722656 -8.539062 10.078125 -8.25 L 10.078125 -8.046875 C 11.054688 -7.804688 11.800781 -7.363281 12.3125 -6.71875 C 12.820312 -6.070312 13.078125 -5.265625 13.078125 -4.296875 C 13.078125 -2.921875 12.671875 -1.859375 11.859375 -1.109375 C 11.054688 -0.367188 9.863281 0 8.28125 0 Z M 7.765625 -8.59375 C 8.585938 -8.59375 9.222656 -8.804688 9.671875 -9.234375 C 10.128906 -9.660156 10.359375 -10.25 10.359375 -11 C 10.359375 -11.789062 10.140625 -12.382812 9.703125 -12.78125 C 9.265625 -13.175781 8.617188 -13.375 7.765625 -13.375 L 3.984375 -13.375 L 3.984375 -8.59375 Z M 8.140625 -1.4375 C 10.253906 -1.4375 11.3125 -2.390625 11.3125 -4.296875 C 11.3125 -6.203125 10.253906 -7.15625 8.140625 -7.15625 L 3.984375 -7.15625 L 3.984375 -1.4375 Z M 8.140625 -1.4375 "/></g></g><g transform="translate(154.870295, 158.867156)"><g><path d="M 6.40625 0.21875 C 5.351562 0.21875 4.4375 -0.00390625 3.65625 -0.453125 C 2.882812 -0.898438 2.285156 -1.554688 1.859375 -2.421875 C 1.429688 -3.296875 1.21875 -4.347656 1.21875 -5.578125 C 1.21875 -6.816406 1.429688 -7.867188 1.859375 -8.734375 C 2.285156 -9.609375 2.882812 -10.269531 3.65625 -10.71875 C 4.4375 -11.164062 5.351562 -11.390625 6.40625 -11.390625 C 7.46875 -11.390625 8.382812 -11.164062 9.15625 -10.71875 C 9.9375 -10.269531 10.535156 -9.609375 10.953125 -8.734375 C 11.378906 -7.867188 11.59375 -6.816406 11.59375 -5.578125 C 11.59375 -4.347656 11.378906 -3.296875 10.953125 -2.421875 C 10.535156 -1.554688 9.9375 -0.898438 9.15625 -0.453125 C 8.382812 -0.00390625 7.46875 0.21875 6.40625 0.21875 Z M 6.40625 -1.265625 C 7.519531 -1.265625 8.375 -1.613281 8.96875 -2.3125 C 9.5625 -3.019531 9.859375 -4.109375 9.859375 -5.578125 C 9.859375 -7.054688 9.5625 -8.144531 8.96875 -8.84375 C 8.375 -9.550781 7.519531 -9.90625 6.40625 -9.90625 C 5.289062 -9.90625 4.4375 -9.550781 3.84375 -8.84375 C 3.25 -8.144531 2.953125 -7.054688 2.953125 -5.578125 C 2.953125 -4.109375 3.25 -3.019531 3.84375 -2.3125 C 4.4375 -1.613281 5.289062 -1.265625 6.40625 -1.265625 Z M 6.40625 -1.265625 "/></g></g><g transform="translate(167.697508, 158.867156)"><g><path d="M 6.40625 0.21875 C 5.351562 0.21875 4.4375 -0.00390625 3.65625 -0.453125 C 2.882812 -0.898438 2.285156 -1.554688 1.859375 -2.421875 C 1.429688 -3.296875 1.21875 -4.347656 1.21875 -5.578125 C 1.21875 -6.816406 1.429688 -7.867188 1.859375 -8.734375 C 2.285156 -9.609375 2.882812 -10.269531 3.65625 -10.71875 C 4.4375 -11.164062 5.351562 -11.390625 6.40625 -11.390625 C 7.46875 -11.390625 8.382812 -11.164062 9.15625 -10.71875 C 9.9375 -10.269531 10.535156 -9.609375 10.953125 -8.734375 C 11.378906 -7.867188 11.59375 -6.816406 11.59375 -5.578125 C 11.59375 -4.347656 11.378906 -3.296875 10.953125 -2.421875 C 10.535156 -1.554688 9.9375 -0.898438 9.15625 -0.453125 C 8.382812 -0.00390625 7.46875 0.21875 6.40625 0.21875 Z M 6.40625 -1.265625 C 7.519531 -1.265625 8.375 -1.613281 8.96875 -2.3125 C 9.5625 -3.019531 9.859375 -4.109375 9.859375 -5.578125 C 9.859375 -7.054688 9.5625 -8.144531 8.96875 -8.84375 C 8.375 -9.550781 7.519531 -9.90625 6.40625 -9.90625 C 5.289062 -9.90625 4.4375 -9.550781 3.84375 -8.84375 C 3.25 -8.144531 2.953125 -7.054688 2.953125 -5.578125 C 2.953125 -4.109375 3.25 -3.019531 3.84375 -2.3125 C 4.4375 -1.613281 5.289062 -1.265625 6.40625 -1.265625 Z M 6.40625 -1.265625 "/></g></g><g transform="translate(180.524721, 158.867156)"><g><path d="M 1.953125 0 L 1.953125 -15.65625 L 3.59375 -15.65625 L 3.59375 -6.515625 L 3.875 -6.515625 L 8.03125 -11.171875 L 9.75 -11.171875 L 9.75 -10.9375 L 5.328125 -5.921875 L 10.1875 -0.25 L 10.1875 0 L 8.34375 0 L 3.875 -5.171875 L 3.59375 -5.171875 L 3.59375 0 Z M 1.953125 0 "/></g></g><g transform="translate(190.920236, 158.867156)"><g><path d="M 5.09375 0.21875 C 4.394531 0.21875 3.742188 0.125 3.140625 -0.0625 C 2.546875 -0.25 2.039062 -0.503906 1.625 -0.828125 C 1.21875 -1.148438 0.929688 -1.515625 0.765625 -1.921875 L 1.734375 -2.9375 L 1.953125 -2.9375 C 2.316406 -2.382812 2.753906 -1.96875 3.265625 -1.6875 C 3.773438 -1.40625 4.382812 -1.265625 5.09375 -1.265625 C 5.914062 -1.265625 6.539062 -1.425781 6.96875 -1.75 C 7.40625 -2.070312 7.625 -2.519531 7.625 -3.09375 C 7.625 -3.53125 7.492188 -3.890625 7.234375 -4.171875 C 6.972656 -4.460938 6.550781 -4.679688 5.96875 -4.828125 L 4.078125 -5.28125 C 3.078125 -5.53125 2.34375 -5.914062 1.875 -6.4375 C 1.414062 -6.96875 1.1875 -7.625 1.1875 -8.40625 C 1.1875 -9.007812 1.34375 -9.535156 1.65625 -9.984375 C 1.96875 -10.429688 2.414062 -10.773438 3 -11.015625 C 3.582031 -11.265625 4.273438 -11.390625 5.078125 -11.390625 C 6.097656 -11.390625 6.90625 -11.242188 7.5 -10.953125 C 8.09375 -10.671875 8.554688 -10.269531 8.890625 -9.75 L 7.953125 -8.84375 L 7.75 -8.84375 C 7.394531 -9.257812 7.003906 -9.554688 6.578125 -9.734375 C 6.160156 -9.921875 5.660156 -10.015625 5.078125 -10.015625 C 4.335938 -10.015625 3.769531 -9.878906 3.375 -9.609375 C 2.988281 -9.347656 2.796875 -8.96875 2.796875 -8.46875 C 2.796875 -8.019531 2.929688 -7.65625 3.203125 -7.375 C 3.484375 -7.09375 3.96875 -6.867188 4.65625 -6.703125 L 6.515625 -6.265625 C 7.484375 -6.035156 8.179688 -5.648438 8.609375 -5.109375 C 9.046875 -4.578125 9.265625 -3.910156 9.265625 -3.109375 C 9.265625 -2.453125 9.109375 -1.875 8.796875 -1.375 C 8.492188 -0.875 8.023438 -0.484375 7.390625 -0.203125 C 6.765625 0.078125 6 0.21875 5.09375 0.21875 Z M 5.09375 0.21875 "/></g></g></g></svg>