<svg xmlns="http://www.w3.org/2000/svg" xmlns:xlink="http://www.w3.org/1999/xlink" width="300" zoomAndPan="magnify" viewBox="0 0 224.87999 225" height="300" preserveAspectRatio="xMidYMid meet" version="1.0"><defs><g/><clipPath id="195a9e3b59"><path d="M 60.957031 38 L 163.652344 38 L 163.652344 132 L 60.957031 132 Z M 60.957031 38 " clip-rule="nonzero"/></clipPath></defs><g fill="#000000" fill-opacity="1"><g transform="translate(15.128645, 158.867156)"><g><path d="M 7.078125 0.21875 C 6.023438 0.21875 5.082031 -0.03125 4.25 -0.53125 C 3.425781 -1.039062 2.765625 -1.863281 2.265625 -3 C 1.765625 -4.132812 1.515625 -5.601562 1.515625 -7.40625 C 1.515625 -9.15625 1.765625 -10.597656 2.265625 -11.734375 C 2.765625 -12.867188 3.441406 -13.703125 4.296875 -14.234375 C 5.148438 -14.765625 6.128906 -15.03125 7.234375 -15.03125 C 9.128906 -15.03125 10.523438 -14.453125 11.421875 -13.296875 L 10.578125 -12.140625 L 10.328125 -12.140625 C 9.597656 -13.023438 8.566406 -13.46875 7.234375 -13.46875 C 5.953125 -13.46875 4.972656 -12.984375 4.296875 -12.015625 C 3.617188 -11.046875 3.28125 -9.492188 3.28125 -7.359375 L 3.5 -7.3125 C 3.90625 -8.144531 4.429688 -8.769531 5.078125 -9.1875 C 5.722656 -9.601562 6.519531 -9.8125 7.46875 -9.8125 C 8.40625 -9.8125 9.21875 -9.613281 9.90625 -9.21875 C 10.59375 -8.820312 11.117188 -8.242188 11.484375 -7.484375 C 11.847656 -6.734375 12.03125 -5.847656 12.03125 -4.828125 C 12.03125 -3.796875 11.828125 -2.898438 11.421875 -2.140625 C 11.015625 -1.390625 10.4375 -0.804688 9.6875 -0.390625 C 8.945312 0.015625 8.078125 0.21875 7.078125 0.21875 Z M 7.078125 -1.359375 C 8.054688 -1.359375 8.820312 -1.65625 9.375 -2.25 C 9.925781 -2.84375 10.203125 -3.703125 10.203125 -4.828125 C 10.203125 -5.953125 9.925781 -6.8125 9.375 -7.40625 C 8.820312 -8 8.054688 -8.296875 7.078125 -8.296875 C 6.398438 -8.296875 5.816406 -8.160156 5.328125 -7.890625 C 4.835938 -7.617188 4.457031 -7.222656 4.1875 -6.703125 C 3.925781 -6.179688 3.796875 -5.554688 3.796875 -4.828125 C 3.796875 -4.097656 3.925781 -3.472656 4.1875 -2.953125 C 4.457031 -2.429688 4.835938 -2.035156 5.328125 -1.765625 C 5.816406 -1.492188 6.398438 -1.359375 7.078125 -1.359375 Z M 7.078125 -1.359375 "/></g></g><g transform="translate(28.472594, 158.867156)"><g><path d="M 6.15625 -8.109375 L 9.78125 -8.109375 L 9.78125 -6.703125 L 6.15625 -6.703125 L 6.15625 -3.046875 L 4.6875 -3.046875 L 4.6875 -6.703125 L 1.046875 -6.703125 L 1.046875 -8.109375 L 4.6875 -8.109375 L 4.6875 -11.765625 L 6.15625 -11.765625 Z M 6.15625 -8.109375 "/></g></g><g transform="translate(39.293656, 158.867156)"><g/></g><g transform="translate(44.37996, 158.867156)"><g><path d="M 3.84375 0 L 2.234375 0 L 2.234375 -14.8125 L 4.828125 -14.8125 L 9.3125 -2.265625 L 9.53125 -2.265625 L 14.015625 -14.8125 L 16.5 -14.8125 L 16.5 0 L 14.859375 0 L 14.859375 -12.09375 L 14.59375 -12.125 L 10.21875 0 L 8.484375 0 L 4.109375 -12.125 L 3.84375 -12.09375 Z M 3.84375 0 "/></g></g><g transform="translate(63.134441, 158.867156)"><g><path d="M 2.78125 -13.328125 C 2.425781 -13.328125 2.140625 -13.4375 1.921875 -13.65625 C 1.703125 -13.875 1.59375 -14.15625 1.59375 -14.5 C 1.59375 -14.832031 1.703125 -15.109375 1.921875 -15.328125 C 2.140625 -15.546875 2.425781 -15.65625 2.78125 -15.65625 C 3.125 -15.65625 3.40625 -15.546875 3.625 -15.328125 C 3.851562 -15.109375 3.96875 -14.832031 3.96875 -14.5 C 3.96875 -14.15625 3.851562 -13.875 3.625 -13.65625 C 3.40625 -13.4375 3.125 -13.328125 2.78125 -13.328125 Z M 1.953125 0 L 1.953125 -11.171875 L 3.59375 -11.171875 L 3.59375 0 Z M 1.953125 0 "/></g></g><g transform="translate(68.676688, 158.867156)"><g><path d="M 4.453125 0.21875 C 3.660156 0.21875 3.035156 -0.00390625 2.578125 -0.453125 C 2.128906 -0.910156 1.90625 -1.582031 1.90625 -2.46875 L 1.90625 -15.65625 L 3.5625 -15.65625 L 3.5625 -2.578125 C 3.5625 -2.117188 3.648438 -1.785156 3.828125 -1.578125 C 4.003906 -1.367188 4.28125 -1.265625 4.65625 -1.265625 C 4.882812 -1.265625 5.117188 -1.300781 5.359375 -1.375 L 5.5 -1.34375 L 5.6875 -0.046875 C 5.570312 0.0351562 5.398438 0.0976562 5.171875 0.140625 C 4.941406 0.191406 4.703125 0.21875 4.453125 0.21875 Z M 4.453125 0.21875 "/></g></g><g transform="translate(74.755937, 158.867156)"><g><path d="M 4.453125 0.21875 C 3.660156 0.21875 3.035156 -0.00390625 2.578125 -0.453125 C 2.128906 -0.910156 1.90625 -1.582031 1.90625 -2.46875 L 1.90625 -15.65625 L 3.5625 -15.65625 L 3.5625 -2.578125 C 3.5625 -2.117188 3.648438 -1.785156 3.828125 -1.578125 C 4.003906 -1.367188 4.28125 -1.265625 4.65625 -1.265625 C 4.882812 -1.265625 5.117188 -1.300781 5.359375 -1.375 L 5.5 -1.34375 L 5.6875 -0.046875 C 5.570312 0.0351562 5.398438 0.0976562 5.171875 0.140625 C 4.941406 0.191406 4.703125 0.21875 4.453125 0.21875 Z M 4.453125 0.21875 "/></g></g><g transform="translate(80.835185, 158.867156)"><g><path d="M 2.78125 -13.328125 C 2.425781 -13.328125 2.140625 -13.4375 1.921875 -13.65625 C 1.703125 -13.875 1.59375 -14.15625 1.59375 -14.5 C 1.59375 -14.832031 1.703125 -15.109375 1.921875 -15.328125 C 2.140625 -15.546875 2.425781 -15.65625 2.78125 -15.65625 C 3.125 -15.65625 3.40625 -15.546875 3.625 -15.328125 C 3.851562 -15.109375 3.96875 -14.832031 3.96875 -14.5 C 3.96875 -14.15625 3.851562 -13.875 3.625 -13.65625 C 3.40625 -13.4375 3.125 -13.328125 2.78125 -13.328125 Z M 1.953125 0 L 1.953125 -11.171875 L 3.59375 -11.171875 L 3.59375 0 Z M 1.953125 0 "/></g></g><g transform="translate(86.377432, 158.867156)"><g><path d="M 6.40625 0.21875 C 5.351562 0.21875 4.4375 -0.00390625 3.65625 -0.453125 C 2.882812 -0.898438 2.285156 -1.554688 1.859375 -2.421875 C 1.429688 -3.296875 1.21875 -4.347656 1.21875 -5.578125 C 1.21875 -6.816406 1.429688 -7.867188 1.859375 -8.734375 C 2.285156 -9.609375 2.882812 -10.269531 3.65625 -10.71875 C 4.4375 -11.164062 5.351562 -11.390625 6.40625 -11.390625 C 7.46875 -11.390625 8.382812 -11.164062 9.15625 -10.71875 C 9.9375 -10.269531 10.535156 -9.609375 10.953125 -8.734375 C 11.378906 -7.867188 11.59375 -6.816406 11.59375 -5.578125 C 11.59375 -4.347656 11.378906 -3.296875 10.953125 -2.421875 C 10.535156 -1.554688 9.9375 -0.898438 9.15625 -0.453125 C 8.382812 -0.00390625 7.46875 0.21875 6.40625 0.21875 Z M 6.40625 -1.265625 C 7.519531 -1.265625 8.375 -1.613281 8.96875 -2.3125 C 9.5625 -3.019531 9.859375 -4.109375 9.859375 -5.578125 C 9.859375 -7.054688 9.5625 -8.144531 8.96875 -8.84375 C 8.375 -9.550781 7.519531 -9.90625 6.40625 -9.90625 C 5.289062 -9.90625 4.4375 -9.550781 3.84375 -8.84375 C 3.25 -8.144531 2.953125 -7.054688 2.953125 -5.578125 C 2.953125 -4.109375 3.25 -3.019531 3.84375 -2.3125 C 4.4375 -1.613281 5.289062 -1.265625 6.40625 -1.265625 Z M 6.40625 -1.265625 "/></g></g><g transform="translate(99.204646, 158.867156)"><g><path d="M 1.953125 0 L 1.953125 -11.171875 L 3.515625 -11.171875 L 3.515625 -9.421875 L 3.734375 -9.375 C 4.097656 -10.03125 4.566406 -10.53125 5.140625 -10.875 C 5.722656 -11.21875 6.429688 -11.390625 7.265625 -11.390625 C 8.609375 -11.390625 9.582031 -11.046875 10.1875 -10.359375 C 10.789062 -9.671875 11.09375 -8.613281 11.09375 -7.1875 L 11.09375 0 L 9.4375 0 L 9.4375 -7.15625 C 9.4375 -7.832031 9.347656 -8.375 9.171875 -8.78125 C 9.003906 -9.1875 8.738281 -9.484375 8.375 -9.671875 C 8.019531 -9.859375 7.546875 -9.953125 6.953125 -9.953125 C 5.953125 -9.953125 5.140625 -9.617188 4.515625 -8.953125 C 3.898438 -8.285156 3.59375 -7.210938 3.59375 -5.734375 L 3.59375 0 Z M 1.953125 0 "/></g></g><g transform="translate(112.072388, 158.867156)"><g/></g><g transform="translate(117.158692, 158.867156)"><g><path d="M 6.46875 0 L 4.1875 0 L 0.796875 -14.8125 L 2.515625 -14.8125 L 5.3125 -2.5625 L 5.5625 -2.5625 L 8.890625 -14.8125 L 10.5 -14.8125 L 13.8125 -2.5625 L 14.078125 -2.5625 L 16.875 -14.8125 L 18.546875 -14.8125 L 15.15625 0 L 12.875 0 L 9.78125 -11.21875 L 9.5625 -11.21875 Z M 6.46875 0 "/></g></g><g transform="translate(136.500833, 158.867156)"><g><path d="M 10.65625 -5.203125 L 2.96875 -5.203125 C 3.019531 -3.847656 3.347656 -2.851562 3.953125 -2.21875 C 4.554688 -1.582031 5.382812 -1.265625 6.4375 -1.265625 C 7.226562 -1.265625 7.867188 -1.40625 8.359375 -1.6875 C 8.847656 -1.976562 9.226562 -2.425781 9.5 -3.03125 L 9.71875 -3.03125 L 10.796875 -2.390625 C 10.460938 -1.578125 9.941406 -0.9375 9.234375 -0.46875 C 8.523438 -0.0078125 7.59375 0.21875 6.4375 0.21875 C 5.351562 0.21875 4.421875 0.00390625 3.640625 -0.421875 C 2.867188 -0.847656 2.269531 -1.492188 1.84375 -2.359375 C 1.425781 -3.222656 1.21875 -4.296875 1.21875 -5.578125 C 1.21875 -6.847656 1.4375 -7.914062 1.875 -8.78125 C 2.320312 -9.65625 2.929688 -10.304688 3.703125 -10.734375 C 4.472656 -11.171875 5.347656 -11.390625 6.328125 -11.390625 C 7.765625 -11.390625 8.882812 -10.984375 9.6875 -10.171875 C 10.488281 -9.367188 10.894531 -8.171875 10.90625 -6.578125 C 10.90625 -5.960938 10.890625 -5.546875 10.859375 -5.328125 Z M 9.265625 -6.578125 C 9.242188 -7.773438 8.984375 -8.640625 8.484375 -9.171875 C 7.984375 -9.710938 7.265625 -9.984375 6.328125 -9.984375 C 5.347656 -9.984375 4.578125 -9.710938 4.015625 -9.171875 C 3.460938 -8.628906 3.128906 -7.765625 3.015625 -6.578125 Z M 9.265625 -6.578125 "/></g></g><g transform="translate(148.416159, 158.867156)"><g><path d="M 7.421875 0.21875 C 6.597656 0.21875 5.878906 0.0546875 5.265625 -0.265625 C 4.648438 -0.585938 4.164062 -1.015625 3.8125 -1.546875 L 3.59375 -1.5 L 3.59375 0 L 1.953125 0 L 1.953125 -15.65625 L 3.59375 -15.65625 L 3.59375 -9.5 L 3.8125 -9.46875 C 4.664062 -10.75 5.898438 -11.390625 7.515625 -11.390625 C 8.429688 -11.390625 9.234375 -11.175781 9.921875 -10.75 C 10.617188 -10.320312 11.15625 -9.671875 11.53125 -8.796875 C 11.914062 -7.929688 12.109375 -6.859375 12.109375 -5.578125 C 12.109375 -4.304688 11.90625 -3.238281 11.5 -2.375 C 11.101562 -1.507812 10.550781 -0.859375 9.84375 -0.421875 C 9.144531 0.00390625 8.335938 0.21875 7.421875 0.21875 Z M 7.03125 -1.265625 C 9.257812 -1.265625 10.375 -2.703125 10.375 -5.578125 C 10.375 -7.078125 10.082031 -8.171875 9.5 -8.859375 C 8.914062 -9.554688 8.09375 -9.90625 7.03125 -9.90625 C 5.988281 -9.90625 5.15625 -9.546875 4.53125 -8.828125 C 3.90625 -8.117188 3.59375 -7.035156 3.59375 -5.578125 C 3.59375 -4.128906 3.90625 -3.046875 4.53125 -2.328125 C 5.15625 -1.617188 5.988281 -1.265625 7.03125 -1.265625 Z M 7.03125 -1.265625 "/></g></g><g transform="translate(161.749977, 158.867156)"><g><path d="M 1.953125 4.53125 L 1.953125 -11.171875 L 3.59375 -11.171875 L 3.59375 -9.5 L 3.8125 -9.46875 C 4.644531 -10.75 5.863281 -11.390625 7.46875 -11.390625 C 8.394531 -11.390625 9.207031 -11.175781 9.90625 -10.75 C 10.601562 -10.320312 11.144531 -9.671875 11.53125 -8.796875 C 11.914062 -7.929688 12.109375 -6.859375 12.109375 -5.578125 C 12.109375 -4.304688 11.90625 -3.238281 11.5 -2.375 C 11.09375 -1.507812 10.53125 -0.859375 9.8125 -0.421875 C 9.101562 0.00390625 8.28125 0.21875 7.34375 0.21875 C 6.582031 0.21875 5.910156 0.0859375 5.328125 -0.171875 C 4.742188 -0.441406 4.238281 -0.878906 3.8125 -1.484375 L 3.59375 -1.4375 L 3.59375 4.53125 Z M 6.984375 -1.265625 C 9.242188 -1.265625 10.375 -2.703125 10.375 -5.578125 C 10.375 -8.460938 9.242188 -9.90625 6.984375 -9.90625 C 6.316406 -9.90625 5.726562 -9.753906 5.21875 -9.453125 C 4.71875 -9.148438 4.320312 -8.675781 4.03125 -8.03125 C 3.738281 -7.382812 3.59375 -6.566406 3.59375 -5.578125 C 3.59375 -4.597656 3.738281 -3.785156 4.03125 -3.140625 C 4.320312 -2.492188 4.71875 -2.019531 5.21875 -1.71875 C 5.726562 -1.414062 6.316406 -1.265625 6.984375 -1.265625 Z M 6.984375 -1.265625 "/></g></g><g transform="translate(175.083794, 158.867156)"><g><path d="M 4.609375 0.21875 C 3.503906 0.21875 2.644531 -0.0664062 2.03125 -0.640625 C 1.414062 -1.222656 1.109375 -2.046875 1.109375 -3.109375 C 1.109375 -3.773438 1.242188 -4.332031 1.515625 -4.78125 C 1.785156 -5.238281 2.207031 -5.609375 2.78125 -5.890625 C 3.351562 -6.179688 4.101562 -6.40625 5.03125 -6.5625 C 5.84375 -6.695312 6.457031 -6.847656 6.875 -7.015625 C 7.300781 -7.191406 7.585938 -7.382812 7.734375 -7.59375 C 7.878906 -7.800781 7.953125 -8.0625 7.953125 -8.375 C 7.953125 -8.882812 7.773438 -9.273438 7.421875 -9.546875 C 7.078125 -9.816406 6.519531 -9.953125 5.75 -9.953125 C 5.03125 -9.953125 4.410156 -9.8125 3.890625 -9.53125 C 3.378906 -9.25 2.90625 -8.832031 2.46875 -8.28125 L 2.265625 -8.28125 L 1.453125 -9.421875 C 1.929688 -10.023438 2.535156 -10.503906 3.265625 -10.859375 C 3.992188 -11.210938 4.820312 -11.390625 5.75 -11.390625 C 7.070312 -11.390625 8.046875 -11.097656 8.671875 -10.515625 C 9.296875 -9.941406 9.609375 -9.144531 9.609375 -8.125 L 9.609375 -2.203125 C 9.609375 -1.578125 9.867188 -1.265625 10.390625 -1.265625 C 10.566406 -1.265625 10.738281 -1.296875 10.90625 -1.359375 L 11.046875 -1.3125 L 11.234375 -0.171875 C 11.109375 -0.0859375 10.945312 -0.0234375 10.75 0.015625 C 10.550781 0.0546875 10.347656 0.078125 10.140625 0.078125 C 9.523438 0.078125 9.0625 -0.0546875 8.75 -0.328125 C 8.4375 -0.597656 8.234375 -0.992188 8.140625 -1.515625 L 7.9375 -1.546875 C 7.613281 -0.953125 7.179688 -0.507812 6.640625 -0.21875 C 6.109375 0.0703125 5.429688 0.21875 4.609375 0.21875 Z M 4.96875 -1.109375 C 5.59375 -1.109375 6.132812 -1.25 6.59375 -1.53125 C 7.050781 -1.820312 7.398438 -2.226562 7.640625 -2.75 C 7.878906 -3.269531 8 -3.867188 8 -4.546875 L 8 -5.96875 L 7.8125 -6.015625 C 7.5625 -5.835938 7.253906 -5.6875 6.890625 -5.5625 C 6.535156 -5.445312 6.039062 -5.34375 5.40625 -5.25 C 4.75 -5.15625 4.226562 -5.015625 3.84375 -4.828125 C 3.46875 -4.648438 3.195312 -4.421875 3.03125 -4.140625 C 2.875 -3.867188 2.796875 -3.523438 2.796875 -3.109375 C 2.796875 -2.453125 2.988281 -1.953125 3.375 -1.609375 C 3.757812 -1.273438 4.289062 -1.109375 4.96875 -1.109375 Z M 4.96875 -1.109375 "/></g></g><g transform="translate(186.644498, 158.867156)"><g><path d="M 5.75 4.734375 C 3.988281 4.734375 2.703125 4.441406 1.890625 3.859375 C 1.078125 3.273438 0.671875 2.492188 0.671875 1.515625 C 0.671875 0.890625 0.859375 0.390625 1.234375 0.015625 C 1.617188 -0.347656 2.171875 -0.613281 2.890625 -0.78125 L 2.890625 -1 C 2.546875 -1.1875 2.285156 -1.410156 2.109375 -1.671875 C 1.941406 -1.941406 1.859375 -2.257812 1.859375 -2.625 C 1.859375 -3.050781 1.992188 -3.398438 2.265625 -3.671875 C 2.546875 -3.941406 2.957031 -4.148438 3.5 -4.296875 L 3.5 -4.515625 C 2.28125 -5.148438 1.671875 -6.191406 1.671875 -7.640625 C 1.671875 -8.367188 1.835938 -9.015625 2.171875 -9.578125 C 2.503906 -10.148438 2.976562 -10.59375 3.59375 -10.90625 C 4.207031 -11.226562 4.921875 -11.390625 5.734375 -11.390625 C 6.671875 -11.390625 7.453125 -11.179688 8.078125 -10.765625 C 8.316406 -11.035156 8.492188 -11.316406 8.609375 -11.609375 C 8.734375 -11.910156 8.8125 -12.253906 8.84375 -12.640625 L 9.0625 -12.765625 L 10.421875 -12.4375 C 10.347656 -11.875 10.175781 -11.394531 9.90625 -11 C 9.632812 -10.613281 9.25 -10.289062 8.75 -10.03125 L 8.75 -9.8125 C 9.101562 -9.53125 9.363281 -9.195312 9.53125 -8.8125 C 9.707031 -8.4375 9.796875 -7.992188 9.796875 -7.484375 C 9.796875 -6.785156 9.625 -6.15625 9.28125 -5.59375 C 8.945312 -5.03125 8.472656 -4.585938 7.859375 -4.265625 C 7.242188 -3.953125 6.535156 -3.796875 5.734375 -3.796875 C 5.640625 -3.796875 5.472656 -3.800781 5.234375 -3.8125 C 4.960938 -3.820312 4.757812 -3.828125 4.625 -3.828125 C 4.28125 -3.828125 4 -3.734375 3.78125 -3.546875 C 3.570312 -3.367188 3.46875 -3.140625 3.46875 -2.859375 C 3.46875 -2.503906 3.582031 -2.242188 3.8125 -2.078125 C 4.039062 -1.910156 4.414062 -1.816406 4.9375 -1.796875 L 7.578125 -1.71875 C 8.722656 -1.675781 9.566406 -1.410156 10.109375 -0.921875 C 10.660156 -0.429688 10.9375 0.265625 10.9375 1.171875 C 10.9375 1.835938 10.757812 2.4375 10.40625 2.96875 C 10.050781 3.507812 9.484375 3.9375 8.703125 4.25 C 7.921875 4.570312 6.9375 4.734375 5.75 4.734375 Z M 5.734375 -5.203125 C 6.523438 -5.203125 7.132812 -5.40625 7.5625 -5.8125 C 8 -6.226562 8.21875 -6.8125 8.21875 -7.5625 C 8.21875 -8.332031 8.003906 -8.925781 7.578125 -9.34375 C 7.148438 -9.757812 6.535156 -9.96875 5.734375 -9.96875 C 4.941406 -9.96875 4.332031 -9.757812 3.90625 -9.34375 C 3.488281 -8.925781 3.28125 -8.332031 3.28125 -7.5625 C 3.28125 -6.8125 3.488281 -6.226562 3.90625 -5.8125 C 4.332031 -5.40625 4.941406 -5.203125 5.734375 -5.203125 Z M 5.75 3.328125 C 6.570312 3.328125 7.242188 3.234375 7.765625 3.046875 C 8.296875 2.867188 8.675781 2.628906 8.90625 2.328125 C 9.132812 2.023438 9.25 1.6875 9.25 1.3125 C 9.25 0.988281 9.1875 0.722656 9.0625 0.515625 C 8.9375 0.316406 8.734375 0.164062 8.453125 0.0625 C 8.179688 -0.0390625 7.804688 -0.101562 7.328125 -0.125 L 4.828125 -0.25 L 4.46875 -0.25 C 3.070312 -0.226562 2.375 0.3125 2.375 1.375 C 2.375 2.675781 3.5 3.328125 5.75 3.328125 Z M 5.75 3.328125 "/></g></g><g transform="translate(198.093749, 158.867156)"><g><path d="M 10.65625 -5.203125 L 2.96875 -5.203125 C 3.019531 -3.847656 3.347656 -2.851562 3.953125 -2.21875 C 4.554688 -1.582031 5.382812 -1.265625 6.4375 -1.265625 C 7.226562 -1.265625 7.867188 -1.40625 8.359375 -1.6875 C 8.847656 -1.976562 9.226562 -2.425781 9.5 -3.03125 L 9.71875 -3.03125 L 10.796875 -2.390625 C 10.460938 -1.578125 9.941406 -0.9375 9.234375 -0.46875 C 8.523438 -0.0078125 7.59375 0.21875 6.4375 0.21875 C 5.351562 0.21875 4.421875 0.00390625 3.640625 -0.421875 C 2.867188 -0.847656 2.269531 -1.492188 1.84375 -2.359375 C 1.425781 -3.222656 1.21875 -4.296875 1.21875 -5.578125 C 1.21875 -6.847656 1.4375 -7.914062 1.875 -8.78125 C 2.320312 -9.65625 2.929688 -10.304688 3.703125 -10.734375 C 4.472656 -11.171875 5.347656 -11.390625 6.328125 -11.390625 C 7.765625 -11.390625 8.882812 -10.984375 9.6875 -10.171875 C 10.488281 -9.367188 10.894531 -8.171875 10.90625 -6.578125 C 10.90625 -5.960938 10.890625 -5.546875 10.859375 -5.328125 Z M 9.265625 -6.578125 C 9.242188 -7.773438 8.984375 -8.640625 8.484375 -9.171875 C 7.984375 -9.710938 7.265625 -9.984375 6.328125 -9.984375 C 5.347656 -9.984375 4.578125 -9.710938 4.015625 -9.171875 C 3.460938 -8.628906 3.128906 -7.765625 3.015625 -6.578125 Z M 9.265625 -6.578125 "/></g></g><g transform="translate(210.009075, 158.867156)"><g><path d="M 5.09375 0.21875 C 4.394531 0.21875 3.742188 0.125 3.140625 -0.0625 C 2.546875 -0.25 2.039062 -0.503906 1.625 -0.828125 C 1.21875 -1.148438 0.929688 -1.515625 0.765625 -1.921875 L 1.734375 -2.9375 L 1.953125 -2.9375 C 2.316406 -2.382812 2.753906 -1.96875 3.265625 -1.6875 C 3.773438 -1.40625 4.382812 -1.265625 5.09375 -1.265625 C 5.914062 -1.265625 6.539062 -1.425781 6.96875 -1.75 C 7.40625 -2.070312 7.625 -2.519531 7.625 -3.09375 C 7.625 -3.53125 7.492188 -3.890625 7.234375 -4.171875 C 6.972656 -4.460938 6.550781 -4.679688 5.96875 -4.828125 L 4.078125 -5.28125 C 3.078125 -5.53125 2.34375 -5.914062 1.875 -6.4375 C 1.414062 -6.96875 1.1875 -7.625 1.1875 -8.40625 C 1.1875 -9.007812 1.34375 -9.535156 1.65625 -9.984375 C 1.96875 -10.429688 2.414062 -10.773438 3 -11.015625 C 3.582031 -11.265625 4.273438 -11.390625 5.078125 -11.390625 C 6.097656 -11.390625 6.90625 -11.242188 7.5 -10.953125 C 8.09375 -10.671875 8.554688 -10.269531 8.890625 -9.75 L 7.953125 -8.84375 L 7.75 -8.84375 C 7.394531 -9.257812 7.003906 -9.554688 6.578125 -9.734375 C 6.160156 -9.921875 5.660156 -10.015625 5.078125 -10.015625 C 4.335938 -10.015625 3.769531 -9.878906 3.375 -9.609375 C 2.988281 -9.347656 2.796875 -8.96875 2.796875 -8.46875 C 2.796875 -8.019531 2.929688 -7.65625 3.203125 -7.375 C 3.484375 -7.09375 3.96875 -6.867188 4.65625 -6.703125 L 6.515625 -6.265625 C 7.484375 -6.035156 8.179688 -5.648438 8.609375 -5.109375 C 9.046875 -4.578125 9.265625 -3.910156 9.265625 -3.109375 C 9.265625 -2.453125 9.109375 -1.875 8.796875 -1.375 C 8.492188 -0.875 8.023438 -0.484375 7.390625 -0.203125 C 6.765625 0.078125 6 0.21875 5.09375 0.21875 Z M 5.09375 0.21875 "/></g></g></g><g clip-path="url(#195a9e3b59)"><path fill="#000000" d="M 155.058594 51.761719 C 154.972656 51.628906 154.871094 51.527344 154.761719 51.429688 C 147.9375 43.375 137.789062 38.253906 126.472656 38.253906 C 115.152344 38.253906 105.003906 43.375 98.179688 51.429688 C 98.070312 51.527344 97.960938 51.640625 97.871094 51.761719 C 97.871094 51.773438 97.859375 51.785156 97.847656 51.804688 C 92.503906 58.285156 89.28125 66.605469 89.28125 75.671875 C 89.28125 78.371094 89.566406 81.003906 90.117188 83.535156 C 82.402344 82.179688 71.789062 81.824219 61.894531 86.667969 C 61.320312 86.949219 60.96875 87.523438 60.96875 88.167969 L 60.96875 130.320312 C 60.96875 130.898438 61.265625 131.433594 61.738281 131.730469 C 62.003906 131.898438 62.3125 131.988281 62.625 131.988281 C 62.867188 131.988281 63.121094 131.933594 63.351562 131.820312 C 80.046875 123.65625 99.8125 131.777344 100.011719 131.855469 C 100.046875 131.867188 100.078125 131.867188 100.113281 131.875 C 100.167969 131.898438 100.222656 131.910156 100.277344 131.921875 C 100.367188 131.941406 100.464844 131.953125 100.554688 131.964844 C 100.585938 131.964844 100.621094 131.976562 100.652344 131.976562 C 100.6875 131.976562 100.71875 131.976562 100.753906 131.976562 C 100.796875 131.976562 100.839844 131.976562 100.886719 131.964844 C 100.972656 131.953125 101.050781 131.933594 101.140625 131.910156 C 101.171875 131.898438 101.21875 131.886719 101.25 131.875 C 101.273438 131.875 101.28125 131.875 101.304688 131.855469 C 101.503906 131.765625 121.238281 123.632812 137.964844 131.820312 C 138.472656 132.078125 139.082031 132.042969 139.566406 131.730469 C 140.054688 131.433594 140.339844 130.898438 140.339844 130.320312 L 140.339844 110.367188 C 145.960938 108.089844 150.898438 104.46875 154.761719 99.914062 C 154.882812 99.8125 154.984375 99.703125 155.070312 99.570312 C 155.070312 99.558594 155.082031 99.546875 155.09375 99.523438 C 160.4375 93.046875 163.664062 84.726562 163.664062 75.660156 C 163.664062 66.59375 160.4375 58.285156 155.09375 51.796875 C 155.09375 51.785156 155.082031 51.773438 155.070312 51.75 Z M 151.097656 52.304688 C 149.882812 53.007812 148.589844 53.652344 147.207031 54.226562 C 145.453125 50.527344 143.253906 47.316406 140.726562 44.761719 C 144.648438 46.605469 148.160156 49.171875 151.097656 52.304688 Z M 128.117188 41.683594 C 134.675781 42.441406 140.449219 47.664062 144.148438 55.382812 C 139.347656 56.996094 133.847656 57.929688 128.117188 58.074219 Z M 128.117188 61.417969 C 134.300781 61.261719 140.253906 60.238281 145.464844 58.460938 C 147.207031 63.0625 148.28125 68.347656 148.457031 73.992188 L 128.117188 73.992188 Z M 124.804688 41.683594 L 124.804688 58.082031 C 119.0625 57.929688 113.574219 56.996094 108.769531 55.394531 C 112.480469 47.671875 118.246094 42.453125 124.804688 41.695312 Z M 104.464844 73.992188 C 104.640625 68.347656 105.710938 63.0625 107.457031 58.460938 C 112.667969 60.238281 118.621094 61.261719 124.804688 61.417969 L 124.804688 73.992188 Z M 124.804688 77.328125 L 124.804688 82.804688 C 116.984375 82.179688 109.851562 83.582031 105.257812 84.871094 C 104.816406 82.449219 104.539062 79.925781 104.464844 77.328125 Z M 112.191406 44.761719 C 109.664062 47.316406 107.46875 50.527344 105.710938 54.226562 C 104.34375 53.652344 103.039062 53.007812 101.824219 52.304688 C 104.761719 49.171875 108.273438 46.605469 112.191406 44.761719 Z M 99.636719 54.882812 C 101.105469 55.761719 102.707031 56.5625 104.398438 57.285156 C 102.488281 62.261719 101.328125 67.9375 101.152344 73.992188 L 92.636719 73.992188 C 92.980469 66.828125 95.542969 60.226562 99.636719 54.894531 Z M 98.984375 127.921875 C 95.519531 126.742188 88.507812 124.789062 80.347656 124.789062 C 75.246094 124.789062 69.691406 125.554688 64.269531 127.742188 L 64.269531 89.226562 C 78.578125 82.78125 94.8125 87.8125 98.984375 89.3125 L 98.984375 127.933594 Z M 100.644531 86.371094 C 99.527344 85.9375 97.054688 85.058594 93.695312 84.269531 C 93.113281 82.035156 92.757812 79.714844 92.636719 77.328125 L 101.152344 77.328125 C 101.238281 80.269531 101.558594 83.113281 102.089844 85.847656 C 101.480469 86.058594 100.996094 86.238281 100.644531 86.371094 Z M 137.015625 127.753906 C 122.90625 122.042969 107.941406 126.023438 102.300781 127.933594 L 102.300781 89.3125 C 106.472656 87.8125 122.707031 82.769531 137.015625 89.226562 Z M 139.402344 86.660156 C 135.679688 84.835938 131.859375 83.757812 128.128906 83.179688 L 128.128906 77.316406 L 148.46875 77.316406 C 148.289062 82.960938 147.21875 88.246094 145.476562 92.847656 C 143.828125 92.292969 142.105469 91.800781 140.328125 91.390625 L 140.328125 88.148438 C 140.328125 87.515625 139.964844 86.925781 139.402344 86.648438 Z M 140.328125 94.824219 C 141.644531 95.148438 142.933594 95.511719 144.171875 95.925781 C 143.066406 98.234375 141.777344 100.3125 140.328125 102.125 Z M 140.75 106.546875 C 143.277344 103.992188 145.476562 100.78125 147.230469 97.078125 C 148.601562 97.65625 149.902344 98.300781 151.117188 99 C 148.179688 102.136719 144.667969 104.703125 140.75 106.546875 Z M 153.304688 96.425781 C 151.835938 95.546875 150.234375 94.746094 148.546875 94.023438 C 150.457031 89.046875 151.613281 83.371094 151.792969 77.328125 L 160.304688 77.328125 C 159.964844 84.492188 157.402344 91.089844 153.304688 96.425781 Z M 151.792969 73.992188 C 151.613281 67.9375 150.457031 62.261719 148.546875 57.285156 C 150.234375 56.574219 151.835938 55.773438 153.304688 54.882812 C 157.402344 60.226562 159.964844 66.816406 160.304688 73.980469 L 151.792969 73.980469 Z M 151.792969 73.992188 " fill-opacity="1" fill-rule="nonzero"/></g></svg>